<svg width="103" height="92" viewBox="0 0 103 92" fill="none" xmlns="http://www.w3.org/2000/svg">
<path d="M58.6866 13.7331L25.3487 12.6416C25.1585 12.6354 25.0093 12.4761 25.0156 12.2859L25.2698 4.51528C25.2761 4.32503 25.4353 4.17585 25.6255 4.18207L58.9634 5.2735C59.1537 5.27972 59.3028 5.439 59.2966 5.62925L59.0423 13.3999C59.0361 13.5901 58.8768 13.7393 58.6866 13.7331Z" fill="#FF9F46"/>
<path d="M42.9492 18.6214L21.725 25.303C21.5434 25.3601 21.35 25.2593 21.2928 25.0777L19.788 20.2951C19.7308 20.1135 19.8317 19.92 20.0132 19.8629L41.2375 13.1813C41.419 13.1241 41.6125 13.225 41.6696 13.4066L43.1745 18.1891C43.2316 18.3707 43.1308 18.5642 42.9492 18.6214Z" fill="#E5DFDF"/>
<path d="M53.5767 23.7874L51.2426 16.3733C51.1872 16.1923 50.9915 16.0889 50.8105 16.148L18.9937 26.1627C18.8128 26.2218 18.7131 26.4138 18.7685 26.5949L20.8551 33.2294C20.8865 32.1862 20.4157 31.1159 20.6926 30.0932C20.8403 29.5575 21.2392 29.0699 21.7526 29.0108C22.4875 28.9221 23.0673 29.6794 23.4293 30.3813C23.9648 31.4267 24.3969 32.2727 24.5151 33.2996C24.5419 33.2912 23.4719 33.6298 53.3514 24.2196C53.5324 24.1642 53.6358 23.9684 53.5767 23.7874ZM43.631 27.0862C43.5128 27.0862 43.402 27.0123 43.365 26.8941L41.1381 19.8088C41.0257 19.4629 41.551 19.2881 41.6662 19.6426L43.8932 26.7279C43.9508 26.9008 43.8209 27.0862 43.631 27.0862ZM47.6122 25.7822C47.494 25.7822 47.3869 25.7046 47.35 25.5864L45.1193 18.5011C45.0713 18.3571 45.1526 18.1982 45.3003 18.1539C45.4443 18.1096 45.6031 18.1909 45.6474 18.3349L47.8781 25.4201C47.9335 25.6047 47.7943 25.7822 47.6122 25.7822Z" fill="#0A5870"/>
<path d="M96.7799 53.2337C96.7398 53.0477 96.5611 52.9273 96.3715 52.9638L63.6699 59.5407C63.484 59.5772 63.3636 59.7596 63.4001 59.9456L64.9318 67.5657C64.9719 67.7554 65.1506 67.8758 65.3402 67.8357C65.3797 67.8274 95.5822 61.7527 98.0417 61.2624C98.2277 61.226 98.348 61.0436 98.3116 60.8575L96.7799 53.2337ZM88.1003 63.079C87.9691 63.079 87.8523 62.9878 87.8268 62.8565L86.3644 55.5756C86.3353 55.426 86.4301 55.2801 86.5796 55.2473C86.7328 55.2181 86.875 55.3166 86.9078 55.4661L88.3702 62.7471C88.4025 62.9127 88.2815 63.079 88.1003 63.079ZM92.1958 62.2036C92.0681 62.2036 91.9514 62.1124 91.9259 61.981L90.4635 54.7001C90.4307 54.5506 90.5292 54.4047 90.6787 54.3718C90.8282 54.3426 90.9741 54.4411 91.0069 54.5907L92.4693 61.8716C92.5015 62.0371 92.3761 62.2036 92.1958 62.2036Z" fill="#FF9F46"/>
<path d="M92.862 47.0454L67.9569 52.5077C67.771 52.5485 67.5873 52.4308 67.5465 52.2449L66.3001 46.5591C66.2593 46.3731 66.377 46.1894 66.5628 46.1486L91.468 40.6863C91.6539 40.6455 91.8376 40.7632 91.8784 40.9491L93.1248 46.635C93.1656 46.8209 93.0479 47.0047 92.862 47.0454Z" fill="#E5DFDF"/>
<path d="M86.4588 55.0591L61.462 60.0851C61.2755 60.1227 61.0938 60.0018 61.0563 59.8152L59.9094 54.1084C59.8719 53.9218 59.9928 53.7401 60.1793 53.7026L85.1761 48.6765C85.3627 48.639 85.5443 48.7599 85.5818 48.9465L86.7287 54.6532C86.7662 54.8398 86.6454 55.0215 86.4588 55.0591Z" fill="#0A5870"/>
<path d="M42.9291 41.0081C42.7824 41.0516 42.6987 41.2057 42.742 41.3524C43.201 42.9061 44.3344 44.2776 45.7738 45.021C46.3875 45.3376 47.1095 45.6029 47.3153 46.1722C47.5169 46.7298 47.1492 47.3675 46.7218 47.9734C46.5915 48.1582 46.7262 48.4103 46.948 48.4103C47.0349 48.4103 47.1205 48.3694 47.1745 48.293C47.6884 47.5643 48.1241 46.7802 47.8363 45.9837C47.5502 45.1919 46.7062 44.8789 46.028 44.5287C44.7201 43.8533 43.6903 42.6071 43.2733 41.1953C43.2302 41.0486 43.0764 40.9654 42.9291 41.0081ZM38.9209 39.9585C37.6871 40.2661 36.5854 41.0564 35.8984 42.1269C35.8157 42.2556 35.8531 42.427 35.9819 42.5096C36.1104 42.5922 36.2818 42.5552 36.3646 42.4261C36.976 41.4734 37.9567 40.77 39.0548 40.4961C39.2033 40.4592 39.2936 40.3087 39.2566 40.1603C39.2199 40.0118 39.0698 39.9211 38.9209 39.9585ZM38.6969 43.1014C38.351 43.3456 38.4124 44.0278 38.834 44.6254C39.2556 45.2229 39.8777 45.5094 40.2236 45.2652C40.5694 45.0211 40.508 44.3388 40.0865 43.7413C39.6649 43.1438 39.0428 42.8573 38.6969 43.1014ZM46.2115 39.8371C45.8656 40.0813 45.927 40.7636 46.3486 41.3611C46.7702 41.9587 47.3923 42.2451 47.7381 42.001C48.084 41.7568 48.0226 41.0745 47.601 40.477C47.1794 39.8795 46.5573 39.593 46.2115 39.8371ZM29.7854 47.1676C29.6494 47.0989 29.4822 47.1534 29.4132 47.2898C28.8879 48.3296 29.5784 49.5805 30.7384 49.6879C30.8986 49.701 31.0263 49.5842 31.0399 49.4377C31.054 49.2852 30.942 49.1502 30.7897 49.1361C30.0198 49.0646 29.5585 48.2309 29.9076 47.5399C29.9767 47.4033 29.9218 47.2366 29.7854 47.1676ZM47.5952 38.3583C46.5462 38.0019 45.3259 38.2392 44.4867 38.9622C44.2922 39.1298 44.4119 39.4493 44.6676 39.4493C44.7315 39.4493 44.7958 39.4272 44.8482 39.3821C45.5419 38.7848 46.5507 38.5894 47.4172 38.8831C47.5623 38.9319 47.7194 38.8547 47.7685 38.7098C47.8177 38.565 47.7402 38.4075 47.5952 38.3583ZM80.5075 66.9457C78.8918 67.9281 76.6324 66.8336 75.2852 67.8649C75.1589 67.9551 74.9861 67.9317 74.895 67.8102C74.8038 67.6898 74.8257 67.5147 74.946 67.4235C76.5046 66.2331 78.7661 67.3535 80.223 66.4715C80.8029 66.1249 81.102 65.3005 80.8321 64.8045C80.8175 64.7789 80.8102 64.7534 80.8066 64.7278L81.3536 64.6184C81.7073 65.3735 81.3171 66.4605 80.5075 66.9457Z" fill="black"/>
<path d="M50.7772 31.2013C50.8695 31.0794 51.0468 31.0573 51.165 31.1533C52.2693 32.0214 52.7568 33.5692 52.3542 34.9139C52.3173 35.0321 52.2065 35.1097 52.0883 35.1097C51.8943 35.1097 51.7698 34.9266 51.8224 34.7514C52.1585 33.6394 51.7374 32.3096 50.8215 31.5892C50.7033 31.4932 50.6812 31.3196 50.7772 31.2013ZM13.4838 49.1641C13.7012 47.772 13.842 46.4304 13.1866 45.3197C11.8196 43.0003 8.43348 43.8989 6.65407 42.3239C5.39764 41.2069 5.36194 38.8713 6.06235 38.1849C6.22154 38.0287 6.4411 37.9727 6.60724 38.0531L7.44139 38.415C8.91227 39.8686 10.7499 40.9649 12.7318 41.54C12.8776 41.5825 13.0322 41.4987 13.0749 41.351C13.1175 41.2041 13.0329 41.0503 12.886 41.0078C9.0138 39.8841 6.35934 36.858 6.0392 35.3525C5.75107 33.9968 6.73644 33.1238 7.39574 33.3657C7.73612 33.4912 8.04598 33.6931 8.30173 33.9473C9.27118 36.439 11.2012 38.6083 13.5708 39.8693C13.7061 39.9413 13.8738 39.8898 13.9455 39.7549C14.0174 39.6197 13.9662 39.452 13.8312 39.3802C11.6522 38.2206 9.79427 36.2119 8.8373 33.7955C8.83343 33.7428 8.81484 33.6921 8.78065 33.648C8.60454 33.1765 8.44684 32.609 8.49407 32.0359C8.54749 31.3875 8.8933 30.8201 9.37516 30.5903C10.2361 30.1796 11.2242 31.2316 11.6135 32.0838C11.6174 32.0924 11.6248 32.0977 11.6294 32.1057C11.9986 34.7979 13.7445 37.4735 15.6372 38.8856C15.7597 38.9769 15.9333 38.9518 16.0248 38.8291C16.1163 38.7064 16.0911 38.5329 15.9684 38.4413C13.1842 36.364 10.7091 31.4109 13.0032 28.0625C14.5147 25.8477 17.5529 25.7985 18.0511 27.1276C18.3927 28.0436 17.4748 29.0274 17.0231 29.7468C16.3911 30.7579 15.7956 33.0873 16.2615 34.584C16.7639 36.1987 18.6183 36.4561 19.8204 35.6744C20.6465 35.1376 21.1319 34.121 21.1319 33.2378C21.1626 32.2118 20.709 31.0924 20.9595 30.1669C21.0914 29.6891 21.4305 29.3268 21.7856 29.2858C22.4186 29.2124 22.9309 30.0193 23.1827 30.5075C24.492 33.0631 24.6984 33.5933 23.2983 38.6025C22.875 40.1174 22.4371 41.6839 22.2964 43.3275C21.8847 48.1155 22.8202 51.1822 24.299 64.0476C25.1846 71.7497 26.0154 80.0422 27.0476 87.2634H7.31242C9.29393 74.6745 11.517 61.6727 13.4838 49.1641ZM91.678 87.2636H80.5623C80.5917 87.1611 80.5477 81.202 80.5477 78.6695C80.5441 77.36 80.5404 76.0067 80.9525 74.7628C81.7074 72.4866 83.9101 71.6622 86.1019 71.0129C88.7751 70.2214 90.6095 69.1671 91.7072 67.7883C92.0865 67.3177 92.2505 66.8618 92.2505 66.3073C92.2505 65.8141 91.8576 65.237 91.2987 65.0817C91.5879 64.0186 90.9809 62.9905 89.8582 62.9076L88.4359 63.1921C88.3921 63.4037 88.29 63.6189 88.1478 63.8013C87.7311 64.3405 87.5925 64.3668 81.7403 67.7154C81.6053 67.792 81.5616 67.9634 81.6381 68.0947C81.716 68.2337 81.8897 68.2693 82.0138 68.1969C87.854 64.8551 88.1803 64.7516 88.6328 64.0712C88.6949 64.053 88.7495 64.0129 88.786 63.9545C89.2086 63.2782 90.2565 63.2965 90.6496 63.9399C91.255 64.9335 90.1401 66.1366 89.1325 66.6466C86.4341 68.0168 85.9041 68.2946 83.6111 69.2547C83.4689 69.3131 83.4032 69.4736 83.4616 69.6158C83.5225 69.7631 83.6911 69.8239 83.8226 69.7654C86.14 68.797 86.7536 68.4765 89.3804 67.1427C90.0697 66.7925 90.7261 66.1906 91.0726 65.6033C91.3727 65.6157 91.6962 66.0102 91.6962 66.311C91.6962 66.7341 91.5722 67.0733 91.2768 67.4454C90.2521 68.7294 88.5052 69.7253 85.9415 70.484C83.7132 71.1406 81.2662 72.0562 80.4274 74.5877C79.9861 75.9191 79.9897 77.3162 79.9934 78.6695C79.9935 78.7062 80.0137 87.1687 80.0408 87.2636H66.6495C66.6564 87.2112 68.6406 72.2829 68.648 72.2276C68.8704 70.4512 69.1002 68.6127 69.8077 67.1062C69.8332 67.0515 69.8405 66.9931 69.8259 66.9347L69.2242 67.0551C68.5459 68.5981 68.3198 70.4074 68.0973 72.1583C66.6045 83.334 66.6459 83.0431 66.6459 83.0797C66.6422 83.0177 66.6422 82.9557 66.6386 82.8937C66.5328 83.0359 63.0136 86.4466 62.1711 87.2636H34.2799L26.1 75.1677C25.263 67.7382 24.4903 60.2375 23.5034 53.3614C22.2159 44.4208 22.7154 42.6006 23.9702 38.2561C24.367 39.872 25.9174 41.0748 27.5952 41.2108C27.7228 41.2217 28.1203 42.0534 28.1969 42.1847C28.9441 43.4659 29.0091 44.1892 28.9701 45.6391C27.9198 46.0915 27.2633 47.3572 27.5077 48.5756C27.7411 49.7465 28.7221 50.7496 29.9985 51.1363C31.1509 51.4828 32.3069 51.3005 33.1749 51.0342C33.0748 54.5443 33.3239 58.0064 33.4338 61.2625C33.5943 61.2661 33.7438 61.3062 33.8167 61.4339C33.8946 61.5533 33.872 61.6486 33.9116 62.2693C33.9772 62.2182 34.0173 62.1379 34.0137 62.0467C33.9034 58.2232 33.6054 54.4469 33.7402 50.6511C33.7479 50.4563 33.5601 50.3172 33.3682 50.3812C32.5586 50.6803 31.3478 50.9649 30.1589 50.6037C29.0904 50.2827 28.2443 49.4219 28.051 48.4661C27.8432 47.4338 28.4777 46.314 29.4077 46.0696C30.6257 45.7522 31.8146 46.7918 32.595 47.7257C32.604 47.7364 33.1662 48.177 33.2697 48.1962C33.5432 48.2546 33.8095 48.0248 33.9006 47.7585C34.0866 47.1967 33.8678 46.2994 33.8095 45.7157C33.5483 42.7603 32.5418 39.0324 32.3689 38.9054C33.0399 39.3942 33.9881 39.4562 34.7102 39.0659C35.4359 38.6719 35.9028 37.8402 35.8553 37.0158C36.5482 37.8293 37.6788 38.2342 38.7254 38.0518C39.7721 37.8694 40.6984 37.0998 41.0704 36.1039C42.1404 37.7149 44.3504 38.5546 46.5881 37.315C47.5873 36.7605 47.3284 36.797 48.4006 37.2019C48.7033 37.315 49.0242 37.3879 49.3488 37.4353C50.0036 39.7692 50.6441 42.0515 50.7856 44.2931C51.019 47.8971 50.9971 50.9539 50.1328 54.153C49.7446 55.6025 49.4254 57.0018 48.2292 57.8846C45.7835 59.694 40.7522 59.8156 36.9822 56.9289C36.8619 56.8377 36.6868 56.8596 36.592 56.98C36.5008 57.104 36.5227 57.2755 36.6467 57.3703C38.5139 58.8002 40.8443 59.6246 43.1965 59.7231C43.3467 61.1167 43.5273 61.786 43.6961 63.09C43.7545 62.6851 43.7618 62.2802 43.7362 61.9373C43.7399 61.9738 43.8785 62.0066 44.0973 62.0321C43.9592 61.2235 43.8416 60.4909 43.7545 59.7341C45.4345 59.7341 47.2092 59.3262 48.561 58.3297C49.8863 57.3515 50.2471 55.8648 50.6653 54.2989C51.5515 51.0269 51.5733 47.919 51.3399 44.2566C51.1896 41.9356 50.5535 39.726 49.9359 37.4791C50.9534 37.4937 51.9745 37.1727 52.7513 36.4906C54.2173 35.2102 54.582 32.8465 53.5755 31.1794C52.5726 29.5088 50.3115 28.7355 48.4954 29.4285C48.7998 29.3116 48.5224 27.4592 47.1679 26.1674L34.0392 30.3003C34.0319 30.3295 34.0283 30.3587 34.0283 30.3879C34.021 30.5374 33.9006 30.6542 33.7511 30.6542H33.7402C33.6235 30.6469 33.5286 30.5776 33.4885 30.4754L25.0934 33.12C24.9877 33.266 24.8929 33.4265 24.8053 33.587C24.763 32.3589 24.2471 31.3704 23.6748 30.2529C23.1168 29.1732 22.4421 28.6479 21.7201 28.7355C21.049 28.812 20.5859 29.4358 20.4254 30.0194C20.0968 31.2175 20.6714 32.3379 20.5713 33.3389C20.5598 33.3754 20.5365 34.5476 19.5174 35.2102C18.6311 35.7881 17.1875 35.6904 16.7895 34.4186C16.3774 33.0945 16.9317 30.9387 17.4933 30.0413C17.9267 29.3449 19.0337 28.1607 18.5692 26.9335C17.6431 24.4573 11.6465 25.5833 11.5599 30.9752C10.9301 30.2152 10.0307 29.6596 9.13837 30.0888C8.30331 30.4904 7.70111 31.543 8.02608 33.0544C7.88385 32.9741 7.73796 32.9012 7.58845 32.8465C6.53576 32.4549 5.11349 33.6534 5.4988 35.4692C5.67019 36.2827 6.15523 36.9611 6.57098 37.4718C4.85989 37.2302 4.36737 41.0342 6.28652 42.7392C8.2118 44.444 11.5111 43.5589 12.7086 45.6027C13.2703 46.5547 13.139 47.7913 12.9348 49.079C10.8937 62.0613 8.87717 73.7757 6.74968 87.2636H4.95905C4.80589 87.2636 4.68188 87.3877 4.68188 87.5409C4.68188 87.6941 4.80589 87.8181 4.95905 87.8181H91.678C91.8312 87.8181 91.9551 87.6941 91.9551 87.5409C91.9551 87.3877 91.8312 87.2636 91.678 87.2636Z" fill="black"/>
<path d="M66.6386 82.8899V82.8935C66.5328 83.0358 63.0136 86.4465 62.1712 87.2635H34.2799L26.1 75.1676C26.0956 75.1286 24.8418 63.9452 24.8418 63.907C27.5514 62.7871 30.2574 61.7731 33.1822 61.2843C33.4035 61.244 33.7051 61.2384 33.8167 61.4338C34.0132 61.7351 33.6404 63.0608 34.692 64.4724C35.7277 65.8476 37.2667 66.5224 38.9661 66.5698C40.617 66.6155 41.9904 65.8977 43.0688 64.673C43.6487 64.0205 43.8013 62.8115 43.7362 61.9372C43.7399 61.9737 43.8785 62.0065 44.0973 62.032C45.5966 62.2098 46.3906 61.9764 49.6843 62.6376C52.8935 63.2832 55.315 64.0529 57.8642 66.1613C63.0553 70.4715 66.0737 76.4811 66.6386 82.8899Z" fill="#0A5870"/>
<path d="M52.8374 13.3186C52.8404 13.3186 52.8436 13.3188 52.8466 13.3188C52.9953 13.3188 53.1184 13.2005 53.1233 13.0507L53.3662 5.62699C53.3712 5.47399 53.2514 5.34592 53.0984 5.34094C52.9526 5.34468 52.8176 5.456 52.8124 5.60882L52.5695 13.0326C52.5646 13.1856 52.6844 13.3136 52.8374 13.3186ZM48.6476 13.2313C48.6506 13.2313 48.6538 13.2315 48.6568 13.2315C48.8055 13.2315 48.9285 13.1133 48.9335 12.9635L49.1764 5.53971C49.1814 5.38671 49.0616 5.25865 48.9086 5.25366C48.7581 5.25527 48.6278 5.36872 48.6226 5.52155L48.3797 12.9453C48.3747 13.0983 48.4946 13.2264 48.6476 13.2313ZM38.9248 19.5351C38.962 19.6534 39.0711 19.7291 39.189 19.7291C39.3757 19.7291 39.5095 19.5472 39.4533 19.3688L37.9511 14.5946C37.9053 14.4487 37.7495 14.367 37.6037 14.4135C37.4578 14.4594 37.3766 14.6151 37.4226 14.761L38.9248 19.5351ZM36.2416 20.415C36.2788 20.5333 36.388 20.609 36.5059 20.609C36.6925 20.609 36.8263 20.4271 36.7701 20.2486L35.2679 15.4747C35.222 15.3288 35.0662 15.2467 34.9205 15.2935C34.7747 15.3395 34.6935 15.4952 34.7394 15.641L36.2416 20.415ZM88.1844 47.6777C88.2173 47.8281 88.3662 47.9219 88.5142 47.8889C88.6636 47.8561 88.7581 47.7085 88.7254 47.5591L87.502 41.9786C87.4693 41.829 87.3206 41.7346 87.1723 41.7674C87.0229 41.8001 86.9283 41.9478 86.9611 42.0972L88.1844 47.6777ZM85.0443 48.4058C85.0772 48.5562 85.2262 48.6501 85.3741 48.617C85.5235 48.5843 85.6181 48.4366 85.5853 48.2872L84.362 42.7065C84.329 42.5569 84.18 42.4613 84.0322 42.4953C83.8828 42.5281 83.7882 42.6757 83.821 42.8252L85.0443 48.4058ZM82.0971 55.8263C82.247 55.7962 82.3441 55.6502 82.314 55.5L81.1882 49.8989C81.1581 49.749 81.013 49.6521 80.862 49.682C80.7121 49.7121 80.615 49.8581 80.6451 50.0083L81.7709 55.6094C81.8011 55.7591 81.947 55.8567 82.0971 55.8263ZM78.9447 56.4993C79.0946 56.4692 79.1917 56.3231 79.1616 56.173L78.036 50.5718C78.0059 50.4219 77.8597 50.325 77.7098 50.3549C77.5599 50.385 77.4628 50.531 77.4929 50.6812L78.6185 56.2823C78.6484 56.4318 78.7944 56.5296 78.9447 56.4993ZM41.9208 49.7819C41.885 49.6332 41.7351 49.5409 41.5864 49.5778C41.4377 49.6138 41.3463 49.7636 41.3823 49.9123C41.627 50.9245 42.4213 51.7967 43.4059 52.1344C44.3843 52.4705 45.5479 52.2752 46.367 51.6227C46.4867 51.5272 46.5064 51.353 46.4112 51.2333C46.3161 51.1135 46.1412 51.0941 46.0219 51.1892C45.3518 51.7232 44.3958 51.8879 43.5857 51.6104C42.7755 51.3324 42.122 50.6148 41.9208 49.7819Z" fill="black"/>
</svg>
