<svg width="170" height="146" viewBox="0 0 170 146" fill="none" xmlns="http://www.w3.org/2000/svg">
<g clip-path="url(#clip0_214_436)">
<path d="M104.864 106.628L94.3163 99.8412C72.5397 102.468 58.5386 110.186 58.5386 110.186C58.5386 110.186 51.3144 102.868 26.4068 96.9131L9.33716 103.716C9.69603 100.949 10.1173 98.5255 10.627 97.0952C13.6975 88.3537 19.7499 82.5408 28.0139 79.0424C42.8345 72.7544 44.4095 73.7159 46.3058 73.2069C47.4707 72.8929 48.4055 73.2803 48.2666 74.5124C48.2354 74.84 48.1366 75.1781 48.0638 75.5005C47.6581 77.2377 48.095 79.5002 49.6709 80.4675C53.4659 82.8061 57.4618 83.338 61.0039 80.634C61.9471 79.917 63.0607 79.5849 62.5382 76.9881C62.4134 76.3796 62.1689 75.719 62.4446 75.1625C62.6807 74.6503 63.3612 74.4163 63.9165 74.3199C66.2626 73.8804 67.1502 74.4869 68.2333 74.5696C72.4266 74.8796 77.1123 75.8961 81.1265 77.0348C85.9101 78.4015 89.7365 80.4043 93.921 82.9121C97.4109 85.0029 99.3613 88.4303 101.098 92.1073C103.283 96.7361 104.536 101.641 104.864 106.628Z" fill="#0E7C9F"/>
<path d="M3.28558 116.377L7.45408 117.556C6.82311 118.513 6.35249 119.687 5.9801 120.726C1.19618 119.382 -2 118.451 -2 118.357C-2 117.996 5.05954 110.817 5.28192 110.595L3.14078 116.087C3.09422 116.206 3.16146 116.341 3.28558 116.377ZM81.3386 128.81L57.6879 132.394C57.6879 132.394 53.9693 137.064 48.5907 132.394C48.5907 132.394 40.3313 130.16 30.4893 127.475C30.8141 126.085 30.852 124.921 30.7583 124.14L51.8021 130.056L81.1058 125.702C81.0438 126.72 81.1731 127.817 81.3386 128.81ZM116 123.555L106.515 124.993C106.334 123.969 106.112 122.976 105.755 122.019L109.878 121.326L109.875 117.346L116 123.555Z" fill="#FFCE6F"/>
<path d="M57.961 51.2503C57.9864 51.0375 57.8345 50.8445 57.622 50.8191L54.5996 50.4569C54.1643 50.4048 53.882 49.9701 54.012 49.5513L56.2658 42.2755C56.3293 42.0708 56.2148 41.8534 56.0101 41.7905C55.8039 41.7229 55.588 41.8413 55.5248 42.0459L53.271 49.3218C52.9972 50.2055 53.593 51.1185 54.5075 51.2269L57.5295 51.5891C57.7382 51.616 57.9352 51.4654 57.961 51.2503ZM63.1798 53.7858C62.9941 53.6776 62.7569 53.7416 62.6498 53.9275C61.2833 56.2952 58.4023 57.3451 55.84 56.4254C55.6371 56.3548 55.4164 56.4579 55.3437 56.6595C55.2716 56.8612 55.3762 57.0836 55.5779 57.1558C58.4753 58.1937 61.7558 57.0278 63.3217 54.3155C63.4289 54.1296 63.3652 53.8924 63.1798 53.7858ZM61.9572 32.9742C63.4402 31.1725 66.0888 30.8634 67.9468 32.2763C68.1174 32.4063 68.3605 32.3733 68.4902 32.2021C68.6197 32.0315 68.5867 31.7882 68.4161 31.6587C66.2289 29.9953 63.1059 30.3577 61.3584 32.4815C61.2223 32.6466 61.2459 32.8914 61.4112 33.0275C61.577 33.1636 61.8212 33.14 61.9572 32.9742ZM49.2364 33.4983C49.4073 33.6289 49.6503 33.5953 49.7798 33.4242C49.9094 33.2535 49.8763 33.0102 49.7057 32.8807C47.5378 31.2324 44.4095 31.5622 42.648 33.7035C42.5119 33.8686 42.5355 34.1134 42.7008 34.2495C42.8666 34.3856 43.1108 34.362 43.2468 34.1962C44.7298 32.3945 47.3784 32.0854 49.2364 33.4983ZM46.9999 37.5C43.9267 37.5 45.4999 42.5 46.9999 42.5C49.9378 42.5 48.4999 37.5 46.9999 37.5ZM65.4999 36.5C63.3217 36.5 63.6621 41.5 65.4999 41.5C68.1117 41.5 67.4999 36.5 65.4999 36.5Z" fill="black"/>
<path d="M11.5217 94.8431C14.812 87.3555 20.3934 82.2685 28.014 79.0425C42.8223 72.759 44.4161 73.7141 46.306 73.2069C47.006 73.0181 47.8217 73.0406 48.1507 73.6833L47.5393 78.1202C47.5073 78.3527 47.6877 78.561 47.9241 78.561C48.1148 78.561 48.2811 78.4203 48.3078 78.2258C50.2286 64.2482 49.7048 68.4091 49.7658 67.612C53.4587 69.6422 57.4417 69.9359 61.3717 68.5839C61.8319 70.0783 61.6713 70.6136 62.5623 78.9745C62.5821 79.1746 62.7507 79.3244 62.9478 79.3244C63.1777 79.3244 63.3569 79.1264 63.3343 78.8983L62.9178 74.6742C63.2092 74.4909 63.5676 74.3804 63.9166 74.32C66.2641 73.8798 67.1468 74.4866 68.2334 74.5696C72.4265 74.8795 77.1121 75.8962 81.1267 77.0348C84.3669 77.9607 87.217 79.1985 90.036 80.6963C88.6205 75.9176 84.8615 72.6226 83.7064 68.0735C82.1104 61.6903 86.1886 55.2474 87.9036 49.1419C92.0465 34.2261 83.0578 14.207 61.3681 9.36982C58.8196 8.81328 55.985 8.33483 53.6446 9.30215H53.6394C50.5417 8.48915 47.7785 9.2464 44.8081 10.514C37.6307 13.5775 31.2855 18.6327 26.4642 25.1393C23.1511 29.6069 19.2244 35.6089 18.2674 42.3754C17.8658 45.2388 18.124 48.1817 18.1998 50.8374C18.4387 58.6394 11.7719 64.2114 8.45829 70.6221C4.6772 77.938 4.03935 91.7668 11.5217 94.8431ZM74.9895 36.4515C75 41.9998 75.9843 40.8371 76.7421 44.1684C77.5 47.4998 73.2957 57.1657 69.596 61.64C62.6673 69.9906 53.0641 71.5183 44.7669 62.5558C39.3256 56.6832 38.2747 52.5795 36.7351 47.2987C36.7351 45.9998 32.0887 40.514 39.4874 33.4192C42.5952 30.4539 47.2267 29.7864 51.0285 27.6253C52.9112 26.5487 54.8096 24.4631 56.1983 22.0758C59.3067 25.049 59.7862 25.4832 64.7851 27.126C66.6211 27.7345 68.5194 28.3691 70.2046 29.326C72.6178 30.6887 74.979 30.9032 74.9895 36.4515ZM109.771 109.317L94.5248 99.5164C94.4491 99.4676 94.3585 99.4448 94.2686 99.4575C74.2142 101.877 60.5632 108.689 58.6003 109.713C57.2496 108.484 49.2776 101.982 26.4991 96.5375C26.4212 96.5182 26.3397 96.5248 26.2655 96.5548C6.86266 104.281 8.21739 103.732 8.11269 103.792C8.03728 103.835 7.97116 103.908 7.94238 103.98L3.14314 115.948C3.05702 116.163 3.1781 116.404 3.39836 116.465L7.04373 117.49C6.05809 119.052 5.53923 120.872 4.90178 122.617C4.17369 124.616 3.26707 127.104 4.93504 128.928C5.89144 129.964 7.4233 130.385 8.77612 130.016C9.28453 131.121 10.3313 131.964 11.5366 132.211C12.5573 132.413 13.7686 132.131 14.6799 131.505C14.6866 131.506 14.6932 131.51 14.6999 131.51C14.7441 131.51 14.7869 131.5 14.8281 131.485C15.7208 134.603 19.2375 135.298 21.3886 133.263C21.8946 134.959 23.4567 136.379 25.3728 136.379C26.6289 136.379 27.9177 135.79 28.4338 134.526C29.0648 132.971 30.4807 129.2 30.8672 127.564C31.1804 126.223 31.2369 125.12 31.1567 124.267L51.7184 130.041C51.7705 130.056 51.8257 130.06 51.8802 130.051L80.7166 125.773C80.6454 127.192 80.9072 128.658 81.1637 130.045C81.6723 132.778 81.8701 135.875 84.5137 136.735C85.861 137.172 87.4011 136.776 88.3936 135.794C90.3059 137.169 93.0853 136.606 94.271 134.176C94.3135 134.154 94.3503 134.123 94.3816 134.087C95.4044 135.096 96.8615 135.549 98.1518 135.198C99.4807 134.833 100.562 133.72 100.967 132.409C101.784 133.197 102.918 133.665 104.054 133.665C106.076 133.665 107.981 132.023 107.722 130.042C107.488 128.246 107.247 126.883 106.991 125.44C106.944 125.193 106.705 123.516 106.158 122.001L109.618 121.487C109.809 121.459 109.949 121.296 109.949 121.104C109.949 121.051 109.945 109.578 109.947 109.631C109.943 109.505 109.868 109.38 109.771 109.317ZM108.426 109.375C96.4544 110.711 62.6682 115.355 54.0216 123.728C54.4187 122.637 58.1852 112.282 58.8482 110.459C60.2856 109.699 73.9324 102.717 94.2229 100.244L108.426 109.375ZM26.4382 97.3207C48.7634 102.673 56.831 109.184 58.0825 110.295L52.6639 125.19C50.7425 119.494 45.1843 116.618 39.6187 114.372C35.2234 112.594 33.7854 112.4 9.43081 104.096L26.4382 97.3207ZM5.50644 128.403C4.15718 126.928 4.94012 124.779 5.63088 122.883C6.70818 119.919 7.97495 115.313 11.0328 116.121C12.3251 116.461 12.9419 117.581 12.6263 118.652C12.6134 118.705 12.5044 119.43 12.0791 120.651L12.08 120.651C12.0644 120.703 9.79884 126.515 8.68063 129.226C7.58811 129.571 6.28231 129.243 5.50644 128.403ZM11.6903 131.45C10.6575 131.239 9.77413 130.478 9.40634 129.501C10.45 126.971 12.7095 121.207 12.7962 120.956L12.7946 120.956C13.472 119.267 14.0923 117.556 14.8294 116.701C15.3868 116.049 16.1502 115.688 16.828 115.759C18.6709 115.945 19.3066 118.764 18.7428 120.38C18.5904 120.939 19.0507 119.642 14.4636 130.7C13.705 131.33 12.6012 131.632 11.6903 131.45ZM17.7534 133.549C16.5329 133.24 15.5849 132.04 15.448 130.629C15.4463 130.611 15.4394 130.595 15.4354 130.578C15.879 129.032 19.237 121.511 19.5207 120.488C20.1071 119.166 20.6252 117.586 21.6979 117.074C22.6715 116.613 24.0219 117.174 24.677 118.191C25.9618 120.172 24.9681 122.914 24.2359 125.166C23.228 127.383 22.2107 130.031 21.2712 132.224C20.5165 133.32 19.0446 133.879 17.7534 133.549ZM30.1122 127.386C29.7375 128.971 28.3278 132.724 27.7153 134.233C27.212 135.467 25.5885 135.855 24.3883 135.445C23.1261 135.014 22.158 133.803 22.0057 132.48C23.231 129.617 24.7434 125.583 26.1924 122.927C26.5451 122.221 27.0915 121.509 27.8718 121.564C30.6206 121.606 30.732 124.733 30.1122 127.386ZM84.7531 135.997C82.5364 135.276 82.3778 132.332 81.9266 129.904C81.4165 127.142 80.7809 123.306 83.5166 122.586C84.6536 122.284 85.7329 122.79 86.0826 123.782C86.3693 124.596 86.5347 125.308 86.6667 126.049C86.676 126.101 87.623 132.768 87.9216 135.154C87.1368 135.99 85.8396 136.348 84.7531 135.997ZM91.6287 135.604C90.6497 135.926 89.4842 135.694 88.689 135.036C87.3595 124.443 86.7985 122.788 87.103 121.227C87.3909 119.795 88.5197 118.875 89.8962 119.424C90.8494 119.805 91.9096 120.887 92.299 122.381C92.3881 122.742 93.6042 132.862 93.6785 133.604C93.3774 134.431 92.5645 135.295 91.6287 135.604ZM97.9474 134.45C96.733 134.78 95.3169 134.2 94.5032 133.039C94.472 132.995 94.4308 132.962 94.3862 132.934C93.1573 121.473 92.3147 119.528 93.2662 118.168C93.9511 117.2 95.4317 117.157 96.4115 117.672C98.1476 118.576 98.7792 120.745 99.1902 122.669C99.2007 122.749 99.4091 123.213 100.358 131.562C100.24 132.885 99.231 134.097 97.9474 134.45ZM106.953 130.142C107.126 131.463 105.904 132.601 104.655 132.835C103.342 133.079 101.904 132.501 101.123 131.424C101.079 131.036 100.202 124.122 100.132 122.537C99.9827 120.253 99.8847 119.279 101.414 118.8C104.198 117.93 105.754 122.381 106.175 125.278C106.175 125.278 106.717 128.327 106.953 130.142ZM105.866 121.26C104.973 119.209 103.467 117.446 101.313 118.021C100.119 118.346 99.4647 119.023 99.3165 120.209C99.0917 119.594 98.8281 119.048 98.4613 118.516C96.7425 116.022 93.7624 116.122 92.6316 117.721C92.1313 118.437 92.0439 119.348 92.0871 120.212C91.107 118.952 89.5413 118.063 88.0723 118.705C87.2119 119.082 86.5651 119.967 86.3421 121.076C86.2486 121.555 86.2331 122.116 86.2591 122.599C84.791 121.009 81.3063 121.458 80.7886 124.978L51.8484 129.272L31.0366 123.427C30.6504 121.678 29.4209 120.788 27.8517 120.788C27.0544 120.788 26.4297 121.181 25.9585 121.828C26.2439 120.049 26.0217 118.186 24.65 116.995C23.4235 115.929 21.7727 115.794 20.6302 116.886C20.2261 117.269 19.9093 117.776 19.6622 118.275C19.2032 115.165 16.7367 114.179 14.8333 115.633C14.2067 116.111 13.7679 116.774 13.4113 117.483C13.2393 116.749 12.7158 116.031 11.8568 115.61C10.3958 114.894 8.80401 115.189 7.51218 116.816L4.02411 115.836L8.52546 104.611C38.5012 114.723 36.3379 113.882 39.3279 115.091C45.0767 117.412 50.918 120.481 52.2355 126.544C52.3201 126.929 52.8437 126.897 52.9832 126.583C56.4296 116.694 98.7661 111.24 109.174 110.074V120.769L105.866 121.26Z" fill="black"/>
<path d="M129.275 18.736C134.94 18.736 139.15 13.1738 137.286 7.4307C136.919 6.29886 136.375 5.46932 135.467 4.65709C135.257 4.46945 134.941 4.71467 135.073 4.96461C139.411 13.2247 131.184 19.3496 124.995 16.3421C124.068 15.8922 123.241 15.1143 122.536 14.0301C122.37 13.7723 121.971 13.9804 122.088 14.2651C123.171 16.9007 126.039 18.736 129.275 18.736ZM152.868 29.1948C157.474 29.1948 160.881 24.6724 159.371 20.0197C159.077 19.1111 158.62 18.4151 157.891 17.7632C157.68 17.5747 157.366 17.8217 157.497 18.0707C160.957 24.6566 154.419 29.5899 149.441 27.1724C148.702 26.8136 148.042 26.1927 147.479 25.3266C147.312 25.0693 146.914 25.2769 147.031 25.5617C147.907 27.6943 150.228 29.1948 152.868 29.1948Z" fill="black"/>
<path d="M140.346 36.6997V36.8624C140.296 39.2087 139.131 41.4051 137.119 42.7374L137.117 42.7368C136.123 43.4014 136.136 43.246 134.942 43.3646C130.733 43.8024 131.045 43.7264 130.359 43.4596C127.281 42.2176 125.546 39.2094 125.782 36.259C126.03 32.5028 129.169 29.5229 133.02 29.506C137.048 29.4856 140.326 32.7062 140.346 36.6997Z" fill="#FFCE6F"/>
<path d="M128.352 17.571C132.965 17.571 136.704 13.8615 136.704 9.28552C136.704 4.70955 132.965 1 128.352 1C123.74 1 120 4.70955 120 9.28552C120 13.8615 123.74 17.571 128.352 17.571Z" fill="#FFCE6F"/>
<path d="M152.124 28.207C155.842 28.207 158.855 25.2175 158.855 21.5298C158.855 17.842 155.842 14.8525 152.124 14.8525C148.407 14.8525 145.394 17.842 145.394 21.5298C145.394 25.2175 148.407 28.207 152.124 28.207Z" fill="#FFCE6F"/>
<path d="M135.513 36.9146C135.035 35.8866 133.915 35.7808 133.014 35.6959C132.215 35.6202 131.365 35.4439 131.12 34.7081C131.01 34.3793 131.07 33.9889 131.28 33.6637C131.857 32.7716 132.969 32.8321 132.936 32.8394H132.937C132.94 32.8394 132.941 32.8381 132.944 32.8381C133.89 32.8629 134.596 33.533 134.812 34.2997C134.85 34.4351 134.99 34.5141 135.126 34.4756C135.261 34.4374 135.339 34.2971 135.301 34.1619C135.04 33.2365 134.241 32.4724 133.189 32.3419L133.185 31.5894C133.185 31.4493 133.071 31.3364 132.931 31.3364H132.93C132.789 31.337 132.676 31.4516 132.677 31.592L132.68 32.3314C131.183 32.4492 130.274 33.7781 130.638 34.869C130.977 35.8876 132.06 36.1164 132.966 36.202C133.817 36.2826 134.697 36.3655 135.052 37.1288C135.405 37.8883 134.908 39.0323 133.614 39.3203C132.453 39.5776 131.166 38.9236 130.684 37.8303C130.627 37.7017 130.477 37.6436 130.348 37.7001C130.22 37.7569 130.162 37.9071 130.218 38.0354C130.689 39.1028 131.802 39.8124 132.951 39.8722L132.954 40.4453C132.954 40.5853 133.068 40.6983 133.208 40.6983H133.209C133.35 40.6976 133.463 40.583 133.462 40.4427L133.459 39.8601C133.548 39.8491 133.637 39.836 133.725 39.8165C135.308 39.4646 136.009 37.9801 135.513 36.9146ZM128.269 12.8472L128.272 13.5325C128.273 13.6726 128.386 13.7855 128.526 13.7855H128.528C128.668 13.7849 128.781 13.6703 128.781 13.5299L128.777 12.8309C130.75 12.6079 131.737 10.8008 131.133 9.50401C130.595 8.34573 129.323 8.22559 128.301 8.12928C127.374 8.04146 126.387 7.83547 126.1 6.97296C125.772 5.99148 126.733 4.75251 128.185 4.77743C128.195 4.77865 128.204 4.78339 128.215 4.78339H128.216C129.172 4.77752 130.115 5.47666 130.399 6.48327C130.437 6.61875 130.577 6.69743 130.713 6.65923C130.848 6.62104 130.926 6.48066 130.888 6.3455C130.592 5.29258 129.677 4.41995 128.468 4.28407L128.463 3.38875C128.463 3.2487 128.349 3.13574 128.209 3.13574H128.208C128.067 3.1364 127.954 3.25098 127.955 3.39136L127.959 4.27268C126.252 4.38627 125.204 5.8957 125.617 7.13358C125.999 8.27978 127.226 8.53834 128.253 8.6353C129.238 8.72834 130.257 8.82464 130.672 9.71817C131.086 10.6081 130.507 11.9451 129 12.2799C127.654 12.5793 126.16 11.8202 125.601 10.5523C125.544 10.4233 125.394 10.3652 125.266 10.422C125.137 10.4788 125.079 10.629 125.136 10.7573C125.674 11.9782 126.954 12.7929 128.269 12.8472ZM152.008 24.4415L152.01 24.9528C152.011 25.0928 152.125 25.2058 152.265 25.2058H152.266C152.406 25.2051 152.52 25.0905 152.519 24.9502L152.516 24.4289C154.104 24.2232 154.911 22.7602 154.411 21.6852C153.583 19.9039 150.858 21.1561 150.356 19.6507C150.257 19.3523 150.311 18.9981 150.502 18.703C151.029 17.8887 152.047 17.9439 152.014 17.9512H152.015C152.017 17.9512 152.019 17.95 152.021 17.95C152.883 17.9727 153.529 18.5832 153.726 19.2848C153.764 19.4202 153.905 19.4992 154.04 19.4607C154.175 19.4225 154.254 19.2822 154.216 19.147C153.982 18.3155 153.276 17.5952 152.267 17.4622L152.263 16.7775C152.263 16.6375 152.149 16.5245 152.009 16.5245H152.008C151.867 16.5252 151.754 16.6398 151.755 16.7802L151.758 17.4469C150.377 17.5665 149.533 18.7907 149.873 19.8113C150.191 20.762 151.198 20.9755 152.04 21.0548C152.82 21.1289 153.627 21.2053 153.95 21.8994C154.268 22.5864 153.82 23.6312 152.636 23.895C151.571 24.1307 150.394 23.5317 149.952 22.5308C149.896 22.4021 149.746 22.3437 149.617 22.4005C149.489 22.4573 149.431 22.6075 149.487 22.7358C149.922 23.7218 150.947 24.3793 152.008 24.4415Z" fill="black"/>
</g>
<defs>
<clipPath id="clip0_214_436">
<rect width="170" height="146" fill="white"/>
</clipPath>
</defs>
</svg>
