<svg width="125" height="88" viewBox="0 0 125 88" fill="none" xmlns="http://www.w3.org/2000/svg">
<path d="M29.1065 55.5828C45.1816 55.5828 58.213 43.1402 58.213 27.7914C58.213 12.4426 45.1816 0 29.1065 0C13.0314 0 0 12.4426 0 27.7914C0 43.1402 13.0314 55.5828 29.1065 55.5828Z" fill="#FFCA03"/>
<path d="M104.5 83.0707C115.129 83.0707 123.746 73.3836 123.746 61.4339C123.746 49.4842 115.129 39.797 104.5 39.797C93.8711 39.797 85.2546 49.4842 85.2546 61.4339C85.2546 73.3836 93.8711 83.0707 104.5 83.0707Z" fill="#FFCA03"/>
<path d="M122.297 15.1126V80.2776C122.297 82.9388 120.043 85.0906 117.256 85.0906H15.2772C12.9227 85.0906 10.9406 83.5535 10.3972 81.4593C10.2864 81.0844 10.236 80.6907 10.236 80.2776V15.1126C10.236 12.4514 12.5 10.2996 15.2768 10.2996H117.255C120.043 10.2996 122.297 12.4514 122.297 15.1126Z" fill="#F9F5ED"/>
<path d="M115.342 13.0416H17.1977C14.9391 13.0416 13.1077 14.7898 13.1077 16.9463V78.4499C13.1077 80.6064 14.9391 82.3546 17.1977 82.3546H115.342C117.601 82.3546 119.432 80.606 119.432 78.4499V16.9463C119.432 14.7898 117.601 13.0416 115.342 13.0416Z" fill="white"/>
<path d="M87.877 46.0088H75.0488C74.496 46.0088 74.0476 46.4369 74.0476 46.9648V56.3871C74.0476 56.9149 74.496 57.3431 75.0488 57.3431H87.877C88.4298 57.3431 88.8782 56.9149 88.8782 56.3871V46.9648C88.8782 46.4369 88.4298 46.0088 87.877 46.0088ZM50.9655 57.8808H26.4415C25.3844 57.8808 24.5273 58.6992 24.5273 59.7085V69.4037C24.5273 70.413 25.3844 71.2315 26.4415 71.2315H50.9655C52.0226 71.2315 52.8797 70.413 52.8797 69.4037V59.7085C52.8802 58.6992 52.023 57.8808 50.9655 57.8808ZM104.874 46.0088H92.0457C91.4929 46.0088 91.0445 46.4369 91.0445 46.9648V56.3871C91.0445 56.9149 91.4929 57.3431 92.0457 57.3431H104.874C105.427 57.3431 105.875 56.9149 105.875 56.3871V46.9648C105.875 46.4369 105.427 46.0088 104.874 46.0088Z" fill="#F9F5ED"/>
<path d="M70.7211 46.0088H57.893C57.3401 46.0088 56.8918 46.4369 56.8918 46.9648V56.3871C56.8918 56.9149 57.3401 57.3431 57.893 57.3431H70.7211C71.2739 57.3431 71.7223 56.9149 71.7223 56.3871V46.9648C71.7223 46.4369 71.2739 46.0088 70.7211 46.0088Z" fill="#F4EDE1"/>
<path d="M63.6721 48.3119H64.9421V55.0395H63.6721V48.3119Z" fill="white"/>
<path d="M60.7837 52.282V51.0694H67.8296V52.282H60.7837Z" fill="white"/>
<path d="M87.8769 59.6414H75.0488C74.4959 59.6414 74.0475 60.0696 74.0475 60.5974V70.0197C74.0475 70.5475 74.4959 70.9757 75.0488 70.9757H87.8769C88.4297 70.9757 88.8781 70.5475 88.8781 70.0197V60.5974C88.8781 60.0696 88.4297 59.6414 87.8769 59.6414ZM104.874 59.6414H92.0456C91.4928 59.6414 91.0444 60.0696 91.0444 60.5974V70.0197C91.0444 70.5475 91.4928 70.9757 92.0456 70.9757H104.874C105.427 70.9757 105.875 70.5475 105.875 70.0197V60.5974C105.875 60.0696 105.427 59.6414 104.874 59.6414ZM70.7211 59.6414H57.893C57.3401 59.6414 56.8917 60.0696 56.8917 60.5974V70.0197C56.8917 70.5475 57.3401 70.9757 57.893 70.9757H70.7211C71.2739 70.9757 71.7223 70.5475 71.7223 70.0197V60.5974C71.7223 60.0696 71.2739 59.6414 70.7211 59.6414ZM23.191 21.2457C23.191 21.7718 22.7444 22.1982 22.1934 22.1982C21.6424 22.1982 21.1958 21.7718 21.1958 21.2457C21.1958 20.7195 21.6424 20.2931 22.1934 20.2931C22.7444 20.2931 23.191 20.7195 23.191 21.2457ZM27.7235 21.2457C27.7235 21.7718 27.277 22.1982 26.7259 22.1982C26.1749 22.1982 25.7283 21.7718 25.7283 21.2457C25.7283 20.7195 26.1749 20.2931 26.7259 20.2931C27.277 20.2931 27.7235 20.7195 27.7235 21.2457ZM32.256 21.2457C32.256 21.7718 31.8095 22.1982 31.2584 22.1982C30.7074 22.1982 30.2608 21.7718 30.2608 21.2457C30.2608 20.7195 30.7074 20.2931 31.2584 20.2931C31.8095 20.2931 32.256 20.7195 32.256 21.2457Z" fill="#F9F5ED"/>
<path d="M65.8231 33.7306C65.2883 33.7542 57.5171 38.9227 57.5171 38.9227L59.5614 33.6623L65.8231 33.7306Z" fill="#F9D980"/>
<path d="M105.549 17.0469L55.4471 17.0564C54.3622 17.0564 53.4825 17.8967 53.4825 18.9326L53.4852 32.7682C53.4856 33.8041 54.3653 34.644 55.4503 34.6436L105.552 34.6341C106.637 34.6341 107.516 33.7938 107.516 32.7579L107.513 18.9223C107.514 17.8864 106.634 17.0465 105.549 17.0469Z" fill="#F9D980"/>
<g opacity="0.5">
<path d="M58.2374 27.1037L59.7086 27.1041C60.1061 27.1041 60.4285 27.4119 60.4285 27.7918C60.4285 28.1714 60.1061 28.4792 59.7082 28.4792L58.2369 28.4787C57.8394 28.4787 57.5171 28.171 57.5171 27.7914C57.5171 27.4114 57.8399 27.1037 58.2374 27.1037ZM76.0851 27.1071L77.5564 27.1075C77.9539 27.1075 78.2762 27.4153 78.2762 27.7953C78.2762 28.1748 77.9539 28.4826 77.5559 28.4826L76.0847 28.4822C75.6872 28.4822 75.3648 28.1744 75.3648 27.7949C75.3648 27.4149 75.6876 27.1071 76.0851 27.1071ZM62.3899 27.1045L73.3336 27.1067C73.7315 27.1067 74.0534 27.4144 74.0534 27.7944C74.0534 28.174 73.7311 28.4818 73.3331 28.4818L62.3895 28.4796C61.992 28.4796 61.6696 28.1718 61.6696 27.7923C61.6696 27.4123 61.992 27.1045 62.3899 27.1045ZM72.2774 24.5856L58.2378 24.583C57.8403 24.583 57.518 24.2753 57.518 23.8957C57.518 23.5161 57.8403 23.2084 58.2383 23.2084L72.2779 23.211C72.6754 23.211 72.9977 23.5187 72.9977 23.8987C72.9973 24.2783 72.675 24.586 72.2774 24.5856ZM80.3971 24.5873L74.9574 24.5865C74.5599 24.5865 74.2376 24.2787 74.2376 23.8991C74.2376 23.5196 74.5599 23.2118 74.9574 23.2118L80.3971 23.2127C80.7946 23.2127 81.1169 23.5204 81.1169 23.9004C81.1169 24.28 80.7946 24.5873 80.3971 24.5873Z" fill="#F5B501"/>
</g>
<path d="M86.6142 29.491C85.0106 29.491 83.7573 28.7306 83.7037 27.2906H85.6368C85.69 27.8382 86.051 28.1017 86.5606 28.1017C87.0919 28.1017 87.4318 27.8481 87.4318 27.4325C87.4318 26.1141 83.7037 26.8238 83.7249 24.2984C83.7249 22.9496 84.8828 22.1991 86.444 22.1991C88.0692 22.1991 89.1632 22.9698 89.2375 24.3285H87.2724C87.2404 23.872 86.9005 23.5982 86.4121 23.5883C85.9767 23.578 85.6472 23.7912 85.6472 24.2374C85.6472 25.4745 89.3329 24.9166 89.3329 27.3001C89.3334 28.4972 88.356 29.491 86.6142 29.491ZM95.017 23.6902H92.2659V25.1302H94.6978V26.4688H92.2659V28.0304H95.017V29.4197H90.4498V22.3009H95.017V23.6902ZM99.7233 29.491C97.6096 29.491 95.889 27.9801 95.889 25.8403C95.889 23.7005 97.6096 22.1995 99.7233 22.1995C101.848 22.1995 103.536 23.7005 103.536 25.8403C103.536 27.9801 101.837 29.491 99.7233 29.491ZM99.7233 27.9092C100.913 27.9092 101.688 27.0877 101.688 25.8403C101.688 24.5727 100.913 23.7715 99.7233 23.7715C98.5122 23.7715 97.7478 24.5727 97.7478 25.8403C97.7478 27.0877 98.5122 27.9092 99.7233 27.9092Z" fill="#F5B501"/>
<path d="M102.628 84.8925C102.628 84.8925 101.499 83.3613 101.7 83.1511C101.902 82.941 102.47 82.674 102.653 82.7363C102.835 82.7987 103.532 84.6174 103.4 84.9372C103.269 85.257 102.943 85.2901 102.628 84.8925Z" fill="#F4CABA"/>
<path opacity="0.2" d="M102.979 84.3285C102.718 84.1536 102.468 83.9644 102.222 83.7718C102.103 83.6786 101.985 83.5844 101.86 83.4989C101.811 83.4658 101.763 83.4327 101.715 83.3992C101.892 83.8944 102.628 84.8925 102.628 84.8925C102.943 85.2901 103.27 85.257 103.401 84.9372C103.425 84.8796 103.421 84.7721 103.399 84.6354C103.261 84.5297 103.123 84.4257 102.979 84.3285Z" fill="white"/>
<path d="M102.272 83.814C102.156 83.8342 102.037 83.8428 101.92 83.8599C102.219 84.6294 102.621 84.9126 102.621 84.9126C102.951 85.3287 103.292 85.2935 103.429 84.9595C103.509 84.7644 103.293 84.0336 103.062 83.4469C102.883 83.6614 102.524 83.7701 102.272 83.814Z" fill="#F9D980"/>
<path d="M99.8718 87.1745L99.6993 87.2712C99.6993 87.2712 99.7196 87.5128 99.8411 87.5816C99.9627 87.6504 100.828 87.6087 102.312 87.0206C103.796 86.4326 104.388 85.9413 104.253 85.6984C104.119 85.456 100.755 87.5343 99.8718 87.1745Z" fill="#FFCA03"/>
<path d="M104.253 85.6989C102.52 87.0512 99.3504 87.6701 99.72 87.1857C99.8015 87.0791 99.9667 86.9527 100.173 86.8139C100.909 86.3221 102.171 85.6817 102.049 85.2776C101.894 84.7596 102.142 84.5851 102.213 84.5804C102.231 84.5795 102.282 84.58 102.351 84.577C102.553 84.5688 102.909 84.5305 103.056 84.3263C103.254 84.053 103.285 84.0181 103.45 84.0899C103.931 84.301 104.036 84.5898 104.253 85.6989Z" fill="#47271F"/>
<path d="M102.351 84.577C102.372 84.7042 102.371 84.8568 102.351 84.9892C102.301 85.3206 102.577 85.3958 102.297 86.0574C102.019 86.7189 100.744 86.8986 100.361 86.9158C100.136 86.9257 100.136 86.8655 100.174 86.8139C100.909 86.3221 102.171 85.6817 102.05 85.2776C101.894 84.7596 102.143 84.5851 102.214 84.5804C102.232 84.5791 102.283 84.5795 102.351 84.577Z" fill="#FFCA03"/>
<path d="M110.388 85.848C110.388 85.848 109.942 84.0246 110.212 83.9016C110.481 83.7787 111.113 83.7349 111.257 83.8578C111.402 83.9807 111.334 85.9163 111.087 86.1657C110.84 86.4154 110.524 86.3298 110.388 85.848Z" fill="#F4CABA"/>
<path opacity="0.2" d="M110.934 85.4504C110.762 85.1951 110.604 84.9307 110.452 84.6638C110.378 84.5348 110.305 84.4054 110.223 84.2808C110.191 84.2326 110.159 84.1845 110.128 84.1364C110.097 84.6586 110.388 85.8476 110.388 85.8476C110.524 86.3294 110.84 86.415 111.087 86.1657C111.131 86.1205 111.17 86.0199 111.203 85.885C111.117 85.7384 111.03 85.5922 110.934 85.4504Z" fill="white"/>
<path d="M110.481 84.7205C110.365 84.6977 110.252 84.6633 110.137 84.6375C110.112 85.4577 110.373 85.8643 110.373 85.8643C110.516 86.3681 110.846 86.4575 111.104 86.197C111.255 86.0444 111.342 85.29 111.358 84.6633C111.107 84.7979 110.732 84.7704 110.481 84.7205Z" fill="#F9D980"/>
<path d="M106.937 86.9776L106.738 87.0056C106.738 87.0056 106.663 87.2368 106.748 87.3443C106.834 87.4518 107.653 87.7226 109.26 87.7084C110.866 87.6942 111.608 87.4505 111.578 87.1771C111.549 86.9037 107.614 87.6267 106.937 86.9776Z" fill="#FFCA03"/>
<path d="M111.578 87.1771C109.44 87.8103 106.259 87.2502 106.791 86.9329C106.909 86.8633 107.111 86.8053 107.358 86.7507C108.233 86.5581 109.654 86.4158 109.7 85.9976C109.759 85.462 110.058 85.3889 110.125 85.4096C110.142 85.4151 110.19 85.4341 110.255 85.456C110.444 85.5205 110.79 85.6124 111.006 85.4762C111.297 85.2935 111.34 85.2724 111.464 85.3979C111.827 85.7659 111.812 86.0711 111.578 87.1771Z" fill="#47271F"/>
<path d="M110.255 85.4564C110.223 85.5815 110.163 85.7229 110.093 85.8385C109.917 86.1278 110.142 86.2959 109.624 86.8096C109.106 87.3232 107.854 87.0335 107.492 86.9127C107.279 86.8414 107.302 86.7855 107.358 86.7511C108.233 86.5585 109.654 86.4163 109.7 85.998C109.76 85.4624 110.058 85.3893 110.126 85.41C110.143 85.4156 110.19 85.4341 110.255 85.4564Z" fill="#FFCA03"/>
<path d="M105.037 32.8761C105.037 32.8761 104.457 34.1231 104.65 34.3075C104.844 34.4923 105.303 34.5847 105.303 34.5847L105.037 32.8761Z" fill="#E8AD80"/>
<path d="M105.158 36.3372C105.18 36.3536 105.205 36.3647 105.231 36.3729C105.498 36.4584 105.764 36.4795 106.004 36.4683C106.074 36.8062 106.004 38.4388 106.004 38.4388L108.234 37.3732L108.361 36.2517C108.361 36.2517 109.962 32.0736 108.917 31.351C106.835 29.9093 104.897 32.261 104.897 32.261C104.897 32.3044 104.42 35.8717 105.158 36.3372Z" fill="#F4CABA"/>
<path opacity="0.5" d="M104.957 34.044C104.957 34.1854 105.063 34.2998 105.195 34.2998C105.326 34.2998 105.433 34.185 105.433 34.044C105.433 33.903 105.326 33.7882 105.195 33.7882C105.063 33.7878 104.957 33.9026 104.957 34.044Z" fill="#E8AD80"/>
<path d="M105.105 35.0206L104.759 35.0438C104.759 35.0438 104.742 35.3224 104.797 35.3516C104.853 35.3812 105.017 35.2011 105.105 35.0206ZM104.734 33.2526C104.734 33.3455 104.802 33.4211 104.887 33.4211C104.971 33.4211 105.041 33.3455 105.041 33.2526C105.041 33.2342 105.039 33.2161 105.033 33.2002C105.017 33.2226 104.989 33.2367 104.958 33.2367C104.906 33.2367 104.864 33.1963 104.864 33.1465C104.864 33.1215 104.873 33.1009 104.89 33.085H104.887C104.802 33.0854 104.734 33.1598 104.734 33.2526ZM105.071 32.941C105.055 32.8181 104.717 32.8267 104.681 32.9371C104.644 33.0476 105.087 33.0639 105.071 32.941ZM105.807 33.6623C105.821 33.6623 105.835 33.6533 105.839 33.6391C105.85 33.6073 105.935 33.3257 105.799 33.2363C105.724 33.186 105.653 33.1693 105.59 33.186C105.506 33.2084 105.47 33.2827 105.469 33.2862C105.461 33.3025 105.469 33.3218 105.486 33.3292C105.503 33.3369 105.523 33.3296 105.531 33.3128C105.532 33.3111 105.557 33.2621 105.609 33.2488C105.652 33.2376 105.703 33.2518 105.761 33.29C105.841 33.3429 105.796 33.5514 105.774 33.6202C105.769 33.6374 105.779 33.6558 105.797 33.661C105.8 33.6614 105.803 33.6623 105.807 33.6623ZM109.472 30.377C109.472 30.377 108.94 28.9138 107.008 29.2705C107.008 29.2705 106.231 28.4487 105.67 28.8209C105.109 29.1932 105.465 29.5508 105.465 29.5508C105.465 29.5508 104.589 29.1003 104.102 29.7206C103.615 30.3408 103.743 32.3151 104.897 32.4445C106.051 32.5735 109.791 31.4215 109.472 30.377Z" fill="#47271F"/>
<path d="M105.303 33.1108C105.313 33.1185 105.321 33.1276 105.329 33.1357C105.477 33.051 105.823 32.9023 106.005 33.2389C106.144 33.4985 106.009 33.8355 105.782 34.056C105.466 34.2241 105.705 34.5323 105.575 34.8053C105.258 35.4724 106.148 36.5844 107.525 36.5844C108.901 36.5844 110.723 34.1579 110.491 32.6401C110.257 31.1236 109.771 29.6668 107.715 29.4648C105.66 29.2624 104.926 30.6185 104.685 31.4671C104.561 31.9064 104.731 32.5851 105.303 33.1108Z" fill="#47271F"/>
<path d="M105.158 36.3372C105.18 36.3535 105.205 36.3647 105.231 36.3729C105.498 36.4584 105.764 36.4795 106.004 36.4683L105.804 36.1146C105.804 36.1146 105.55 35.9237 105.17 36.323C105.165 36.3273 105.16 36.3321 105.158 36.3372Z" fill="#E8AD80"/>
<path d="M113.09 54.482L111.51 84.3324H109.818L104.836 58.5986C104.835 58.5986 107.126 54.3668 113.09 54.482Z" fill="#47271F"/>
<path d="M112.002 54.482C114.326 58.2096 102.533 69.2946 102.533 69.2946L103.339 83.8376L101.921 84.1368C101.921 84.1368 97.1152 74.1419 97.7284 67.8322C98.342 61.5225 101.807 54.9819 101.807 54.9819C101.807 54.9819 110.696 52.3882 112.002 54.482Z" fill="#5E3F35"/>
<path d="M111.746 39.9024C111.746 39.9024 115.114 45.0653 115.277 47.1853C115.451 49.4441 111.746 52.3512 111.746 52.3512V39.9024Z" fill="#F4CABA"/>
<path d="M110.972 44.9243C111.084 44.9634 114.016 44.0698 114.053 43.5002C114.09 42.9307 111.875 38.4555 109.807 37.7884C107.738 37.1204 110.972 44.9243 110.972 44.9243Z" fill="#F5B501"/>
<path d="M113.412 55.5978C112.118 58.1636 101.968 55.0593 101.808 54.9823C101.646 54.9054 99.6318 37.7463 107.086 37.1307C114.54 36.5147 114.764 52.9177 113.412 55.5978Z" fill="#FFCA03"/>
<path d="M100.384 39.7979L95.5482 41.1318L90.466 35.3885L89.8515 36.3015C89.8515 36.3015 91.5186 42.4656 93.9365 44.0044C96.354 45.5433 101.441 43.5939 101.441 43.5939L100.384 39.7979Z" fill="#F4CABA"/>
<path d="M99.5773 43.7478C98.8804 43.1116 98.1899 41.0978 98.7715 40.3636C100.208 38.5505 105.148 37.3319 106.397 37.7424C107.647 38.1525 102.183 46.1266 99.5773 43.7478Z" fill="#F5B501"/>
<path d="M90.657 32.1909L91.1248 32.384L90.095 34.6586L89.6272 34.4655L90.657 32.1909Z" fill="#F5B501"/>
<path d="M90.4853 33.1882C90.1864 33.0648 89.8397 33.1963 89.7105 33.4813L88.5459 36.0544C88.4167 36.3398 88.5544 36.6708 88.8529 36.7942C89.1518 36.9175 89.4985 36.786 89.6277 36.501L90.7923 33.9279C90.9215 33.6429 90.7842 33.3115 90.4853 33.1882ZM92.3734 29.0182C91.369 28.6034 90.203 29.0453 89.7686 30.0047C89.3346 30.9633 89.7965 32.077 90.8009 32.4914C91.8048 32.9057 92.9713 32.4643 93.4052 31.5057C93.8397 30.5463 93.3773 29.4326 92.3734 29.0182ZM90.9738 32.1097C90.19 31.7864 89.8294 30.9173 90.1679 30.1693C90.5065 29.421 91.4168 29.0767 92.2005 29.3999C92.9843 29.7231 93.3445 30.5923 93.0055 31.3407C92.6669 32.0886 91.7575 32.4333 90.9738 32.1097Z" fill="#5E3F35"/>
<path d="M88.6445 35.4255C88.7026 35.4913 88.7953 35.576 88.9448 35.6877C88.9448 35.6877 88.9444 35.6864 88.9426 35.6847C89.015 35.7428 89.0947 35.7991 89.1771 35.8507C89.3194 35.9405 89.4288 35.9985 89.508 36.0359C89.5084 36.0359 89.5089 36.0363 89.5089 36.0363C89.6264 36.0909 89.6786 36.1 89.6786 36.1C89.6786 36.1 90.7294 37.3366 90.9126 37.4488C91.1426 37.4952 91.6063 36.8586 91.6063 36.8586C91.6135 36.6635 90.5227 35.6985 90.4655 35.3886C90.3989 35.0271 90.701 34.222 90.412 34.2675C90.1225 34.3131 90.1126 34.9015 90.1126 34.9015C90.1126 34.9015 90.109 34.8951 90.1013 34.8835C90.0568 34.8126 89.8821 34.5486 89.6449 34.3694V34.369C89.5787 34.3195 89.5075 34.2765 89.4333 34.246C89.4202 34.2409 89.4067 34.2357 89.3936 34.231C89.3702 34.2228 89.3459 34.2159 89.3212 34.2108L89.309 34.2082C89.2969 34.2056 89.2842 34.2035 89.2721 34.2022H89.2707L89.2703 34.2026C89.2365 34.2073 89.1983 34.2228 89.1573 34.2585C89.0254 34.3737 89.1033 34.4872 89.1033 34.4872C89.1033 34.4872 88.975 34.4347 88.8831 34.5435C88.7854 34.6587 88.8791 34.7244 88.8791 34.7244C88.8791 34.7244 88.7287 34.7116 88.6558 34.8053C88.5784 34.9041 88.6882 34.9785 88.6882 34.9785C88.6882 34.9785 88.5833 34.9548 88.4915 35.0696C88.4095 35.1728 88.6445 35.4255 88.6445 35.4255Z" fill="#F4CABA"/>
<path opacity="0.2" d="M88.9902 34.8727C88.9876 34.8724 88.9848 34.8728 88.9824 34.874C88.98 34.8751 88.978 34.8769 88.9767 34.8792C88.9371 34.9428 88.897 35.0017 88.8241 35.0331C88.7998 35.0434 88.7723 35.0554 88.762 35.0808C88.757 35.0924 88.7575 35.1049 88.7561 35.1169C88.7543 35.1332 88.7471 35.1461 88.7381 35.1599C88.708 35.205 88.6679 35.2441 88.6247 35.2777C88.6049 35.2931 88.5837 35.3077 88.5617 35.3211C88.5036 35.239 88.4451 35.1294 88.4928 35.0696C88.5846 34.9548 88.6895 34.9785 88.6895 34.9785C88.6895 34.9785 88.5797 34.9041 88.6566 34.8053C88.73 34.7116 88.8799 34.7244 88.8799 34.7244C88.8799 34.7244 88.7863 34.6587 88.884 34.5435C88.9754 34.4347 89.1041 34.4872 89.1041 34.4872C89.1041 34.4872 89.0262 34.3737 89.1582 34.2585C89.1991 34.2228 89.2374 34.2073 89.2711 34.2026C89.2716 34.2026 89.2716 34.2026 89.2716 34.2022H89.273C89.2851 34.2039 89.2977 34.2056 89.3099 34.2082C89.3139 34.2091 89.3184 34.2099 89.322 34.2108C89.3463 34.2159 89.3706 34.2228 89.3945 34.231C89.4076 34.2357 89.4211 34.2409 89.4341 34.246C89.395 34.2632 89.3589 34.2916 89.3288 34.3191C89.2946 34.3505 89.2617 34.3879 89.254 34.4339C89.2455 34.482 89.2671 34.5284 89.2635 34.5766C89.2594 34.6269 89.218 34.6686 89.1717 34.6888C89.1316 34.7064 89.0884 34.7073 89.0564 34.7399C89.0213 34.7765 89.0078 34.8255 88.9902 34.8706C88.9907 34.8719 88.9902 34.8723 88.9902 34.8727ZM90.4696 34.32C90.4696 34.32 90.416 34.534 90.4425 34.5641C90.4691 34.5942 90.5132 34.571 90.5132 34.571C90.5132 34.571 90.5303 34.3604 90.4696 34.32Z" fill="white"/>
<path d="M43.8354 47.0031C43.8354 47.0031 47.0254 52.95 44.7439 54.7257C43.3726 55.793 41.4305 49.1261 41.4129 48.4078C41.3954 47.6895 43.8354 47.0031 43.8354 47.0031Z" fill="#F4CABA"/>
<path opacity="0.35" d="M44.0681 54.7115C44.1307 54.5052 44.1595 54.2898 44.1613 54.0753C44.1631 53.8015 44.0884 53.5475 44.0483 53.2784C44.001 52.9595 44.0069 52.6358 43.9682 52.316C43.9263 51.9725 43.8259 51.6441 43.7332 51.3114C43.5707 50.7251 43.5405 49.984 44.0902 49.5624C44.3094 49.3943 44.5746 49.3337 44.8496 49.3143C44.3733 48.0085 43.8349 47.0039 43.8349 47.0039C43.8349 47.0039 41.3949 47.6899 41.4124 48.4086C41.4278 49.0139 42.8121 53.8535 44.0681 54.7115Z" fill="#E8AD80"/>
<path d="M36.9646 33.3631C31.828 33.7225 34.8798 36.3527 31.2193 38.3644C27.5588 40.3761 24.2324 38.0755 25.3318 41.8281C23.4554 42.8335 21.2292 44.4506 22.8931 46.0135C25.4857 48.4491 26.9713 48.0356 26.9713 48.0356C26.9713 48.0356 25.4393 55.3008 33.0273 53.2393C38.746 51.6858 37.8375 47.5812 38.0739 45.2983C39.0049 45.018 39.5771 44.4407 39.5658 43.4731C39.5163 39.1987 40.9808 33.0824 36.9646 33.3631Z" fill="#47271F"/>
<path d="M43.7548 45.6267C44.9509 47.0043 42.117 49.3693 41.5128 48.9932C40.9087 48.6171 38.0608 42.1823 38.0608 42.1823C38.0608 42.1823 40.8322 42.2601 43.7548 45.6267Z" fill="#F5B501"/>
<path d="M37.1812 71.0741L37.2172 71.2663H44.359C44.1559 65.8897 43.8084 60.7492 43.8084 60.7492H35.3939L37.1605 70.9731L37.1812 71.0741Z" fill="#5E3F35"/>
<path d="M37.1812 71.0741L37.2172 71.2663H40.5396C40.5603 71.1665 40.5814 71.0668 40.5945 70.9645C40.7331 69.8736 40.3892 68.8376 40.1128 67.7935C39.9917 67.3357 39.8269 66.8333 39.9115 66.3565C39.9701 66.0269 40.1628 65.7681 40.4333 65.5626C40.7809 65.2987 41.1838 65.1091 41.539 64.8551C42.0288 64.5052 42.4979 64.1299 42.9634 63.7508C43.2902 63.4847 43.6175 63.2187 43.9475 62.956C43.866 61.5934 43.8088 60.7487 43.8088 60.7487H35.3943L37.1609 70.9727L37.1812 71.0741Z" fill="#47271F"/>
<path d="M37.4364 71.2662L39.509 60.6421H28.7779L29.5864 71.2662H37.4364Z" fill="#5E3F35"/>
<path d="M37.0133 41.9081C41.6831 41.9046 45.8338 58.6601 44.1474 61.1214C42.461 63.5827 28.7761 64.8529 28.5168 61.1214C28.2575 57.3899 30.8695 41.9123 37.0133 41.9081Z" fill="#FFCA03"/>
<path d="M34.9437 42.7329C34.941 43.1232 35.7455 44.3788 36.6665 44.384C37.5876 44.3891 38.2764 43.1426 38.2787 42.7523C38.2814 42.362 37.5363 42.0409 36.6157 42.0357C35.6946 42.0301 34.9464 42.3422 34.9437 42.7329Z" fill="#F5B501"/>
<path d="M35.47 42.6311C35.47 42.6311 35.9967 44.1201 36.7165 44.1244C37.4368 44.1287 37.756 42.665 37.756 42.665C37.756 42.665 37.6565 41.9897 37.5841 41.4902C37.5413 41.1876 37.5062 40.9396 37.5021 40.8992L35.6987 40.8889L35.5974 41.6583L35.47 42.6311Z" fill="#F4CABA"/>
<path opacity="0.35" d="M35.5978 41.6583C35.8846 41.9394 36.2223 42.1329 36.4951 42.1342C36.8264 42.1359 37.2572 41.8612 37.5841 41.4902C37.5413 41.1876 37.5062 40.9396 37.5021 40.8992L35.6987 40.8889L35.5978 41.6583Z" fill="#E8AD80"/>
<path d="M39.5469 37.8421C39.3439 37.4639 38.9747 37.5722 38.7654 37.6753C38.7559 36.8651 38.6555 36.247 38.6555 36.247C38.6484 36.2037 38.6338 36.1619 38.6123 36.1232C38.1905 35.395 35.1067 35.3675 34.4809 36.0385C34.4211 36.1004 34.3851 36.1713 34.3729 36.247C34.3729 36.247 34.2788 36.8685 34.2766 37.6818C34.0699 37.5769 33.6904 37.4566 33.4833 37.8426C33.1943 38.3812 33.8444 39.1824 34.3932 39.1605C34.6061 40.3499 35.9706 41.4511 36.514 41.4511C37.2122 41.4511 38.4503 40.3503 38.6578 39.1613C39.2025 39.1618 39.8319 38.3734 39.5469 37.8421Z" fill="#F4CABA"/>
<path opacity="0.35" d="M38.0581 39.2387C38.0811 39.3694 37.9321 39.5022 37.7254 39.5353C37.5188 39.5684 37.3324 39.4897 37.3094 39.3591C37.2865 39.2284 37.4355 39.096 37.6421 39.0625C37.8488 39.0294 38.0351 39.108 38.0581 39.2387ZM34.9721 39.2387C34.9491 39.3694 35.0981 39.5022 35.3048 39.5353C35.5114 39.5684 35.6978 39.4897 35.7207 39.3591C35.7437 39.2284 35.5947 39.096 35.388 39.0625C35.1814 39.0294 34.9955 39.108 34.9721 39.2387Z" fill="#E8AD80"/>
<path d="M36.5018 40.6611C36.2646 40.6611 36.1259 40.4707 36.1237 40.4676C36.102 40.4371 36.1025 40.3877 36.1246 40.3576C36.1466 40.3275 36.9182 40.3357 36.9349 40.3722C36.9511 40.4088 36.943 40.4565 36.9164 40.4793C36.7575 40.6155 36.618 40.6611 36.5018 40.6611Z" fill="#EAEFEE"/>
<path d="M36.4095 39.099C36.3348 38.9374 36.4446 38.7543 36.4496 38.7461C36.4548 38.7375 36.4617 38.73 36.47 38.724C36.4783 38.718 36.4877 38.7136 36.4977 38.7111C36.5078 38.7086 36.5182 38.708 36.5285 38.7093C36.5388 38.7107 36.5487 38.714 36.5576 38.719C36.5954 38.7396 36.608 38.7861 36.5864 38.8222C36.5648 38.8578 36.5207 38.9657 36.5563 39.0418C36.5842 39.0968 36.6567 39.1325 36.771 39.1484C36.7912 39.1519 36.8092 39.1627 36.8212 39.1786C36.8332 39.1945 36.8383 39.2142 36.8353 39.2336C36.8324 39.253 36.8217 39.2705 36.8055 39.2825C36.7893 39.2945 36.7689 39.3001 36.7485 39.298C36.5783 39.2744 36.4658 39.2099 36.4136 39.1067L36.4095 39.099ZM37.8915 38.1232C37.8915 38.2552 37.7965 38.3622 37.68 38.3622C37.5634 38.3622 37.4684 38.2556 37.4684 38.1232C37.4684 37.9913 37.5634 37.8838 37.68 37.8838C37.7128 37.8838 37.7434 37.892 37.7713 37.9079C37.7299 37.9195 37.6993 37.962 37.6993 38.0128C37.6993 38.0725 37.7425 38.1211 37.7957 38.1211C37.8344 38.1211 37.8686 38.0944 37.8834 38.0566C37.8884 38.0785 37.8915 38.1 37.8915 38.1232ZM35.7144 38.0927C35.7144 38.2247 35.6194 38.3313 35.5028 38.3313C35.3862 38.3313 35.2913 38.2247 35.2913 38.0927C35.2913 37.9607 35.3862 37.8533 35.5028 37.8533C35.5357 37.8533 35.5663 37.8615 35.5942 37.8774C35.5528 37.889 35.5222 37.9315 35.5222 37.9822C35.5222 38.042 35.5654 38.0906 35.6185 38.0906C35.6573 38.0906 35.6915 38.0639 35.7063 38.0261C35.7117 38.048 35.7144 38.0699 35.7144 38.0927ZM39.3781 38.3106C39.3934 38.3106 39.4082 38.3016 39.4141 38.2874C39.5455 37.9663 39.2092 37.7763 39.2056 37.7746C39.1968 37.7698 39.1863 37.7685 39.1764 37.771C39.1666 37.7735 39.1582 37.7796 39.153 37.788C39.1422 37.8056 39.1485 37.8279 39.1669 37.8382C39.1786 37.8447 39.4492 37.999 39.3421 38.2604C39.3344 38.2793 39.3443 38.3008 39.3637 38.3081C39.3686 38.3098 39.3736 38.3106 39.3781 38.3106ZM33.603 38.3137C33.5877 38.3137 33.5729 38.3046 33.567 38.2904C33.4356 37.9693 33.7719 37.7798 33.7755 37.7776C33.7939 37.7673 33.8173 37.7738 33.8281 37.791C33.8389 37.8086 33.8326 37.8309 33.8142 37.8413C33.8025 37.8477 33.5319 38.002 33.6391 38.2634C33.6467 38.2823 33.6368 38.3038 33.6174 38.3111C33.6125 38.3128 33.6075 38.3137 33.603 38.3137ZM35.9917 37.6401C35.9917 37.6401 35.1868 37.6014 35.1058 37.5257C35.0247 37.4501 35.2768 37.2902 35.6316 37.3762C35.9863 37.4617 36.084 37.6375 35.9917 37.6401ZM37.2455 37.6401C37.2455 37.6401 38.0505 37.6014 38.1315 37.5257C38.2125 37.4501 37.9604 37.2902 37.6057 37.3762C37.2509 37.4617 37.1532 37.6375 37.2455 37.6401ZM37.1145 35.7015C37.1145 35.7015 35.8292 37.1621 34.2567 37.1475C33.7642 36.1777 34.2063 35.2286 35.5033 34.6651C36.8003 34.1016 38.2494 35.1573 38.6551 35.701C39.0602 36.2448 38.8171 37.3508 38.8171 37.3508C38.8171 37.3508 37.2334 37.1823 37.1145 35.7015Z" fill="#47271F"/>
<path d="M46.9003 51.418L25.4029 57.4724C23.4189 58.0312 22.2808 60.0275 22.8661 61.9218C23.4513 63.8161 25.542 64.9028 27.526 64.344L49.0234 58.2896C51.0083 57.7308 52.1455 55.7346 51.5602 53.8402C50.9745 51.9459 48.8847 50.8588 46.9003 51.418ZM48.9028 57.901L27.4053 63.9554C26.5243 64.2034 25.6212 64.0869 24.8735 63.6984C24.1257 63.3089 23.5328 62.6482 23.273 61.807C22.7531 60.1237 23.7601 58.3575 25.5226 57.861L47.0201 51.8066C47.902 51.5582 48.8051 51.6751 49.5524 52.0637C50.2997 52.4522 50.8926 53.1133 51.1528 53.955C51.6728 55.6374 50.6657 57.4045 48.9028 57.901Z" fill="#F4EDE1"/>
<path d="M51.1528 53.955C51.6728 55.6374 50.6657 57.4045 48.9027 57.901L27.4053 63.9554C26.5243 64.2034 25.6212 64.0869 24.8735 63.6983C24.1257 63.3089 23.5328 62.6482 23.273 61.807C22.7531 60.1237 23.7601 58.3575 25.5226 57.861L47.0201 51.8066C47.902 51.5581 48.805 51.6751 49.5524 52.0636C50.3001 52.4522 50.8926 53.1129 51.1528 53.955Z" fill="#F9D980"/>
<path d="M28.796 60.3851C28.7556 60.3745 28.7135 60.3715 28.6719 60.3764C28.6304 60.3813 28.5902 60.394 28.5538 60.4137C28.5174 60.4334 28.4854 60.4598 28.4597 60.4913C28.434 60.5229 28.415 60.5589 28.4038 60.5974L27.9811 62.0589C27.97 62.0975 27.9669 62.1377 27.972 62.1774C27.9772 62.217 27.9904 62.2553 28.0111 62.2901C28.0317 62.3249 28.0594 62.3554 28.0924 62.38C28.1254 62.4046 28.1632 62.4227 28.2035 62.4333C28.2439 62.444 28.286 62.4469 28.3275 62.442C28.3691 62.4371 28.4092 62.4244 28.4456 62.4047C28.482 62.385 28.514 62.3586 28.5398 62.3271C28.5655 62.2956 28.5845 62.2595 28.5956 62.221L29.0183 60.7595C29.0295 60.721 29.0326 60.6807 29.0274 60.6411C29.0223 60.6014 29.009 60.5631 28.9884 60.5283C28.9677 60.4936 28.9401 60.463 28.9071 60.4384C28.8741 60.4139 28.8363 60.3957 28.796 60.3851Z" fill="#F5B501"/>
<path d="M29.2916 58.5827C28.7212 58.4323 28.131 58.7521 27.9735 59.2967C27.8159 59.8413 28.1504 60.4049 28.7208 60.5553C29.2912 60.7058 29.8814 60.3859 30.0389 59.8418C30.1965 59.2971 29.862 58.7332 29.2916 58.5827ZM28.7834 60.3387C28.3381 60.2213 28.077 59.7816 28.1999 59.3569C28.3228 58.9318 28.7834 58.6825 29.2286 58.7998C29.6738 58.9171 29.9345 59.3569 29.8116 59.782C29.6891 60.2067 29.2286 60.456 28.7834 60.3387ZM34.544 60.0438C33.9984 60.1972 33.4923 60.0588 33.3231 59.574L33.9803 59.3887C34.056 59.5697 34.2063 59.6251 34.3797 59.5761C34.5602 59.5254 34.6493 59.4063 34.6057 59.2649C34.467 58.8166 33.274 59.4149 33.016 58.5544C32.8742 58.0957 33.1894 57.7295 33.7201 57.5799C34.273 57.4243 34.7259 57.5816 34.8938 58.0364L34.2257 58.2247C34.1672 58.0725 34.0227 58.0119 33.8552 58.0553C33.7062 58.0936 33.6166 58.1976 33.6634 58.3493C33.7935 58.7701 34.9883 58.2272 35.2386 59.0379C35.3642 59.4454 35.1364 59.877 34.544 60.0438ZM36.7913 57.2665L35.8558 57.53L36.0071 58.0196L36.8341 57.7866L36.9746 58.2419L36.1476 58.4748L36.3114 59.0061L37.2469 58.7426L37.3928 59.215L35.8396 59.6526L35.0919 57.2317L36.645 56.7941L36.7913 57.2665ZM39.2404 58.2303L38.2941 58.4968L38.2747 58.967L37.6282 59.1493L37.7979 56.47L38.5128 56.2684L40.1781 58.431L39.5244 58.615L39.2404 58.2303ZM38.3526 57.0219L38.3157 57.9956L38.9405 57.8197L38.3526 57.0219ZM40.7444 55.64C41.3657 55.465 41.7817 55.7191 41.9118 56.1399C42.0054 56.4434 41.9208 56.7782 41.5647 56.9987L42.4461 57.7927L41.7493 57.9891L40.9394 57.2235L40.7913 57.2652L41.0735 58.1791L40.4559 58.3532L39.7081 55.9323L40.7444 55.64ZM40.8597 56.1395L40.4766 56.2474L40.662 56.8474L41.0452 56.7395C41.2766 56.6746 41.3495 56.5302 41.291 56.3406C41.2351 56.1614 41.0906 56.0746 40.8597 56.1395ZM43.2241 54.9114C43.8273 54.7416 44.3824 54.9376 44.689 55.4212L44.0101 55.6125C43.8413 55.435 43.618 55.3855 43.3834 55.4517C43.0044 55.5583 42.8275 55.9009 42.9594 56.3286C43.0913 56.7563 43.4348 56.9519 43.8138 56.8453C44.0484 56.7791 44.2082 56.6218 44.2487 56.3853L44.9276 56.1941C44.9451 56.7589 44.5891 57.2081 43.9858 57.3779C43.238 57.5885 42.5542 57.23 42.3305 56.5057C42.1067 55.781 42.4763 55.122 43.2241 54.9114ZM46.8328 55.4732L45.8721 55.744L46.18 56.7408L45.5624 56.9149L44.8146 54.494L45.4323 54.3199L45.7253 55.2682L46.686 54.9974L46.393 54.0491L47.0106 53.875L47.7584 56.2959L47.1407 56.47L46.8328 55.4732Z" fill="#F5B501"/>
<path d="M28.4997 48.1263C28.4997 48.1263 26.1817 53.5978 27.6232 55.3421C28.5497 56.4632 33.8187 61.4752 33.8187 61.4752L34.5858 60.931L29.7926 53.1791L31.4106 48.802L28.4997 48.1263Z" fill="#F4CABA"/>
<path d="M28.3381 47.5103C27.3994 49.0594 30.6737 50.2695 31.1743 49.7734C31.6749 49.2774 34.8159 42.604 34.8159 42.604C34.8159 42.604 31.3107 42.604 28.3381 47.5103Z" fill="#F5B501"/>
<path d="M34.3098 62.5627C34.2593 62.4999 34.1972 62.4041 34.1216 62.2541C34.1216 62.2541 34.1225 62.2549 34.1238 62.2566C34.0829 62.1831 34.0459 62.104 34.0131 62.0232C33.9564 61.8835 33.9226 61.7787 33.9032 61.703C33.9032 61.7026 33.9032 61.7021 33.9028 61.7021C33.8744 61.5908 33.8758 61.5444 33.8758 61.5444C33.8758 61.5444 32.916 60.4027 32.8462 60.2235C32.8471 60.0171 33.5363 59.7429 33.5363 59.7429C33.7214 59.7743 34.4174 60.8983 34.6983 61.0075C35.0256 61.1347 35.8422 61.0324 35.7432 61.2714C35.6441 61.5109 35.0881 61.4051 35.0881 61.4051C35.0881 61.4051 35.0935 61.4094 35.103 61.418C35.1611 61.47 35.3754 61.6712 35.4978 61.9098V61.9102C35.5316 61.9768 35.5581 62.046 35.5725 62.1156L35.5793 62.1526C35.5824 62.1745 35.5842 62.1969 35.5842 62.2188V62.23C35.5842 62.2412 35.5838 62.2519 35.5829 62.2627V62.264C35.5824 62.264 35.5824 62.264 35.5824 62.2644C35.5716 62.2923 35.5491 62.322 35.5077 62.3504C35.3736 62.441 35.2822 62.3525 35.2822 62.3525C35.2822 62.3525 35.3065 62.4729 35.1863 62.5305C35.0589 62.5919 35.0152 62.4986 35.0152 62.4986C35.0152 62.4986 34.9981 62.6297 34.8955 62.6745C34.7874 62.7217 34.7388 62.613 34.7388 62.613C34.7388 62.613 34.7406 62.7076 34.615 62.7643C34.502 62.8137 34.3098 62.5627 34.3098 62.5627Z" fill="#F4CABA"/>
<path opacity="0.2" d="M34.8974 62.374C34.8969 62.3783 34.8946 62.3826 34.8883 62.3843C34.8208 62.4058 34.7573 62.429 34.7137 62.4853C34.6993 62.5042 34.6826 62.5253 34.6565 62.5292C34.6448 62.5309 34.6331 62.5287 34.6214 62.5274C34.6056 62.5257 34.5921 62.5292 34.5777 62.5347C34.5295 62.5519 34.4845 62.5786 34.4449 62.6095C34.4265 62.6237 34.4089 62.6388 34.3918 62.6551C34.4575 62.7209 34.5498 62.7922 34.6151 62.763C34.7411 62.7067 34.7389 62.6117 34.7389 62.6117C34.7389 62.6117 34.7875 62.7204 34.8955 62.6732C34.9977 62.6285 35.0149 62.4973 35.0149 62.4973C35.0149 62.4973 35.0585 62.5902 35.1859 62.5292C35.3061 62.4716 35.2818 62.3512 35.2818 62.3512C35.2818 62.3512 35.3732 62.4402 35.5078 62.3495C35.5492 62.3211 35.5713 62.2915 35.5825 62.2635C35.583 62.2635 35.583 62.2635 35.583 62.2631V62.2618C35.5839 62.251 35.5843 62.2399 35.5843 62.2291V62.2179C35.5843 62.196 35.5825 62.1741 35.5794 62.1518C35.5776 62.1393 35.5753 62.1273 35.5726 62.1148C35.5488 62.1449 35.515 62.1702 35.4835 62.1909C35.4475 62.2141 35.4056 62.2347 35.361 62.2326C35.3142 62.2304 35.2746 62.2029 35.2287 62.1965C35.1805 62.19 35.1333 62.2175 35.1053 62.2536C35.081 62.2846 35.0716 62.3215 35.0347 62.3422C34.9937 62.3654 34.9446 62.3675 34.8987 62.3736C34.8982 62.3736 34.8978 62.374 34.8974 62.374ZM35.705 61.2121C35.705 61.2121 35.493 61.2164 35.47 61.1876C35.4466 61.1588 35.4772 61.1253 35.4772 61.1253C35.4772 61.1253 35.6789 61.1519 35.705 61.2121Z" fill="white"/>
<path d="M43.5221 45.5725L43.893 46.6089L43.5464 46.9201L44.0069 48.0093C44.0069 48.0093 44.6907 48.2359 44.4319 48.6567C44.173 49.0775 43.0971 49.0633 43.0971 49.0633C43.0971 49.0633 41.6133 45.4792 41.7816 45.2647C41.9495 45.0507 43.5221 45.5725 43.5221 45.5725Z" fill="#E8DDC5"/>
<path d="M43.4783 47.0164C43.4783 47.0164 43.3838 47.1036 43.4522 47.2223C43.5211 47.3409 43.6093 47.3293 43.6093 47.3293C43.6093 47.3293 43.6008 47.3904 43.6274 47.5253C43.6539 47.6603 43.78 47.6435 43.78 47.6435C43.78 47.6435 43.8196 47.7213 43.816 47.7557C43.8124 47.7901 43.7575 47.9414 43.8461 47.9642C43.9353 47.9866 43.9884 47.9681 43.9884 47.9681L43.7957 47.5086L43.6179 47.0925L43.4783 47.0164Z" fill="url(#paint0_linear_372_2266)"/>
<path d="M43.2051 45.4887L43.6004 46.5831L43.2335 46.9106L43.7237 48.0609C43.7237 48.0609 44.4494 48.3007 44.1757 48.7443C43.902 49.1879 42.7603 49.1712 42.7603 49.1712C42.7603 49.1712 42.4434 46.7799 41.358 45.1616C41.5362 44.9355 43.2051 45.4887 43.2051 45.4887Z" fill="#E8AD80"/>
<path opacity="0.1" d="M42.6937 47.9706C42.6617 47.7505 42.6117 47.5348 42.5496 47.3207C42.4861 47.1032 42.4137 46.8883 42.3502 46.6703C42.3268 46.5895 42.3016 46.5087 42.2876 46.4257C42.2732 46.3424 42.2674 46.2525 42.2975 46.1713C42.352 46.0243 42.5073 45.9757 42.6545 45.9546C42.8085 45.9327 42.9638 45.9379 43.1187 45.9263C43.1992 45.9202 43.2798 45.9211 43.3604 45.919L43.2046 45.4882C43.2046 45.4882 41.5358 44.935 41.358 45.1611C42.2219 46.4494 42.5987 48.2272 42.7166 48.8991C42.7477 48.5905 42.7382 48.2775 42.6937 47.9706Z" fill="#47271F"/>
<path d="M43.6283 47.2721C43.5698 47.2906 43.4991 47.2395 43.4708 47.1578C43.4424 47.0761 43.4676 46.9949 43.5266 46.9764C43.5856 46.9579 43.6558 47.0091 43.6842 47.0907C43.7121 47.1724 43.6873 47.2537 43.6283 47.2721ZM43.7859 47.6031C43.7269 47.6216 43.6567 47.5705 43.6283 47.4888C43.6004 47.4071 43.6252 47.3259 43.6842 47.3074C43.7431 47.2889 43.8134 47.3401 43.8417 47.4217C43.8696 47.5038 43.8449 47.5846 43.7859 47.6031ZM43.9435 47.9345C43.8845 47.953 43.8143 47.9019 43.7859 47.8202C43.758 47.7385 43.7827 47.6573 43.8417 47.6388C43.9007 47.6203 43.9709 47.6715 43.9993 47.7531C44.0272 47.8348 44.0024 47.9161 43.9435 47.9345Z" fill="#E8AD80"/>
<path opacity="0.26" d="M43.568 47.0056C43.595 46.9794 43.6621 47.0413 43.6612 47.1226C43.6603 47.2038 43.6256 47.2833 43.5837 47.2472C43.5414 47.2111 43.6225 47.1845 43.6085 47.1256C43.5945 47.0671 43.5446 47.028 43.568 47.0056ZM43.7476 47.3637C43.7706 47.3414 43.8273 47.3938 43.8264 47.463C43.8255 47.5322 43.7967 47.5993 43.7607 47.5687C43.7246 47.5382 43.7931 47.5154 43.7818 47.4656C43.7701 47.4153 43.7278 47.3826 43.7476 47.3637ZM43.8953 47.6917C43.9182 47.6698 43.975 47.7218 43.9741 47.791C43.9732 47.8602 43.9439 47.9272 43.9083 47.8967C43.8728 47.8662 43.9407 47.8434 43.9295 47.7936C43.9182 47.7441 43.8755 47.711 43.8953 47.6917Z" fill="#F9F9F9"/>
<path d="M40.685 44.6883C40.902 45.1702 40.8853 45.6404 40.6472 45.738C40.409 45.8356 40.0403 45.5244 39.8229 45.0421C39.6059 44.5602 39.623 44.0904 39.8607 43.9924C40.0988 43.8948 40.4675 44.206 40.685 44.6883Z" fill="#E8DDC5"/>
<path d="M41.1338 44.5039C41.4629 45.2346 41.5075 45.9177 41.2338 46.0303C40.9601 46.1429 40.4711 45.6417 40.1421 44.9114C39.813 44.1806 39.768 43.4976 40.0421 43.385C40.3158 43.2724 40.8043 43.7731 41.1338 44.5039Z" fill="white"/>
<path d="M43.9826 41.3316L40.2771 42.8533C40.0034 42.9659 40.1222 43.8131 40.5422 44.7463C40.9623 45.6795 41.525 46.3445 41.7992 46.2319L45.5047 44.7102L43.9826 41.3316Z" fill="#E8DDC5"/>
<path d="M45.2396 42.8176C45.6596 43.7508 45.7785 44.598 45.5047 44.7107C45.231 44.8233 44.6683 44.1579 44.2478 43.2251C43.8273 42.2919 43.7089 41.4447 43.9826 41.332C44.2568 41.2194 44.8195 41.8844 45.2396 42.8176Z" fill="#E8AD80"/>
<path d="M48.2679 37.1673C46.6459 39.5959 44.0937 41.4249 44.0937 41.4249L44.0991 41.4374C43.9177 41.556 44.0681 42.3048 44.4462 43.1435C44.8348 44.0062 45.3169 44.6368 45.5226 44.5525C45.5325 44.5486 45.5411 44.5426 45.5492 44.5357C45.9616 44.4738 48.8626 44.0724 51.6065 44.5783C54.5687 45.1242 55.276 44.9157 55.276 44.9157L53.0457 39.9647L52.7657 39.3432L50.5355 34.3922C50.5346 34.3918 49.8899 34.7386 48.2679 37.1673Z" fill="#F9F5ED"/>
<path opacity="0.1" d="M53.8341 41.715C53.7319 41.7451 53.6284 41.7709 53.5226 41.789C53.1957 41.8457 52.8662 41.8182 52.5533 41.7129C52.2908 41.6243 52.0378 41.5018 51.7884 41.3845C51.6079 41.2998 51.4346 41.2022 51.2455 41.1356C51.0659 41.072 50.8412 41.0187 50.7143 41.1953C50.5891 41.3703 50.5644 41.5904 50.3523 41.6987C50.2276 41.7623 50.089 41.7976 49.953 41.8307C49.8058 41.8663 49.6613 41.9132 49.5127 41.9433C49.2075 42.0056 48.9041 42.089 48.5907 42.1131C47.9042 42.1651 48.0231 42.4329 48.024 42.5223C48.0258 42.7045 48.1959 43.1967 48.118 43.2552C48.0568 43.3012 47.9956 43.348 47.9245 43.3785C47.8695 43.4022 47.8137 43.4228 47.757 43.4422C47.6242 43.4877 47.4864 43.5264 47.3464 43.5462C47.2451 43.5604 45.7343 44.5512 45.2521 43.5973C45.1819 43.4585 44.955 43.5449 44.8524 43.434C44.802 43.3794 44.7596 43.3179 44.7232 43.2539C44.6777 43.1739 44.6453 43.0884 44.5917 43.0123C44.5215 42.9126 44.4211 42.8326 44.3036 42.8013C44.3468 42.9126 44.3941 43.0269 44.4468 43.143C44.8353 44.0057 45.3174 44.6363 45.5231 44.552C45.5331 44.5482 45.5416 44.5421 45.5497 44.5353C45.9621 44.4734 48.8631 44.0719 51.607 44.5778C54.5692 45.1237 55.2765 44.9153 55.2765 44.9153L53.8341 41.715Z" fill="#47271F"/>
<path d="M53.8557 39.2602C55.1639 42.1647 55.7762 44.7038 55.2233 44.9308C54.6701 45.1577 53.161 42.9874 51.8523 40.0829C50.5441 37.1785 49.9318 34.6393 50.4847 34.4124C51.0379 34.185 52.547 36.3557 53.8557 39.2602Z" fill="#E8AD80"/>
<path d="M55.1221 44.6449C54.6957 44.8203 53.545 43.1998 52.4236 40.9014C52.285 40.6168 52.1459 40.3219 52.0095 40.0184C51.8782 39.727 51.7512 39.4338 51.6286 39.139C50.6485 36.774 50.2055 34.8547 50.6328 34.6789C51.1122 34.482 52.5056 36.5534 53.7454 39.3053C54.9857 42.0572 55.6015 44.4476 55.1221 44.6449Z" fill="#E7D8BC"/>
<path opacity="0.1" d="M52.4452 36.7542C52.5501 36.9756 52.6537 37.1978 52.7545 37.4213C53.0165 38.002 53.256 38.5888 53.4829 39.1794C53.6477 39.6075 53.8048 40.0382 53.9367 40.4676C54.0627 40.8786 54.1676 41.2938 54.214 41.679C54.2577 42.0448 54.2424 42.3762 54.146 42.6143C54.0389 42.8795 53.8413 43.0188 53.6193 43.0811C54.2842 44.139 54.8506 44.7571 55.1225 44.6453C55.6019 44.4485 54.9856 42.0577 53.7458 39.3058C53.3159 38.3511 52.8675 37.4789 52.4452 36.7542Z" fill="#47271F"/>
<path d="M53.6382 40.2566L52.4236 40.9013C52.285 40.6168 52.1459 40.3219 52.0095 40.0184C51.8782 39.727 51.7512 39.4338 51.6286 39.139L52.9625 38.7573L53.6382 40.2566Z" fill="#F9F5ED"/>
<path d="M53.5446 39.4068C53.731 39.8207 53.7729 40.2016 53.6383 40.2566C53.5032 40.312 53.243 40.0214 53.0566 39.6075C52.8702 39.1936 52.8284 38.8131 52.963 38.7577C53.0976 38.7018 53.3582 38.9928 53.5446 39.4068Z" fill="#E8AD80"/>
<path d="M53.4631 39.4403C53.6076 39.761 53.6517 40.0507 53.5622 40.0877C53.4726 40.1246 53.2826 39.8942 53.1381 39.574C52.9936 39.2533 52.9494 38.9636 53.039 38.9266C53.1286 38.8897 53.3186 39.1196 53.4631 39.4403Z" fill="#F4EDE1"/>
<path d="M44.8951 48.4598C44.4755 48.6734 43.1659 48.9696 42.9935 48.5144C42.9129 48.3016 43.0691 48.1654 43.2182 48.1082C43.03 48.1344 42.813 48.1516 42.7662 47.8774C42.7329 47.6818 42.8233 47.5825 43.1371 47.4909C43.0151 47.5098 42.7085 47.5219 42.6712 47.3207C42.6073 46.9794 42.8895 46.9025 42.9971 46.8621C42.9228 46.8715 42.8616 46.7705 42.8513 46.6377C42.8382 46.4726 42.7734 46.3127 43.2731 46.1971C43.4392 46.1588 43.4721 46.0509 43.7026 46.0471C43.8804 46.0441 44.0645 46.0221 44.209 46.087C44.9055 46.4 45.2679 48.2698 44.8951 48.4598Z" fill="#F4CABA"/>
<path d="M43.8007 47.9569C43.5369 47.9981 43.2677 48.0716 43.2528 48.0759C43.2384 48.0798 43.2303 48.094 43.2344 48.1078C43.2384 48.1215 43.2533 48.1292 43.2677 48.1254C43.2722 48.1241 43.7318 47.9981 44.033 47.9831C44.0478 47.9827 44.0591 47.9702 44.0582 47.956C44.058 47.9527 44.0571 47.9494 44.0556 47.9463C44.054 47.9433 44.0519 47.9406 44.0493 47.9383C44.0466 47.9361 44.0436 47.9344 44.0402 47.9333C44.0369 47.9322 44.0334 47.9317 44.0298 47.9319C43.9596 47.935 43.8804 47.9444 43.8007 47.9569ZM43.6958 47.3409C43.432 47.3822 43.1628 47.4561 43.1479 47.46C43.1335 47.4638 43.1254 47.478 43.1295 47.4918C43.1335 47.5055 43.1484 47.5128 43.1628 47.5094C43.1673 47.5081 43.6269 47.3822 43.9281 47.3671C43.943 47.3663 43.9542 47.3542 43.9533 47.34C43.9531 47.3367 43.9522 47.3334 43.9507 47.3304C43.9492 47.3273 43.947 47.3246 43.9444 47.3224C43.9417 47.3201 43.9387 47.3184 43.9353 47.3173C43.932 47.3162 43.9285 47.3158 43.9249 47.316C43.8543 47.319 43.775 47.3284 43.6958 47.3409ZM43.59 46.7249C43.3266 46.7662 43.057 46.8397 43.0426 46.844C43.0282 46.8479 43.0201 46.8621 43.0241 46.8758C43.0282 46.8896 43.043 46.8973 43.0574 46.8934C43.0619 46.8921 43.5216 46.7662 43.8228 46.7512C43.8376 46.7503 43.8489 46.7383 43.848 46.7241C43.8478 46.7207 43.8469 46.7174 43.8453 46.7144C43.8438 46.7114 43.8417 46.7086 43.839 46.7064C43.8364 46.7042 43.8333 46.7024 43.83 46.7013C43.8267 46.7003 43.8231 46.6998 43.8196 46.7C43.7489 46.703 43.6697 46.7125 43.59 46.7249Z" fill="#E8AD80"/>
<path d="M41.9262 47.0447C41.9401 46.9837 42.1657 46.0608 42.5501 46.0819C42.9346 46.1025 42.5528 47.5653 42.5866 47.576C42.6204 47.5868 42.6303 48.8114 42.6303 48.7908C42.6303 48.7701 41.7808 47.6822 41.9262 47.0447Z" fill="#F4CABA"/>
<path opacity="0.5" d="M42.1705 46.4215C42.1705 46.4215 42.3322 46.4675 42.3398 46.4606C42.3475 46.4537 42.4605 46.1528 42.4609 46.1236C42.4609 46.0944 42.2975 46.1717 42.1705 46.4215Z" fill="white"/>
<path d="M21.0841 48.2849L18.6328 47.6354C18.374 47.5666 18.098 47.665 17.9495 47.8791L16.5449 49.9045C16.4193 50.0855 16.4076 50.3172 16.5138 50.5089L19.8632 56.5534C19.9338 56.6806 20.0504 56.779 20.1912 56.8302C20.3321 56.8813 20.4877 56.8818 20.629 56.8315L22.7579 56.072C22.8991 56.0216 23.0163 55.9238 23.0876 55.7969C23.1588 55.67 23.1793 55.5227 23.1451 55.3825L21.5222 48.722C21.4972 48.6182 21.4433 48.5228 21.3662 48.4458C21.2891 48.3689 21.1916 48.3133 21.0841 48.2849Z" fill="#F9D980"/>
<path d="M18.9048 51.3011C19.1767 51.204 19.4418 51.2899 19.5607 51.5934C19.6795 51.8969 19.5382 52.1277 19.2663 52.2249C18.9943 52.322 18.726 52.2369 18.6072 51.9334C18.4888 51.6304 18.6328 51.3983 18.9048 51.3011ZM18.9453 51.8131C18.9957 51.9416 19.0695 51.9807 19.1555 51.9497C19.2415 51.9192 19.2735 51.8423 19.223 51.7138C19.1717 51.5827 19.0947 51.5444 19.0088 51.5754C18.9228 51.6063 18.894 51.682 18.9453 51.8131ZM19.91 50.9766L20.3823 50.8081L20.0334 53.1258L19.5611 53.2943L19.91 50.9766ZM20.6799 51.8762C20.9518 51.7791 21.216 51.8625 21.3358 52.1685C21.4546 52.472 21.3133 52.7028 21.0414 52.8C20.7694 52.8971 20.5043 52.8112 20.3854 52.5077C20.2657 52.2016 20.4079 51.9734 20.6799 51.8762ZM20.7204 52.3886C20.7708 52.5172 20.8446 52.5563 20.9306 52.5253C21.0166 52.4948 21.0486 52.4179 20.9981 52.2893C20.9477 52.1608 20.8698 52.12 20.7838 52.1509C20.6979 52.1814 20.67 52.2601 20.7204 52.3886Z" fill="#F5B501"/>
<path d="M55.1041 57.4552L53.8242 56.2396C53.6891 56.1111 53.4825 56.0806 53.3127 56.1636L51.7065 56.9506C51.636 56.9851 51.5767 57.037 51.5346 57.101C51.4925 57.1651 51.4693 57.2387 51.4674 57.3143L51.3391 62.1655C51.3337 62.3766 51.4931 62.5593 51.7119 62.5915L53.3055 62.8284C53.5243 62.861 53.7341 62.7334 53.7958 62.5305L55.2166 57.8709C55.2616 57.723 55.2184 57.5636 55.1041 57.4552Z" fill="#F9D980"/>
<path d="M52.6577 58.5978C52.8612 58.6279 52.994 58.7693 52.9571 58.9962C52.9202 59.2232 52.7487 59.3195 52.5452 59.2894C52.3417 59.2593 52.2066 59.1175 52.2435 58.8905C52.2805 58.6631 52.4542 58.5677 52.6577 58.5978ZM52.4965 58.9279C52.4808 59.0242 52.5123 59.0728 52.5767 59.0822C52.6411 59.0917 52.6888 59.0547 52.7045 58.9588C52.7207 58.8608 52.687 58.8118 52.6226 58.802C52.5582 58.7925 52.5123 58.8299 52.4965 58.9279ZM53.3978 58.7306L53.7512 58.783L52.6915 60.101L52.3381 60.0485L53.3978 58.7306ZM53.5464 59.543C53.7499 59.5731 53.8831 59.7124 53.8458 59.9415C53.8088 60.1684 53.6373 60.2647 53.4338 60.2346C53.2304 60.2045 53.0975 60.0631 53.1345 59.8362C53.1718 59.6066 53.3429 59.5125 53.5464 59.543ZM53.3848 59.8731C53.369 59.9694 53.4005 60.018 53.4649 60.0275C53.5293 60.0369 53.577 59.9999 53.5927 59.9041C53.6085 59.8078 53.5752 59.7571 53.5108 59.7472C53.4464 59.7377 53.4005 59.7769 53.3848 59.8731Z" fill="#F5B501"/>
<path d="M24.4908 35.6662C24.864 37.371 26.6143 38.4641 28.3998 38.1073C30.1852 37.751 31.3301 36.0797 30.9564 34.375C30.5832 32.6702 28.8329 31.5771 27.0474 31.9339C25.262 32.2906 24.1171 33.9615 24.4908 35.6662Z" fill="#F9D980"/>
<path d="M26.0759 34.7701L27.0223 34.5784L27.4032 36.2928L26.4568 36.4845L26.0759 34.7701Z" fill="#F5B501"/>
<path d="M29.4406 34.6681L29.4316 34.6698L29.3659 34.3745C29.3576 34.3373 29.3418 34.3019 29.3192 34.2705C29.2966 34.2391 29.2678 34.2122 29.2343 34.1914C29.2009 34.1707 29.1635 34.1564 29.1242 34.1495C29.085 34.1425 29.0447 34.1431 29.0057 34.151L28.1715 34.3199C28.1715 34.3199 28.4106 33.7994 28.3462 33.5097C28.2886 33.2505 28.2003 32.9096 27.7997 32.9909C27.7997 32.9909 27.6731 33.1061 27.7596 33.4951C27.8393 33.8544 27.1811 34.5443 27.1811 34.5443L27.575 36.3166C27.575 36.3166 27.7785 36.4327 28.045 36.3789L29.252 36.1343C29.423 36.0995 29.532 35.9392 29.4955 35.7763L29.4554 35.5966C29.4793 35.5918 29.502 35.5825 29.5221 35.5693C29.5423 35.5561 29.5595 35.5392 29.5728 35.5196C29.5861 35.5001 29.5952 35.4782 29.5996 35.4553C29.6041 35.4323 29.6037 35.4088 29.5986 35.386L29.5522 35.1775C29.6126 35.1655 29.6513 35.1087 29.6382 35.0511L29.5711 34.7498C29.5599 34.6926 29.5009 34.6557 29.4406 34.6681Z" fill="#F5B501"/>
<path d="M47.5022 34.0513C47.5022 34.4364 47.1753 34.7485 46.7719 34.7485C46.3686 34.7485 46.0417 34.4364 46.0417 34.0513C46.0417 33.6661 46.3686 33.3541 46.7719 33.3541C47.1749 33.3536 47.5022 33.6661 47.5022 34.0513ZM44.7925 37.4432C44.7925 38.1834 44.164 38.7831 43.3892 38.7831C42.614 38.7831 41.9855 38.183 41.9855 37.4432C41.9855 36.7034 42.614 36.1029 43.3892 36.1029C44.164 36.1034 44.7925 36.703 44.7925 37.4432Z" fill="#F9D980"/>
<path d="M120.289 36.683C122.176 35.9366 123.072 33.871 122.29 32.0692C121.509 30.2675 119.345 29.4118 117.458 30.1582C115.571 30.9045 114.675 32.9701 115.457 34.7719C116.238 36.5737 118.402 37.4293 120.289 36.683Z" fill="#F9D980"/>
<path d="M119.28 35.1551L117.231 32.2773C117.211 32.2489 117.197 32.217 117.189 32.1834C117.182 32.1498 117.182 32.1151 117.188 32.0814C117.195 32.0476 117.209 32.0155 117.229 31.9868C117.248 31.9581 117.274 31.9334 117.303 31.9141C117.333 31.8948 117.367 31.8812 117.402 31.8743C117.437 31.8673 117.473 31.867 117.509 31.8734C117.544 31.8799 117.578 31.8929 117.608 31.9117C117.638 31.9306 117.664 31.9549 117.684 31.9833L119.41 34.4076L124.495 30.7612C124.524 30.7406 124.557 30.7255 124.592 30.717C124.626 30.7084 124.663 30.7065 124.698 30.7113C124.734 30.7161 124.768 30.7276 124.799 30.7451C124.83 30.7626 124.857 30.7858 124.879 30.8132C124.97 30.9284 124.945 31.0926 124.824 31.179L119.28 35.1551Z" fill="#FFCA03"/>
<path d="M40.6787 75.9585C40.5873 75.7603 40.4734 75.5402 40.3428 75.3275C40.0196 74.8018 39.5919 74.3178 39.0994 74.3096C38.8549 74.3044 38.1342 74.3031 37.1595 74.301C35.5726 74.298 33.3176 74.2997 31.3832 74.3031C30.4972 74.3031 29.6769 74.3044 29.0197 74.3066C26.0421 74.301 19.762 74.2933 18.9399 74.3096C17.8586 74.3294 17.0802 76.6424 17.0802 76.6424H40.9587C40.9591 76.6424 40.8587 76.3432 40.6787 75.9585Z" fill="#E3DDD1"/>
<path d="M37.6872 75.1272C36.9813 75.1173 31.5804 75.1229 29.0202 75.1259C26.4604 75.1229 21.059 75.1173 20.3531 75.1272C19.423 75.1405 18.7536 76.6424 18.7536 76.6424H39.2867C39.2863 76.6424 38.6173 75.1405 37.6872 75.1272ZM29.1061 76.8435L18.465 76.6424L20.0222 86.4412C20.0222 86.4412 20.3108 87.5188 21.2049 87.5188H37.0083C37.9024 87.5188 38.1914 86.4412 38.1914 86.4412L39.7482 76.6424L29.1061 76.8435Z" fill="#D1C5B0"/>
<path d="M40.9597 76.6424C40.9597 77.052 40.6108 77.3852 40.1799 77.3852H17.8596C17.5525 77.3852 17.2856 77.2149 17.1604 76.9695C17.1075 76.868 17.0799 76.7562 17.0798 76.6428C17.0798 76.5138 17.1136 76.3926 17.1748 76.2869C17.2104 76.2241 17.2554 76.167 17.3081 76.1167C17.4494 75.983 17.6439 75.9005 17.8596 75.9005H40.1799C40.6112 75.8996 40.9597 76.231 40.9597 76.6424Z" fill="#E3DDD1"/>
<path d="M29.1961 76.1652C29.1849 76.1149 29.1618 76.0677 29.1286 76.0273C29.0498 75.9335 28.9179 75.8828 28.7878 75.9108L21.343 77.3856L18.3214 77.9839L16.6098 78.3231L17.0406 76.997L17.1612 76.9695C17.1083 76.868 17.0807 76.7562 17.0806 76.6428C17.0806 76.5138 17.1144 76.3926 17.1756 76.2869L16.6872 76.4004C16.6291 76.4138 16.5756 76.4414 16.532 76.4804C16.4884 76.5194 16.4561 76.5685 16.4382 76.623L15.7742 78.6639C15.7373 78.7761 15.7661 78.8973 15.848 78.9846C15.9318 79.0689 16.0556 79.1088 16.1744 79.0843L18.2061 78.6824L24.6978 77.3963L24.7523 77.3856L28.9283 76.5585C28.9413 76.5538 28.9526 76.5525 28.9638 76.5495C29.13 76.4967 29.2331 76.3324 29.1961 76.1652Z" fill="url(#paint1_linear_372_2266)"/>
<path d="M28.8639 76.1652C28.8751 76.1132 28.8995 76.0668 28.9314 76.0273C29.0102 75.9335 29.1421 75.8828 29.2722 75.9108L36.717 77.3856L39.7387 77.9839L41.4503 78.3231L41.0194 76.997L40.8988 76.9695C40.9501 76.871 40.9794 76.7593 40.9794 76.6428C40.9794 76.5138 40.9456 76.3926 40.8844 76.2869L41.3728 76.4004C41.4309 76.4138 41.4844 76.4414 41.528 76.4804C41.5717 76.5194 41.604 76.5685 41.6218 76.623L42.2858 78.6639C42.3227 78.7761 42.2939 78.8973 42.212 78.9846C42.1283 79.0689 42.0045 79.1088 41.8856 79.0843L39.8539 78.6824L33.3622 77.3963L33.3073 77.3856L29.1313 76.5585C29.1182 76.5538 29.107 76.5525 29.0957 76.5495C28.9296 76.4967 28.827 76.3324 28.8639 76.1652Z" fill="url(#paint2_linear_372_2266)"/>
<path d="M29.6517 85.8089C29.6517 86.0238 29.4559 86.1975 29.2141 86.1975C28.9733 86.1975 28.7774 86.0238 28.7774 85.8089V78.8759C28.7774 78.6614 28.9733 78.4873 29.2141 78.4873C29.4563 78.4873 29.6517 78.6614 29.6517 78.8759V85.8089ZM22.482 85.7306C22.5135 85.9434 22.3447 86.1381 22.1038 86.1657C21.8648 86.1932 21.6456 86.0436 21.6154 85.8304L20.6178 78.9532C20.5872 78.7409 20.7564 78.5457 20.9955 78.5182C21.235 78.4907 21.4542 78.6412 21.4848 78.8539L22.482 85.7306ZM24.7951 85.7766C24.8108 85.9903 24.6281 86.1751 24.3877 86.1897C24.1459 86.203 23.9379 86.0414 23.9226 85.8274L23.4148 78.9085C23.399 78.6945 23.5814 78.5092 23.8222 78.4959C24.0635 78.4817 24.272 78.6442 24.2873 78.8582L24.7951 85.7766ZM27.2756 85.7878C27.2869 86.0023 27.0996 86.1833 26.8583 86.1932C26.6174 86.2031 26.4122 86.0371 26.4023 85.8226L26.0439 78.8965C26.0326 78.6824 26.2199 78.501 26.4603 78.4911C26.7016 78.4813 26.9065 78.6472 26.9173 78.8612L27.2756 85.7878ZM35.9463 85.7306C35.9156 85.9434 36.0845 86.1381 36.324 86.1657C36.563 86.1932 36.7832 86.0436 36.8138 85.8304L37.8109 78.9532C37.8416 78.7409 37.6727 78.5457 37.4337 78.5182C37.1933 78.4907 36.9745 78.6412 36.9434 78.8539L35.9463 85.7306ZM33.6332 85.7766C33.6179 85.9903 33.8002 86.1751 34.0411 86.1897C34.2828 86.203 34.4903 86.0414 34.5061 85.8274L35.0139 78.9085C35.0297 78.6945 34.8469 78.5092 34.6056 78.4959C34.3652 78.4817 34.1577 78.6442 34.1415 78.8582L33.6332 85.7766ZM31.1531 85.7878C31.1418 86.0023 31.3287 86.1833 31.5695 86.1932C31.8108 86.2031 32.0152 86.0371 32.0265 85.8226L32.3848 78.8965C32.3956 78.6824 32.2088 78.501 31.9679 78.4911C31.7266 78.4813 31.5218 78.6472 31.511 78.8612L31.1531 85.7878Z" fill="#E3DDD1"/>
<defs>
<linearGradient id="paint0_linear_372_2266" x1="43.3329" y1="47.3998" x2="44.0805" y2="47.6193" gradientUnits="userSpaceOnUse">
<stop stop-color="#6C696A" stop-opacity="0.1335"/>
<stop offset="1" stop-color="#231F20" stop-opacity="0.2"/>
</linearGradient>
<linearGradient id="paint1_linear_372_2266" x1="15.7576" y1="77.4971" x2="29.2035" y2="77.4971" gradientUnits="userSpaceOnUse">
<stop offset="0.213" stop-color="#EBEAE2"/>
<stop offset="1" stop-color="#EBEADB"/>
</linearGradient>
<linearGradient id="paint2_linear_372_2266" x1="42.3022" y1="77.4971" x2="28.8563" y2="77.4971" gradientUnits="userSpaceOnUse">
<stop offset="0.213" stop-color="#EBEAE2"/>
<stop offset="1" stop-color="#EBEADB"/>
</linearGradient>
</defs>
</svg>
