<svg width="113" height="75" viewBox="0 0 113 75" fill="none" xmlns="http://www.w3.org/2000/svg">
<path d="M74.1659 74.528C77.9045 73.4023 81.2589 72.2522 85.2942 70.0695C89.4561 67.8181 107.944 57.1041 110.348 38.5612C110.978 33.4791 110.455 28.326 108.816 23.4574C108.073 21.359 106.532 17.1443 102.641 12.9761C97.8788 7.87059 92.4446 5.89177 89.2582 4.77272C82.5541 2.41719 76.9313 2.54128 74.2533 2.62549C71.3637 2.71634 66.2631 2.9202 60.4655 5.35994C56.6832 6.95098 54.3319 8.76583 50.8671 11.4781C45.3778 15.7792 44.6553 17.5697 35.0524 26.4512C32.4158 28.8887 30.2486 30.8099 26.9403 32.7023C24.6465 34.0141 22.7922 34.7476 19.3711 36.086C10.9622 39.3767 8.56799 40.043 5.8164 41.8955C0.465054 45.5008 0.811674 49.4326 0.581608 50.2791C-0.0166607 52.4438 -0.155165 54.7026 0.174391 56.9202C0.876093 61.3676 3.36311 64.2749 4.90685 66.0343C7.02585 68.4275 9.59361 70.415 12.476 71.8932C14.477 72.9101 16.5496 73.7905 18.6786 74.528H74.1659Z" fill="#EFEDEF"/>
<path d="M60.1175 3.88439C66.1559 1.34488 71.4679 1.13063 74.4797 1.03635C77.2672 0.949092 83.1243 0.820294 90.1093 3.27409C93.4282 4.44001 99.088 6.50121 104.049 11.8182C108.1 16.1597 109.706 20.5505 110.479 22.7357C112.186 27.8068 112.731 33.1743 112.075 38.4677C109.572 57.7834 90.3139 68.9424 85.9789 71.288" stroke="#6A8D99" stroke-miterlimit="10"/>
<path d="M13.6611 74.5501H5.73995L4.69775 62.8302H14.7033L13.6611 74.5501Z" fill="#FFE3CB"/>
<path d="M5.73999 74.5501C6.35496 72.5826 6.99392 70.6227 7.63652 68.6639C7.95342 67.6832 8.2859 66.7073 8.61105 65.7291L9.59129 62.7961C9.59874 62.7738 9.61334 62.7544 9.63297 62.7406C9.65261 62.7268 9.67627 62.7194 9.70056 62.7194C9.72485 62.7194 9.74852 62.7268 9.76815 62.7406C9.78779 62.7544 9.80238 62.7738 9.80983 62.7961L10.7903 65.729C11.1151 66.7073 11.4482 67.683 11.765 68.6638L12.7246 71.6033L13.6611 74.5501L12.6174 71.6369L11.5967 68.7166C11.2534 67.7441 10.9264 66.7665 10.5912 65.7915L9.59129 62.8645H9.8098L8.80978 65.7914C8.47483 66.7665 8.14722 67.7439 7.80403 68.7164C7.12644 70.6643 6.4452 72.6109 5.73999 74.5501Z" fill="#904D24"/>
<path d="M4.69775 62.8302C5.57543 64.7662 6.42979 66.7113 7.28062 68.6579L8.5465 71.5818L9.80684 74.5079H9.59431L10.8545 71.5817C11.2764 70.6071 11.6903 69.6292 12.1201 68.6577L13.4005 65.7395L14.7034 62.8302L13.5048 65.7808L12.2838 68.7225C11.8799 69.7043 11.46 70.6798 11.0481 71.6584L9.80684 74.5921C9.79824 74.6124 9.78353 74.6298 9.7646 74.6421C9.74567 74.6544 9.72338 74.6609 9.70057 74.6609C9.67775 74.6609 9.65546 74.6544 9.63653 74.6421C9.6176 74.6298 9.60289 74.6124 9.59429 74.5921L8.3532 71.6583L7.11768 68.7224C6.30091 66.7624 5.48766 64.8009 4.69775 62.8302Z" fill="#904D24"/>
<path d="M5.21875 69.2925C5.96571 69.2468 6.71265 69.2254 7.4596 69.2077C8.20654 69.1874 8.9535 69.1846 9.70045 69.1818C10.4474 69.1843 11.1943 69.1872 11.9413 69.2073L13.0617 69.2382C13.4352 69.2566 13.8087 69.2674 14.1821 69.2925C13.8087 69.3176 13.4352 69.3284 13.0617 69.3468L11.9413 69.3777C11.1943 69.3978 10.4474 69.4008 9.70045 69.4033C8.95349 69.4005 8.20653 69.3976 7.4596 69.3774C6.71265 69.3596 5.96571 69.3382 5.21875 69.2925Z" fill="#904D24"/>
<path d="M14.8417 61.7711H4.55931C4.39533 61.7711 4.26239 61.8991 4.26239 62.057V62.5443C4.26239 62.7023 4.39533 62.8303 4.55931 62.8303H14.8417C15.0057 62.8303 15.1387 62.7023 15.1387 62.5443V62.057C15.1387 61.8991 15.0057 61.7711 14.8417 61.7711Z" fill="#904D24"/>
<path d="M30.2525 4.11966H28.3832C27.8212 4.11966 27.3656 4.55847 27.3656 5.09978V6.90028C27.3656 7.44158 27.8212 7.8804 28.3832 7.8804H30.2525C30.8145 7.8804 31.2701 7.44158 31.2701 6.90028V5.09978C31.2701 4.55847 30.8145 4.11966 30.2525 4.11966Z" fill="#DC8758"/>
<path d="M18.7142 74.5346H17.1329L23.5421 46.7867L26.7711 47.6239L18.7142 74.5346Z" fill="#DC8758"/>
<path d="M40.1142 74.5346H41.6957L35.2863 46.7867L32.0576 47.6239L40.1142 74.5346Z" fill="#DC8758"/>
<path d="M55.9277 6.33975H2.60412C2.22945 6.33975 1.92572 6.63229 1.92572 6.99316V49.9446C1.92572 50.3055 2.22945 50.598 2.60412 50.598H55.9277C56.3024 50.598 56.6061 50.3055 56.6061 49.9446V6.99316C56.6061 6.63229 56.3024 6.33975 55.9277 6.33975Z" fill="#FFE3CB"/>
<path d="M33.9824 14.2963C33.9185 14.2963 33.8571 14.2723 33.8111 14.2296C33.7651 14.1868 33.7381 14.1285 33.7358 14.067C33.7335 14.0055 33.756 13.9455 33.7987 13.8996C33.8414 13.8538 33.9008 13.8256 33.9646 13.8211L38.4947 13.5003C38.56 13.4957 38.6245 13.5163 38.674 13.5575C38.7236 13.5988 38.7541 13.6572 38.7589 13.7201C38.7637 13.783 38.7424 13.8452 38.6996 13.893C38.6569 13.9407 38.5962 13.9702 38.5309 13.9748L34.0008 14.2956C33.9946 14.2961 33.9885 14.2963 33.9824 14.2963Z" fill="#904D24"/>
<path d="M38.5128 15.5184H33.9827C33.9172 15.5184 33.8544 15.4933 33.808 15.4487C33.7617 15.404 33.7357 15.3435 33.7357 15.2804C33.7357 15.2173 33.7617 15.1568 33.808 15.1121C33.8544 15.0675 33.9172 15.0424 33.9827 15.0424H38.5128C38.5783 15.0424 38.6412 15.0675 38.6875 15.1121C38.7338 15.1568 38.7599 15.2173 38.7599 15.2804C38.7599 15.3435 38.7338 15.404 38.6875 15.4487C38.6412 15.4933 38.5783 15.5184 38.5128 15.5184Z" fill="#904D24"/>
<path d="M38.5128 17.0613H33.9827C33.9172 17.0613 33.8544 17.0362 33.808 16.9916C33.7617 16.947 33.7357 16.8865 33.7357 16.8233C33.7357 16.7602 33.7617 16.6997 33.808 16.6551C33.8544 16.6105 33.9172 16.5854 33.9827 16.5854H38.5128C38.5783 16.5854 38.6412 16.6105 38.6875 16.6551C38.7338 16.6997 38.7599 16.7602 38.7599 16.8233C38.7599 16.8865 38.7338 16.947 38.6875 16.9916C38.6412 17.0362 38.5783 17.0613 38.5128 17.0613Z" fill="#904D24"/>
<path d="M38.5128 18.0982H33.9827C33.9172 18.0982 33.8544 18.0731 33.808 18.0285C33.7617 17.9839 33.7357 17.9234 33.7357 17.8602C33.7357 17.7971 33.7617 17.7366 33.808 17.692C33.8544 17.6474 33.9172 17.6223 33.9827 17.6223H38.5128C38.5783 17.6223 38.6412 17.6474 38.6875 17.692C38.7338 17.7366 38.7599 17.7971 38.7599 17.8602C38.7599 17.9234 38.7338 17.9839 38.6875 18.0285C38.6412 18.0731 38.5783 18.0982 38.5128 18.0982Z" fill="#904D24"/>
<path d="M12.5067 43.7248C12.4412 43.7248 12.3783 43.6997 12.332 43.6551C12.2857 43.6105 12.2596 43.55 12.2596 43.4868V13.7375C12.2596 13.6744 12.2857 13.6139 12.332 13.5693C12.3783 13.5246 12.4412 13.4996 12.5067 13.4996C12.5722 13.4996 12.6351 13.5246 12.6814 13.5693C12.7277 13.6139 12.7538 13.6744 12.7538 13.7375V43.4868C12.7538 43.55 12.7277 43.6105 12.6814 43.6551C12.6351 43.6997 12.5722 43.7248 12.5067 43.7248Z" fill="#904D24"/>
<path d="M51.3819 38.7129H7.15001C7.08449 38.7129 7.02165 38.6878 6.97532 38.6432C6.92898 38.5985 6.90295 38.538 6.90295 38.4749C6.90295 38.4118 6.92898 38.3513 6.97532 38.3066C7.02165 38.262 7.08449 38.2369 7.15001 38.2369H51.3819C51.4474 38.2369 51.5102 38.262 51.5566 38.3066C51.6029 38.3513 51.6289 38.4118 51.6289 38.4749C51.6289 38.538 51.6029 38.5985 51.5566 38.6432C51.5102 38.6878 51.4474 38.7129 51.3819 38.7129Z" fill="#904D24"/>
<path d="M14.8023 35.8197C14.7576 35.8196 14.7138 35.8079 14.6755 35.7858C14.6372 35.7637 14.6058 35.732 14.5848 35.6941C14.5637 35.6561 14.5536 35.6134 14.5558 35.5705C14.5579 35.5275 14.572 35.4859 14.5967 35.45L19.0353 29.0148C19.0598 28.9802 19.0932 28.9522 19.1322 28.9337C19.1713 28.9152 19.2146 28.9067 19.2581 28.9091C19.3016 28.912 19.3436 28.926 19.3797 28.9496C19.4159 28.9732 19.4448 29.0055 19.4638 29.0434L21.6943 33.5121L27.7439 21.8671C27.7659 21.8236 27.8012 21.7878 27.8451 21.7645C27.889 21.7412 27.9393 21.7315 27.9892 21.7367C28.0389 21.7414 28.086 21.7605 28.1242 21.7916C28.1624 21.8226 28.19 21.8641 28.2032 21.9105L30.3406 29.4172L32.1884 26.2711C32.211 26.2326 32.2443 26.2009 32.2846 26.1796C32.3249 26.1583 32.3706 26.1483 32.4165 26.1506C32.4623 26.1529 32.5067 26.1675 32.5444 26.1928C32.5821 26.218 32.6118 26.2529 32.6301 26.2935L35.1357 31.8563L36.9153 27.044C36.9309 27.0018 36.9585 26.9647 36.995 26.937C37.0314 26.9093 37.0753 26.892 37.1215 26.8873C37.1677 26.8821 37.2145 26.8898 37.2564 26.9094C37.2982 26.929 37.3334 26.9598 37.3577 26.998L39.1144 29.715L45.345 17.7535C45.3666 17.712 45.4003 17.6775 45.442 17.6542C45.4837 17.6309 45.5316 17.6199 45.5797 17.6225C45.6278 17.6251 45.6741 17.6413 45.7128 17.6689C45.7516 17.6965 45.7811 17.7344 45.7977 17.778L46.9847 20.8861L51.1638 13.3388C51.1946 13.2831 51.2472 13.2415 51.3099 13.2231C51.3726 13.2047 51.4403 13.2111 51.4981 13.2408C51.5559 13.2705 51.5991 13.3211 51.6181 13.3815C51.6372 13.4419 51.6306 13.5071 51.5998 13.5628L47.1612 21.5788C47.1388 21.6193 47.1047 21.6527 47.063 21.6749C47.0213 21.6972 46.9738 21.7073 46.9263 21.7042C46.8787 21.701 46.8331 21.6847 46.795 21.6571C46.7569 21.6296 46.7278 21.592 46.7114 21.5489L45.5309 18.458L39.3586 30.3077C39.3389 30.3455 39.3091 30.3776 39.2722 30.4006C39.2354 30.4237 39.1929 30.4368 39.149 30.4388C39.1053 30.4401 39.0619 30.4305 39.0232 30.4109C38.9845 30.3913 38.9517 30.3623 38.928 30.3269L37.209 27.6682L35.391 32.5843C35.3743 32.6293 35.3441 32.6684 35.304 32.6966C35.264 32.7248 35.2161 32.7407 35.1665 32.7423C35.117 32.7439 35.0681 32.7311 35.0262 32.7056C34.9843 32.6801 34.9513 32.643 34.9316 32.5992L32.3743 26.9213L30.4758 30.1537C30.4517 30.1947 30.4155 30.2279 30.3718 30.249C30.3281 30.2702 30.2789 30.2784 30.2303 30.2726C30.1818 30.2668 30.1361 30.2473 30.0991 30.2165C30.0621 30.1857 30.0354 30.1449 30.0225 30.0995L27.8973 22.6355L21.9108 34.1588C21.8888 34.1975 21.8566 34.2301 21.8175 34.2531C21.7784 34.2762 21.7338 34.289 21.6879 34.2903C21.6417 34.29 21.5965 34.2772 21.5575 34.2533C21.5185 34.2295 21.4872 34.1956 21.4672 34.1554L19.2066 29.6266L15.0083 35.7133C14.9858 35.7461 14.9552 35.7729 14.9192 35.7915C14.8833 35.8101 14.8431 35.8197 14.8023 35.8197Z" fill="#904D24"/>
<path d="M8.22149 32.2735C8.15596 32.2734 8.09312 32.2484 8.04679 32.2038C8.00046 32.1591 7.97443 32.0986 7.97443 32.0355V17.8602C7.97443 17.7971 8.00046 17.7366 8.04679 17.692C8.09312 17.6474 8.15596 17.6223 8.22149 17.6223C8.28701 17.6223 8.34985 17.6474 8.39619 17.692C8.44252 17.7366 8.46855 17.7971 8.46855 17.8602V32.0355C8.46855 32.0986 8.44252 32.1591 8.39619 32.2037C8.34985 32.2484 8.28701 32.2734 8.22149 32.2735Z" fill="#904D24"/>
<path d="M41.7397 42.4352H41.736L18.6254 42.1216C18.5598 42.1207 18.4974 42.0948 18.4517 42.0495C18.406 42.0042 18.3809 41.9434 18.3818 41.8803C18.3837 41.8174 18.4109 41.7578 18.4577 41.714C18.5045 41.6702 18.5671 41.6457 18.6324 41.6457L41.743 41.9593C41.8083 41.9601 41.8705 41.9858 41.9162 42.0307C41.9618 42.0756 41.9872 42.136 41.9867 42.1988C41.9863 42.2617 41.9601 42.3218 41.9138 42.3661C41.8675 42.4103 41.8049 42.4352 41.7397 42.4352Z" fill="#904D24"/>
<path d="M37.9886 48.9514H20.8224C20.5321 48.9514 20.2968 49.1781 20.2968 49.4577V50.8404C20.2968 51.12 20.5321 51.3467 20.8224 51.3467H37.9886C38.2789 51.3467 38.5142 51.12 38.5142 50.8404V49.4577C38.5142 49.1781 38.2789 48.9514 37.9886 48.9514Z" fill="#DC8758"/>
<path d="M24.0263 18.7576H19.3864C19.3254 18.7576 19.2669 18.7343 19.2238 18.6927C19.1806 18.6512 19.1564 18.5948 19.1564 18.536V12.8907C19.1564 12.832 19.1806 12.7756 19.2238 12.734C19.2669 12.6925 19.3254 12.6691 19.3864 12.6691H25.8185C25.8795 12.6691 25.938 12.6925 25.9811 12.734C26.0243 12.7756 26.0485 12.832 26.0485 12.8907V16.9983L24.0263 18.7576Z" fill="#C0D6F2"/>
<path d="M26.0485 17.0049H24.0262V18.7575L26.0485 17.0049Z" fill="#A2AEE6"/>
<path d="M23.5201 12.099H21.4541C21.3271 12.099 21.2241 12.1982 21.2241 12.3206V13.074C21.2241 13.1964 21.3271 13.2956 21.4541 13.2956H23.5201C23.6472 13.2956 23.7502 13.1964 23.7502 13.074V12.3206C23.7502 12.1982 23.6472 12.099 23.5201 12.099Z" fill="#A2AEE6"/>
<path d="M24.2104 14.7403H20.9803V14.9619H24.2104V14.7403Z" fill="#A2AEE6"/>
<path d="M24.2104 16.0699H20.9803V16.2914H24.2104V16.0699Z" fill="#A2AEE6"/>
<path d="M76.2907 29.7671L76.0482 28.6422C75.9127 27.8484 75.4377 27.5511 75.7049 26.789L76.0046 25.9344L76.6991 26.0043L76.2907 29.7671Z" fill="#1E1D22"/>
<path d="M83.9528 26.6261H81.8913V29.7423H83.9528V26.6261Z" fill="#1E1D22"/>
<path d="M82.9446 53.8844H70.3407V47.1065H82.9219L82.9446 53.8844Z" fill="#065082"/>
<path d="M84.1041 29.9092H69.0597C68.2221 29.9092 67.5432 30.5632 67.5432 31.3699V44.9254C67.5432 45.7321 68.2221 46.3861 69.0597 46.3861H84.1041C84.9417 46.3861 85.6207 45.7321 85.6207 44.9254V31.3699C85.6207 30.5632 84.9417 29.9092 84.1041 29.9092Z" fill="#D6694B"/>
<path d="M81.3367 24.9455C80.0195 24.387 78.3454 25.1358 77.1901 26.6617C77.113 26.5683 77.0042 26.5041 76.8827 26.4806C76.4653 26.4104 76.0265 26.9076 75.9027 27.591C75.8528 27.7927 75.847 28.0021 75.8858 28.206C75.9245 28.4099 76.0068 28.6038 76.1276 28.7754C75.5345 30.802 76.0701 32.7411 77.4973 33.3462C79.1317 34.0392 81.3161 32.7204 82.3764 30.4005C83.4366 28.0807 82.9711 25.6384 81.3367 24.9455Z" fill="#F9977A"/>
<path d="M82.3984 30.4006C81.3382 32.7204 79.1538 34.0392 77.5194 33.3463C76.1795 32.7782 75.626 31.0342 76.054 29.146L76.0536 29.1459L72.7285 30.1429L71.6906 30.1577C71.2966 30.1614 70.9075 30.2411 70.546 30.392C70.1846 30.5429 69.8581 30.762 69.586 31.0363C68.1706 32.4796 68.1485 33.8239 68.1485 33.8239L70.575 35.6352L70.2717 47.3794C76.7019 50.5346 82.967 47.8065 82.967 47.8065L83.1695 45.9819C83.3453 44.398 82.1009 38.9073 82.1009 38.9073L85.0127 43.231L88.1672 40.9523C88.0399 38.8615 87.5407 36.8073 86.6912 34.8793C85.8574 32.9431 84.3358 31.3555 82.3984 30.4006Z" fill="#FFBA55"/>
<path d="M77.5815 33.3463C76.7598 32.9979 76.2338 32.2071 76.0484 31.2121C76.0484 31.2121 76.0205 41.0034 79.5012 33.3529L79.5002 33.3523C78.8844 33.5919 78.1957 33.5897 77.5815 33.3463Z" fill="#F9977A"/>
<path d="M79.5002 33.3523C78.8844 33.5919 78.1957 33.5897 77.5815 33.3463C76.7598 32.9979 76.2338 32.2071 76.0484 31.2121C76.0484 31.2121 76.0467 31.7795 76.0928 32.5344C76.3364 33.0722 76.7761 33.5054 77.3288 33.752C77.6462 33.8771 77.9864 33.9396 78.3294 33.9359C78.6723 33.9322 79.011 33.8623 79.3255 33.7305C79.3831 33.6095 79.4416 33.484 79.5012 33.3529L79.5002 33.3523Z" fill="#DD765E"/>
<path d="M86.3759 51.8785H66.7886C66.6024 51.8785 66.4515 52.0238 66.4515 52.2031V53.5599C66.4515 53.7392 66.6024 53.8845 66.7886 53.8845H86.3759C86.562 53.8845 86.7129 53.7392 86.7129 53.5599V52.2031C86.7129 52.0238 86.562 51.8785 86.3759 51.8785Z" fill="#D6694B"/>
<path d="M84.9806 53.8844H68.123C67.9369 53.8844 67.786 54.0297 67.786 54.209V54.8258C67.786 55.005 67.9369 55.1504 68.123 55.1504H84.9806C85.1667 55.1504 85.3176 55.005 85.3176 54.8258V54.209C85.3176 54.0297 85.1667 53.8844 84.9806 53.8844Z" fill="#935B50"/>
<path d="M77.4919 55.1505H75.5507V67.7711H77.4919V55.1505Z" fill="#D6694B"/>
<path d="M77.4918 68.7735L90.1689 72.9971V71.4781L77.4918 67.7711H75.5505L63.0936 71.4781V72.9971L75.5505 68.7735H77.4918Z" fill="#935B50"/>
<path d="M84.3534 68.9225L84.0637 71.7057L89.0822 74.0672H81.3761V68.9225H84.3534Z" fill="#F9977A"/>
<path d="M89.8554 74.3203V74.3033C89.8554 74.1732 89.8179 74.0456 89.747 73.9347C89.6762 73.8239 89.5748 73.7342 89.4541 73.6757L84.2454 71.1473C84.1944 71.1225 84.136 71.1158 84.0805 71.1284C84.0249 71.1409 83.9757 71.1718 83.9414 71.2157L82.9233 72.5209C82.8872 72.5672 82.8345 72.599 82.7755 72.6101C82.7165 72.6212 82.6552 72.6109 82.6037 72.5811L81.4087 71.8905C81.3718 71.8691 81.3296 71.8576 81.2866 71.8571C81.2436 71.8566 81.2011 71.8671 81.1637 71.8875C81.1262 71.9079 81.0951 71.9375 81.0734 71.9734C81.0517 72.0092 81.0403 72.0499 81.0403 72.0914V74.3203C81.0403 74.3824 81.0659 74.442 81.1115 74.486C81.1571 74.5299 81.219 74.5546 81.2835 74.5546H89.6121C89.6441 74.5546 89.6757 74.5485 89.7052 74.5367C89.7347 74.525 89.7616 74.5077 89.7842 74.486C89.8067 74.4642 89.8247 74.4384 89.8369 74.4099C89.8491 74.3815 89.8554 74.3511 89.8554 74.3203Z" fill="#FFBA55"/>
<path d="M69.2702 68.9225L69.5599 71.7057L64.5417 74.0672H72.2475V68.9225H69.2702Z" fill="#F9977A"/>
<path d="M63.768 74.3202V74.3033C63.768 74.1731 63.8055 74.0455 63.8764 73.9347C63.9472 73.8239 64.0486 73.7342 64.1693 73.6756L69.378 71.1472C69.429 71.1225 69.4874 71.1158 69.5429 71.1283C69.5985 71.1408 69.6477 71.1717 69.682 71.2157L70.7001 72.5208C70.7362 72.5671 70.7889 72.5989 70.8479 72.61C70.9069 72.6211 70.9681 72.6108 71.0197 72.581L72.2147 71.8904C72.2516 71.8691 72.2938 71.8576 72.3368 71.857C72.3798 71.8565 72.4223 71.867 72.4597 71.8874C72.4972 71.9079 72.5283 71.9375 72.55 71.9733C72.5717 72.0091 72.5831 72.0498 72.5831 72.0913V74.3202C72.5831 74.3824 72.5575 74.442 72.5119 74.4859C72.4663 74.5298 72.4044 74.5545 72.3399 74.5545H64.0113C63.9793 74.5545 63.9477 74.5485 63.9182 74.5367C63.8887 74.5249 63.8618 74.5077 63.8392 74.4859C63.8167 74.4641 63.7987 74.4383 63.7865 74.4099C63.7743 74.3815 63.768 74.351 63.768 74.3202Z" fill="#FFBA55"/>
<path d="M77.6101 67.3036H75.4329C75.2468 67.3036 75.0959 67.449 75.0959 67.6282V68.9656C75.0959 69.1449 75.2468 69.2902 75.4329 69.2902H77.6101C77.7962 69.2902 77.9471 69.1449 77.9471 68.9656V67.6282C77.9471 67.449 77.7962 67.3036 77.6101 67.3036Z" fill="#E19974"/>
<path d="M105.263 45.4978H103.352V74.6948H105.263V45.4978Z" fill="#935B50"/>
<path d="M108.593 44.0861H51.8226C51.6407 44.0861 51.4932 44.2282 51.4932 44.4034V45.1805C51.4932 45.3557 51.6407 45.4978 51.8226 45.4978H108.593C108.775 45.4978 108.922 45.3557 108.922 45.1805V44.4034C108.922 44.2282 108.775 44.0861 108.593 44.0861Z" fill="#935B50"/>
<path d="M57.2151 45.4978H55.3041V74.6948H57.2151V45.4978Z" fill="#935B50"/>
<path d="M53.7798 45.4978H106.766V49.156C106.766 49.3243 106.697 49.4857 106.573 49.6047C106.449 49.7238 106.282 49.7906 106.107 49.7906H54.4387C54.2639 49.7906 54.0963 49.7238 53.9727 49.6047C53.8492 49.4857 53.7798 49.3243 53.7798 49.156L53.7798 45.4978Z" fill="#C38F86"/>
<path d="M68.3035 69.5971L69.617 52.4712C69.7612 51.0843 71.5167 49.9554 72.9645 50.0975C74.4048 50.2363 76.1929 51.2814 76.0483 52.6692L73.5194 70.1005C73.3827 71.418 68.1589 70.9849 68.3035 69.5971Z" fill="#065EA5"/>
<path d="M85.2566 69.657L83.3829 52.5795C83.1934 51.1977 81.4018 50.1227 79.9594 50.3087C78.5243 50.4912 76.7714 51.5901 76.9614 52.9728L80.0597 70.3186C80.2395 71.6313 85.4466 71.0397 85.2566 69.657Z" fill="#065EA5"/>
<path d="M106.282 43.9761C106.282 43.9761 110.39 19.2944 91.9046 21.4611V25.2764" stroke="#FEC165" stroke-width="0.79412" stroke-linecap="round" stroke-linejoin="round"/>
<path d="M87.3862 29.2567H96.7458C96.6104 28.1528 96.0592 27.1352 95.1966 26.3967C94.334 25.6583 93.2201 25.2504 92.066 25.2504C90.9119 25.2504 89.798 25.6583 88.9354 26.3967C88.0728 27.1352 87.5216 28.1528 87.3862 29.2567Z" fill="#FEC165"/>
<path d="M107.016 44.0861H101.229V43.8852C101.229 43.8386 101.248 43.7938 101.283 43.7608C101.317 43.7278 101.363 43.7093 101.412 43.7093H106.833C106.882 43.7093 106.928 43.7278 106.962 43.7608C106.997 43.7938 107.016 43.8386 107.016 43.8852V44.0861Z" fill="#FEC165"/>
<path d="M100.347 44.0891H97.0085L95.8835 38.394H101.472L100.347 44.0891Z" fill="#E19974"/>
<path d="M101.344 39.0441L101.472 38.394H95.8835L96.0118 39.0441H101.344Z" fill="#D6694B"/>
<path d="M97.9805 41.8697L97.2752 41.1904L96.5699 41.8697L97.2752 42.5491L97.9805 41.8697Z" fill="#D6694B"/>
<path d="M99.3915 41.8697L98.6861 41.1904L97.9808 41.8697L98.6861 42.5491L99.3915 41.8697Z" fill="#D6694B"/>
<path d="M100.786 41.8697L100.081 41.1904L99.3754 41.8697L100.081 42.5491L100.786 41.8697Z" fill="#D6694B"/>
<path d="M99.9783 33.6009C99.9783 33.6009 100.272 37.5906 98.553 38.4361C98.553 38.4361 97.9581 36.9235 99.9783 33.6009Z" fill="#558031"/>
<path d="M94.4333 35.3148C94.4333 35.3148 97.2447 35.782 98.5533 38.4362C98.5533 38.4362 95.4618 37.4249 94.4333 35.3148Z" fill="#849F4C"/>
<path d="M95.4302 40.5407C95.4302 40.5407 96.86 38.4805 98.5534 38.4362C98.5534 38.4362 98.2984 40.095 95.4302 40.5407Z" fill="#A6B862"/>
<path d="M97.1938 34.1696C97.1938 34.1696 99.1776 35.9142 98.5533 38.4362C98.5533 38.4362 97.4543 37.3142 97.1938 34.1696Z" fill="#849F4C"/>
<path d="M98.5533 38.4361C98.5533 38.4361 99.2503 35.9787 102.774 35.3486C102.774 35.3486 101.981 37.5861 98.5533 38.4361Z" fill="#A6B862"/>
<path d="M103.707 37.7939C103.707 37.7939 101.019 36.7264 98.5533 38.4362C98.5533 38.4362 101.831 38.8153 103.707 37.7939Z" fill="#849F4C"/>
<path d="M103.683 40.2789C103.683 40.2789 102.385 38.2763 98.5533 38.4361L103.683 40.2789Z" fill="#558031"/>
<path d="M92.9853 38.1121C92.9853 38.1121 96.5159 36.8512 98.5995 38.3759C98.5995 38.3759 96.621 39.4256 92.9853 38.1121Z" fill="#558031"/>
<path d="M95.8806 34.4611C95.8806 34.4611 99.0309 36.6071 98.579 38.438C98.579 38.438 96.3934 36.7502 95.8806 34.4611Z" fill="#558031"/>
<path d="M101.407 40.5722C101.407 40.5722 98.8096 40.1452 98.5533 38.4362C98.5533 38.4362 100.451 38.5267 101.407 40.5722Z" fill="#849F4C"/>
<path d="M92.6507 43.2854V43.3607C92.6506 43.5528 92.5714 43.7371 92.4303 43.8729C92.2893 44.0088 92.098 44.0851 91.8985 44.0852H89.639C89.4395 44.0851 89.2483 44.0088 89.1072 43.8729C88.9662 43.7371 88.8869 43.5528 88.8868 43.3607V40.4281C88.8869 40.2359 88.9662 40.0517 89.1072 39.9159C89.2483 39.78 89.4395 39.7037 89.639 39.7036H91.8985C92.098 39.7037 92.2893 39.78 92.4303 39.9159C92.5714 40.0517 92.6506 40.2359 92.6507 40.4281V43.2854Z" fill="#F65B2B"/>
<path d="M93.8959 40.4512H92.6503V40.8859H93.6702V42.8507H92.6503V43.2853H93.8959C93.9255 43.2854 93.9549 43.2798 93.9823 43.2689C94.0097 43.258 94.0346 43.242 94.0555 43.2218C94.0765 43.2016 94.0931 43.1776 94.1045 43.1512C94.1158 43.1248 94.1216 43.0966 94.1215 43.068V40.6685C94.1216 40.64 94.1158 40.6117 94.1044 40.5853C94.0931 40.5589 94.0765 40.535 94.0555 40.5148C94.0346 40.4946 94.0097 40.4786 93.9823 40.4677C93.9549 40.4568 93.9255 40.4512 93.8959 40.4512Z" fill="#E5CAF3"/>
<path d="M91.5531 41.2035H90.9191C90.8361 41.2035 90.7687 41.2684 90.7687 41.3484V41.959C90.7687 42.039 90.8361 42.1039 90.9191 42.1039H91.5531C91.6362 42.1039 91.7035 42.039 91.7035 41.959V41.3484C91.7035 41.2684 91.6362 41.2035 91.5531 41.2035Z" fill="#FFBA55"/>
<path d="M91.2361 41.2036V39.7036" stroke="#E5CAF3" stroke-width="0.92034" stroke-miterlimit="10"/>
<path d="M72.7906 30.143C72.6617 30.4097 72.526 30.6709 72.3922 30.9328L71.9944 31.7179C71.8623 31.9793 71.7357 32.243 71.6149 32.5089C71.4928 32.7756 71.3858 33.0484 71.2944 33.3261C71.3235 33.032 71.3905 32.7425 71.4939 32.4643C71.5918 32.1851 71.7083 31.9123 71.8427 31.6476C71.9764 31.3832 72.1193 31.1234 72.279 30.8731C72.4345 30.6203 72.6053 30.3765 72.7906 30.143Z" fill="#E6952A"/>
<path d="M81.2748 35.6632C81.3774 35.9256 81.462 36.1922 81.544 36.4594C81.6278 36.7262 81.6987 36.9961 81.7696 37.2659C81.8366 37.5367 81.9033 37.8075 81.9572 38.0814C82.0129 38.3548 82.066 38.6289 82.1008 38.9072C81.998 38.6449 81.9134 38.3783 81.8314 38.1111C81.7477 37.8443 81.6767 37.5744 81.606 37.3045C81.5393 37.0337 81.4725 36.7629 81.4187 36.489C81.3629 36.2156 81.3099 35.9415 81.2748 35.6632Z" fill="#E6952A"/>
<path d="M73.8019 39.611C74.0506 39.9169 74.325 40.2027 74.6222 40.4655C74.9164 40.727 75.2331 40.9642 75.5689 41.1743C75.9018 41.3877 76.2556 41.5693 76.6252 41.7164C76.9979 41.8646 77.3824 41.9838 77.7749 42.0727C77.3669 42.0443 76.9647 41.9637 76.5789 41.833C76.3844 41.7694 76.1943 41.694 76.0096 41.6074C75.8269 41.5169 75.649 41.4177 75.4766 41.31C75.1321 41.0945 74.815 40.8408 74.5318 40.5542C74.2458 40.2727 74.0003 39.9554 73.8019 39.611Z" fill="#E6952A"/>
<path d="M73.7999 41.079C73.9676 41.2391 74.1533 41.3807 74.3536 41.5011C74.5492 41.6259 74.7541 41.7365 74.9666 41.8322C75.392 42.0213 75.836 42.1691 76.2919 42.2731L76.6342 42.3502L76.9815 42.406C77.2116 42.4538 77.4478 42.4597 77.6808 42.4945C77.9151 42.5167 78.151 42.5243 78.3869 42.5407C78.6231 42.5471 78.8597 42.5471 79.0978 42.558C78.862 42.5839 78.6248 42.5997 78.3871 42.6203C78.1493 42.62 77.9105 42.6263 77.672 42.6191C77.1933 42.6015 76.7177 42.5384 76.2519 42.4307C75.7842 42.324 75.3326 42.1601 74.9081 41.943C74.4804 41.7322 74.103 41.438 73.7999 41.079Z" fill="#E6952A"/>
<path d="M71.1591 43.179H58.683C58.3647 43.179 58.0581 43.0634 57.8246 42.8552C57.591 42.6469 57.4475 42.3615 57.4229 42.0559L56.7765 34.0307C56.763 33.8634 56.7856 33.6952 56.8428 33.5368C56.9 33.3783 56.9906 33.2329 57.1089 33.1098C57.2273 32.9866 57.3707 32.8884 57.5304 32.8212C57.69 32.754 57.8623 32.7193 58.0365 32.7193H71.8055C71.9797 32.7193 72.152 32.754 72.3116 32.8212C72.4713 32.8884 72.6147 32.9866 72.7331 33.1098C72.8514 33.2329 72.942 33.3783 72.9992 33.5368C73.0564 33.6952 73.079 33.8634 73.0655 34.0307L72.4191 42.0559C72.3945 42.3615 72.251 42.6469 72.0175 42.8552C71.7839 43.0634 71.4773 43.179 71.1591 43.179Z" fill="#A2AEE6"/>
<path d="M64.9212 38.431C65.6806 38.431 66.2963 38.2153 66.2963 37.9492C66.2963 37.6831 65.6806 37.4674 64.9212 37.4674C64.1618 37.4674 63.5462 37.6831 63.5462 37.9492C63.5462 38.2153 64.1618 38.431 64.9212 38.431Z" fill="#4F66D0"/>
<path d="M71.6322 43.179H58.2105C57.9504 43.179 57.7396 43.3821 57.7396 43.6326C57.7396 43.883 57.9504 44.0861 58.2105 44.0861H71.6322C71.8923 44.0861 72.1031 43.883 72.1031 43.6326C72.1031 43.3821 71.8923 43.179 71.6322 43.179Z" fill="#4F66D0"/>
<path d="M85.2617 41.7C85.3709 41.9111 85.5029 42.1106 85.6554 42.2951C85.7989 42.4746 85.982 42.6212 86.1913 42.7245C86.4 42.8233 86.6368 42.8526 86.8646 42.8078C86.9828 42.7892 87.099 42.76 87.2117 42.7206C87.3261 42.6807 87.4337 42.6235 87.552 42.5805C87.4547 42.6542 87.3531 42.7266 87.2466 42.7927C87.1349 42.8533 87.0157 42.9 86.8917 42.9317C86.8292 42.9496 86.765 42.9621 86.7002 42.969L86.5017 42.9728C86.3692 42.9593 86.2398 42.9249 86.1189 42.8709C85.8857 42.7562 85.689 42.583 85.5496 42.3695C85.4102 42.1661 85.3124 41.9388 85.2617 41.7Z" fill="#DD765E"/>
<path d="M76.3597 27.1339C76.3897 27.0901 76.4302 27.0539 76.4777 27.0282C76.5252 27.0026 76.5784 26.9883 76.6328 26.9865C76.6889 26.986 76.7441 26.9996 76.7931 27.026C76.84 27.0515 76.8789 27.0888 76.9057 27.1339C76.8224 27.0908 76.7294 27.0681 76.6349 27.0675C76.5396 27.0728 76.4463 27.0953 76.3597 27.1339Z" fill="#DD765E"/>
<path d="M76.3597 27.9369C76.4254 27.7914 76.4817 27.6421 76.5283 27.49C76.5534 27.4154 76.5736 27.3394 76.5887 27.2623C76.6076 27.1854 76.6166 27.107 76.6327 27.0263C76.6678 27.1878 76.6596 27.3553 76.609 27.513C76.5622 27.6715 76.4768 27.8168 76.3597 27.9369Z" fill="#DD765E"/>
<path d="M83.866 27.5141C83.9953 27.3827 84.0952 27.2272 84.1595 27.0571C84.2238 26.8871 84.251 26.7061 84.2396 26.5254C84.2282 26.3448 84.1783 26.1683 84.0931 26.007C84.0079 25.8457 83.8892 25.703 83.7443 25.5878C83.6908 25.5438 83.6351 25.4973 83.5769 25.4484C83.0342 24.9915 83.0376 24.7334 82.608 24.4546C81.9943 24.0084 81.2235 23.8115 80.4609 23.9061C79.7191 23.9291 79.4444 23.2756 78.5055 23.4899C77.3646 23.7503 77.2317 23.8674 76.6328 24.2209C75.7918 24.7173 75.7779 26.488 76.2902 26.745C76.5914 26.8962 77.0127 26.493 77.1901 26.6617C77.3674 26.8304 77.1119 27.391 76.9058 27.8435C76.761 28.1611 76.5522 28.4954 76.4969 28.6423L76.0538 29.1458C76.0538 29.1458 75.1617 31.5537 77.124 33.085C79.0854 34.6163 81.5237 31.9554 81.5237 31.9554V31.212C80.9308 31.3502 80.3412 31.1764 79.8581 31.023C79.1988 30.8036 78.612 30.4192 78.158 29.9092C77.8497 29.5801 77.6101 29.3004 77.436 29.0871C77.3425 28.9727 77.2773 28.8393 77.2452 28.697C77.2132 28.5548 77.2151 28.4073 77.2509 28.2659C77.3021 28.0239 77.3692 27.7852 77.4517 27.5513C77.6067 27.1348 77.7301 26.8032 78.028 26.6749C78.2914 26.5615 78.431 26.7191 78.9076 26.7625C79.687 26.8336 79.8652 26.4624 80.5152 26.5288C80.7484 26.5526 80.779 26.6059 81.6981 27.0839C83.0608 27.7926 83.2327 27.8 83.3664 27.785C83.5595 27.7505 83.7352 27.6552 83.866 27.5141ZM77.7651 30.9499C78.0078 30.9248 78.2174 30.9401 78.7499 31.212C79.0128 31.3708 79.2653 31.5453 79.5056 31.7345C79.8477 31.9585 79.7687 32.1461 79.767 32.1769C79.7552 32.3547 79.403 32.4967 79.1199 32.5275C78.7686 32.5656 78.4906 32.4236 77.9471 32.138C77.4947 31.9002 77.268 31.7777 77.2394 31.5926C77.2337 31.4429 77.2834 31.296 77.3797 31.1783C77.476 31.0605 77.6126 30.9796 77.7651 30.9499Z" fill="#1E1D22"/>
<path d="M83.4577 32.0729C83.4445 31.8754 83.4944 31.492 83.7706 30.7564C84.1306 29.7977 84.4907 28.5683 84.6752 27.9137C84.7155 27.7703 84.7235 27.6204 84.6987 27.4738C84.6738 27.3272 84.6167 27.1875 84.5311 27.064L83.6004 25.7194C83.5861 25.6987 83.5666 25.6818 83.5438 25.6703C83.5209 25.6588 83.4954 25.653 83.4697 25.6534C83.4439 25.6539 83.4186 25.6606 83.3962 25.6729C83.3738 25.6852 83.355 25.7027 83.3415 25.7239L83.2763 25.826C83.2608 25.8501 83.2529 25.878 83.2535 25.9063C83.254 25.9346 83.263 25.9622 83.2793 25.9858L84.0739 27.1338L83.2878 26.5373C83.2661 26.5208 83.24 26.5105 83.2124 26.5076C83.1849 26.5048 83.1572 26.5094 83.1323 26.521C83.1074 26.5327 83.0864 26.5508 83.0717 26.5734C83.057 26.596 83.0492 26.6221 83.0492 26.6487C83.0472 26.6723 83.051 26.6959 83.0604 26.7177C83.0698 26.7395 83.0844 26.7589 83.1031 26.7741L83.6617 27.2294C83.714 27.272 83.7547 27.3262 83.7803 27.3873C83.8059 27.4485 83.8156 27.5147 83.8087 27.5803L83.7739 27.9084C83.746 28.1615 83.6606 28.4056 83.5238 28.6234C83.387 28.8412 83.2021 29.0273 82.9822 29.1685C82.6551 29.3805 82.3609 29.6359 82.1082 29.9273C81.7375 30.3623 81.4898 30.8823 81.3893 31.4367C81.2888 31.9911 81.3388 32.5612 81.5345 33.0915L81.5564 33.152L84.2254 42.2756C84.3024 42.539 84.4407 42.782 84.6299 42.9861L85.0025 43.3885C85.1779 43.5778 85.3929 43.7294 85.6334 43.8331C85.8738 43.9369 86.1343 43.9905 86.3978 43.9905C86.8474 43.9905 87.282 43.8345 87.6219 43.551C87.9617 43.2675 88.1842 42.8756 88.2485 42.447L88.3152 42.0018C88.377 41.59 88.2888 41.1703 88.0657 40.814C87.0318 39.1629 84.0015 34.213 83.4577 32.0729Z" fill="#F9977A"/>
<path d="M84.0737 27.1338C84.1592 27.2127 84.2427 27.2933 84.3243 27.3755L84.3322 27.3836L84.3293 27.3965C84.2628 27.6927 84.1864 27.9864 84.1021 28.2781C84.0186 28.5699 83.9284 28.8601 83.821 29.1458C83.8755 28.8465 83.947 28.5516 84.0253 28.2584C84.1028 27.965 84.1888 27.6737 84.2834 27.3847L84.2884 27.4056C84.2148 27.3167 84.1432 27.2261 84.0737 27.1338Z" fill="#DD765E"/>
<path d="M79.516 28.5592C79.5625 28.3723 79.4735 28.1915 79.3172 28.1555C79.161 28.1194 78.9966 28.2417 78.9501 28.4287C78.9036 28.6156 78.9926 28.7964 79.1489 28.8324C79.3052 28.8685 79.4695 28.7462 79.516 28.5592Z" fill="#1E1D22"/>
<path d="M78.7499 27.541C78.7499 27.541 79.7388 27.3716 80.2613 27.7998" stroke="#1E1D22" stroke-width="1.04747" stroke-linecap="round" stroke-linejoin="round"/>
<path d="M80.4609 28.8615C80.3317 29.079 80.2678 29.3269 80.2763 29.5774C80.2723 29.8262 80.2978 30.0747 80.3522 30.318L80.4028 30.5029C80.4272 30.5809 80.4185 30.6651 80.3787 30.737C80.3382 30.8032 80.2789 30.8567 80.2077 30.8911C80.1432 30.9242 80.0732 30.9464 80.0008 30.9566C79.8626 30.9655 79.7241 30.9449 79.5952 30.8961C79.4663 30.8473 79.3502 30.7716 79.2552 30.6745C79.4666 30.8149 79.7241 30.8758 79.9789 30.8458C80.0344 30.8363 80.0873 30.8161 80.1344 30.7864C80.1815 30.7567 80.2219 30.7181 80.2531 30.6729C80.264 30.6519 80.2702 30.6289 80.2715 30.6054C80.2727 30.5819 80.269 30.5584 80.2604 30.5364L80.2066 30.3527C80.1497 30.0972 80.1338 29.8348 80.1597 29.5747C80.1708 29.3104 80.2774 29.0582 80.4609 28.8615Z" fill="#DD765E"/>
<path d="M78.3593 28.1652C78.492 28.0856 78.6406 28.0334 78.7954 28.012C78.9503 27.9907 79.108 28.0006 79.2587 28.0411C79.5612 28.119 79.8258 28.2968 80.006 28.5435C79.8735 28.4691 79.7483 28.3956 79.6179 28.3353C79.4902 28.2742 79.3564 28.2258 79.2186 28.1909C79.0812 28.1562 78.94 28.1369 78.798 28.1334C78.651 28.1288 78.5039 28.1394 78.3593 28.1652Z" fill="#1E1D22"/>
<path d="M81.5082 29.5593C81.6095 29.3936 81.5793 29.1957 81.4409 29.1171C81.3024 29.0386 81.108 29.1092 81.0067 29.2748C80.9055 29.4405 80.9356 29.6384 81.0741 29.717C81.2126 29.7955 81.4069 29.7249 81.5082 29.5593Z" fill="#1E1D22"/>
<path d="M82.2922 29.0545C82.2922 29.0545 81.7025 28.2713 81.0177 28.2301" stroke="#1E1D22" stroke-width="1.04747" stroke-linecap="round" stroke-linejoin="round"/>
<path d="M82.1234 29.7649C82.0379 29.6497 81.9397 29.5436 81.8305 29.4486C81.7258 29.3562 81.6103 29.2757 81.4864 29.2088C81.362 29.1418 81.2308 29.0871 81.0949 29.0457C80.9576 29.002 80.8145 28.9711 80.6655 28.9361C80.973 28.8791 81.2916 28.9279 81.5655 29.0742C81.7031 29.1458 81.8238 29.2441 81.9199 29.363C82.0159 29.482 82.0852 29.6188 82.1234 29.7649Z" fill="#1E1D22"/>
<path d="M81.4327 31.2307C81.4849 30.8336 81.6256 30.452 81.8454 30.1122C81.9565 29.9424 82.0899 29.7872 82.2423 29.6503C82.3951 29.515 82.5698 29.4046 82.7595 29.3236C82.5884 29.4302 82.43 29.5548 82.2875 29.6951C82.1463 29.8346 82.0219 29.989 81.9166 30.1554C81.8083 30.3205 81.7143 30.4941 81.6358 30.6742C81.5554 30.8552 81.4876 31.0411 81.4327 31.2307Z" fill="#DD765E"/>
<path d="M77.5122 31.2307C77.6404 31.5942 77.9082 31.8967 78.2605 32.0763C78.6128 32.2559 79.0231 32.2988 79.4072 32.1965" fill="#1E1D22"/>
<path d="M63.1923 71.2443H62.2053C61.9669 71.2443 61.7737 71.4305 61.7737 71.6601V74.1411C61.7737 74.3707 61.9669 74.5569 62.2053 74.5569H63.1923C63.4306 74.5569 63.6239 74.3707 63.6239 74.1411V71.6601C63.6239 71.4305 63.4306 71.2443 63.1923 71.2443Z" fill="#D6694B"/>
<path d="M90.4548 74.5568H91.4417C91.6801 74.5568 91.8734 74.3707 91.8734 74.1411V71.66C91.8734 71.4304 91.6801 71.2443 91.4417 71.2443H90.4548C90.2164 71.2443 90.0231 71.4304 90.0231 71.66V74.1411C90.0231 74.3707 90.2164 74.5568 90.4548 74.5568Z" fill="#D6694B"/>
<path d="M69.9232 61.7255C69.9722 61.9763 70.0147 62.2267 70.0691 62.4752C70.1165 62.7246 70.1669 62.9733 70.2234 63.2205C70.3373 63.7143 70.4516 64.2072 70.5985 64.6904C70.7359 65.1746 70.912 65.6479 71.1252 66.1059C71.2314 66.334 71.3594 66.5521 71.5074 66.7575C71.6517 66.9679 71.8327 67.1527 72.0426 67.3036C71.8036 67.1853 71.5915 67.0224 71.4185 66.8244C71.2474 66.6249 71.0963 66.4102 70.9674 66.1831C70.7158 65.7286 70.5179 65.2483 70.3774 64.7513C70.2333 64.2586 70.1239 63.7571 70.0499 63.2503C69.9711 62.7455 69.9287 62.236 69.9232 61.7255Z" fill="#065082"/>
<path d="M70.5399 59.2559C70.5889 59.5066 70.6313 59.757 70.6858 60.0056C70.7332 60.255 70.7836 60.5037 70.8401 60.7508C70.954 61.2446 71.0683 61.7376 71.2152 62.2208C71.3526 62.705 71.5287 63.1782 71.7418 63.6363C71.8481 63.8643 71.9761 64.0824 72.1241 64.2878C72.2684 64.4982 72.4494 64.683 72.6592 64.8339C72.4203 64.7157 72.2081 64.5527 72.0352 64.3547C71.8641 64.1552 71.713 63.9405 71.5841 63.7134C71.3325 63.2589 71.1346 62.7786 70.9941 62.2816C70.85 61.7889 70.7406 61.2875 70.6666 60.7806C70.5878 60.2758 70.5454 59.7663 70.5399 59.2559Z" fill="#065082"/>
<path d="M109.319 75H3.02896C2.96794 75 2.90942 74.9767 2.86627 74.9351C2.82313 74.8936 2.79889 74.8372 2.79889 74.7784C2.79889 74.7196 2.82313 74.6633 2.86627 74.6217C2.90942 74.5802 2.96794 74.5568 3.02896 74.5568H109.319C109.381 74.5568 109.439 74.5802 109.482 74.6217C109.525 74.6633 109.55 74.7196 109.55 74.7784C109.55 74.8372 109.525 74.8936 109.482 74.9351C109.439 74.9767 109.381 75 109.319 75Z" fill="#935B50"/>
</svg>
