<svg width="100" height="105" viewBox="0 0 100 105" fill="none" xmlns="http://www.w3.org/2000/svg">
<path opacity="0.11" d="M49.1778 104.469C71.4511 104.469 89.5071 103.346 89.5071 101.96C89.5071 100.575 71.4511 99.4513 49.1778 99.4513C26.9046 99.4513 8.84863 100.575 8.84863 101.96C8.84863 103.346 26.9046 104.469 49.1778 104.469Z" fill="#2A94F4"/>
<path d="M18.4508 100.304C18.4508 100.304 1.51251 97.4267 0.0817856 70.2732C-1.34894 43.1197 16.2519 30.3519 32.4796 35.9802C38.0105 37.8983 43.8006 32.7446 36.5413 24.9076C28.6771 16.4216 39.5276 -8.10664 79.6168 2.70437C110.181 10.9482 100.165 32.5412 89.3438 48.3121C79.5111 62.6299 100.982 58.3675 99.5125 83.5351C97.8321 112.432 18.4508 100.304 18.4508 100.304Z" fill="#0085A1"/>
<path d="M33.9967 59.4719H12.4782L12.8911 34.4787H33.6895L33.9967 59.4719Z" fill="#F7F7F7"/>
<path d="M11.374 59.4719H57.7622V62.6299H11.374V59.4719ZM26.3534 71.3969H42.7732V73.2375H26.3534V71.3969Z" fill="#606060"/>
<path d="M11.374 102.348L31.3562 60.7506L33.4495 61.7774L13.9474 102.357L11.374 102.348ZM57.7526 102.348L37.7705 60.7506L35.6868 61.7774L55.1792 102.357L57.7526 102.348Z" fill="#606060"/>
<path d="M23.4055 54.541C27.9185 54.541 31.577 51.145 31.577 46.9559C31.577 42.7667 27.9185 39.3707 23.4055 39.3707C18.8926 39.3707 15.2341 42.7667 15.2341 46.9559C15.2341 51.145 18.8926 54.541 23.4055 54.541Z" fill="#2A94F4"/>
<path d="M23.4056 46.9559H31.577C31.577 48.5543 31.0297 50.114 30.0215 51.4024C29.0133 52.7005 27.5825 53.6595 25.9502 54.1536L23.4056 46.9559Z" fill="#CCE9FF"/>
<path d="M23.4056 46.9559L17.9515 41.3082C19.4495 40.0682 21.3891 39.3707 23.4056 39.3707C27.8898 39.3707 31.577 42.7904 31.577 46.9559V46.9946L23.4056 46.9559Z" fill="#0B4870"/>
<path d="M54.6127 59.4719H36.4357L36.7814 46.4715H54.3438L54.6127 59.4719Z" fill="#F7F7F7"/>
<path d="M41.3713 50.2883H43.3493V57.9219H41.3713V50.2883ZM44.7609 51.1989H46.7389V57.9316H44.7609V51.1989Z" fill="#0B4870"/>
<path d="M48.1408 49.3196H50.1189V57.9219H48.1408V49.3196Z" fill="#FFBE55"/>
<path d="M39.7004 48.4768H39.9117V58.0285H39.7004V48.4768Z" fill="#0B4870"/>
<path d="M39.7005 57.9219H52.9035V58.0866H39.7005V57.9219ZM14.1874 55.316H14.9076V56.0426H14.1874V55.316ZM15.3109 55.5679H18.0859V55.8004H15.3109V55.5679ZM15.3109 56.8176H18.0859V57.0501H15.3109V56.8176ZM15.3109 58.0769H18.0859V58.3094H15.3109V58.0769Z" fill="#0B4870"/>
<path d="M14.1874 56.5754H14.9076V57.3019H14.1874V56.5754Z" fill="#2A94F4"/>
<path d="M14.1874 57.825H14.9076V58.5516H14.1874V57.825Z" fill="#CCE9FF"/>
<path d="M66.865 21.8077L54.3246 17.8359C56.389 11.1807 63.3314 7.2477 70.0433 8.93329C77.0433 10.6867 81.3643 17.9425 79.6263 25.0045C77.8883 32.0665 70.6963 36.4258 63.6963 34.6724C62.2464 34.314 60.8733 33.7037 59.625 32.8706L66.865 21.8077Z" fill="#FFBE55"/>
<path d="M63.6002 23.1058L56.2162 34.4787C53.7772 32.8706 51.924 30.4972 50.9253 27.7363C49.9363 24.9657 49.8595 21.953 50.7141 19.134L63.6002 23.1058Z" fill="#FFBE55"/>
<path d="M71.6277 54.2698L69.2079 52.4679L88.2011 26.4866C88.5755 25.9732 89.2957 25.857 89.8142 26.2445L90.3808 26.6707C90.8897 27.0485 91.0049 27.775 90.6208 28.2982L71.6277 54.2698Z" fill="#F2F2F2"/>
<path d="M72.8471 55.4419L70.533 53.4948L91.0337 28.705C91.437 28.211 92.1668 28.1432 92.6565 28.5597L93.1942 29.015C93.6839 29.4219 93.7511 30.1581 93.3382 30.6522L72.8471 55.4419Z" fill="#F7F7F7"/>
<path d="M90.6958 27.6379C90.8272 27.4369 90.4888 26.9779 89.9399 26.6125C89.391 26.2472 88.8395 26.1139 88.7081 26.3149C88.5767 26.5158 88.9151 26.9749 89.464 27.3403C90.0129 27.7056 90.5644 27.8389 90.6958 27.6379Z" fill="#D3D3D3"/>
<path d="M93.436 30.0233C93.5675 29.8224 93.229 29.3633 92.6801 28.998C92.1312 28.6326 91.5797 28.4993 91.4483 28.7003C91.3169 28.9013 91.6553 29.3603 92.2042 29.7257C92.7531 30.091 93.3046 30.2243 93.436 30.0233Z" fill="#D3D3D3"/>
<path d="M79.972 97.446L80.2889 99.4319C80.4137 100.226 79.9528 100.992 79.1942 101.243L75.8142 102.367H83.6976L82.747 97.446H79.972Z" fill="#FCD2B1"/>
<path d="M83.496 101.243L79.5975 101.04C79.5975 101.04 74.6908 101.805 74.662 102.881H84.389L83.496 101.243Z" fill="#0E538C"/>
<path d="M59.0392 97.446L58.2326 99.9356C58.0598 100.478 57.6277 100.904 57.0899 101.088L53.2587 102.367H61.1421L62.2559 97.446H59.0392Z" fill="#FCD2B1"/>
<path d="M61.2957 101.243L57.0324 101.04C57.0324 101.04 52.1256 101.805 52.0968 102.881H61.8239L61.2957 101.243Z" fill="#0E538C"/>
<path d="M78.9158 51.5186C78.9158 51.5186 80.8362 52.807 81.3931 57.7475C81.9501 62.688 81.1723 66.2723 81.614 69.1591C82.0557 72.046 82.9199 98.2791 82.9199 98.2791H78.7333L71.7525 51.5477L78.9158 51.5186Z" fill="#FFBE55"/>
<path d="M69.8033 50.9858H77.2161C77.2161 50.9858 78.1284 56.556 76.5248 59.8109C74.9116 63.0659 74.0474 63.9377 73.5865 65.8267C73.1256 67.7157 61.9679 98.2791 61.9679 98.2791H58.3958L69.8033 50.9858Z" fill="#FFBE55"/>
<path d="M80.4905 35.2924C80.4905 35.2924 87.9418 46.0065 87.0872 48.903C86.2326 51.7995 77.6771 48.593 77.6771 48.593V46.7912L83.5344 47.5371L79.0886 39.8648L80.4905 35.2924Z" fill="#FCD2B1"/>
<path d="M67.806 40.8916C68.2477 38.5861 70.8979 35.1374 70.8979 35.1374H81.3931L78.6277 49.6586C78.4452 50.5886 80.7305 51.5573 78.2628 51.5573H69.6976C69.2751 51.5573 68.939 51.2183 68.939 50.792V45.5609C68.939 44.8634 68.747 44.1659 68.3533 43.5847C67.7004 42.5869 67.6812 41.5407 67.806 40.8916Z" fill="#2A94F4"/>
<path d="M72.5879 27.2326L71.6469 29.48C71.6469 29.48 71.09 31.1462 71.4165 32.1247C71.7909 33.2484 73.4617 33.2387 73.4617 33.2387L72.9624 35.9802H77.2162V27.3101L72.5879 27.2326Z" fill="#FFE3CA"/>
<path d="M72.828 28.1529C72.0598 27.6298 71.9157 26.5642 72.5111 25.8473C73.3465 24.8495 74.7868 23.6483 76.8321 23.7936C78.8485 23.9389 80.7882 25.1886 80.8362 28.1044C80.865 30.0516 81.3451 31.3981 82.7086 33.8393C83.9857 36.1352 81.9404 38.7217 82.2285 40.8432C82.5166 42.9647 82.8622 42.926 82.9199 44.7666C83.1407 52.003 76.2271 51.7511 72.7127 51.4992C69.2655 51.2474 67.9884 44.0691 70.3602 41.3082C72.7319 38.5473 71.9349 35.3893 72.175 34.0912C72.7511 30.9428 74.2299 30.3228 73.9994 28.7438C73.5673 28.6082 73.164 28.3854 72.828 28.1529Z" fill="#0E538C"/>
<path d="M52.2025 24.0455C52.1833 21.8561 53.9501 22.7183 54.0461 23.1445C54.0653 23.2317 54.2766 23.2898 54.363 23.9292C54.4494 24.5589 54.9103 25.4211 54.9967 25.1982C55.1696 24.7526 55.3808 24.1036 55.5344 24.2489C56.0146 24.7333 55.7457 25.6439 55.5056 26.2057C55.3712 26.5254 55.4192 26.8935 55.6305 27.1648L61.9583 35.1374H70.7731C72.5879 35.4958 71.6949 39.3126 69.5152 39.2254C67.6044 39.1479 62.6593 38.9348 60.4988 37.5689C58.3383 36.1933 53.6524 26.6998 53.6524 26.6998C52.6922 25.9635 52.2025 24.2198 52.2025 24.0455Z" fill="#FCD2B1"/>
</svg>
