<svg width="370" height="299" viewBox="0 0 370 299" fill="none" xmlns="http://www.w3.org/2000/svg">
<path d="M396.453 131.186C396.453 160.361 415.683 267.213 396.453 289C367.928 321.318 291.508 262.372 239.844 262.372C153.351 262.372 83.234 203.638 83.234 131.186C83.234 58.734 153.351 0 239.844 0C326.337 0 396.453 58.734 396.453 131.186Z" fill="#FFBE55"/>
<ellipse cx="111.461" cy="223.647" rx="103.461" ry="73.3525" fill="#FFBE55"/>
<path opacity="0.11" d="M75.3886 266.75C114.037 266.75 145.368 264.817 145.368 262.433C145.368 260.049 114.037 258.117 75.3886 258.117C36.7401 258.117 5.4093 260.049 5.4093 262.433C5.4093 264.817 36.7401 266.75 75.3886 266.75Z" fill="#2A94F4"/>
<path d="M22.071 259.583C22.071 259.583 -7.32031 254.633 -9.80291 207.917C-12.2855 161.2 18.2554 139.233 46.4138 148.917C56.0109 152.217 66.058 143.35 53.4617 129.867C39.8157 115.267 58.6435 73.0667 128.206 91.6667C181.24 105.85 163.862 143 145.085 170.133C128.023 194.767 165.279 187.433 162.729 230.733C159.814 280.45 22.071 259.583 22.071 259.583Z" fill="#00343F"/>
<path d="M49.0463 189.333H11.7074L12.4238 146.333H48.5132L49.0463 189.333Z" fill="#F7F7F7"/>
<path d="M9.79126 189.333H90.2841V194.767H9.79126V189.333ZM35.7836 209.85H64.2751V213.017H35.7836V209.85Z" fill="#606060"/>
<path d="M9.79126 263.1L44.4643 191.533L48.0966 193.3L14.2566 263.117L9.79126 263.1ZM90.2674 263.1L55.5943 191.533L51.9788 193.3L85.8021 263.117L90.2674 263.1Z" fill="#606060"/>
<path d="M30.6684 180.85C38.4993 180.85 44.8475 175.007 44.8475 167.8C44.8475 160.593 38.4993 154.75 30.6684 154.75C22.8375 154.75 16.4893 160.593 16.4893 167.8C16.4893 175.007 22.8375 180.85 30.6684 180.85Z" fill="#2A94F4"/>
<path d="M30.6685 167.8H44.8476C44.8476 170.55 43.8979 173.233 42.1484 175.45C40.3989 177.683 37.9163 179.333 35.0838 180.183L30.6685 167.8Z" fill="#CCE9FF"/>
<path d="M30.6685 167.8L21.2046 158.083C23.8038 155.95 27.1695 154.75 30.6685 154.75C38.4495 154.75 44.8476 160.633 44.8476 167.8V167.867L30.6685 167.8Z" fill="#0B4870"/>
<path d="M84.819 189.333H53.2783L53.8781 166.967H84.3524L84.819 189.333Z" fill="#F7F7F7"/>
<path d="M61.8425 173.533H65.2749V186.667H61.8425V173.533ZM67.7241 175.1H71.1564V186.683H67.7241V175.1Z" fill="#0B4870"/>
<path d="M73.589 171.867H77.0213V186.667H73.589V171.867Z" fill="#FFBE55"/>
<path d="M58.9434 170.417H59.3099V186.85H58.9434V170.417Z" fill="#0B4870"/>
<path d="M58.9433 186.667H81.8532V186.95H58.9433V186.667ZM14.6731 182.183H15.9227V183.433H14.6731V182.183ZM16.6225 182.617H21.4378V183.017H16.6225V182.617ZM16.6225 184.767H21.4378V185.167H16.6225V184.767ZM16.6225 186.933H21.4378V187.333H16.6225V186.933Z" fill="#0B4870"/>
<path d="M14.6731 184.35H15.9227V185.6H14.6731V184.35Z" fill="#2A94F4"/>
<path d="M14.6731 186.5H15.9227V187.75H14.6731V186.5Z" fill="#CCE9FF"/>
<path d="M106.079 124.533L84.3191 117.7C87.9014 106.25 99.9478 99.4833 111.594 102.383C123.741 105.4 131.239 117.883 128.223 130.033C125.207 142.183 112.727 149.683 100.581 146.667C98.065 146.05 95.6824 145 93.5164 143.567L106.079 124.533Z" fill="#FFBE55"/>
<path d="M100.414 126.767L87.6015 146.333C83.3694 143.567 80.1537 139.483 78.4209 134.733C76.7047 129.967 76.5714 124.783 78.0543 119.933L100.414 126.767Z" fill="#FFBE55"/>
<path d="M114.344 180.383L110.145 177.283L143.102 132.583C143.751 131.7 145.001 131.5 145.901 132.166L146.884 132.9C147.767 133.55 147.967 134.8 147.3 135.7L114.344 180.383Z" fill="#F2F2F2"/>
<path d="M116.46 182.4L112.444 179.05L148.017 136.4C148.717 135.55 149.983 135.433 150.833 136.15L151.766 136.933C152.616 137.633 152.732 138.9 152.016 139.75L116.46 182.4Z" fill="#F7F7F7"/>
<path d="M147.431 134.564C147.659 134.218 147.071 133.428 146.119 132.8C145.167 132.171 144.21 131.942 143.982 132.288C143.753 132.634 144.341 133.423 145.293 134.052C146.246 134.68 147.203 134.91 147.431 134.564Z" fill="#D3D3D3"/>
<path d="M152.185 138.668C152.413 138.322 151.826 137.532 150.874 136.904C149.921 136.275 148.964 136.046 148.736 136.392C148.508 136.738 149.095 137.527 150.048 138.156C151 138.784 151.957 139.014 152.185 138.668Z" fill="#D3D3D3"/>
<path d="M128.823 254.667L129.373 258.083C129.589 259.45 128.789 260.766 127.473 261.2L121.608 263.133H135.287L133.638 254.667H128.823Z" fill="#FCD2B1"/>
<path d="M134.937 261.2L128.173 260.85C128.173 260.85 119.659 262.167 119.609 264.017H136.487L134.937 261.2Z" fill="#0E538C"/>
<path d="M92.5001 254.667L91.1005 258.95C90.8006 259.883 90.0508 260.616 89.1178 260.933L82.4697 263.133H96.149L98.0818 254.667H92.5001Z" fill="#FCD2B1"/>
<path d="M96.4156 261.2L89.0177 260.85C89.0177 260.85 80.5036 262.167 80.4536 264.017H97.332L96.4156 261.2Z" fill="#0E538C"/>
<path d="M126.99 175.65C126.99 175.65 130.322 177.867 131.289 186.367C132.255 194.867 130.905 201.033 131.672 206C132.438 210.967 133.938 256.1 133.938 256.1H126.673L114.56 175.7L126.99 175.65Z" fill="#FFBE55"/>
<path d="M111.178 174.733H124.041C124.041 174.733 125.624 184.316 122.841 189.916C120.042 195.516 118.542 197.016 117.743 200.266C116.943 203.516 97.5818 256.1 97.5818 256.1H91.3837L111.178 174.733Z" fill="#FFBE55"/>
<path d="M129.722 147.733C129.722 147.733 142.652 166.166 141.169 171.15C139.686 176.133 124.84 170.616 124.84 170.616V167.516L135.004 168.8L127.29 155.6L129.722 147.733Z" fill="#FCD2B1"/>
<path d="M107.712 157.367C108.479 153.4 113.077 147.467 113.077 147.467H131.289L126.49 172.45C126.173 174.05 130.139 175.717 125.857 175.717H110.995C110.261 175.717 109.678 175.133 109.678 174.4V165.4C109.678 164.2 109.345 163 108.662 162C107.529 160.283 107.496 158.483 107.712 157.367Z" fill="#2A94F4"/>
<path d="M116.01 133.867L114.377 137.733C114.377 137.733 113.411 140.6 113.977 142.283C114.627 144.217 117.526 144.2 117.526 144.2L116.66 148.917H124.041V134L116.01 133.867Z" fill="#FFE3CA"/>
<path d="M116.426 135.45C115.093 134.55 114.843 132.717 115.876 131.483C117.326 129.767 119.825 127.7 123.374 127.95C126.873 128.2 130.239 130.35 130.322 135.367C130.372 138.717 131.205 141.033 133.571 145.233C135.787 149.183 132.238 153.633 132.738 157.283C133.238 160.933 133.838 160.867 133.938 164.033C134.321 176.483 122.325 176.05 116.226 175.617C110.245 175.183 108.029 162.833 112.144 158.083C116.26 153.333 114.877 147.9 115.293 145.667C116.293 140.25 118.859 139.183 118.459 136.467C117.709 136.233 117.009 135.85 116.426 135.45Z" fill="#0E538C"/>
<path d="M80.6369 128.383C80.6035 124.617 83.6693 126.1 83.8359 126.833C83.8692 126.983 84.2358 127.083 84.3858 128.183C84.5357 129.267 85.3355 130.75 85.4854 130.367C85.7853 129.6 86.1519 128.483 86.4185 128.733C87.2516 129.567 86.785 131.133 86.3685 132.1C86.1352 132.65 86.2185 133.283 86.5851 133.75L97.5652 147.467H112.861C116.01 148.083 114.46 154.65 110.678 154.5C107.362 154.367 98.7815 154 95.0326 151.65C91.2837 149.283 83.1528 132.95 83.1528 132.95C81.4866 131.683 80.6369 128.683 80.6369 128.383Z" fill="#FCD2B1"/>
<path d="M280.342 201.906V202.825H275.342V201.906H280.342ZM283.429 199.672V198.727H289.057V199.672H286.788V206H285.694V199.672H283.429ZM290.574 206.067C290.379 206.067 290.212 205.999 290.073 205.862C289.933 205.722 289.863 205.554 289.863 205.357C289.863 205.163 289.933 204.997 290.073 204.86C290.212 204.72 290.379 204.651 290.574 204.651C290.768 204.651 290.935 204.72 291.074 204.86C291.214 204.997 291.284 205.163 291.284 205.357C291.284 205.487 291.251 205.607 291.184 205.716C291.12 205.822 291.035 205.908 290.929 205.972C290.822 206.036 290.704 206.067 290.574 206.067ZM295.32 206V198.727H296.418V201.888H300.044V198.727H301.144V206H300.044V202.829H296.418V206H295.32ZM303.357 206H302.192L304.809 198.727H306.077L308.694 206H307.529L305.473 200.048H305.416L303.357 206ZM303.552 203.152H307.33V204.075H303.552V203.152ZM309.744 206V198.727H312.337C312.9 198.727 313.368 198.824 313.739 199.018C314.113 199.213 314.393 199.481 314.577 199.825C314.762 200.165 314.854 200.56 314.854 201.007C314.854 201.452 314.761 201.844 314.574 202.183C314.389 202.519 314.11 202.78 313.736 202.967C313.364 203.154 312.897 203.248 312.333 203.248H310.369V202.303H312.234C312.589 202.303 312.878 202.252 313.1 202.151C313.325 202.049 313.49 201.901 313.594 201.707C313.698 201.513 313.75 201.279 313.75 201.007C313.75 200.732 313.697 200.495 313.59 200.293C313.486 200.092 313.321 199.938 313.097 199.832C312.874 199.723 312.582 199.668 312.219 199.668H310.842V206H309.744ZM313.335 202.719L315.131 206H313.881L312.12 202.719H313.335ZM316.65 198.727L318.674 204.651H318.755L320.779 198.727H321.966L319.348 206H318.081L315.463 198.727H316.65ZM325.662 206V198.727H330.222V199.672H326.76V201.888H329.984V202.829H326.76V205.055H330.265V206H325.662ZM331.688 206V198.727H332.785V202.2H332.874L335.924 198.727H337.306L334.372 202.001L337.316 206H335.995L333.644 202.751L332.785 203.738V206H331.688ZM338.328 206V198.727H342.888V199.672H339.426V201.888H342.65V202.829H339.426V205.055H342.931V206H338.328ZM344.354 206V198.727H346.946C347.509 198.727 347.977 198.824 348.349 199.018C348.723 199.213 349.002 199.481 349.187 199.825C349.371 200.165 349.464 200.56 349.464 201.007C349.464 201.452 349.37 201.844 349.183 202.183C348.999 202.519 348.719 202.78 348.345 202.967C347.973 203.154 347.506 203.248 346.942 203.248H344.979V202.303H346.843C347.198 202.303 347.487 202.252 347.71 202.151C347.934 202.049 348.099 201.901 348.203 201.707C348.307 201.513 348.359 201.279 348.359 201.007C348.359 200.732 348.306 200.495 348.2 200.293C348.095 200.092 347.931 199.938 347.706 199.832C347.483 199.723 347.191 199.668 346.829 199.668H345.451V206H344.354ZM347.944 202.719L349.741 206H348.491L346.729 202.719H347.944Z" fill="white"/>
<path d="M192.863 145V136.6H194.807V145H192.863ZM198.541 145V138.184H195.853V136.6H203.173V138.184H200.485V145H198.541ZM204.044 140.08L204.836 137.2L205.1 138.292C204.756 138.292 204.472 138.192 204.248 137.992C204.032 137.784 203.924 137.504 203.924 137.152C203.924 136.808 204.036 136.532 204.26 136.324C204.484 136.108 204.76 136 205.088 136C205.424 136 205.7 136.108 205.916 136.324C206.132 136.532 206.24 136.808 206.24 137.152C206.24 137.256 206.232 137.36 206.216 137.464C206.208 137.56 206.18 137.676 206.132 137.812C206.092 137.948 206.024 138.128 205.928 138.352L205.232 140.08H204.044ZM210.518 145.144C209.846 145.144 209.202 145.056 208.586 144.88C207.97 144.696 207.474 144.46 207.098 144.172L207.758 142.708C208.118 142.964 208.542 143.176 209.03 143.344C209.526 143.504 210.026 143.584 210.53 143.584C210.914 143.584 211.222 143.548 211.454 143.476C211.694 143.396 211.87 143.288 211.982 143.152C212.094 143.016 212.15 142.86 212.15 142.684C212.15 142.46 212.062 142.284 211.886 142.156C211.71 142.02 211.478 141.912 211.19 141.832C210.902 141.744 210.582 141.664 210.23 141.592C209.886 141.512 209.538 141.416 209.186 141.304C208.842 141.192 208.526 141.048 208.238 140.872C207.95 140.696 207.714 140.464 207.53 140.176C207.354 139.888 207.266 139.52 207.266 139.072C207.266 138.592 207.394 138.156 207.65 137.764C207.914 137.364 208.306 137.048 208.826 136.816C209.354 136.576 210.014 136.456 210.806 136.456C211.334 136.456 211.854 136.52 212.366 136.648C212.878 136.768 213.33 136.952 213.722 137.2L213.122 138.676C212.73 138.452 212.338 138.288 211.946 138.184C211.554 138.072 211.17 138.016 210.794 138.016C210.418 138.016 210.11 138.06 209.87 138.148C209.63 138.236 209.458 138.352 209.354 138.496C209.25 138.632 209.198 138.792 209.198 138.976C209.198 139.192 209.286 139.368 209.462 139.504C209.638 139.632 209.87 139.736 210.158 139.816C210.446 139.896 210.762 139.976 211.106 140.056C211.458 140.136 211.806 140.228 212.15 140.332C212.502 140.436 212.822 140.576 213.11 140.752C213.398 140.928 213.63 141.16 213.806 141.448C213.99 141.736 214.082 142.1 214.082 142.54C214.082 143.012 213.95 143.444 213.686 143.836C213.422 144.228 213.026 144.544 212.498 144.784C211.978 145.024 211.318 145.144 210.518 145.144ZM221.569 145.144C220.897 145.144 220.253 145.056 219.637 144.88C219.021 144.696 218.525 144.46 218.149 144.172L218.809 142.708C219.169 142.964 219.593 143.176 220.081 143.344C220.577 143.504 221.077 143.584 221.581 143.584C221.965 143.584 222.273 143.548 222.505 143.476C222.745 143.396 222.921 143.288 223.033 143.152C223.145 143.016 223.201 142.86 223.201 142.684C223.201 142.46 223.113 142.284 222.937 142.156C222.761 142.02 222.529 141.912 222.241 141.832C221.953 141.744 221.633 141.664 221.281 141.592C220.937 141.512 220.589 141.416 220.237 141.304C219.893 141.192 219.577 141.048 219.289 140.872C219.001 140.696 218.765 140.464 218.581 140.176C218.405 139.888 218.317 139.52 218.317 139.072C218.317 138.592 218.445 138.156 218.701 137.764C218.965 137.364 219.357 137.048 219.877 136.816C220.405 136.576 221.065 136.456 221.857 136.456C222.385 136.456 222.905 136.52 223.417 136.648C223.929 136.768 224.381 136.952 224.773 137.2L224.173 138.676C223.781 138.452 223.389 138.288 222.997 138.184C222.605 138.072 222.221 138.016 221.845 138.016C221.469 138.016 221.161 138.06 220.921 138.148C220.681 138.236 220.509 138.352 220.405 138.496C220.301 138.632 220.249 138.792 220.249 138.976C220.249 139.192 220.337 139.368 220.513 139.504C220.689 139.632 220.921 139.736 221.209 139.816C221.497 139.896 221.813 139.976 222.157 140.056C222.509 140.136 222.857 140.228 223.201 140.332C223.553 140.436 223.873 140.576 224.161 140.752C224.449 140.928 224.681 141.16 224.857 141.448C225.041 141.736 225.133 142.1 225.133 142.54C225.133 143.012 225.001 143.444 224.737 143.836C224.473 144.228 224.077 144.544 223.549 144.784C223.029 145.024 222.369 145.144 221.569 145.144ZM226.461 145V136.6H228.405V145H226.461ZM230.398 145V136.6H232.006L235.582 142.528H234.73L238.246 136.6H239.842L239.866 145H238.042L238.03 139.396H238.366L235.558 144.112H234.682L231.814 139.396H232.222V145H230.398ZM241.859 145V136.6H245.495C246.247 136.6 246.895 136.724 247.439 136.972C247.983 137.212 248.403 137.56 248.699 138.016C248.995 138.472 249.143 139.016 249.143 139.648C249.143 140.272 248.995 140.812 248.699 141.268C248.403 141.724 247.983 142.076 247.439 142.324C246.895 142.564 246.247 142.684 245.495 142.684H242.939L243.803 141.808V145H241.859ZM243.803 142.024L242.939 141.1H245.387C245.987 141.1 246.435 140.972 246.731 140.716C247.027 140.46 247.175 140.104 247.175 139.648C247.175 139.184 247.027 138.824 246.731 138.568C246.435 138.312 245.987 138.184 245.387 138.184H242.939L243.803 137.26V142.024ZM250.531 145V136.6H252.475V143.416H256.687V145H250.531ZM259.561 139.984H263.605V141.496H259.561V139.984ZM259.705 143.44H264.277V145H257.773V136.6H264.121V138.16H259.705V143.44ZM268.119 145L271.863 136.6H273.783L277.539 145H275.499L272.427 137.584H273.195L270.111 145H268.119ZM269.991 143.2L270.507 141.724H274.827L275.355 143.2H269.991ZM278.41 145V136.6H282.046C282.798 136.6 283.446 136.724 283.99 136.972C284.534 137.212 284.954 137.56 285.25 138.016C285.546 138.472 285.694 139.016 285.694 139.648C285.694 140.272 285.546 140.812 285.25 141.268C284.954 141.716 284.534 142.06 283.99 142.3C283.446 142.54 282.798 142.66 282.046 142.66H279.49L280.354 141.808V145H278.41ZM283.75 145L281.65 141.952H283.726L285.85 145H283.75ZM280.354 142.024L279.49 141.112H281.938C282.538 141.112 282.986 140.984 283.282 140.728C283.578 140.464 283.726 140.104 283.726 139.648C283.726 139.184 283.578 138.824 283.282 138.568C282.986 138.312 282.538 138.184 281.938 138.184H279.49L280.354 137.26V142.024ZM287.234 145V136.6H289.178V145H287.234ZM292.912 145V138.184H290.224V136.6H297.544V138.184H294.856V145H292.912ZM304.35 136.6H306.294V145H304.35V136.6ZM300.534 145H298.59V136.6H300.534V145ZM304.494 141.556H300.39V139.912H304.494V141.556ZM308.281 145V136.6H309.889L313.465 142.528H312.613L316.129 136.6H317.725L317.749 145H315.925L315.913 139.396H316.249L313.441 144.112H312.565L309.697 139.396H310.105V145H308.281ZM321.53 139.984H325.574V141.496H321.53V139.984ZM321.674 143.44H326.246V145H319.742V136.6H326.09V138.16H321.674V143.44ZM329.533 145V138.184H326.845V136.6H334.165V138.184H331.477V145H329.533ZM335.211 145V136.6H337.155V145H335.211ZM343.168 145.144C342.52 145.144 341.916 145.04 341.356 144.832C340.804 144.616 340.324 144.312 339.916 143.92C339.508 143.528 339.188 143.068 338.956 142.54C338.732 142.012 338.62 141.432 338.62 140.8C338.62 140.168 338.732 139.588 338.956 139.06C339.188 138.532 339.508 138.072 339.916 137.68C340.332 137.288 340.816 136.988 341.368 136.78C341.92 136.564 342.524 136.456 343.18 136.456C343.908 136.456 344.564 136.584 345.148 136.84C345.74 137.088 346.236 137.456 346.636 137.944L345.388 139.096C345.1 138.768 344.78 138.524 344.428 138.364C344.076 138.196 343.692 138.112 343.276 138.112C342.884 138.112 342.524 138.176 342.196 138.304C341.868 138.432 341.584 138.616 341.344 138.856C341.104 139.096 340.916 139.38 340.78 139.708C340.652 140.036 340.588 140.4 340.588 140.8C340.588 141.2 340.652 141.564 340.78 141.892C340.916 142.22 341.104 142.504 341.344 142.744C341.584 142.984 341.868 143.168 342.196 143.296C342.524 143.424 342.884 143.488 343.276 143.488C343.692 143.488 344.076 143.408 344.428 143.248C344.78 143.08 345.1 142.828 345.388 142.492L346.636 143.644C346.236 144.132 345.74 144.504 345.148 144.76C344.564 145.016 343.904 145.144 343.168 145.144ZM348.431 140.788C348.111 140.788 347.835 140.68 347.603 140.464C347.379 140.24 347.267 139.956 347.267 139.612C347.267 139.268 347.379 138.992 347.603 138.784C347.835 138.568 348.111 138.46 348.431 138.46C348.759 138.46 349.035 138.568 349.259 138.784C349.483 138.992 349.595 139.268 349.595 139.612C349.595 139.956 349.483 140.24 349.259 140.464C349.035 140.68 348.759 140.788 348.431 140.788ZM348.431 145.096C348.111 145.096 347.835 144.988 347.603 144.772C347.379 144.548 347.267 144.264 347.267 143.92C347.267 143.576 347.379 143.3 347.603 143.092C347.835 142.876 348.111 142.768 348.431 142.768C348.759 142.768 349.035 142.876 349.259 143.092C349.483 143.3 349.595 143.576 349.595 143.92C349.595 144.264 349.483 144.548 349.259 144.772C349.035 144.988 348.759 145.096 348.431 145.096ZM185.424 160V156.568L185.868 157.744L182.172 151.6H184.236L187.068 156.316H185.88L188.724 151.6H190.632L186.936 157.744L187.368 156.568V160H185.424ZM195.162 160.144C194.498 160.144 193.882 160.036 193.314 159.82C192.754 159.604 192.266 159.3 191.85 158.908C191.442 158.516 191.122 158.056 190.89 157.528C190.666 157 190.554 156.424 190.554 155.8C190.554 155.176 190.666 154.6 190.89 154.072C191.122 153.544 191.446 153.084 191.862 152.692C192.278 152.3 192.766 151.996 193.326 151.78C193.886 151.564 194.494 151.456 195.15 151.456C195.814 151.456 196.422 151.564 196.974 151.78C197.534 151.996 198.018 152.3 198.426 152.692C198.842 153.084 199.166 153.544 199.398 154.072C199.63 154.592 199.746 155.168 199.746 155.8C199.746 156.424 199.63 157.004 199.398 157.54C199.166 158.068 198.842 158.528 198.426 158.92C198.018 159.304 197.534 159.604 196.974 159.82C196.422 160.036 195.818 160.144 195.162 160.144ZM195.15 158.488C195.526 158.488 195.87 158.424 196.182 158.296C196.502 158.168 196.782 157.984 197.022 157.744C197.262 157.504 197.446 157.22 197.574 156.892C197.71 156.564 197.778 156.2 197.778 155.8C197.778 155.4 197.71 155.036 197.574 154.708C197.446 154.38 197.262 154.096 197.022 153.856C196.79 153.616 196.514 153.432 196.194 153.304C195.874 153.176 195.526 153.112 195.15 153.112C194.774 153.112 194.426 153.176 194.106 153.304C193.794 153.432 193.518 153.616 193.278 153.856C193.038 154.096 192.85 154.38 192.714 154.708C192.586 155.036 192.522 155.4 192.522 155.8C192.522 156.192 192.586 156.556 192.714 156.892C192.85 157.22 193.034 157.504 193.266 157.744C193.506 157.984 193.786 158.168 194.106 158.296C194.426 158.424 194.774 158.488 195.15 158.488ZM204.939 160.144C203.747 160.144 202.815 159.812 202.143 159.148C201.471 158.484 201.135 157.536 201.135 156.304V151.6H203.079V156.232C203.079 157.032 203.243 157.608 203.571 157.96C203.899 158.312 204.359 158.488 204.951 158.488C205.543 158.488 206.003 158.312 206.331 157.96C206.659 157.608 206.823 157.032 206.823 156.232V151.6H208.743V156.304C208.743 157.536 208.407 158.484 207.735 159.148C207.063 159.812 206.131 160.144 204.939 160.144ZM210.664 160V151.6H214.3C215.052 151.6 215.7 151.724 216.244 151.972C216.788 152.212 217.208 152.56 217.504 153.016C217.8 153.472 217.948 154.016 217.948 154.648C217.948 155.272 217.8 155.812 217.504 156.268C217.208 156.716 216.788 157.06 216.244 157.3C215.7 157.54 215.052 157.66 214.3 157.66H211.744L212.608 156.808V160H210.664ZM216.004 160L213.904 156.952H215.98L218.104 160H216.004ZM212.608 157.024L211.744 156.112H214.192C214.792 156.112 215.24 155.984 215.536 155.728C215.832 155.464 215.98 155.104 215.98 154.648C215.98 154.184 215.832 153.824 215.536 153.568C215.24 153.312 214.792 153.184 214.192 153.184H211.744L212.608 152.26V157.024ZM222.887 160V151.6H224.831V160H222.887ZM226.824 160V151.6H228.432L233.388 157.648H232.608V151.6H234.528V160H232.932L227.964 153.952H228.744V160H226.824ZM240.536 160.144C239.888 160.144 239.284 160.04 238.724 159.832C238.172 159.616 237.692 159.312 237.284 158.92C236.876 158.528 236.556 158.068 236.324 157.54C236.1 157.012 235.988 156.432 235.988 155.8C235.988 155.168 236.1 154.588 236.324 154.06C236.556 153.532 236.876 153.072 237.284 152.68C237.7 152.288 238.184 151.988 238.736 151.78C239.288 151.564 239.892 151.456 240.548 151.456C241.276 151.456 241.932 151.584 242.516 151.84C243.108 152.088 243.604 152.456 244.004 152.944L242.756 154.096C242.468 153.768 242.148 153.524 241.796 153.364C241.444 153.196 241.06 153.112 240.644 153.112C240.252 153.112 239.892 153.176 239.564 153.304C239.236 153.432 238.952 153.616 238.712 153.856C238.472 154.096 238.284 154.38 238.148 154.708C238.02 155.036 237.956 155.4 237.956 155.8C237.956 156.2 238.02 156.564 238.148 156.892C238.284 157.22 238.472 157.504 238.712 157.744C238.952 157.984 239.236 158.168 239.564 158.296C239.892 158.424 240.252 158.488 240.644 158.488C241.06 158.488 241.444 158.408 241.796 158.248C242.148 158.08 242.468 157.828 242.756 157.492L244.004 158.644C243.604 159.132 243.108 159.504 242.516 159.76C241.932 160.016 241.272 160.144 240.536 160.144ZM249.221 160.144C248.557 160.144 247.941 160.036 247.373 159.82C246.813 159.604 246.325 159.3 245.909 158.908C245.501 158.516 245.181 158.056 244.949 157.528C244.725 157 244.613 156.424 244.613 155.8C244.613 155.176 244.725 154.6 244.949 154.072C245.181 153.544 245.505 153.084 245.921 152.692C246.337 152.3 246.825 151.996 247.385 151.78C247.945 151.564 248.553 151.456 249.209 151.456C249.873 151.456 250.481 151.564 251.033 151.78C251.593 151.996 252.077 152.3 252.485 152.692C252.901 153.084 253.225 153.544 253.457 154.072C253.689 154.592 253.805 155.168 253.805 155.8C253.805 156.424 253.689 157.004 253.457 157.54C253.225 158.068 252.901 158.528 252.485 158.92C252.077 159.304 251.593 159.604 251.033 159.82C250.481 160.036 249.877 160.144 249.221 160.144ZM249.209 158.488C249.585 158.488 249.929 158.424 250.241 158.296C250.561 158.168 250.841 157.984 251.081 157.744C251.321 157.504 251.505 157.22 251.633 156.892C251.769 156.564 251.837 156.2 251.837 155.8C251.837 155.4 251.769 155.036 251.633 154.708C251.505 154.38 251.321 154.096 251.081 153.856C250.849 153.616 250.573 153.432 250.253 153.304C249.933 153.176 249.585 153.112 249.209 153.112C248.833 153.112 248.485 153.176 248.165 153.304C247.853 153.432 247.577 153.616 247.337 153.856C247.097 154.096 246.909 154.38 246.773 154.708C246.645 155.036 246.581 155.4 246.581 155.8C246.581 156.192 246.645 156.556 246.773 156.892C246.909 157.22 247.093 157.504 247.325 157.744C247.565 157.984 247.845 158.168 248.165 158.296C248.485 158.424 248.833 158.488 249.209 158.488ZM255.266 160V151.6H256.874L260.45 157.528H259.598L263.114 151.6H264.71L264.734 160H262.91L262.898 154.396H263.234L260.426 159.112H259.55L256.682 154.396H257.09V160H255.266ZM268.514 154.984H272.558V156.496H268.514V154.984ZM268.658 158.44H273.23V160H266.726V151.6H273.074V153.16H268.658V158.44ZM282.196 160.144C281.548 160.144 280.944 160.04 280.384 159.832C279.832 159.616 279.352 159.312 278.944 158.92C278.536 158.528 278.216 158.068 277.984 157.54C277.76 157.012 277.648 156.432 277.648 155.8C277.648 155.168 277.76 154.588 277.984 154.06C278.216 153.532 278.536 153.072 278.944 152.68C279.36 152.288 279.844 151.988 280.396 151.78C280.948 151.564 281.552 151.456 282.208 151.456C282.936 151.456 283.592 151.584 284.176 151.84C284.768 152.088 285.264 152.456 285.664 152.944L284.416 154.096C284.128 153.768 283.808 153.524 283.456 153.364C283.104 153.196 282.72 153.112 282.304 153.112C281.912 153.112 281.552 153.176 281.224 153.304C280.896 153.432 280.612 153.616 280.372 153.856C280.132 154.096 279.944 154.38 279.808 154.708C279.68 155.036 279.616 155.4 279.616 155.8C279.616 156.2 279.68 156.564 279.808 156.892C279.944 157.22 280.132 157.504 280.372 157.744C280.612 157.984 280.896 158.168 281.224 158.296C281.552 158.424 281.912 158.488 282.304 158.488C282.72 158.488 283.104 158.408 283.456 158.248C283.808 158.08 284.128 157.828 284.416 157.492L285.664 158.644C285.264 159.132 284.768 159.504 284.176 159.76C283.592 160.016 282.932 160.144 282.196 160.144ZM285.72 160L289.464 151.6H291.384L295.14 160H293.1L290.028 152.584H290.796L287.712 160H285.72ZM287.592 158.2L288.108 156.724H292.428L292.956 158.2H287.592ZM296.012 160V151.6H297.62L302.576 157.648H301.796V151.6H303.716V160H302.12L297.152 153.952H297.932V160H296.012ZM313.157 160.144C312.493 160.144 311.881 160.04 311.321 159.832C310.769 159.616 310.285 159.312 309.869 158.92C309.461 158.528 309.141 158.068 308.909 157.54C308.685 157.012 308.573 156.432 308.573 155.8C308.573 155.168 308.685 154.588 308.909 154.06C309.141 153.532 309.465 153.072 309.881 152.68C310.297 152.288 310.785 151.988 311.345 151.78C311.905 151.564 312.521 151.456 313.193 151.456C313.937 151.456 314.605 151.58 315.197 151.828C315.797 152.076 316.301 152.436 316.709 152.908L315.461 154.06C315.157 153.74 314.825 153.504 314.465 153.352C314.105 153.192 313.713 153.112 313.289 153.112C312.881 153.112 312.509 153.176 312.173 153.304C311.837 153.432 311.545 153.616 311.297 153.856C311.057 154.096 310.869 154.38 310.733 154.708C310.605 155.036 310.541 155.4 310.541 155.8C310.541 156.192 310.605 156.552 310.733 156.88C310.869 157.208 311.057 157.496 311.297 157.744C311.545 157.984 311.833 158.168 312.161 158.296C312.497 158.424 312.865 158.488 313.265 158.488C313.649 158.488 314.021 158.428 314.381 158.308C314.749 158.18 315.105 157.968 315.449 157.672L316.553 159.076C316.097 159.42 315.565 159.684 314.957 159.868C314.357 160.052 313.757 160.144 313.157 160.144ZM314.777 158.824V155.668H316.553V159.076L314.777 158.824ZM318.359 160V151.6H321.995C322.747 151.6 323.395 151.724 323.939 151.972C324.483 152.212 324.903 152.56 325.199 153.016C325.495 153.472 325.643 154.016 325.643 154.648C325.643 155.272 325.495 155.812 325.199 156.268C324.903 156.716 324.483 157.06 323.939 157.3C323.395 157.54 322.747 157.66 321.995 157.66H319.439L320.303 156.808V160H318.359ZM323.699 160L321.599 156.952H323.675L325.799 160H323.699ZM320.303 157.024L319.439 156.112H321.887C322.487 156.112 322.935 155.984 323.231 155.728C323.527 155.464 323.675 155.104 323.675 154.648C323.675 154.184 323.527 153.824 323.231 153.568C322.935 153.312 322.487 153.184 321.887 153.184H319.439L320.303 152.26V157.024ZM331.264 160.144C330.6 160.144 329.984 160.036 329.416 159.82C328.856 159.604 328.368 159.3 327.951 158.908C327.544 158.516 327.224 158.056 326.992 157.528C326.768 157 326.656 156.424 326.656 155.8C326.656 155.176 326.768 154.6 326.992 154.072C327.224 153.544 327.548 153.084 327.964 152.692C328.38 152.3 328.868 151.996 329.428 151.78C329.988 151.564 330.596 151.456 331.252 151.456C331.916 151.456 332.523 151.564 333.076 151.78C333.636 151.996 334.12 152.3 334.528 152.692C334.944 153.084 335.268 153.544 335.5 154.072C335.732 154.592 335.848 155.168 335.848 155.8C335.848 156.424 335.732 157.004 335.5 157.54C335.268 158.068 334.944 158.528 334.528 158.92C334.12 159.304 333.636 159.604 333.076 159.82C332.523 160.036 331.919 160.144 331.264 160.144ZM331.252 158.488C331.628 158.488 331.972 158.424 332.284 158.296C332.604 158.168 332.884 157.984 333.124 157.744C333.364 157.504 333.548 157.22 333.676 156.892C333.812 156.564 333.88 156.2 333.88 155.8C333.88 155.4 333.812 155.036 333.676 154.708C333.548 154.38 333.364 154.096 333.124 153.856C332.892 153.616 332.616 153.432 332.296 153.304C331.976 153.176 331.628 153.112 331.252 153.112C330.876 153.112 330.528 153.176 330.208 153.304C329.896 153.432 329.62 153.616 329.38 153.856C329.14 154.096 328.952 154.38 328.816 154.708C328.688 155.036 328.624 155.4 328.624 155.8C328.624 156.192 328.688 156.556 328.816 156.892C328.952 157.22 329.136 157.504 329.368 157.744C329.608 157.984 329.888 158.168 330.208 158.296C330.528 158.424 330.876 158.488 331.252 158.488ZM339.055 160L336.307 151.6H338.323L340.711 159.04H339.703L342.199 151.6H343.999L346.399 159.04H345.427L347.875 151.6H349.735L346.987 160H344.899L342.775 153.472H343.327L341.143 160H339.055ZM182.553 175.144C181.889 175.144 181.273 175.036 180.705 174.82C180.145 174.604 179.657 174.3 179.241 173.908C178.833 173.516 178.513 173.056 178.281 172.528C178.057 172 177.945 171.424 177.945 170.8C177.945 170.176 178.057 169.6 178.281 169.072C178.513 168.544 178.837 168.084 179.253 167.692C179.669 167.3 180.157 166.996 180.717 166.78C181.277 166.564 181.885 166.456 182.541 166.456C183.205 166.456 183.813 166.564 184.365 166.78C184.925 166.996 185.409 167.3 185.817 167.692C186.233 168.084 186.557 168.544 186.789 169.072C187.021 169.592 187.137 170.168 187.137 170.8C187.137 171.424 187.021 172.004 186.789 172.54C186.557 173.068 186.233 173.528 185.817 173.92C185.409 174.304 184.925 174.604 184.365 174.82C183.813 175.036 183.209 175.144 182.553 175.144ZM182.541 173.488C182.917 173.488 183.261 173.424 183.573 173.296C183.893 173.168 184.173 172.984 184.413 172.744C184.653 172.504 184.837 172.22 184.965 171.892C185.101 171.564 185.169 171.2 185.169 170.8C185.169 170.4 185.101 170.036 184.965 169.708C184.837 169.38 184.653 169.096 184.413 168.856C184.181 168.616 183.905 168.432 183.585 168.304C183.265 168.176 182.917 168.112 182.541 168.112C182.165 168.112 181.817 168.176 181.497 168.304C181.185 168.432 180.909 168.616 180.669 168.856C180.429 169.096 180.241 169.38 180.105 169.708C179.977 170.036 179.913 170.4 179.913 170.8C179.913 171.192 179.977 171.556 180.105 171.892C180.241 172.22 180.425 172.504 180.657 172.744C180.897 172.984 181.177 173.168 181.497 173.296C181.817 173.424 182.165 173.488 182.541 173.488ZM188.598 175V166.6H190.206L195.162 172.648H194.382V166.6H196.302V175H194.706L189.738 168.952H190.518V175H188.598ZM198.289 175V166.6H200.233V173.416H204.445V175H198.289ZM206.752 175V171.568L207.196 172.744L203.5 166.6H205.564L208.396 171.316H207.208L210.052 166.6H211.96L208.264 172.744L208.696 171.568V175H206.752ZM217.912 175V168.184H215.224V166.6H222.544V168.184H219.856V175H217.912ZM227.553 175.144C226.889 175.144 226.273 175.036 225.705 174.82C225.145 174.604 224.657 174.3 224.241 173.908C223.833 173.516 223.513 173.056 223.281 172.528C223.057 172 222.945 171.424 222.945 170.8C222.945 170.176 223.057 169.6 223.281 169.072C223.513 168.544 223.837 168.084 224.253 167.692C224.669 167.3 225.157 166.996 225.717 166.78C226.277 166.564 226.885 166.456 227.541 166.456C228.205 166.456 228.813 166.564 229.365 166.78C229.925 166.996 230.409 167.3 230.817 167.692C231.233 168.084 231.557 168.544 231.789 169.072C232.021 169.592 232.137 170.168 232.137 170.8C232.137 171.424 232.021 172.004 231.789 172.54C231.557 173.068 231.233 173.528 230.817 173.92C230.409 174.304 229.925 174.604 229.365 174.82C228.813 175.036 228.209 175.144 227.553 175.144ZM227.541 173.488C227.917 173.488 228.261 173.424 228.573 173.296C228.893 173.168 229.173 172.984 229.413 172.744C229.653 172.504 229.837 172.22 229.965 171.892C230.101 171.564 230.169 171.2 230.169 170.8C230.169 170.4 230.101 170.036 229.965 169.708C229.837 169.38 229.653 169.096 229.413 168.856C229.181 168.616 228.905 168.432 228.585 168.304C228.265 168.176 227.917 168.112 227.541 168.112C227.165 168.112 226.817 168.176 226.497 168.304C226.185 168.432 225.909 168.616 225.669 168.856C225.429 169.096 225.241 169.38 225.105 169.708C224.977 170.036 224.913 170.4 224.913 170.8C224.913 171.192 224.977 171.556 225.105 171.892C225.241 172.22 225.425 172.504 225.657 172.744C225.897 172.984 226.177 173.168 226.497 173.296C226.817 173.424 227.165 173.488 227.541 173.488ZM238.736 175V168.184H236.048V166.6H243.368V168.184H240.68V175H238.736ZM250.174 166.6H252.118V175H250.174V166.6ZM246.358 175H244.414V166.6H246.358V175ZM250.318 171.556H246.214V169.912H250.318V171.556ZM255.893 169.984H259.937V171.496H255.893V169.984ZM256.037 173.44H260.609V175H254.105V166.6H260.453V168.16H256.037V173.44ZM267.343 169.984H271.387V171.496H267.343V169.984ZM267.487 173.44H272.059V175H265.555V166.6H271.903V168.16H267.487V173.44ZM272.563 175L276.175 170.02V171.436L272.719 166.6H274.927L277.315 169.972L276.391 169.984L278.743 166.6H280.855L277.423 171.352V169.96L281.059 175H278.815L276.343 171.436H277.231L274.795 175H272.563ZM283.466 175V168.184H280.778V166.6H288.098V168.184H285.41V175H283.466ZM290.932 169.984H294.976V171.496H290.932V169.984ZM291.076 173.44H295.648V175H289.144V166.6H295.492V168.16H291.076V173.44ZM297.195 175V166.6H298.803L303.759 172.648H302.979V166.6H304.899V175H303.303L298.335 168.952H299.115V175H297.195ZM308.627 175V168.184H305.939V166.6H313.259V168.184H310.571V175H308.627ZM319.443 175V168.184H316.755V166.6H324.075V168.184H321.387V175H319.443ZM330.881 166.6H332.825V175H330.881V166.6ZM327.065 175H325.121V166.6H327.065V175ZM331.025 171.556H326.921V169.912H331.025V171.556ZM333.708 175L337.452 166.6H339.372L343.128 175H341.088L338.016 167.584H338.784L335.7 175H333.708ZM335.58 173.2L336.096 171.724H340.416L340.944 173.2H335.58ZM345.318 175V168.184H342.63V166.6H349.95V168.184H347.262V175H345.318ZM299.412 190V186.568L299.856 187.744L296.16 181.6H298.224L301.056 186.316H299.868L302.712 181.6H304.62L300.924 187.744L301.356 186.568V190H299.412ZM309.15 190.144C308.486 190.144 307.87 190.036 307.302 189.82C306.742 189.604 306.254 189.3 305.838 188.908C305.43 188.516 305.11 188.056 304.878 187.528C304.654 187 304.542 186.424 304.542 185.8C304.542 185.176 304.654 184.6 304.878 184.072C305.11 183.544 305.434 183.084 305.85 182.692C306.266 182.3 306.754 181.996 307.314 181.78C307.874 181.564 308.482 181.456 309.138 181.456C309.802 181.456 310.41 181.564 310.962 181.78C311.522 181.996 312.006 182.3 312.414 182.692C312.83 183.084 313.154 183.544 313.386 184.072C313.618 184.592 313.734 185.168 313.734 185.8C313.734 186.424 313.618 187.004 313.386 187.54C313.154 188.068 312.83 188.528 312.414 188.92C312.006 189.304 311.522 189.604 310.962 189.82C310.41 190.036 309.806 190.144 309.15 190.144ZM309.138 188.488C309.514 188.488 309.858 188.424 310.17 188.296C310.49 188.168 310.77 187.984 311.01 187.744C311.25 187.504 311.434 187.22 311.562 186.892C311.698 186.564 311.766 186.2 311.766 185.8C311.766 185.4 311.698 185.036 311.562 184.708C311.434 184.38 311.25 184.096 311.01 183.856C310.778 183.616 310.502 183.432 310.182 183.304C309.862 183.176 309.514 183.112 309.138 183.112C308.762 183.112 308.414 183.176 308.094 183.304C307.782 183.432 307.506 183.616 307.266 183.856C307.026 184.096 306.838 184.38 306.702 184.708C306.574 185.036 306.51 185.4 306.51 185.8C306.51 186.192 306.574 186.556 306.702 186.892C306.838 187.22 307.022 187.504 307.254 187.744C307.494 187.984 307.774 188.168 308.094 188.296C308.414 188.424 308.762 188.488 309.138 188.488ZM318.927 190.144C317.735 190.144 316.803 189.812 316.131 189.148C315.459 188.484 315.123 187.536 315.123 186.304V181.6H317.067V186.232C317.067 187.032 317.231 187.608 317.559 187.96C317.887 188.312 318.347 188.488 318.939 188.488C319.531 188.488 319.991 188.312 320.319 187.96C320.647 187.608 320.811 187.032 320.811 186.232V181.6H322.731V186.304C322.731 187.536 322.395 188.484 321.723 189.148C321.051 189.812 320.119 190.144 318.927 190.144ZM328.051 190V181.6H331.867C332.779 181.6 333.583 181.776 334.279 182.128C334.975 182.472 335.519 182.956 335.911 183.58C336.303 184.204 336.499 184.944 336.499 185.8C336.499 186.648 336.303 187.388 335.911 188.02C335.519 188.644 334.975 189.132 334.279 189.484C333.583 189.828 332.779 190 331.867 190H328.051ZM329.995 188.404H331.771C332.331 188.404 332.815 188.3 333.223 188.092C333.639 187.876 333.959 187.572 334.183 187.18C334.415 186.788 334.531 186.328 334.531 185.8C334.531 185.264 334.415 184.804 334.183 184.42C333.959 184.028 333.639 183.728 333.223 183.52C332.815 183.304 332.331 183.196 331.771 183.196H329.995V188.404ZM342.045 190.144C341.381 190.144 340.765 190.036 340.197 189.82C339.637 189.604 339.149 189.3 338.733 188.908C338.325 188.516 338.005 188.056 337.773 187.528C337.549 187 337.437 186.424 337.437 185.8C337.437 185.176 337.549 184.6 337.773 184.072C338.005 183.544 338.329 183.084 338.745 182.692C339.161 182.3 339.649 181.996 340.209 181.78C340.769 181.564 341.377 181.456 342.033 181.456C342.697 181.456 343.305 181.564 343.857 181.78C344.417 181.996 344.901 182.3 345.309 182.692C345.725 183.084 346.049 183.544 346.281 184.072C346.513 184.592 346.629 185.168 346.629 185.8C346.629 186.424 346.513 187.004 346.281 187.54C346.049 188.068 345.725 188.528 345.309 188.92C344.901 189.304 344.417 189.604 343.857 189.82C343.305 190.036 342.701 190.144 342.045 190.144ZM342.033 188.488C342.409 188.488 342.753 188.424 343.065 188.296C343.385 188.168 343.665 187.984 343.905 187.744C344.145 187.504 344.329 187.22 344.457 186.892C344.593 186.564 344.661 186.2 344.661 185.8C344.661 185.4 344.593 185.036 344.457 184.708C344.329 184.38 344.145 184.096 343.905 183.856C343.673 183.616 343.397 183.432 343.077 183.304C342.757 183.176 342.409 183.112 342.033 183.112C341.657 183.112 341.309 183.176 340.989 183.304C340.677 183.432 340.401 183.616 340.161 183.856C339.921 184.096 339.733 184.38 339.597 184.708C339.469 185.036 339.405 185.4 339.405 185.8C339.405 186.192 339.469 186.556 339.597 186.892C339.733 187.22 339.917 187.504 340.149 187.744C340.389 187.984 340.669 188.168 340.989 188.296C341.309 188.424 341.657 188.488 342.033 188.488ZM348.431 190.096C348.111 190.096 347.835 189.988 347.603 189.772C347.379 189.548 347.267 189.264 347.267 188.92C347.267 188.576 347.379 188.3 347.603 188.092C347.835 187.876 348.111 187.768 348.431 187.768C348.759 187.768 349.035 187.876 349.259 188.092C349.483 188.3 349.595 188.576 349.595 188.92C349.595 189.264 349.483 189.548 349.259 189.772C349.035 189.988 348.759 190.096 348.431 190.096Z" fill="white"/>
<circle cx="194" cy="236.713" r="3.71287" fill="white"/>
<circle cx="206.129" cy="236.465" r="2.9703" fill="#DD7A42" fill-opacity="0.46"/>
<circle cx="216.772" cy="236.218" r="2.22772" fill="#DD7A42"/>
<circle cx="181.871" cy="236.465" r="2.9703" fill="#DD7A42" fill-opacity="0.46"/>
<circle cx="171.228" cy="236.218" r="2.22772" fill="#DD7A42"/>
</svg>
