<svg width="370" height="285" viewBox="0 0 370 285" fill="none" xmlns="http://www.w3.org/2000/svg">
<path d="M396.821 116.61C396.821 142.543 410.723 222.733 396.821 242.099C376.2 270.826 320.954 233.22 283.605 233.22C221.077 233.22 170.388 181.012 170.388 116.61C170.388 52.208 221.077 0 283.605 0C346.132 0 396.821 52.208 396.821 116.61Z" fill="#0085A1"/>
<ellipse cx="190.794" cy="198.798" rx="74.7941" ry="65.2022" fill="#0085A1"/>
<path d="M252.52 167.906V168.825H247.52V167.906H252.52ZM259.932 166.638C259.894 166.302 259.738 166.041 259.463 165.857C259.188 165.67 258.843 165.576 258.426 165.576C258.128 165.576 257.87 165.623 257.652 165.718C257.434 165.81 257.265 165.938 257.144 166.102C257.026 166.263 256.966 166.446 256.966 166.652C256.966 166.825 257.007 166.974 257.087 167.099C257.17 167.225 257.278 167.33 257.41 167.415C257.545 167.498 257.69 167.568 257.844 167.625C257.997 167.679 258.145 167.724 258.287 167.76L258.998 167.945C259.23 168.001 259.468 168.078 259.711 168.175C259.955 168.272 260.181 168.4 260.39 168.559C260.598 168.718 260.766 168.914 260.894 169.148C261.024 169.383 261.089 169.663 261.089 169.99C261.089 170.402 260.983 170.768 260.77 171.087C260.559 171.407 260.252 171.659 259.85 171.844C259.45 172.028 258.966 172.121 258.398 172.121C257.853 172.121 257.382 172.034 256.984 171.862C256.586 171.689 256.275 171.444 256.05 171.126C255.825 170.807 255.701 170.428 255.677 169.99H256.778C256.8 170.253 256.885 170.472 257.034 170.647C257.185 170.82 257.378 170.949 257.613 171.034C257.849 171.117 258.109 171.158 258.39 171.158C258.701 171.158 258.976 171.11 259.218 171.013C259.462 170.913 259.653 170.776 259.793 170.601C259.933 170.423 260.003 170.216 260.003 169.979C260.003 169.764 259.941 169.588 259.818 169.45C259.697 169.313 259.533 169.199 259.324 169.109C259.118 169.019 258.885 168.94 258.625 168.871L257.765 168.637C257.183 168.478 256.721 168.245 256.381 167.938C256.042 167.63 255.873 167.223 255.873 166.716C255.873 166.297 255.986 165.931 256.214 165.619C256.441 165.306 256.749 165.063 257.137 164.891C257.525 164.715 257.963 164.628 258.451 164.628C258.943 164.628 259.378 164.714 259.754 164.887C260.133 165.06 260.431 165.298 260.649 165.601C260.867 165.902 260.98 166.247 260.99 166.638H259.932ZM263.825 172L261.808 164.727H262.962L264.379 170.359H264.446L265.92 164.727H267.063L268.537 170.363H268.604L270.018 164.727H271.175L269.155 172H268.05L266.52 166.553H266.463L264.933 172H263.825ZM272.176 172V164.727H276.736V165.672H273.273V167.888H276.498V168.829H273.273V171.055H276.778V172H272.176ZM280.556 172H278.201V164.727H280.63C281.343 164.727 281.955 164.873 282.466 165.164C282.978 165.453 283.369 165.868 283.642 166.411C283.916 166.95 284.054 167.598 284.054 168.353C284.054 169.111 283.915 169.762 283.638 170.306C283.364 170.851 282.966 171.27 282.445 171.563C281.924 171.854 281.294 172 280.556 172ZM279.299 171.041H280.495C281.049 171.041 281.51 170.937 281.877 170.729C282.244 170.518 282.518 170.214 282.701 169.816C282.883 169.416 282.974 168.928 282.974 168.353C282.974 167.782 282.883 167.298 282.701 166.901C282.521 166.503 282.252 166.201 281.895 165.995C281.537 165.789 281.093 165.686 280.563 165.686H279.299V171.041ZM286.515 164.727V172H285.418V164.727H286.515ZM292.08 166.638C292.042 166.302 291.886 166.041 291.611 165.857C291.337 165.67 290.991 165.576 290.574 165.576C290.276 165.576 290.018 165.623 289.8 165.718C289.582 165.81 289.413 165.938 289.292 166.102C289.174 166.263 289.115 166.446 289.115 166.652C289.115 166.825 289.155 166.974 289.236 167.099C289.318 167.225 289.426 167.33 289.559 167.415C289.694 167.498 289.838 167.568 289.992 167.625C290.146 167.679 290.294 167.724 290.436 167.76L291.146 167.945C291.378 168.001 291.616 168.078 291.86 168.175C292.104 168.272 292.33 168.4 292.538 168.559C292.747 168.718 292.915 168.914 293.042 169.148C293.173 169.383 293.238 169.663 293.238 169.99C293.238 170.402 293.131 170.768 292.918 171.087C292.707 171.407 292.401 171.659 291.998 171.844C291.598 172.028 291.114 172.121 290.546 172.121C290.001 172.121 289.53 172.034 289.133 171.862C288.735 171.689 288.424 171.444 288.199 171.126C287.974 170.807 287.849 170.428 287.826 169.99H288.927C288.948 170.253 289.033 170.472 289.182 170.647C289.334 170.82 289.527 170.949 289.761 171.034C289.998 171.117 290.257 171.158 290.539 171.158C290.849 171.158 291.125 171.11 291.366 171.013C291.61 170.913 291.802 170.776 291.942 170.601C292.081 170.423 292.151 170.216 292.151 169.979C292.151 169.764 292.09 169.588 291.966 169.45C291.846 169.313 291.681 169.199 291.473 169.109C291.267 169.019 291.034 168.94 290.773 168.871L289.914 168.637C289.331 168.478 288.87 168.245 288.529 167.938C288.19 167.63 288.021 167.223 288.021 166.716C288.021 166.297 288.135 165.931 288.362 165.619C288.589 165.306 288.897 165.063 289.285 164.891C289.674 164.715 290.112 164.628 290.599 164.628C291.092 164.628 291.526 164.714 291.903 164.887C292.281 165.06 292.58 165.298 292.797 165.601C293.015 165.902 293.129 166.247 293.138 166.638H292.08ZM294.549 172V164.727H295.646V167.888H299.272V164.727H300.373V172H299.272V168.829H295.646V172H294.549ZM304.617 172V164.727H307.21C307.776 164.727 308.244 164.83 308.616 165.036C308.988 165.242 309.266 165.524 309.45 165.881C309.635 166.237 309.727 166.637 309.727 167.082C309.727 167.529 309.634 167.932 309.447 168.289C309.262 168.644 308.983 168.926 308.609 169.134C308.237 169.34 307.77 169.443 307.206 169.443H305.423V168.513H307.107C307.464 168.513 307.754 168.451 307.977 168.328C308.199 168.203 308.363 168.032 308.467 167.817C308.571 167.601 308.623 167.356 308.623 167.082C308.623 166.807 308.571 166.563 308.467 166.35C308.363 166.137 308.198 165.97 307.973 165.849C307.751 165.729 307.457 165.668 307.093 165.668H305.715V172H304.617ZM311.014 172V164.727H313.606C314.17 164.727 314.637 164.824 315.009 165.018C315.383 165.213 315.662 165.481 315.847 165.825C316.032 166.165 316.124 166.56 316.124 167.007C316.124 167.452 316.03 167.844 315.843 168.183C315.659 168.519 315.379 168.78 315.005 168.967C314.634 169.154 314.166 169.248 313.603 169.248H311.639V168.303H313.503C313.858 168.303 314.147 168.252 314.37 168.151C314.595 168.049 314.759 167.901 314.863 167.707C314.967 167.513 315.02 167.279 315.02 167.007C315.02 166.732 314.966 166.495 314.86 166.293C314.756 166.092 314.591 165.938 314.366 165.832C314.144 165.723 313.851 165.668 313.489 165.668H312.111V172H311.014ZM314.604 168.719L316.401 172H315.151L313.39 168.719H314.604ZM323.777 168.364C323.777 169.14 323.635 169.808 323.35 170.366C323.066 170.923 322.677 171.351 322.182 171.652C321.69 171.95 321.13 172.099 320.502 172.099C319.873 172.099 319.31 171.95 318.816 171.652C318.323 171.351 317.935 170.922 317.651 170.363C317.367 169.804 317.225 169.138 317.225 168.364C317.225 167.587 317.367 166.921 317.651 166.364C317.935 165.806 318.323 165.377 318.816 165.079C319.31 164.778 319.873 164.628 320.502 164.628C321.13 164.628 321.69 164.778 322.182 165.079C322.677 165.377 323.066 165.806 323.35 166.364C323.635 166.921 323.777 167.587 323.777 168.364ZM322.69 168.364C322.69 167.772 322.594 167.273 322.402 166.869C322.213 166.461 321.953 166.154 321.621 165.945C321.292 165.735 320.919 165.629 320.502 165.629C320.083 165.629 319.709 165.735 319.38 165.945C319.051 166.154 318.791 166.461 318.599 166.869C318.41 167.273 318.315 167.772 318.315 168.364C318.315 168.955 318.41 169.455 318.599 169.862C318.791 170.267 319.051 170.575 319.38 170.786C319.709 170.994 320.083 171.098 320.502 171.098C320.919 171.098 321.292 170.994 321.621 170.786C321.953 170.575 322.213 170.267 322.402 169.862C322.594 169.455 322.69 168.955 322.69 168.364ZM325.419 164.727L327.443 170.651H327.525L329.549 164.727H330.735L328.118 172H326.85L324.233 164.727H325.419ZM331.785 172V164.727H336.345V165.672H332.883V167.888H336.107V168.829H332.883V171.055H336.388V172H331.785ZM337.811 172V164.727H340.403C340.967 164.727 341.434 164.824 341.806 165.018C342.18 165.213 342.459 165.481 342.644 165.825C342.828 166.165 342.921 166.56 342.921 167.007C342.921 167.452 342.827 167.844 342.64 168.183C342.456 168.519 342.176 168.78 341.802 168.967C341.431 169.154 340.963 169.248 340.4 169.248H338.436V168.303H340.3C340.655 168.303 340.944 168.252 341.167 168.151C341.391 168.049 341.556 167.901 341.66 167.707C341.764 167.513 341.816 167.279 341.816 167.007C341.816 166.732 341.763 166.495 341.657 166.293C341.552 166.092 341.388 165.938 341.163 165.832C340.94 165.723 340.648 165.668 340.286 165.668H338.908V172H337.811ZM341.401 168.719L343.198 172H341.948L340.186 168.719H341.401ZM344.256 172V164.727H346.919C347.435 164.727 347.863 164.812 348.201 164.983C348.54 165.151 348.793 165.379 348.961 165.668C349.129 165.955 349.213 166.278 349.213 166.638C349.213 166.941 349.158 167.196 349.047 167.405C348.935 167.611 348.786 167.777 348.599 167.902C348.414 168.025 348.211 168.115 347.988 168.172V168.243C348.23 168.255 348.465 168.333 348.695 168.477C348.927 168.619 349.119 168.822 349.27 169.085C349.422 169.347 349.498 169.667 349.498 170.043C349.498 170.415 349.41 170.749 349.235 171.045C349.062 171.338 348.794 171.571 348.432 171.744C348.07 171.915 347.607 172 347.044 172H344.256ZM345.353 171.059H346.937C347.463 171.059 347.839 170.957 348.066 170.754C348.294 170.55 348.407 170.295 348.407 169.99C348.407 169.76 348.349 169.55 348.233 169.358C348.117 169.166 347.952 169.013 347.736 168.9C347.523 168.786 347.27 168.729 346.976 168.729H345.353V171.059ZM345.353 167.874H346.824C347.07 167.874 347.291 167.826 347.488 167.732C347.686 167.637 347.844 167.504 347.96 167.334C348.078 167.161 348.137 166.957 348.137 166.723C348.137 166.422 348.032 166.17 347.821 165.967C347.611 165.763 347.288 165.661 346.852 165.661H345.353V167.874Z" fill="white"/>
<path d="M215.436 102.096L214.644 104.976L214.38 103.896C214.724 103.896 215.004 103.996 215.22 104.196C215.436 104.396 215.544 104.672 215.544 105.024C215.544 105.368 215.432 105.648 215.208 105.864C214.992 106.072 214.72 106.176 214.392 106.176C214.056 106.176 213.776 106.072 213.552 105.864C213.336 105.648 213.228 105.368 213.228 105.024C213.228 104.92 213.236 104.82 213.252 104.724C213.268 104.62 213.3 104.5 213.348 104.364C213.396 104.228 213.464 104.048 213.552 103.824L214.248 102.096H215.436ZM218.268 102.096L217.476 104.976L217.212 103.896C217.556 103.896 217.836 103.996 218.052 104.196C218.268 104.396 218.376 104.672 218.376 105.024C218.376 105.368 218.264 105.648 218.04 105.864C217.824 106.072 217.552 106.176 217.224 106.176C216.888 106.176 216.608 106.072 216.384 105.864C216.168 105.648 216.06 105.368 216.06 105.024C216.06 104.92 216.068 104.82 216.084 104.724C216.1 104.62 216.132 104.5 216.18 104.364C216.228 104.228 216.296 104.048 216.384 103.824L217.08 102.096H218.268ZM221.814 111V104.184H219.126V102.6H226.446V104.184H223.758V111H221.814ZM233.252 102.6H235.196V111H233.252V102.6ZM229.436 111H227.492V102.6H229.436V111ZM233.396 107.556H229.292V105.912H233.396V107.556ZM238.972 105.984H243.016V107.496H238.972V105.984ZM239.116 109.44H243.688V111H237.184V102.6H243.532V104.16H239.116V109.44ZM252.713 111.144C252.049 111.144 251.433 111.036 250.865 110.82C250.305 110.604 249.817 110.3 249.401 109.908C248.993 109.516 248.673 109.056 248.441 108.528C248.217 108 248.105 107.424 248.105 106.8C248.105 106.176 248.217 105.6 248.441 105.072C248.673 104.544 248.997 104.084 249.413 103.692C249.829 103.3 250.317 102.996 250.877 102.78C251.437 102.564 252.045 102.456 252.701 102.456C253.365 102.456 253.973 102.564 254.525 102.78C255.085 102.996 255.569 103.3 255.977 103.692C256.393 104.084 256.717 104.544 256.949 105.072C257.181 105.592 257.297 106.168 257.297 106.8C257.297 107.424 257.181 108.004 256.949 108.54C256.717 109.068 256.393 109.528 255.977 109.92C255.569 110.304 255.085 110.604 254.525 110.82C253.973 111.036 253.369 111.144 252.713 111.144ZM252.701 109.488C253.077 109.488 253.421 109.424 253.733 109.296C254.053 109.168 254.333 108.984 254.573 108.744C254.813 108.504 254.997 108.22 255.125 107.892C255.261 107.564 255.329 107.2 255.329 106.8C255.329 106.4 255.261 106.036 255.125 105.708C254.997 105.38 254.813 105.096 254.573 104.856C254.341 104.616 254.065 104.432 253.745 104.304C253.425 104.176 253.077 104.112 252.701 104.112C252.325 104.112 251.977 104.176 251.657 104.304C251.345 104.432 251.069 104.616 250.829 104.856C250.589 105.096 250.401 105.38 250.265 105.708C250.137 106.036 250.073 106.4 250.073 106.8C250.073 107.192 250.137 107.556 250.265 107.892C250.401 108.22 250.585 108.504 250.817 108.744C251.057 108.984 251.337 109.168 251.657 109.296C251.977 109.424 252.325 109.488 252.701 109.488ZM258.758 111V102.6H260.366L265.322 108.648H264.542V102.6H266.462V111H264.866L259.898 104.952H260.678V111H258.758ZM270.237 105.984H274.281V107.496H270.237V105.984ZM270.381 109.44H274.953V111H268.449V102.6H274.797V104.16H270.381V109.44ZM281.914 111L279.166 102.6H281.182L283.57 110.04H282.562L285.058 102.6H286.858L289.258 110.04H288.286L290.734 102.6H292.594L289.846 111H287.758L285.634 104.472H286.186L284.002 111H281.914ZM299.44 102.6H301.384V111H299.44V102.6ZM295.624 111H293.68V102.6H295.624V111ZM299.584 107.556H295.48V105.912H299.584V107.556ZM307.451 111.144C306.787 111.144 306.171 111.036 305.603 110.82C305.043 110.604 304.555 110.3 304.139 109.908C303.731 109.516 303.411 109.056 303.179 108.528C302.955 108 302.843 107.424 302.843 106.8C302.843 106.176 302.955 105.6 303.179 105.072C303.411 104.544 303.735 104.084 304.151 103.692C304.567 103.3 305.055 102.996 305.615 102.78C306.175 102.564 306.783 102.456 307.439 102.456C308.103 102.456 308.711 102.564 309.263 102.78C309.823 102.996 310.307 103.3 310.715 103.692C311.131 104.084 311.455 104.544 311.687 105.072C311.919 105.592 312.035 106.168 312.035 106.8C312.035 107.424 311.919 108.004 311.687 108.54C311.455 109.068 311.131 109.528 310.715 109.92C310.307 110.304 309.823 110.604 309.263 110.82C308.711 111.036 308.107 111.144 307.451 111.144ZM307.439 109.488C307.815 109.488 308.159 109.424 308.471 109.296C308.791 109.168 309.071 108.984 309.311 108.744C309.551 108.504 309.735 108.22 309.863 107.892C309.999 107.564 310.067 107.2 310.067 106.8C310.067 106.4 309.999 106.036 309.863 105.708C309.735 105.38 309.551 105.096 309.311 104.856C309.079 104.616 308.803 104.432 308.483 104.304C308.163 104.176 307.815 104.112 307.439 104.112C307.063 104.112 306.715 104.176 306.395 104.304C306.083 104.432 305.807 104.616 305.567 104.856C305.327 105.096 305.139 105.38 305.003 105.708C304.875 106.036 304.811 106.4 304.811 106.8C304.811 107.192 304.875 107.556 305.003 107.892C305.139 108.22 305.323 108.504 305.555 108.744C305.795 108.984 306.075 109.168 306.395 109.296C306.715 109.424 307.063 109.488 307.439 109.488ZM316.894 111V102.6H320.998C322.054 102.6 322.846 102.8 323.374 103.2C323.91 103.6 324.178 104.128 324.178 104.784C324.178 105.224 324.07 105.608 323.854 105.936C323.638 106.256 323.342 106.504 322.966 106.68C322.59 106.856 322.158 106.944 321.67 106.944L321.898 106.452C322.426 106.452 322.894 106.54 323.302 106.716C323.71 106.884 324.026 107.136 324.25 107.472C324.482 107.808 324.598 108.22 324.598 108.708C324.598 109.428 324.314 109.992 323.746 110.4C323.178 110.8 322.342 111 321.238 111H316.894ZM318.826 109.536H321.094C321.598 109.536 321.978 109.456 322.234 109.296C322.498 109.128 322.63 108.864 322.63 108.504C322.63 108.152 322.498 107.892 322.234 107.724C321.978 107.548 321.598 107.46 321.094 107.46H318.682V106.044H320.758C321.23 106.044 321.59 105.964 321.838 105.804C322.094 105.636 322.222 105.384 322.222 105.048C322.222 104.72 322.094 104.476 321.838 104.316C321.59 104.148 321.23 104.064 320.758 104.064H318.826V109.536ZM329.802 111.144C328.61 111.144 327.678 110.812 327.006 110.148C326.334 109.484 325.998 108.536 325.998 107.304V102.6H327.942V107.232C327.942 108.032 328.106 108.608 328.434 108.96C328.762 109.312 329.222 109.488 329.814 109.488C330.406 109.488 330.866 109.312 331.194 108.96C331.522 108.608 331.686 108.032 331.686 107.232V102.6H333.606V107.304C333.606 108.536 333.27 109.484 332.598 110.148C331.926 110.812 330.994 111.144 329.802 111.144ZM337.498 111V107.568L337.942 108.744L334.246 102.6H336.31L339.142 107.316H337.954L340.798 102.6H342.706L339.01 108.744L339.442 107.568V111H337.498ZM346.104 111.144C345.432 111.144 344.788 111.056 344.172 110.88C343.556 110.696 343.06 110.46 342.684 110.172L343.344 108.708C343.704 108.964 344.128 109.176 344.616 109.344C345.112 109.504 345.612 109.584 346.116 109.584C346.5 109.584 346.808 109.548 347.04 109.476C347.28 109.396 347.456 109.288 347.568 109.152C347.68 109.016 347.736 108.86 347.736 108.684C347.736 108.46 347.648 108.284 347.472 108.156C347.296 108.02 347.064 107.912 346.776 107.832C346.488 107.744 346.168 107.664 345.816 107.592C345.472 107.512 345.124 107.416 344.772 107.304C344.428 107.192 344.112 107.048 343.824 106.872C343.536 106.696 343.3 106.464 343.116 106.176C342.94 105.888 342.852 105.52 342.852 105.072C342.852 104.592 342.98 104.156 343.236 103.764C343.5 103.364 343.892 103.048 344.412 102.816C344.94 102.576 345.6 102.456 346.392 102.456C346.92 102.456 347.44 102.52 347.952 102.648C348.464 102.768 348.916 102.952 349.308 103.2L348.708 104.676C348.316 104.452 347.924 104.288 347.532 104.184C347.14 104.072 346.756 104.016 346.38 104.016C346.004 104.016 345.696 104.06 345.456 104.148C345.216 104.236 345.044 104.352 344.94 104.496C344.836 104.632 344.784 104.792 344.784 104.976C344.784 105.192 344.872 105.368 345.048 105.504C345.224 105.632 345.456 105.736 345.744 105.816C346.032 105.896 346.348 105.976 346.692 106.056C347.044 106.136 347.392 106.228 347.736 106.332C348.088 106.436 348.408 106.576 348.696 106.752C348.984 106.928 349.216 107.16 349.392 107.448C349.576 107.736 349.668 108.1 349.668 108.54C349.668 109.012 349.536 109.444 349.272 109.836C349.008 110.228 348.612 110.544 348.084 110.784C347.564 111.024 346.904 111.144 346.104 111.144ZM222.559 126L219.811 117.6H221.827L224.215 125.04H223.207L225.703 117.6H227.503L229.903 125.04H228.931L231.379 117.6H233.239L230.491 126H228.403L226.279 119.472H226.831L224.647 126H222.559ZM240.084 117.6H242.028V126H240.084V117.6ZM236.268 126H234.324V117.6H236.268V126ZM240.228 122.556H236.124V120.912H240.228V122.556ZM242.912 126L246.656 117.6H248.576L252.332 126H250.292L247.22 118.584H247.988L244.904 126H242.912ZM244.784 124.2L245.3 122.724H249.62L250.148 124.2H244.784ZM254.521 126V119.184H251.833V117.6H259.153V119.184H256.465V126H254.521ZM269.358 117.6H271.302V126H269.358V117.6ZM265.542 126H263.598V117.6H265.542V126ZM269.502 122.556H265.398V120.912H269.502V122.556ZM275.077 120.984H279.121V122.496H275.077V120.984ZM275.221 124.44H279.793V126H273.289V117.6H279.637V119.16H275.221V124.44ZM284.738 126V117.6H288.554C289.466 117.6 290.27 117.776 290.966 118.128C291.662 118.472 292.206 118.956 292.598 119.58C292.99 120.204 293.186 120.944 293.186 121.8C293.186 122.648 292.99 123.388 292.598 124.02C292.206 124.644 291.662 125.132 290.966 125.484C290.27 125.828 289.466 126 288.554 126H284.738ZM286.682 124.404H288.458C289.018 124.404 289.502 124.3 289.91 124.092C290.326 123.876 290.646 123.572 290.87 123.18C291.102 122.788 291.218 122.328 291.218 121.8C291.218 121.264 291.102 120.804 290.87 120.42C290.646 120.028 290.326 119.728 289.91 119.52C289.502 119.304 289.018 119.196 288.458 119.196H286.682V124.404ZM298.732 126.144C298.068 126.144 297.452 126.036 296.884 125.82C296.324 125.604 295.836 125.3 295.42 124.908C295.012 124.516 294.692 124.056 294.46 123.528C294.236 123 294.124 122.424 294.124 121.8C294.124 121.176 294.236 120.6 294.46 120.072C294.692 119.544 295.016 119.084 295.432 118.692C295.848 118.3 296.336 117.996 296.896 117.78C297.456 117.564 298.064 117.456 298.72 117.456C299.384 117.456 299.992 117.564 300.544 117.78C301.104 117.996 301.588 118.3 301.996 118.692C302.412 119.084 302.736 119.544 302.968 120.072C303.2 120.592 303.316 121.168 303.316 121.8C303.316 122.424 303.2 123.004 302.968 123.54C302.736 124.068 302.412 124.528 301.996 124.92C301.588 125.304 301.104 125.604 300.544 125.82C299.992 126.036 299.388 126.144 298.732 126.144ZM298.72 124.488C299.096 124.488 299.44 124.424 299.752 124.296C300.072 124.168 300.352 123.984 300.592 123.744C300.832 123.504 301.016 123.22 301.144 122.892C301.28 122.564 301.348 122.2 301.348 121.8C301.348 121.4 301.28 121.036 301.144 120.708C301.016 120.38 300.832 120.096 300.592 119.856C300.36 119.616 300.084 119.432 299.764 119.304C299.444 119.176 299.096 119.112 298.72 119.112C298.344 119.112 297.996 119.176 297.676 119.304C297.364 119.432 297.088 119.616 296.848 119.856C296.608 120.096 296.42 120.38 296.284 120.708C296.156 121.036 296.092 121.4 296.092 121.8C296.092 122.192 296.156 122.556 296.284 122.892C296.42 123.22 296.604 123.504 296.836 123.744C297.076 123.984 297.356 124.168 297.676 124.296C297.996 124.424 298.344 124.488 298.72 124.488ZM306.565 120.984H310.609V122.496H306.565V120.984ZM306.709 124.44H311.281V126H304.777V117.6H311.125V119.16H306.709V124.44ZM315.588 126.144C314.916 126.144 314.272 126.056 313.656 125.88C313.04 125.696 312.544 125.46 312.168 125.172L312.828 123.708C313.188 123.964 313.612 124.176 314.1 124.344C314.596 124.504 315.096 124.584 315.6 124.584C315.984 124.584 316.292 124.548 316.524 124.476C316.764 124.396 316.94 124.288 317.052 124.152C317.164 124.016 317.22 123.86 317.22 123.684C317.22 123.46 317.132 123.284 316.956 123.156C316.78 123.02 316.548 122.912 316.26 122.832C315.972 122.744 315.652 122.664 315.3 122.592C314.956 122.512 314.608 122.416 314.256 122.304C313.912 122.192 313.596 122.048 313.308 121.872C313.02 121.696 312.784 121.464 312.6 121.176C312.424 120.888 312.336 120.52 312.336 120.072C312.336 119.592 312.464 119.156 312.72 118.764C312.984 118.364 313.376 118.048 313.896 117.816C314.424 117.576 315.084 117.456 315.876 117.456C316.404 117.456 316.924 117.52 317.436 117.648C317.948 117.768 318.4 117.952 318.792 118.2L318.192 119.676C317.8 119.452 317.408 119.288 317.016 119.184C316.624 119.072 316.24 119.016 315.864 119.016C315.488 119.016 315.18 119.06 314.94 119.148C314.7 119.236 314.528 119.352 314.424 119.496C314.32 119.632 314.268 119.792 314.268 119.976C314.268 120.192 314.356 120.368 314.532 120.504C314.708 120.632 314.94 120.736 315.228 120.816C315.516 120.896 315.832 120.976 316.176 121.056C316.528 121.136 316.876 121.228 317.22 121.332C317.572 121.436 317.892 121.576 318.18 121.752C318.468 121.928 318.7 122.16 318.876 122.448C319.06 122.736 319.152 123.1 319.152 123.54C319.152 124.012 319.02 124.444 318.756 124.836C318.492 125.228 318.096 125.544 317.568 125.784C317.048 126.024 316.388 126.144 315.588 126.144ZM323.879 126V117.6H325.487L330.443 123.648H329.663V117.6H331.583V126H329.987L325.019 119.952H325.799V126H323.879ZM337.65 126.144C336.986 126.144 336.37 126.036 335.802 125.82C335.242 125.604 334.754 125.3 334.338 124.908C333.93 124.516 333.61 124.056 333.378 123.528C333.154 123 333.042 122.424 333.042 121.8C333.042 121.176 333.154 120.6 333.378 120.072C333.61 119.544 333.934 119.084 334.35 118.692C334.766 118.3 335.254 117.996 335.814 117.78C336.374 117.564 336.982 117.456 337.638 117.456C338.302 117.456 338.91 117.564 339.462 117.78C340.022 117.996 340.506 118.3 340.914 118.692C341.33 119.084 341.654 119.544 341.886 120.072C342.118 120.592 342.234 121.168 342.234 121.8C342.234 122.424 342.118 123.004 341.886 123.54C341.654 124.068 341.33 124.528 340.914 124.92C340.506 125.304 340.022 125.604 339.462 125.82C338.91 126.036 338.306 126.144 337.65 126.144ZM337.638 124.488C338.014 124.488 338.358 124.424 338.67 124.296C338.99 124.168 339.27 123.984 339.51 123.744C339.75 123.504 339.934 123.22 340.062 122.892C340.198 122.564 340.266 122.2 340.266 121.8C340.266 121.4 340.198 121.036 340.062 120.708C339.934 120.38 339.75 120.096 339.51 119.856C339.278 119.616 339.002 119.432 338.682 119.304C338.362 119.176 338.014 119.112 337.638 119.112C337.262 119.112 336.914 119.176 336.594 119.304C336.282 119.432 336.006 119.616 335.766 119.856C335.526 120.096 335.338 120.38 335.202 120.708C335.074 121.036 335.01 121.4 335.01 121.8C335.01 122.192 335.074 122.556 335.202 122.892C335.338 123.22 335.522 123.504 335.754 123.744C335.994 123.984 336.274 124.168 336.594 124.296C336.914 124.424 337.262 124.488 337.638 124.488ZM345.318 126V119.184H342.63V117.6H349.95V119.184H347.262V126H345.318ZM223.367 141V132.6H224.975L229.931 138.648H229.151V132.6H231.071V141H229.475L224.507 134.952H225.287V141H223.367ZM234.847 135.984H238.891V137.496H234.847V135.984ZM234.991 139.44H239.562V141H233.059V132.6H239.407V134.16H234.991V139.44ZM242.897 135.984H246.941V137.496H242.897V135.984ZM243.041 139.44H247.613V141H241.109V132.6H247.457V134.16H243.041V139.44ZM249.16 141V132.6H252.976C253.888 132.6 254.692 132.776 255.388 133.128C256.084 133.472 256.628 133.956 257.02 134.58C257.412 135.204 257.608 135.944 257.608 136.8C257.608 137.648 257.412 138.388 257.02 139.02C256.628 139.644 256.084 140.132 255.388 140.484C254.692 140.828 253.888 141 252.976 141H249.16ZM251.104 139.404H252.88C253.44 139.404 253.924 139.3 254.332 139.092C254.748 138.876 255.068 138.572 255.292 138.18C255.524 137.788 255.64 137.328 255.64 136.8C255.64 136.264 255.524 135.804 255.292 135.42C255.068 135.028 254.748 134.728 254.332 134.52C253.924 134.304 253.44 134.196 252.88 134.196H251.104V139.404ZM265.233 141.144C264.561 141.144 263.917 141.056 263.301 140.88C262.685 140.696 262.189 140.46 261.813 140.172L262.473 138.708C262.833 138.964 263.257 139.176 263.745 139.344C264.241 139.504 264.741 139.584 265.245 139.584C265.629 139.584 265.937 139.548 266.169 139.476C266.409 139.396 266.585 139.288 266.697 139.152C266.809 139.016 266.865 138.86 266.865 138.684C266.865 138.46 266.777 138.284 266.601 138.156C266.425 138.02 266.193 137.912 265.905 137.832C265.617 137.744 265.297 137.664 264.945 137.592C264.601 137.512 264.253 137.416 263.901 137.304C263.557 137.192 263.241 137.048 262.953 136.872C262.665 136.696 262.429 136.464 262.245 136.176C262.069 135.888 261.981 135.52 261.981 135.072C261.981 134.592 262.109 134.156 262.365 133.764C262.629 133.364 263.021 133.048 263.541 132.816C264.069 132.576 264.729 132.456 265.521 132.456C266.049 132.456 266.569 132.52 267.081 132.648C267.593 132.768 268.045 132.952 268.437 133.2L267.837 134.676C267.445 134.452 267.053 134.288 266.661 134.184C266.269 134.072 265.885 134.016 265.509 134.016C265.133 134.016 264.825 134.06 264.585 134.148C264.345 134.236 264.173 134.352 264.069 134.496C263.965 134.632 263.913 134.792 263.913 134.976C263.913 135.192 264.001 135.368 264.177 135.504C264.353 135.632 264.585 135.736 264.873 135.816C265.161 135.896 265.477 135.976 265.821 136.056C266.173 136.136 266.521 136.228 266.865 136.332C267.217 136.436 267.537 136.576 267.825 136.752C268.113 136.928 268.345 137.16 268.521 137.448C268.705 137.736 268.797 138.1 268.797 138.54C268.797 139.012 268.665 139.444 268.401 139.836C268.137 140.228 267.741 140.544 267.213 140.784C266.693 141.024 266.033 141.144 265.233 141.144ZM271.748 141V134.184H269.06V132.6H276.38V134.184H273.692V141H271.748ZM279.214 135.984H283.258V137.496H279.214V135.984ZM279.358 139.44H283.93V141H277.426V132.6H283.774V134.16H279.358V139.44ZM284.372 141L288.116 132.6H290.036L293.792 141H291.752L288.68 133.584H289.448L286.364 141H284.372ZM286.244 139.2L286.76 137.724H291.08L291.608 139.2H286.244ZM294.664 141V132.6H296.608V139.416H300.82V141H294.664ZM304.631 141.144C303.959 141.144 303.315 141.056 302.699 140.88C302.083 140.696 301.587 140.46 301.211 140.172L301.871 138.708C302.231 138.964 302.655 139.176 303.143 139.344C303.639 139.504 304.139 139.584 304.643 139.584C305.027 139.584 305.335 139.548 305.567 139.476C305.807 139.396 305.983 139.288 306.095 139.152C306.207 139.016 306.263 138.86 306.263 138.684C306.263 138.46 306.175 138.284 305.999 138.156C305.823 138.02 305.591 137.912 305.303 137.832C305.015 137.744 304.695 137.664 304.343 137.592C303.999 137.512 303.651 137.416 303.299 137.304C302.955 137.192 302.639 137.048 302.351 136.872C302.063 136.696 301.827 136.464 301.643 136.176C301.467 135.888 301.379 135.52 301.379 135.072C301.379 134.592 301.507 134.156 301.763 133.764C302.027 133.364 302.419 133.048 302.939 132.816C303.467 132.576 304.127 132.456 304.919 132.456C305.447 132.456 305.967 132.52 306.479 132.648C306.991 132.768 307.443 132.952 307.835 133.2L307.235 134.676C306.843 134.452 306.451 134.288 306.059 134.184C305.667 134.072 305.283 134.016 304.907 134.016C304.531 134.016 304.223 134.06 303.983 134.148C303.743 134.236 303.571 134.352 303.467 134.496C303.363 134.632 303.311 134.792 303.311 134.976C303.311 135.192 303.399 135.368 303.575 135.504C303.751 135.632 303.983 135.736 304.271 135.816C304.559 135.896 304.875 135.976 305.219 136.056C305.571 136.136 305.919 136.228 306.263 136.332C306.615 136.436 306.935 136.576 307.223 136.752C307.511 136.928 307.743 137.16 307.919 137.448C308.103 137.736 308.195 138.1 308.195 138.54C308.195 139.012 308.063 139.444 307.799 139.836C307.535 140.228 307.139 140.544 306.611 140.784C306.091 141.024 305.431 141.144 304.631 141.144ZM314.722 136.38H318.754V137.94H314.722V136.38ZM314.866 141H312.922V132.6H319.27V134.16H314.866V141ZM320.586 141V132.6H324.222C324.974 132.6 325.622 132.724 326.166 132.972C326.71 133.212 327.13 133.56 327.426 134.016C327.722 134.472 327.87 135.016 327.87 135.648C327.87 136.272 327.722 136.812 327.426 137.268C327.13 137.716 326.71 138.06 326.166 138.3C325.622 138.54 324.974 138.66 324.222 138.66H321.666L322.53 137.808V141H320.586ZM325.926 141L323.826 137.952H325.902L328.026 141H325.926ZM322.53 138.024L321.666 137.112H324.114C324.714 137.112 325.162 136.984 325.458 136.728C325.754 136.464 325.902 136.104 325.902 135.648C325.902 135.184 325.754 134.824 325.458 134.568C325.162 134.312 324.714 134.184 324.114 134.184H321.666L322.53 133.26V138.024ZM333.49 141.144C332.826 141.144 332.21 141.036 331.642 140.82C331.082 140.604 330.594 140.3 330.178 139.908C329.77 139.516 329.45 139.056 329.218 138.528C328.994 138 328.882 137.424 328.882 136.8C328.882 136.176 328.994 135.6 329.218 135.072C329.45 134.544 329.774 134.084 330.19 133.692C330.606 133.3 331.094 132.996 331.654 132.78C332.214 132.564 332.822 132.456 333.478 132.456C334.142 132.456 334.75 132.564 335.302 132.78C335.862 132.996 336.346 133.3 336.754 133.692C337.17 134.084 337.494 134.544 337.726 135.072C337.958 135.592 338.074 136.168 338.074 136.8C338.074 137.424 337.958 138.004 337.726 138.54C337.494 139.068 337.17 139.528 336.754 139.92C336.346 140.304 335.862 140.604 335.302 140.82C334.75 141.036 334.146 141.144 333.49 141.144ZM333.478 139.488C333.854 139.488 334.198 139.424 334.51 139.296C334.83 139.168 335.11 138.984 335.35 138.744C335.59 138.504 335.774 138.22 335.902 137.892C336.038 137.564 336.106 137.2 336.106 136.8C336.106 136.4 336.038 136.036 335.902 135.708C335.774 135.38 335.59 135.096 335.35 134.856C335.118 134.616 334.842 134.432 334.522 134.304C334.202 134.176 333.854 134.112 333.478 134.112C333.102 134.112 332.754 134.176 332.434 134.304C332.122 134.432 331.846 134.616 331.606 134.856C331.366 135.096 331.178 135.38 331.042 135.708C330.914 136.036 330.85 136.4 330.85 136.8C330.85 137.192 330.914 137.556 331.042 137.892C331.178 138.22 331.362 138.504 331.594 138.744C331.834 138.984 332.114 139.168 332.434 139.296C332.754 139.424 333.102 139.488 333.478 139.488ZM339.535 141V132.6H341.143L344.719 138.528H343.867L347.383 132.6H348.979L349.003 141H347.179L347.167 135.396H347.503L344.695 140.112H343.819L340.951 135.396H341.359V141H339.535ZM292.315 147.6H294.259V156H292.315V147.6ZM288.499 156H286.555V147.6H288.499V156ZM292.459 152.556H288.355V150.912H292.459V152.556ZM296.246 156V147.6H298.19V156H296.246ZM300.184 156V147.6H301.792L305.368 153.528H304.516L308.032 147.6H309.628L309.652 156H307.828L307.816 150.396H308.152L305.344 155.112H304.468L301.6 150.396H302.008V156H300.184ZM314.404 156.144C313.732 156.144 313.088 156.056 312.472 155.88C311.856 155.696 311.36 155.46 310.984 155.172L311.644 153.708C312.004 153.964 312.428 154.176 312.916 154.344C313.412 154.504 313.912 154.584 314.416 154.584C314.8 154.584 315.108 154.548 315.34 154.476C315.58 154.396 315.756 154.288 315.868 154.152C315.98 154.016 316.036 153.86 316.036 153.684C316.036 153.46 315.948 153.284 315.772 153.156C315.596 153.02 315.364 152.912 315.076 152.832C314.788 152.744 314.468 152.664 314.116 152.592C313.772 152.512 313.424 152.416 313.072 152.304C312.728 152.192 312.412 152.048 312.124 151.872C311.836 151.696 311.6 151.464 311.416 151.176C311.24 150.888 311.152 150.52 311.152 150.072C311.152 149.592 311.28 149.156 311.536 148.764C311.8 148.364 312.192 148.048 312.712 147.816C313.24 147.576 313.9 147.456 314.692 147.456C315.22 147.456 315.74 147.52 316.252 147.648C316.764 147.768 317.216 147.952 317.608 148.2L317.008 149.676C316.616 149.452 316.224 149.288 315.832 149.184C315.44 149.072 315.056 149.016 314.68 149.016C314.304 149.016 313.996 149.06 313.756 149.148C313.516 149.236 313.344 149.352 313.24 149.496C313.136 149.632 313.084 149.792 313.084 149.976C313.084 150.192 313.172 150.368 313.348 150.504C313.524 150.632 313.756 150.736 314.044 150.816C314.332 150.896 314.648 150.976 314.992 151.056C315.344 151.136 315.692 151.228 316.036 151.332C316.388 151.436 316.708 151.576 316.996 151.752C317.284 151.928 317.516 152.16 317.692 152.448C317.876 152.736 317.968 153.1 317.968 153.54C317.968 154.012 317.836 154.444 317.572 154.836C317.308 155.228 316.912 155.544 316.384 155.784C315.864 156.024 315.204 156.144 314.404 156.144ZM321.085 150.984H325.129V152.496H321.085V150.984ZM321.229 154.44H325.801V156H319.297V147.6H325.645V149.16H321.229V154.44ZM327.348 156V147.6H329.292V154.416H333.504V156H327.348ZM336.39 151.38H340.422V152.94H336.39V151.38ZM336.534 156H334.59V147.6H340.938V149.16H336.534V156ZM342.713 156.096C342.393 156.096 342.117 155.988 341.885 155.772C341.661 155.548 341.549 155.264 341.549 154.92C341.549 154.576 341.661 154.3 341.885 154.092C342.117 153.876 342.393 153.768 342.713 153.768C343.041 153.768 343.317 153.876 343.541 154.092C343.765 154.3 343.877 154.576 343.877 154.92C343.877 155.264 343.765 155.548 343.541 155.772C343.317 155.988 343.041 156.096 342.713 156.096ZM344.563 151.08L345.355 148.2L345.619 149.292C345.275 149.292 344.991 149.192 344.767 148.992C344.551 148.784 344.443 148.504 344.443 148.152C344.443 147.808 344.555 147.532 344.779 147.324C345.003 147.108 345.279 147 345.607 147C345.943 147 346.219 147.108 346.435 147.324C346.651 147.532 346.759 147.808 346.759 148.152C346.759 148.256 346.751 148.36 346.735 148.464C346.727 148.56 346.699 148.676 346.651 148.812C346.611 148.948 346.543 149.128 346.447 149.352L345.751 151.08H344.563ZM347.395 151.08L348.187 148.2L348.451 149.292C348.107 149.292 347.823 149.192 347.599 148.992C347.383 148.784 347.275 148.504 347.275 148.152C347.275 147.808 347.387 147.532 347.611 147.324C347.835 147.108 348.111 147 348.439 147C348.775 147 349.051 147.108 349.267 147.324C349.483 147.532 349.591 147.808 349.591 148.152C349.591 148.256 349.583 148.36 349.567 148.464C349.559 148.56 349.531 148.676 349.483 148.812C349.443 148.948 349.375 149.128 349.279 149.352L348.583 151.08H347.395Z" fill="white"/>
<path d="M58.6795 207.343C56.0789 205.841 52.0068 205.754 49.5914 207.149L-3.79055 237.983C-6.20596 239.379 -6.05579 241.731 -3.4554 243.233L66.2301 283.484C68.8305 284.986 72.8996 285.072 75.315 283.676L128.697 252.842C131.112 251.446 130.965 249.096 128.365 247.594L58.6795 207.343Z" fill="#E1E3EE"/>
<path d="M104.339 101.331C104.339 101.331 110.748 107.263 118.041 110.617C125.334 113.972 129.168 117.896 125.836 125.167C125.836 125.167 132.276 130.304 121.482 138.85C110.688 147.396 100.607 145.87 96.0041 142.844C96.0041 142.844 81.2634 139.576 76.4913 133.918C71.7184 128.26 74.3638 126.376 73.8228 119.7C73.2785 113.026 104.339 101.331 104.339 101.331Z" fill="#10243E"/>
<path d="M80.7464 213.568C80.7464 213.568 82.5977 220.651 80.7464 222.655C78.8951 224.659 74.3657 226.505 69.5338 226.844C65.3064 227.14 63.7883 223.617 67.5159 220.672C71.2431 217.727 73.7298 216.644 73.5694 212.411L80.7464 213.568Z" fill="#10243E"/>
<path d="M75.3743 155.476C75.3743 155.476 69.7249 201.903 67.5157 213.477C67.5157 213.477 81.1723 219.784 89.9381 214.186C89.9381 214.186 94.61 173.939 93.9032 157.515L75.3743 155.476Z" fill="#4B61DC"/>
<path d="M75.072 157.955L74.1494 165.381C74.1494 165.381 84.0137 171.763 93.8751 168.564L93.9768 160.036L75.072 157.955Z" fill="#10243E"/>
<path d="M115.068 211.034C115.068 211.034 118.604 217.441 117.302 219.839C116 222.237 112.064 225.14 107.464 226.657C103.439 227.985 101.101 224.945 103.991 221.173C106.879 217.402 109.023 215.74 107.827 211.679L115.068 211.034Z" fill="#10243E"/>
<path d="M95.5813 156.064C95.5813 156.064 101.519 202.443 102.223 214.202C102.223 214.202 117.01 216.953 124.13 209.37C124.13 209.37 118.18 165.452 114.289 148.921L95.5813 156.064Z" fill="#4B61DC"/>
<path d="M95.5745 155.041L97.2077 166.335C97.2077 166.335 107.576 164.429 116.348 158.901L114.667 149.137L95.5745 155.041Z" fill="#10243E"/>
<path d="M74.8029 121.841C73.6243 123.808 65.9352 129.072 63.1458 130.689C59.801 132.628 46.1262 131.008 44.7068 131.308C38.6343 132.591 38.6929 144.136 44.4661 147.381C51.8621 151.537 77.8391 143.065 80.1626 137.776C84.5624 127.748 84.5654 123.994 84.5654 123.994L74.8029 121.841Z" fill="#569FBE"/>
<path d="M76.2453 141.219C72.5351 143.393 66.7828 145.57 61.071 146.966C61.9297 144.965 67.2142 145.062 69.4635 141.939C72.6374 137.535 72.5543 130.468 72.5543 130.468L76.0531 139.995C76.0531 139.995 76.1428 140.491 76.2453 141.219Z" fill="#10243E"/>
<path d="M98.1228 114.852L78.0897 116.025C78.0897 116.025 71.5176 123.15 71.6517 129.166C71.766 134.288 74.2961 139.024 74.2961 139.024L70.3582 159.854C70.3582 159.854 83.7012 165.819 97.1885 161.306C110.676 156.793 118.391 148.103 118.391 148.103L98.1228 114.852Z" fill="#569FBE"/>
<path d="M97.0968 117.295C97.0968 117.295 93.0187 125.788 86.8928 127.307C80.7667 128.826 77.0537 126.473 77.649 122.697C78.2443 118.921 97.0968 117.295 97.0968 117.295Z" fill="#10243E"/>
<path d="M96.2947 126.043L98.8528 139.177C102.487 145.902 104.41 151.244 109.177 154.017C109.177 154.017 113.919 154.058 118.39 148.058L105.671 126.103L96.2947 126.043Z" fill="#10243E"/>
<path d="M131.055 153.363C131.055 153.363 137.436 153.475 141.416 154.458C145.668 155.508 143.051 158.059 140.031 157.751C138.241 157.569 138.043 157.85 138.043 157.85C138.043 157.85 140.714 159.172 142.868 161.655C145.022 164.138 142.744 165.43 140.788 164.373C138.833 163.317 135.77 162.545 135.77 162.545C135.77 162.545 137.921 165.575 138.158 167.442C138.396 169.31 136.128 170.546 135.002 168.644C133.876 166.741 132.565 165.449 132.565 165.449C132.565 165.449 132.274 168.133 131.983 169.239C131.692 170.344 128.459 170.819 128.377 168.681C128.297 166.543 127.506 162.8 127.506 162.8L131.055 153.363Z" fill="#88DAFF"/>
<path d="M98.9696 117.103C96.3957 117.8 93.0016 118.978 95.0735 126.748C97.1431 134.518 118.422 158.897 121.013 164.115C121.013 164.115 134.368 165.654 133.883 152.501C133.883 152.501 115.248 131.267 108.917 124.326C102.584 117.383 101.921 116.304 98.9696 117.103Z" fill="#569FBE"/>
<path d="M82.5336 89.9531C92.1755 89.9531 99.9915 97.7731 99.9915 107.419C99.9915 117.066 92.1755 124.885 82.5336 124.885C72.8918 124.885 65.0756 117.066 65.0756 107.419C65.0756 97.7731 72.8918 89.9531 82.5336 89.9531Z" fill="#88DAFF"/>
<path d="M96.8929 90.3423C96.8929 90.3423 91.4595 80.4187 83.0389 81.516C74.6185 82.6131 73.9303 86.3305 73.9303 86.3305C73.9303 86.3305 66.9878 81.9197 59.9652 88.4951C52.9456 95.0704 57.4782 105.311 66.451 104.055C66.451 104.055 70.2894 109.639 76.2015 105.584C76.2015 105.584 83.2209 111.533 87.1888 104.156C87.1888 104.156 87.7565 107.855 92.2708 107.783C92.2708 107.783 91.4775 100.921 96.5533 102.47C101.629 104.02 100.034 110.654 95.9302 112.239C95.2078 117.427 100.95 124.509 109.272 118.46C116.285 113.362 112.731 104.673 107.337 103.505C107.337 103.505 110.981 88.1518 96.8929 90.3423Z" fill="#10243E"/>
<path d="M117.905 235.6C123.398 235.6 127.851 237.5 127.851 239.843C127.851 242.187 123.398 244.087 117.905 244.087C112.412 244.087 107.959 242.187 107.959 239.843C107.959 237.5 112.412 235.6 117.905 235.6Z" fill="#E1E3EE"/>
<path d="M129.633 237.642C137.043 237.642 143.051 240.007 143.051 242.922C143.051 245.838 137.043 248.202 129.633 248.202C122.222 248.202 116.215 245.838 116.215 242.922C116.215 240.007 122.222 237.642 129.633 237.642Z" fill="#E1E3EE"/>
<path d="M103.741 231.501C102.054 226.025 95.5072 213.023 101.6 207.22C107.234 201.854 112.337 211.139 112.675 218.142C112.675 218.142 113.017 188.355 122.911 189.278C132.804 190.202 126.582 208.652 123.657 216.264C123.657 216.264 134.524 201.939 139.62 208.43C144.716 214.922 121.628 236.398 121.628 236.398C119.982 238.521 115.975 240.69 111.721 240.077C108.204 239.569 104.891 235.233 103.741 231.501Z" fill="#569FBE"/>
<path d="M122.33 196.374C122.388 196.1 122.658 195.927 122.931 195.986C123.205 196.044 123.379 196.314 123.32 196.588C123.32 196.588 116.473 228.315 111.518 240.315C111.412 240.574 111.115 240.697 110.857 240.59C110.599 240.484 110.476 240.187 110.582 239.929C115.517 227.977 122.33 196.374 122.33 196.374Z" fill="#F2F3F7"/>
<path d="M106.223 216.14C106.205 215.861 106.417 215.619 106.695 215.602C106.975 215.584 107.215 215.795 107.233 216.074C107.233 216.074 107.542 220.841 109.058 225.485C110.045 228.509 111.532 231.493 113.827 232.994C114.061 233.148 114.127 233.462 113.974 233.696C113.821 233.93 113.507 233.996 113.273 233.843C110.805 232.228 109.157 229.051 108.095 225.8C106.539 221.033 106.223 216.14 106.223 216.14Z" fill="#F2F3F7"/>
<path d="M115.76 227.382C115.488 227.445 115.215 227.275 115.152 227.003C115.088 226.731 115.258 226.458 115.531 226.395C115.531 226.395 126.854 223.776 132.227 215.901C132.384 215.67 132.7 215.611 132.931 215.769C133.161 215.927 133.221 216.242 133.063 216.473C127.49 224.641 115.76 227.382 115.76 227.382Z" fill="#F2F3F7"/>
<path d="M127.561 230.844C133.557 230.777 131.904 234.918 135.677 237.359C139.134 239.595 139.057 244.483 133.516 245.492C127.976 246.501 123.276 246.341 119.445 245.181C112.533 243.088 113.91 238.159 118.33 236.72C121.988 235.529 123.111 230.894 127.561 230.844Z" fill="#10243E"/>
<path d="M129.13 233.874C129.895 233.874 130.514 234.471 130.514 235.208C130.514 235.944 129.895 236.541 129.13 236.541C128.366 236.541 127.746 235.944 127.746 235.208C127.746 234.471 128.366 233.874 129.13 233.874Z" fill="#E1E3EE"/>
<path d="M131.213 236.85C131.598 236.85 131.91 237.136 131.91 237.487C131.91 237.84 131.598 238.126 131.213 238.126C130.829 238.126 130.517 237.84 130.517 237.487C130.517 237.136 130.829 236.85 131.213 236.85Z" fill="#E1E3EE"/>
<path d="M6.3973 232.1L43.0247 210.942C45.1665 209.705 48.912 209.862 51.3827 211.288L107.575 243.746V236.811H119.704V252.612H119.681C119.57 253.284 119.102 253.913 118.261 254.399L70.9446 281.729C68.8026 282.964 65.0601 282.81 62.5866 281.383L-3.6892 243.099C-5.03382 242.325 -5.72611 241.329 -5.73486 240.386V224.588H6.3973V232.1Z" fill="#40C3FD"/>
<path d="M51.3803 195.78C48.907 194.351 45.1606 194.195 43.0204 195.432L-4.29505 222.762C-6.43577 223.999 -6.16642 226.162 -3.69312 227.591L62.5831 265.873C65.0564 267.302 68.7993 267.456 70.9403 266.219L118.255 238.889C120.396 237.652 120.129 235.491 117.656 234.062L51.3803 195.78Z" fill="#88DAFF"/>
<path d="M88.2627 222.825V187.132C88.2627 186.061 87.9786 184.424 86.892 183.031C85.1398 180.786 77.978 171.605 76.2256 169.359C75.9816 169.047 75.6824 168.786 75.3404 168.588C72.1748 166.76 58.5107 158.867 53.1529 155.773C52.1428 155.189 50.8913 155.228 49.9205 155.873C42.1481 161.024 4.85303 181.74 4.85303 181.74L43.4058 248.734L88.2627 222.825Z" fill="#569FBE"/>
<path d="M43.4695 212.033C43.4695 210.934 42.7339 209.503 42.1204 208.722C41.8761 208.411 33.121 197.518 31.3688 195.271C31.1244 194.959 30.8252 194.698 30.4834 194.501C27.7756 192.937 15.1158 185.624 8.15857 181.606C7.20933 181.057 6.03708 181.057 5.08762 181.607C4.13517 182.155 3.54883 183.169 3.54883 184.268V225.716L43.4695 248.774V212.033Z" fill="#4B61DC"/>
<path d="M80.6577 198.512L51.1906 215.532L51.1905 244.244L80.6574 227.224L80.6577 198.512Z" fill="#10243E"/>
<path d="M55.9706 212.791L51.0386 215.64L51.1851 244.258L71.6858 256.273L101.528 239.036L80.817 227.142L55.9706 212.791Z" fill="#E1E3EE"/>
<path d="M11.0019 205.462L10.2847 204.219L15.2659 201.342L15.2697 201.346C17.0552 200.417 19.4689 200.607 22.1244 202.142C27.6189 205.315 32.0793 213.044 32.0793 219.392C32.0793 222.563 30.9643 224.794 29.163 225.834L24.31 228.638L23.5675 227.353C22.5798 227.163 21.5216 226.758 20.4237 226.124C17.1075 224.209 19.0761 218.447 17.2667 214.516C16.078 211.935 10.4688 211.391 10.4688 208.874C10.4688 207.572 10.6565 206.43 11.0019 205.462Z" fill="#40C3FD"/>
<path d="M17.2662 227.952C11.7683 224.776 7.31152 217.053 7.31152 210.701C7.31152 204.35 11.7683 201.776 17.2662 204.951C22.7639 208.127 27.2205 215.85 27.2205 222.201C27.2205 228.553 22.7639 231.127 17.2662 227.952Z" fill="#88DAFF"/>
<path d="M9.89239 212.885L9.50854 212.22L12.1762 210.679L12.1784 210.681C13.1342 210.183 14.4269 210.285 15.8493 211.107C18.7917 212.806 21.1804 216.946 21.1804 220.345C21.1804 222.043 20.5832 223.238 19.6188 223.796L17.0196 225.297L16.6219 224.609C16.0928 224.507 15.5261 224.29 14.9383 223.951C13.1626 222.925 14.2168 219.839 13.2476 217.734C12.6111 216.352 9.60744 216.06 9.60744 214.713C9.60744 214.015 9.70762 213.404 9.89239 212.885Z" fill="#10243E"/>
<path d="M13.2473 224.93C10.303 223.229 7.91626 219.093 7.91626 215.691C7.91626 212.29 10.303 210.911 13.2473 212.612C16.1914 214.313 18.5784 218.449 18.5784 221.85C18.5784 225.251 16.1914 226.63 13.2473 224.93Z" fill="#10243E"/>
<path d="M11.1486 217.481C12.1122 216.931 13.3479 217.261 13.9062 218.225C14.4648 219.188 14.1367 220.427 13.1731 220.984L8.92182 223.442C8.29383 223.799 7.52572 223.799 6.90435 223.442C6.27615 223.077 5.89209 222.409 5.89209 221.686V188.905C5.89209 187.79 6.79242 186.881 7.90956 186.881C9.0267 186.881 9.93408 187.79 9.93408 188.905V218.19L11.1486 217.481Z" fill="#F2F3F7"/>
<path d="M7.90949 176.45C11.8635 176.45 15.0684 179.657 15.0684 183.612C15.0684 187.568 11.8635 190.774 7.90949 190.774C3.95593 190.774 0.750618 187.568 0.750618 183.612C0.750618 179.657 3.95593 176.45 7.90949 176.45Z" fill="#10243E"/>
<path d="M5.17356 179.182C6.04847 179.182 6.75806 179.892 6.75806 180.767C6.75806 181.643 6.04847 182.353 5.17356 182.353C4.29843 182.353 3.58884 181.643 3.58884 180.767C3.58884 179.892 4.29843 179.182 5.17356 179.182Z" fill="#E1E3EE"/>
<path d="M57.0573 221.343L71.9999 212.712L86.3297 220.989L71.3869 229.62L57.0573 221.343Z" fill="#88DAFF"/>
<path d="M71.3829 229.618L86.3252 220.987L86.3252 237.541L71.3828 246.172L71.3829 229.618Z" fill="#40C3FD"/>
<path d="M57.0524 221.339L71.3821 229.616L71.382 246.17L57.0523 237.893L57.0524 221.339Z" fill="#40C3FD"/>
<path d="M29.6552 174.708L47.0871 164.326C48.6179 163.441 51.2429 163.508 53.0878 164.445L54.8748 163.808V166.838L54.8602 166.844C54.7814 167.354 54.4294 167.831 53.795 168.198L29.0236 182.823C27.4201 183.746 24.6178 183.629 22.7668 182.561C21.856 182.037 21.3437 181.375 21.2508 180.732L21.2361 180.738V177.707L29.6552 174.708Z" fill="#E1E3EE"/>
<path d="M53.3463 161.877C51.495 160.808 48.6913 160.692 47.0884 161.617L22.318 176.24C20.7156 177.166 20.9166 178.785 22.7653 179.853C24.6166 180.923 27.4203 181.039 29.0232 180.113L53.7934 165.49C55.3964 164.564 55.1946 162.945 53.3463 161.877Z" fill="#F2F3F7"/>
<path d="M50.4422 163.63C49.484 163.076 47.6549 163.234 46.3605 163.982L26.2761 175.746C24.9819 176.493 24.7092 177.55 25.6663 178.103C26.6247 178.656 28.4538 178.499 29.7478 177.751L49.8322 165.987C51.1266 165.239 51.3994 164.183 50.4422 163.63Z" fill="#10243E"/>
<path d="M38.9417 172.366L33.9477 175.292L32.649 176.053L29.7483 177.751C29.7077 177.775 29.6671 177.799 29.6244 177.82C29.2891 177.999 28.9217 178.143 28.5457 178.243C27.7554 178.457 26.9266 178.493 26.2709 178.335C24.6197 176.984 23.2997 174.809 22.5115 171.868C20.1512 163.053 23.4684 150.659 29.9235 144.2C33.1446 140.978 36.543 139.843 39.4309 140.619C40.2789 140.843 41.082 141.234 41.8254 141.788C42.605 142.363 43.3163 143.117 43.9379 144.04C44.4249 144.76 44.8585 145.583 45.228 146.506C45.4566 147.073 45.6595 147.675 45.8368 148.316C45.8539 148.372 45.8688 148.43 45.8838 148.485C47.3085 153.806 39.4522 157.661 37.2991 163.498C36.3806 165.987 38.2347 169.505 38.9417 172.366Z" fill="#569FBE"/>
<path d="M44.2755 141.914L39.4331 140.617L39.431 140.619L38.5894 142.835L36.7054 147.78L32.1899 159.638L43.404 145.884L43.4638 145.812L43.4916 145.707L43.938 144.04L44.4912 141.974V141.972L44.2755 141.914ZM29.2849 167.992V167.988L27.3774 165.002L28.2917 175.352L28.5458 178.243C28.9218 178.143 29.2892 177.999 29.6245 177.82C29.6673 177.799 29.7078 177.775 29.7484 177.751L32.6491 176.053L33.9478 175.292L29.2849 167.992Z" fill="#569FBE"/>
<path d="M50.2179 165.733C50.1004 165.821 49.9722 165.906 49.8313 165.987L47.1847 167.539L44.9376 168.855L38.9418 172.366L33.9478 175.292L32.6491 176.053L29.7484 177.751C29.7078 177.775 29.6672 177.798 29.6245 177.82C29.1204 177.104 28.674 176.279 28.2916 175.352C28.0182 174.696 27.779 173.986 27.5761 173.225C25.2136 164.404 28.5309 152.018 34.9859 145.557C36.1757 144.367 37.3868 143.463 38.5894 142.835C39.6852 142.258 40.7724 141.912 41.8255 141.788C42.6692 141.687 43.4916 141.73 44.2755 141.914L44.4912 141.972V141.974C47.3855 142.743 49.7714 145.421 50.9527 149.838C52.2257 154.595 51.8498 160.39 50.2179 165.733Z" fill="#ABB3DB"/>
<path d="M49.3163 157.973C49.3142 158.072 49.3099 158.172 49.3035 158.271C49.3014 158.311 49.2992 158.354 49.2971 158.397C49.2928 158.493 49.2864 158.589 49.28 158.685C49.2693 158.869 49.2544 159.053 49.2373 159.236C49.2309 159.313 49.2245 159.39 49.2159 159.467C49.2074 159.568 49.1967 159.666 49.186 159.766C49.1753 159.867 49.1647 159.967 49.1518 160.068C49.1283 160.269 49.1027 160.47 49.0728 160.668C49.06 160.769 49.045 160.869 49.028 160.97C49.0173 161.049 49.0045 161.128 48.9916 161.205C48.9382 161.527 48.8806 161.85 48.8165 162.173C48.7973 162.273 48.7759 162.374 48.7545 162.474C48.6072 163.173 48.4341 163.869 48.2334 164.558C48.2056 164.656 48.1757 164.754 48.1458 164.853C48.118 164.949 48.0881 165.047 48.0561 165.145C48.0048 165.314 47.9493 165.481 47.8937 165.647C47.8126 165.891 47.7271 166.135 47.6374 166.378C47.5071 166.735 47.3704 167.09 47.2252 167.44C47.2102 167.475 47.1974 167.507 47.1846 167.539L44.9375 168.855L38.9417 172.366L33.9477 175.292L32.649 176.053C32.6425 176.046 32.634 176.04 32.6276 176.033C32.5721 175.984 32.5165 175.933 32.4631 175.882C32.3585 175.781 32.2559 175.676 32.1555 175.567C32.0957 175.503 32.0359 175.437 31.9782 175.369C31.9056 175.288 31.8351 175.202 31.7668 175.114C31.7048 175.035 31.6429 174.954 31.5809 174.871C31.5681 174.854 31.5553 174.837 31.5425 174.817C31.4827 174.734 31.4229 174.649 31.3652 174.561C31.3011 174.465 31.237 174.366 31.1751 174.264C31.1132 174.163 31.0512 174.061 30.9914 173.954C30.9359 173.856 30.8803 173.755 30.8248 173.653C30.8205 173.644 30.8184 173.638 30.8141 173.631C30.7586 173.52 30.7009 173.409 30.6475 173.294C30.5514 173.093 30.4574 172.883 30.3698 172.668L30.3057 172.507C30.2737 172.424 30.2417 172.341 30.2096 172.253C30.1562 172.11 30.105 171.962 30.0558 171.811C30.0174 171.697 29.9811 171.584 29.9469 171.467C29.8978 171.311 29.8529 171.152 29.8102 170.99C29.7781 170.87 29.7482 170.751 29.7183 170.631C29.6948 170.537 29.6735 170.439 29.6521 170.342C29.6329 170.261 29.6158 170.18 29.5987 170.099C29.556 169.896 29.5175 169.693 29.4812 169.49C29.462 169.377 29.4428 169.261 29.4257 169.146C29.4065 169.018 29.3872 168.891 29.3723 168.763C29.3552 168.635 29.3381 168.507 29.3253 168.379C29.3104 168.25 29.2975 168.122 29.2847 167.992V167.987C29.2719 167.849 29.2591 167.708 29.2505 167.569C29.2441 167.507 29.2399 167.445 29.2377 167.383C29.2292 167.24 29.2206 167.099 29.2142 166.955C29.2078 166.797 29.2014 166.641 29.1993 166.483C29.195 166.314 29.1929 166.143 29.1929 165.974C29.1929 159.7 31.7241 152.693 35.8039 148.611C36.0004 148.415 36.1969 148.229 36.3934 148.053C36.4511 148 36.5087 147.949 36.5664 147.9C36.6134 147.859 36.6583 147.818 36.7053 147.78C36.7394 147.752 36.7736 147.724 36.8056 147.697C36.8655 147.647 36.9253 147.598 36.9851 147.551C37.314 147.288 37.6451 147.051 37.9762 146.84C38.1065 146.756 38.2368 146.675 38.3671 146.6C38.3778 146.594 38.3906 146.587 38.4013 146.581C38.5145 146.515 38.6255 146.453 38.7387 146.395C39.2108 146.152 39.6786 145.957 40.1421 145.816C40.1998 145.797 40.2596 145.78 40.3194 145.763C40.3878 145.743 40.4582 145.726 40.5287 145.709C40.5928 145.692 40.6569 145.677 40.721 145.664C40.8491 145.637 40.9773 145.613 41.1055 145.594C41.1695 145.583 41.2315 145.575 41.2956 145.566C41.4216 145.551 41.5476 145.538 41.6736 145.532C41.7185 145.528 41.7612 145.525 41.8061 145.523C41.9513 145.519 42.0966 145.517 42.2418 145.521C42.3614 145.525 42.4789 145.534 42.5964 145.547C42.6519 145.551 42.7075 145.557 42.763 145.564H42.7651C42.8314 145.572 42.8954 145.581 42.9595 145.594C43.0193 145.602 43.0791 145.613 43.1368 145.626C43.1966 145.637 43.2564 145.649 43.3162 145.664C43.376 145.675 43.4337 145.69 43.4914 145.707C43.5021 145.709 43.5127 145.711 43.5213 145.716C43.5961 145.735 43.6687 145.756 43.7413 145.78C43.8203 145.803 43.8994 145.831 43.9784 145.861C44.0574 145.889 44.1343 145.919 44.2134 145.953C44.3543 146.011 44.491 146.077 44.6278 146.147C44.6897 146.179 44.7495 146.211 44.8114 146.248H44.8136C44.8755 146.282 44.9396 146.32 45.0016 146.359C45.0144 146.365 45.0272 146.374 45.04 146.382C45.1019 146.423 45.166 146.464 45.228 146.506C45.2771 146.538 45.3241 146.573 45.3711 146.607C45.4202 146.639 45.4672 146.675 45.5142 146.714C45.5462 146.739 45.5804 146.763 45.6125 146.791C45.6381 146.81 45.6637 146.831 45.6894 146.85C45.7235 146.88 45.7577 146.91 45.7919 146.938C45.8837 147.017 45.9734 147.098 46.0632 147.184C46.1956 147.312 46.3259 147.447 46.454 147.588C46.4968 147.635 46.5374 147.682 46.5801 147.731C46.6228 147.78 46.6655 147.829 46.704 147.88C46.7445 147.93 46.7851 147.981 46.8236 148.032C46.8642 148.086 46.9047 148.137 46.9432 148.19C46.9838 148.244 47.0222 148.297 47.0607 148.353C47.0949 148.402 47.129 148.451 47.1611 148.5C47.2038 148.562 47.2465 148.626 47.2871 148.692C47.3512 148.795 47.4153 148.898 47.4772 149.004C47.4943 149.032 47.5092 149.062 47.5263 149.09C47.5541 149.139 47.5819 149.186 47.6075 149.237C47.9642 149.885 48.2739 150.616 48.5281 151.426C48.558 151.515 48.5858 151.607 48.6136 151.701C48.6499 151.823 48.6841 151.947 48.7182 152.073C49.2052 153.894 49.3932 155.903 49.3163 157.973Z" fill="#569FBE"/>
<path d="M44.9375 168.855L38.9417 172.366L33.9477 175.292L32.649 176.053C32.6425 176.046 32.634 176.04 32.6276 176.033C32.5721 175.984 32.5165 175.933 32.4631 175.882C32.3585 175.781 32.2559 175.676 32.1555 175.567C32.0957 175.503 32.0359 175.437 31.9782 175.369C31.9056 175.288 31.8351 175.202 31.7668 175.114C31.7048 175.035 31.6429 174.954 31.5809 174.871C31.5681 174.854 31.5553 174.837 31.5425 174.817C31.4827 174.734 31.4229 174.649 31.3652 174.561C31.3011 174.465 31.237 174.366 31.1751 174.264C31.1132 174.163 31.0512 174.061 30.9914 173.954C30.9359 173.856 30.8803 173.755 30.8248 173.653C30.8205 173.644 30.8184 173.638 30.8141 173.631C30.7586 173.52 30.7009 173.409 30.6475 173.294C30.5492 173.093 30.4574 172.883 30.3698 172.668L30.3057 172.507C30.2737 172.424 30.2417 172.341 30.2096 172.253C30.1562 172.11 30.105 171.962 30.0558 171.811C30.0174 171.697 29.9811 171.584 29.9469 171.467C29.8978 171.311 29.8529 171.152 29.8102 170.99C29.7781 170.87 29.7482 170.751 29.7183 170.631C29.6948 170.537 29.6735 170.439 29.6521 170.342C29.6329 170.261 29.6158 170.18 29.5987 170.099C29.556 169.896 29.5175 169.693 29.4812 169.49C29.462 169.377 29.4428 169.261 29.4257 169.146C29.4065 169.018 29.3872 168.891 29.3723 168.763C29.3552 168.635 29.3381 168.507 29.3253 168.379C29.3104 168.25 29.2975 168.122 29.2847 167.992V167.987C29.2719 167.849 29.2591 167.708 29.2505 167.569C29.2441 167.507 29.2399 167.445 29.2377 167.383C29.2292 167.24 29.2206 167.099 29.2142 166.955C29.2078 166.797 29.2014 166.641 29.1993 166.483C29.195 166.314 29.1929 166.143 29.1929 165.974C29.1929 159.7 31.7241 152.693 35.8039 148.611C36.0004 148.415 36.1969 148.229 36.3934 148.053C36.4511 148 36.5087 147.949 36.5664 147.9C36.6134 147.859 36.6583 147.818 36.7053 147.78C36.7394 147.752 36.7736 147.724 36.8056 147.697C36.8655 147.647 36.9253 147.598 36.9851 147.551C37.314 147.288 37.6451 147.051 37.9762 146.84C38.1065 146.756 38.2368 146.675 38.3671 146.6C38.3778 146.594 38.3906 146.587 38.4013 146.581C38.5145 146.517 38.6277 146.455 38.7387 146.395C39.2108 146.152 39.6786 145.957 40.1421 145.816C40.1998 145.797 40.2596 145.78 40.3194 145.763C40.3878 145.743 40.4582 145.726 40.5287 145.709C40.5928 145.692 40.6569 145.677 40.721 145.664C40.8491 145.637 40.9773 145.613 41.1055 145.594C41.1695 145.583 41.2315 145.575 41.2956 145.566C41.4216 145.551 41.5476 145.538 41.6736 145.532C41.7185 145.528 41.7612 145.525 41.8061 145.523C41.9513 145.519 42.0966 145.517 42.2418 145.521C42.3614 145.525 42.4789 145.534 42.5964 145.547C42.6519 145.551 42.7075 145.557 42.763 145.564H42.7651C42.983 145.658 43.1945 145.763 43.4038 145.884C44.3266 146.419 45.1511 147.233 45.8367 148.316C46.422 149.244 46.9047 150.368 47.2572 151.682C48.6456 156.867 47.6096 163.57 44.9375 168.855Z" fill="#ABB3DB"/>
<path d="M47.9452 141.053C47.9452 141.053 48.8624 138.273 45.0734 135.519C41.2826 132.764 35.4299 134.042 33.0638 137.712C30.6967 141.38 34.1122 140.53 35.774 139.579C35.774 139.579 31.7634 142.191 34.2506 142.856C36.7378 143.522 38.5297 141.399 38.5297 141.399C38.5297 141.399 35.3461 145.196 37.8301 144.821C40.3143 144.446 42.3912 143.228 42.3912 143.228C42.3912 143.228 40.5125 145.178 42.4533 145.295C44.3922 145.41 46.0709 144.943 47.9452 141.053Z" fill="#88DAFF"/>
<path d="M-1.68237 109.577C-1.68237 95.7455 9.52511 84.5328 23.3503 84.5328C37.1753 84.5328 48.3825 95.7455 48.3825 109.577C48.3825 123.409 37.1753 134.621 23.3503 134.621C9.52511 134.621 -1.68237 123.409 -1.68237 109.577Z" fill="#4B61DC"/>
<path d="M54.4382 107.291C55.2794 107.742 55.8046 108.621 55.8046 109.576C55.8046 110.53 55.2794 111.41 54.4382 111.861C48.2252 115.197 37.4043 121.005 37.4043 121.005V98.143C37.4043 98.143 48.2252 103.955 54.4382 107.291Z" fill="#4B61DC"/>
<path d="M23.3509 101.677C27.7103 101.677 31.2512 105.219 31.2512 109.58C31.2512 113.944 27.7103 117.487 23.3509 117.487C18.989 117.487 15.4483 113.944 15.4483 109.58C15.4483 105.219 18.989 101.677 23.3509 101.677ZM25.4711 95.0725C24.0642 94.868 22.6352 94.868 21.2282 95.0725L20.7931 98.545C19.5768 98.8279 18.4167 99.3083 17.3579 99.9682L14.5958 97.8222C13.456 98.6708 12.4463 99.6831 11.5958 100.823L13.7431 103.587C13.0812 104.646 12.601 105.807 12.3205 107.024L8.84949 107.459C8.64294 108.867 8.64294 110.297 8.84949 111.704L12.3205 112.14C12.601 113.354 13.0812 114.517 13.7431 115.574L11.5958 118.337C12.4463 119.48 13.456 120.49 14.5958 121.341L17.3579 119.193C18.4167 119.852 19.5768 120.335 20.7931 120.616L21.2282 124.088C22.6352 124.295 24.0642 124.295 25.4711 124.088L25.9065 120.616C27.1225 120.335 28.2826 119.852 29.3416 119.193L32.1037 121.341C33.2435 120.49 34.2534 119.48 35.1035 118.337L32.9562 115.574C33.6181 114.517 34.0983 113.354 34.3788 112.14L37.8498 111.704C38.0564 110.297 38.0564 108.867 37.8498 107.459L34.3788 107.024C34.0983 105.807 33.6181 104.646 32.9562 103.587L35.1035 100.823C34.2534 99.6831 33.2435 98.6708 32.1037 97.8222L29.3416 99.9682C28.2826 99.3083 27.1225 98.8279 25.9065 98.545L25.4711 95.0725Z" fill="#F2F3F7"/>
<path d="M23.2464 113.161C22.6946 113.161 22.1636 113.086 21.6574 112.938C21.1511 112.79 20.7436 112.596 20.4307 112.358L20.9741 111.151C21.2705 111.365 21.6245 111.538 22.0278 111.67C22.4315 111.806 22.8429 111.876 23.2585 111.876C23.5755 111.876 23.8308 111.843 24.0243 111.781C24.2178 111.719 24.3618 111.633 24.4524 111.517C24.5468 111.406 24.5921 111.279 24.5921 111.135C24.5921 110.949 24.5182 110.801 24.3742 110.694C24.23 110.587 24.0365 110.496 23.8022 110.426C23.5629 110.356 23.304 110.29 23.0157 110.228C22.7275 110.167 22.4436 110.089 22.1557 109.998C21.8714 109.903 21.608 109.784 21.3692 109.639C21.1347 109.495 20.9412 109.306 20.7931 109.067C20.6447 108.833 20.5708 108.528 20.5708 108.157C20.5708 107.762 20.6778 107.404 20.8918 107.078C21.1056 106.749 21.4269 106.489 21.8592 106.296C22.2911 106.102 22.8348 106.003 23.4852 106.003C23.9211 106.003 24.3494 106.057 24.7691 106.156C25.1889 106.259 25.5637 106.411 25.8848 106.617L25.3909 107.832C25.0699 107.646 24.7446 107.511 24.4235 107.42C24.1025 107.333 23.7855 107.288 23.4766 107.288C23.1637 107.288 22.9129 107.325 22.7154 107.399C22.5178 107.47 22.3738 107.564 22.2911 107.679C22.2048 107.795 22.1598 107.926 22.1598 108.079C22.1598 108.256 22.2339 108.4 22.3779 108.511C22.5218 108.618 22.7154 108.705 22.9499 108.771C23.1887 108.837 23.4521 108.902 23.7359 108.968C24.0243 109.034 24.3082 109.112 24.5963 109.195C24.8843 109.281 25.1438 109.397 25.3824 109.541C25.6171 109.685 25.8107 109.878 25.9589 110.113C26.1071 110.352 26.1813 110.653 26.1813 111.015C26.1813 111.402 26.0742 111.76 25.8557 112.082C25.6376 112.407 25.3125 112.666 24.8843 112.864C24.4524 113.062 23.9049 113.161 23.2464 113.161ZM22.8922 104.937H23.8799V114.227H22.8922V104.937Z" fill="#F2F3F7"/>
<circle cx="194" cy="202.713" r="3.71287" fill="white"/>
<circle cx="206.129" cy="202.465" r="2.9703" fill="#AED7E0"/>
<circle cx="216.772" cy="202.218" r="2.22772" fill="#65ACBC"/>
<circle cx="181.871" cy="202.465" r="2.9703" fill="#AED7E0"/>
<circle cx="171.228" cy="202.218" r="2.22772" fill="#65ACBC"/>
</svg>
