<svg width="369" height="300" viewBox="0 0 369 300" fill="none" xmlns="http://www.w3.org/2000/svg">
<path d="M165.81 6.29628C23.0795 8.64397 -4.62927 165.744 -0.642396 244H370.137V6.29628C361.499 5.31808 308.54 3.94859 165.81 6.29628Z" fill="#0085A1"/>
<path d="M225.27 32.7704C256.946 11.8469 301.459 16.1118 329.462 47.1689C344.773 64.1555 350.992 87.5213 366.884 104.143C384.777 122.843 406.161 141.033 414.271 166.549C422.89 193.669 415.326 224.763 396.051 245.504C372.594 270.729 338.118 263.147 305.533 262.746C172.1 261.069 72.9264 171.798 199.121 61.7497C209.668 52.4909 214.796 39.6598 225.27 32.7704Z" fill="#CCE9FF"/>
<path d="M360.484 153.572C360.484 153.572 367.866 205.881 364.448 216.999C361.029 228.117 359.684 238.141 359.684 238.141L342.518 233.111C342.518 233.111 348.192 206.938 349.064 201.908C349.901 196.877 341.136 156.015 341.136 156.015L360.484 153.572Z" fill="#00343F"/>
<path d="M352.374 157.327L344.264 241.422H327.862C327.862 241.422 333.172 152.406 332.226 151.64C331.281 150.948 352.374 157.327 352.374 157.327ZM358.847 106.075C358.847 106.075 360.593 134.289 364.339 133.269C368.121 132.284 378.231 124.921 378.231 124.921L384.377 131.701C384.377 131.701 365.648 152.588 357.938 144.058C350.265 135.492 358.847 106.075 358.847 106.075ZM353.792 255.492L354.92 249.806L342.955 244.994L341.064 253.451L341.718 253.56C344.409 254.799 357.465 260.851 359.502 261.033C361.757 261.251 353.792 255.492 353.792 255.492Z" fill="#00343F"/>
<path d="M325.353 172.71L326.662 174.605C326.662 174.605 327.28 175.881 328.808 177.813C329.208 178.323 329.681 178.761 330.226 179.089C330.881 179.49 331.79 180 332.372 180.146C333.099 180.292 333.245 181.239 332.626 181.531C332.008 181.786 330.044 181.422 328.153 179.964C326.262 178.542 327.135 182.151 327.462 183.499C327.753 184.812 328.48 188.967 328.153 189.405C327.68 190.024 326.917 189.587 326.662 188.275C326.408 186.926 325.316 182.989 324.626 183.208C323.935 183.39 325.535 190.134 325.535 190.134C325.535 190.134 326.117 191.519 325.316 191.774C323.898 192.211 322.698 184.921 322.625 184.228C322.553 183.755 321.789 183.937 321.898 184.447C322.007 184.994 323.644 191.118 322.225 191.592C321.098 191.956 321.207 185.614 320.152 184.52C319.098 183.426 320.589 189.332 319.498 189.623C319.098 189.733 318.77 189.769 318.407 186.233C318.043 182.625 318.625 172.746 318.625 172.746L325.462 172.819" fill="#FFE3CA"/>
<path d="M349.101 96.5978C348.955 95.4678 349.537 90.7655 349.537 90.7655C349.537 90.7655 353.829 90.4375 354.229 86.209C354.629 81.9441 354.665 72.1021 354.665 72.1021L346.991 68.0195L338.191 74.2528L336.19 78.9186L338.809 90.0365V95.6136L349.101 96.5978Z" fill="#DBA17B"/>
<path d="M349.537 90.7655C349.537 90.7655 346.664 90.6926 343.973 88.6877C343.973 88.6877 345.137 91.8591 349.428 91.8226L349.537 90.7655Z" fill="#C68C6B"/>
<path d="M336.336 83.5845C337.5 86.1726 338.19 89.9636 338.19 89.9636C338.809 91.13 339.027 87.4119 339.027 87.4119C339.027 87.4119 339.572 83.8396 339.063 82.4545C339.063 82.4545 336.881 83.1471 336.409 79.2467C336.154 77.3147 339.063 76.4034 339.863 78.7364L341.682 78.9186C341.682 78.9186 341.827 71.6282 346.009 72.9769C346.009 72.9769 349.028 74.836 350.846 73.706C352.665 72.576 352.519 72.175 352.519 72.175C352.519 72.175 353.392 74.107 355.72 72.8311C358.047 71.5553 358.338 69.3317 357.538 68.2746C357.065 67.655 356.629 66.9624 355.865 66.8166C355.101 66.6707 354.265 66.9988 353.792 67.582C354.374 66.7436 353.974 65.5043 353.101 64.9211C352.265 64.3743 351.137 64.4107 350.192 64.7752C349.246 65.1398 348.446 65.7959 347.682 66.452C347.137 64.9211 345.5 63.8275 343.9 63.9733C342.264 64.1191 340.845 65.4314 340.554 67.0353C339.682 65.9417 338.009 65.6865 336.736 66.3062C335.463 66.9259 334.663 68.2382 334.408 69.6234C334.154 71.0085 334.445 72.4302 334.99 73.7424C334.008 73.1957 332.663 73.5966 332.008 74.5079C331.353 75.4192 331.353 76.695 331.826 77.7157C332.299 78.7364 333.208 79.5019 334.19 80.0122C333.463 80.5954 333.208 81.7619 333.681 82.6003C334.154 83.4387 335.245 83.8761 336.118 83.548" fill="#0E538C"/>
<path d="M321.643 107.789C321.643 107.789 324.589 94.192 338.809 95.6136L351.828 96.9259C351.828 96.9259 360.775 100.717 359.502 111.397C358.265 122.078 357.647 131.847 357.974 133.706C358.302 135.601 361.429 152.406 360.484 153.572C351.101 165.018 327.135 146.756 327.135 146.756L321.643 107.789Z" fill="#FFBE55"/>
<path d="M338.809 95.6136L335.499 175.043L325.644 169.684L326.662 99.2224C326.662 99.2224 329.317 94.6659 338.809 95.6136Z" fill="#0E538C"/>
<path d="M318.261 174.131L321.643 107.752C322.698 103.669 324.953 100.535 327.862 97.9101V175.006L318.261 174.131ZM349.101 96.5978C349.101 96.5978 357.974 101.008 357.574 115.917C357.138 130.826 362.92 172.965 362.92 172.965L370.339 171.47C370.339 171.47 361.757 131.519 361.393 124.52C361.029 117.375 361.648 107.278 356.847 100.316C353.392 95.322 349.101 96.5978 349.101 96.5978Z" fill="#0E538C"/>
<path d="M338.809 95.6136C338.809 95.6136 335.899 102.175 336.19 104.544C336.481 106.95 337.5 111.981 337.5 111.981C337.5 111.981 335.354 113.293 335.536 114.423C335.681 115.553 337.39 133.414 337.39 133.414L338.809 95.6136ZM327.862 175.043C328.771 159.004 328.553 127.874 329.462 111.798L327.862 175.043Z" fill="#00343F"/>
<path d="M353.865 249.405C353.719 249.332 356.883 237.339 356.883 237.339L346.373 234.277L344.155 245.504L353.865 249.405ZM329.644 241.458H341.609V250.863H329.644V241.458Z" fill="#DBA17B"/>
<path d="M342.773 255.966L341.682 250.279H328.771L330.117 258.663L330.808 258.7C333.754 258.846 348.119 259.611 350.083 259.028C352.337 258.335 342.773 255.966 342.773 255.966Z" fill="#00343F"/>
<path d="M241.671 71.4459L244.726 81.7254C244.872 82.1993 245.017 82.6731 244.981 83.147C244.944 84.6051 243.599 85.7351 242.181 85.9903C240.762 86.2454 239.307 85.8809 237.926 85.4799C237.562 86.938 235.816 87.5577 234.325 87.8493C227.706 89.0887 220.687 88.2138 214.578 85.3706C217.196 81.5796 219.342 77.497 220.942 73.1592C226.142 73.3779 231.343 73.633 236.544 73.8518C237.453 73.8882 238.398 73.9247 239.271 73.633C240.144 73.305 240.908 72.5759 240.98 71.6646" fill="#0E538C"/>
<path d="M181.301 116.537L179.774 114.751C179.774 114.751 178.683 113.84 177.119 111.798C176.719 111.288 176.428 110.668 176.21 110.049C175.955 109.283 175.664 108.262 175.701 107.643C175.737 106.877 174.828 106.513 174.392 107.06C173.955 107.606 173.882 109.684 174.828 111.908C175.774 114.131 172.391 112.382 171.155 111.725C169.918 111.106 165.991 109.356 165.482 109.575C164.754 109.903 164.972 110.741 166.245 111.361C167.518 111.981 171.118 114.022 170.791 114.642C170.428 115.261 164.172 112.017 164.172 112.017C164.172 112.017 162.936 111.106 162.499 111.835C161.699 113.147 168.646 116.136 169.3 116.391C169.773 116.574 169.409 117.303 168.9 117.047C168.391 116.829 162.718 113.657 161.881 114.97C161.263 115.99 167.554 117.485 168.355 118.797C169.155 120.109 163.7 117.193 163.118 118.177C162.899 118.542 162.79 118.87 166.209 120.073C169.664 121.312 179.628 123.208 179.628 123.208L181.229 116.355" fill="#FF957E"/>
<path d="M209.414 100.352C209.414 100.352 203.74 116.792 201.995 116.938C190.03 118.032 177.01 112.855 177.01 112.855L173.737 122.114C173.737 122.114 207.632 137.315 214.905 122.661C222.651 107.132 222.251 104.69 222.251 104.69L209.414 100.352Z" fill="#FCD2B1"/>
<path d="M210.177 193.305C216.25 221.264 256.182 247.254 256.182 247.254L262.983 238.906C262.983 238.906 230.87 210.219 229.525 197.461C228.143 184.702 238.798 164.69 238.798 164.69L227.743 159.988L210.177 193.305Z" fill="#00343F"/>
<path d="M223.669 91.4945C223.851 90.328 223.415 85.5164 223.415 85.5164C223.415 85.5164 219.014 85.0425 218.76 80.6683C218.505 76.294 218.76 66.2333 218.76 66.2333L226.761 62.2964L235.562 68.9672L234.216 90.8019L223.669 91.4945Z" fill="#FFE3CA"/>
<path d="M234.943 72.3937C234.943 72.3937 227.743 71.7011 226.506 65.1762L218.724 72.3937C218.724 72.3937 216.36 67.5456 220.687 63.062C225.015 58.5784 227.961 59.4897 229.67 59.4897C231.234 59.4897 239.235 61.2029 241.599 70.2795C241.781 70.9356 241.926 72.576 242.035 73.305L234.943 72.3937Z" fill="#0E538C"/>
<path d="M223.451 85.5528C223.451 85.5528 226.397 85.5893 229.234 83.5844C229.234 83.5844 227.924 86.7922 223.56 86.61L223.451 85.5528Z" fill="#FCD2B1"/>
<path d="M214.396 140.741C214.396 142.309 214.941 144.459 214.941 144.459L245.854 153.39C245.854 153.39 248.072 139.392 242.435 131.592C239.853 128.019 240.435 122.989 241.49 118.688L245.126 103.998L240.253 90.1823L220.796 91.4945C220.796 91.4945 209.523 90.3645 205.595 105.31L212.832 116.209L212.905 120.328L214.396 140.741Z" fill="#FFBE55"/>
<path d="M244.544 135.273C244.872 135.273 250.472 147.849 245.417 155.322C244.944 156.015 243.781 157.728 242.217 160.17C234.725 171.689 217.633 198.773 217.051 202.746C216.36 207.558 202.54 258.044 202.54 258.044L192.248 256.403L200.649 199.137L214.396 140.741L244.544 135.273ZM226.688 64.6659C226.688 64.6659 225.088 67.7643 225.779 70.0972L218.796 71.9198C218.796 71.8834 217.196 63.0255 226.688 64.6659ZM241.671 72.6489C241.671 72.6489 242.471 82.7096 234.725 84.4958L235.234 72.3572L241.671 72.6489Z" fill="#0E538C"/>
<path d="M209.959 119.526L192.612 126.853L164.209 127.473L150.389 103.961L179.592 101.993L192.248 124.739L209.85 117.886L209.959 119.526Z" fill="#FFBE55"/>
<path d="M206.831 102.248L201.958 114.168L212.868 119.599L213.887 109.174L206.831 102.248Z" fill="#FFBE55"/>
<path d="M227.852 89.3074L223.888 91.0206L224.688 99.0401L229.706 90.0364L227.852 89.3074Z" fill="#FFE3CA"/>
<path d="M191.302 256.403C191.302 256.403 182.247 258.809 184.502 259.502C186.757 260.194 202.431 258.481 202.431 258.481L202.94 256.695L191.302 256.403Z" fill="#0E538C"/>
<path d="M202.431 258.481L205.631 249.842H191.739L191.302 256.403L202.431 258.481Z" fill="#0E538C"/>
<path d="M256.291 247.837C256.291 247.837 254 256.95 255.709 255.31C257.382 253.67 263.565 239.125 263.565 239.125L262.255 237.813L256.291 247.837Z" fill="#00343F"/>
<path d="M263.528 239.125L257.528 232.126L250.8 244.265L256.291 247.837L263.528 239.125Z" fill="#00343F"/>
<path d="M236.071 77.8979C236.034 77.1689 236.034 76.4034 236.289 75.7473C236.544 75.0547 237.125 74.4714 237.853 74.3985C238.689 74.3256 239.489 75.0182 239.635 75.8202C239.78 76.6586 239.271 77.4969 238.544 77.9344C237.816 78.3353 236.907 78.3353 236.107 78.0073" fill="#FFE3CA"/>
<path d="M231.125 141.324C231.125 141.324 230.725 100.972 232.143 97.9101C232.143 97.9101 233.634 90.3281 239.417 90.1823L236.835 90.401C236.835 90.401 231.598 90.0364 230.07 100.352C228.579 110.668 228.652 141.652 228.652 141.652L231.125 141.324ZM219.924 142.746C219.924 142.746 218.36 96.3791 219.596 91.4945H218.033C218.033 91.4945 216.651 95.4678 216.905 106.586C217.087 113.256 216.905 142.746 216.905 142.746H219.924Z" fill="#0E538C"/>
<path d="M201.485 122.187C201.485 122.187 193.921 126.999 192.248 126.962C190.611 126.926 185.847 126.817 186.356 127.473C186.866 128.129 192.248 129.04 192.248 129.04L201.485 122.187Z" fill="#FFE3CA"/>
<path d="M202.031 132.321C202.031 132.321 237.853 141.981 242.762 126.379C247.963 109.83 248.036 114.131 248.036 114.131L236.798 103.269C236.798 103.269 230.761 122.369 229.052 122.807C219.633 125.213 208.941 123.682 205.158 122.989C204.722 122.625 204.249 122.224 203.667 121.677C203.195 121.239 202.795 120.693 202.504 120.109C202.14 119.38 201.704 118.433 201.631 117.813C201.522 117.047 200.576 116.829 200.249 117.412C199.922 117.995 200.14 120.073 201.449 122.114C201.449 122.114 192.903 127.618 192.212 128.931L202.031 132.321Z" fill="#FFE3CA"/>
<path d="M240.253 90.1823C240.253 90.1823 248.436 91.7497 248.763 104.654C249.09 117.558 243.89 127.436 243.89 127.436L229.997 120.182L240.253 90.1823Z" fill="#FFBE55"/>
<path d="M311.606 217.546H274.075C272.329 217.546 270.911 216.124 270.911 214.374C270.911 212.625 272.329 211.203 274.075 211.203H311.57C313.315 211.203 314.734 212.625 314.734 214.374C314.77 216.124 313.352 217.546 311.606 217.546Z" fill="#D3D3D3"/>
<path d="M285.068 257.617V254.409H317.362V257.617H285.068Z" fill="#00343F"/>
<path d="M288.04 256.987C288.331 258.663 287.203 260.231 285.53 260.486C283.858 260.778 282.294 259.648 282.039 257.971C281.748 256.294 282.876 254.727 284.549 254.471C286.221 254.18 287.785 255.31 288.04 256.987ZM299.459 215.468H302.659V255.711H299.459V215.468ZM320.334 256.987C320.625 258.663 319.498 260.231 317.825 260.486C316.152 260.778 314.588 259.648 314.333 257.971C314.043 256.294 315.17 254.727 316.843 254.471C318.516 254.18 320.08 255.31 320.334 256.987Z" fill="#00343F"/>
<path d="M321.425 217.546H286.003C283.603 217.546 281.857 215.176 282.548 212.807L299.459 154.338C299.896 152.77 301.314 151.677 302.914 151.677H338.336C340.736 151.677 342.482 154.046 341.791 156.416L324.88 214.885C324.444 216.488 323.025 217.546 321.425 217.546Z" fill="#D3D3D3"/>
<path d="M316.552 217.546H285.676C283.276 217.546 281.53 215.176 282.221 212.807L299.132 154.338C299.568 152.77 300.987 151.677 302.587 151.677H333.463C335.863 151.677 337.609 154.046 336.918 156.416L320.007 214.885C319.57 216.488 318.152 217.546 316.552 217.546Z" fill="#F2F2F2"/>
<path d="M321.425 217.546H283.894C282.148 217.546 280.73 216.124 280.73 214.374C280.73 212.625 282.148 211.203 283.894 211.203H321.389C323.134 211.203 324.553 212.625 324.553 214.374C324.589 216.124 323.171 217.546 321.425 217.546Z" fill="#D3D3D3"/>
<path d="M290.404 167.898L282.076 190.097L284.039 194.435L295.277 192.467L298.477 168.736L290.404 167.898Z" fill="#FCD2B1"/>
<path d="M295.459 157.108C295.459 157.108 288.876 160.571 287.422 171.944L296.113 176.719L295.459 157.108Z" fill="#2A94F4"/>
<path d="M306.078 152.77L295.713 157.145L287.531 193.633L314.879 204.423L329.462 162.795C329.462 162.795 327.098 154.119 313.424 151.896L306.078 152.77Z" fill="#2A94F4"/>
<path d="M333.717 195.601C333.717 195.128 333.426 192.248 333.281 191.774L328.771 162.868C327.899 158.894 323.462 156.889 319.934 158.858C317.316 160.316 316.152 163.414 317.17 166.221L322.516 191.045L333.717 195.601Z" fill="#FFE3CA"/>
<path d="M327.571 189.441L297.059 187.072L295.531 192.467L324.916 202.418C329.426 203.949 334.045 200.377 333.717 195.601C333.499 192.321 330.881 189.696 327.571 189.441Z" fill="#FFE3CA"/>
<path d="M325.716 157.983C325.716 157.983 329.608 159.66 331.281 169.793L317.534 174.022C317.534 174.022 308.551 163.925 318.152 157.181L325.716 157.983Z" fill="#2A94F4"/>
<path d="M287.494 192.795C288.622 195.784 294.259 195.93 297.277 194.8C300.259 193.669 303.35 191.956 302.223 188.931C301.096 185.942 296.113 184.156 292.84 184.885C288.876 185.796 286.367 189.769 287.494 192.795Z" fill="#FFE3CA"/>
<path d="M304.114 196.877L282.33 194.07L282.658 191.592L304.442 194.399C305.133 194.471 305.605 195.091 305.496 195.784C305.387 196.476 304.769 196.95 304.114 196.877Z" fill="#F2F2F2"/>
<path d="M285.203 194.435L256.327 190.717C254.655 190.498 253.345 189.222 253.127 187.546L250.109 166.549C249.854 164.69 251.418 163.086 253.273 163.341L279.784 166.768C280.912 166.914 281.785 167.789 281.93 168.882L285.203 194.435Z" fill="#F2F2F2"/>
<path d="M250.691 249.878L243.199 252.977L238.471 253.341C236.289 253.487 234.471 255.091 234.034 257.205L233.816 258.19L259.491 261.397L260.001 251.045L250.691 249.878Z" fill="#00343F"/>
<path d="M260 251.045L262.51 239.781L253.236 238.505L250.69 249.878L260 251.045Z" fill="#FFE3CA"/>
<path d="M314.879 204.423C314.879 204.423 314.152 210.656 302.987 211.495H276.148L263.492 246.889L250.181 244.739L263.492 192.758L294.004 196.148L314.879 204.423Z" fill="#00343F"/>
<path d="M229.197 229.538L221.16 228.335L216.905 226.185C214.941 225.201 212.577 225.638 211.086 227.205L210.395 227.934L230.761 243.9L236.507 235.298L229.197 229.538Z" fill="#0E538C"/>
<path d="M236.58 235.334L243.563 226.44L236.216 220.571L229.197 229.538L236.58 235.334Z" fill="#FFE3CA"/>
<path d="M287.531 193.633L266.838 187.436C265.965 187.181 265.128 186.853 264.255 186.561C262.473 185.869 257.964 184.921 254.473 190.279C249.999 197.169 232.07 223.05 232.07 223.05L243.017 231.142L266.91 200.632C268.911 197.861 272.111 196.221 275.529 196.221L294.004 196.185L287.531 193.633Z" fill="#0E538C"/>
<path d="M314.152 141.397C314.515 140.705 320.916 129.259 315.061 126.379C315.061 126.379 314.297 120.328 307.569 120.984C300.841 121.64 302.66 123.609 298.368 122.625C294.077 121.64 290.04 123.864 290.367 127.473C290.695 131.081 293.422 132.612 298.368 131.738C303.314 130.863 307.242 131.519 307.242 131.519L311.388 132.722L314.152 141.397Z" fill="#FFBE55"/>
<path d="M314.952 153.791L314.443 139.247L304.405 142.819L305.205 154.484C305.387 157.181 306.878 159.295 309.569 159.113L310.406 159.077C313.097 158.821 315.134 156.488 314.952 153.791Z" fill="#FFE3CA"/>
<path d="M313.57 141.252C313.57 141.252 315.461 153.39 305.133 154.083L304.66 148.323L313.57 141.252Z" fill="#FCD2B1"/>
<path d="M305.06 151.385H305.423C310.588 151.13 314.552 146.756 314.297 141.58L313.788 131.009C313.715 129.66 312.588 128.639 311.242 128.712L298.95 129.295C296.586 129.405 294.731 131.446 294.841 133.815L295.241 142.454C295.531 147.631 299.896 151.604 305.06 151.385Z" fill="#FFE3CA"/>
<path d="M311.933 138.408C312.006 140.158 313.497 141.507 315.243 141.397C316.988 141.324 318.334 139.83 318.225 138.08C318.152 136.331 316.661 134.982 314.915 135.091C313.206 135.164 311.861 136.659 311.933 138.408Z" fill="#FFE3CA"/>
<path d="M310.442 129.951L311.06 141.725C311.133 142.782 310.697 143.876 309.788 144.459C309.242 144.86 308.806 145.371 307.824 145.225C305.023 144.824 306.333 142.746 300.623 143.038C295.422 143.329 295.822 146.209 295.822 146.209C295.822 146.209 296.841 151.713 303.969 151.968C311.097 152.224 314.661 147.704 313.824 141.689L313.133 129.259L310.442 129.951Z" fill="#FFBE55"/>
<path d="M295.204 131.956C295.204 131.956 298.514 132.467 303.351 131.3C308.151 130.097 311.97 133.998 311.97 133.998C311.97 133.998 312.988 135.784 313.242 135.747C313.497 135.711 314.952 135.128 314.952 135.128L314.879 129.696L311.351 126.926L301.569 126.525L295.786 127.801L295.204 131.956Z" fill="#FFBE55"/>
<path d="M36.267 129.657H46.0109V132.551H39.1782V135.975H44.5192V138.893H39.1782V146.007H36.267V129.657Z" fill="white"/>
<path d="M48.179 129.706H51.0661V146.007H48.179V129.706Z" fill="white"/>
<path d="M63.8267 129.947H66.6897V146.007L57.6676 136.94V146.007H54.8046V129.947L63.8267 138.676V129.947Z" fill="white"/>
<path d="M74.5188 139.665H77.069L75.7939 136.554L74.5188 139.665ZM68.7447 146.007L75.7939 128.982L82.9153 146.007H79.7396L78.272 142.511H73.2918L71.8483 146.007H68.7447Z" fill="white"/>
<path d="M93.8063 129.947H96.6693V146.007L87.6472 136.94V146.007H84.7842V129.947L93.8063 138.676V129.947Z" fill="white"/>
<path d="M113.593 143.499C112.727 144.319 111.804 144.946 110.826 145.38C109.847 145.798 108.821 146.007 107.746 146.007C106.608 146.007 105.541 145.798 104.547 145.38C103.552 144.962 102.686 144.384 101.948 143.644C101.21 142.904 100.625 142.036 100.192 141.04C99.7748 140.043 99.5663 138.974 99.5663 137.832C99.5663 136.691 99.7748 135.622 100.192 134.625C100.625 133.628 101.21 132.768 101.948 132.045C102.702 131.305 103.576 130.727 104.571 130.309C105.565 129.874 106.632 129.657 107.77 129.657C108.845 129.657 109.872 129.874 110.85 130.309C111.828 130.727 112.743 131.345 113.593 132.165L111.5 134.167C110.938 133.652 110.337 133.259 109.695 132.985C109.054 132.696 108.412 132.551 107.77 132.551C107.049 132.551 106.359 132.688 105.701 132.961C105.06 133.234 104.498 133.612 104.017 134.095C103.536 134.577 103.151 135.14 102.862 135.783C102.59 136.426 102.453 137.109 102.453 137.832C102.453 138.572 102.59 139.263 102.862 139.906C103.135 140.549 103.512 141.112 103.993 141.594C104.474 142.06 105.036 142.43 105.677 142.704C106.319 142.977 107.009 143.113 107.746 143.113C108.388 143.113 109.029 142.977 109.671 142.704C110.329 142.414 110.938 142.012 111.5 141.498L113.593 143.499Z" fill="white"/>
<path d="M118.897 143.113H125.705V146.007H115.986V129.657H125.705V132.551H118.897V135.975H124.214V138.893H118.897V143.113Z" fill="white"/>
<path d="M38.1784 122.991H42.5945V125.242H35.9142V112.525H38.1784V122.991Z" fill="white"/>
<path d="M46.6209 122.991H51.9166V125.242H44.3567V112.525H51.9166V114.776H46.6209V117.439H50.7564V119.709H46.6209V122.991Z" fill="white"/>
<path d="M57.4971 120.309H59.4806L58.4889 117.889L57.4971 120.309ZM53.0061 125.242L58.4889 112L64.0278 125.242H61.5577L60.4163 122.522H56.5428L55.42 125.242H53.0061Z" fill="white"/>
<path d="M67.7081 118.415C67.7705 118.415 67.8329 118.421 67.8952 118.433C67.9576 118.433 68.02 118.433 68.0824 118.433C68.2944 118.446 68.5065 118.458 68.7186 118.471C68.9431 118.471 69.1677 118.471 69.3922 118.471C69.991 118.471 70.4651 118.327 70.8144 118.039C71.1762 117.752 71.357 117.295 71.357 116.67C71.357 116.07 71.1762 115.601 70.8144 115.264C70.4651 114.926 69.991 114.757 69.3922 114.757H67.7081V118.415ZM69.3922 112.525C70.0035 112.525 70.5649 112.619 71.0764 112.807C71.6003 112.994 72.0494 113.263 72.4237 113.613C72.7979 113.951 73.0911 114.376 73.3031 114.888C73.5152 115.389 73.6213 115.958 73.6213 116.595C73.6213 117.746 73.3655 118.658 72.854 119.334C72.3426 120.009 71.5566 120.434 70.4963 120.609L74.0329 125.242H71.357L67.8952 120.703H67.7081V125.242H65.4813V112.525H69.3922Z" fill="white"/>
<path d="M83.0791 112.75H85.3059V125.242L78.2887 118.189V125.242H76.0619V112.75L83.0791 119.54V112.75Z" fill="white"/>
<path d="M95.4122 122.991H99.8284V125.242H93.148V112.525H95.4122V122.991Z" fill="white"/>
<path d="M101.591 112.563H103.836V125.242H101.591V112.563Z" fill="white"/>
<path d="M113.098 112.506H115.568L110.534 125.767L105.407 112.525L107.952 112.488L110.572 119.371L113.098 112.506Z" fill="white"/>
<path d="M119.497 122.991H124.793V125.242H117.233V112.525H124.793V114.776H119.497V117.439H123.633V119.709H119.497V122.991Z" fill="white"/>
<path d="M49.1365 106L47.084 98.7273H48.5009L49.8113 104.072H49.8787L51.2779 98.7273H52.5669L53.9696 104.075H54.0336L55.3439 98.7273H56.7608L54.7083 106H53.4086L51.9526 100.897H51.8958L50.4363 106H49.1365ZM57.6744 106V98.7273H62.4045V99.8317H58.9918V101.806H62.1594V102.911H58.9918V104.896H62.4329V106H57.6744ZM63.7486 106V98.7273H65.0661V104.896H68.2692V106H63.7486ZM75.3546 101.181H74.0265C73.9886 100.963 73.9187 100.77 73.8169 100.602C73.7151 100.432 73.5885 100.287 73.437 100.169C73.2855 100.051 73.1126 99.9619 72.9185 99.9027C72.7267 99.8411 72.5196 99.8104 72.2971 99.8104C71.9017 99.8104 71.5513 99.9098 71.2459 100.109C70.9405 100.305 70.7014 100.594 70.5286 100.975C70.3558 101.354 70.2694 101.817 70.2694 102.364C70.2694 102.92 70.3558 103.389 70.5286 103.77C70.7038 104.149 70.9429 104.435 71.2459 104.629C71.5513 104.821 71.9005 104.917 72.2935 104.917C72.5113 104.917 72.7149 104.888 72.9043 104.832C73.0961 104.772 73.2677 104.686 73.4192 104.572C73.5731 104.459 73.7021 104.319 73.8063 104.153C73.9128 103.988 73.9862 103.798 74.0265 103.585L75.3546 103.592C75.3049 103.938 75.1971 104.262 75.0314 104.565C74.8681 104.868 74.6538 105.136 74.3887 105.368C74.1235 105.598 73.8134 105.777 73.4583 105.908C73.1032 106.036 72.709 106.099 72.2757 106.099C71.6365 106.099 71.066 105.951 70.5641 105.656C70.0622 105.36 69.6668 104.932 69.378 104.374C69.0892 103.815 68.9448 103.145 68.9448 102.364C68.9448 101.58 69.0904 100.91 69.3816 100.354C69.6728 99.795 70.0693 99.3677 70.5712 99.0717C71.0731 98.7758 71.6413 98.6278 72.2757 98.6278C72.6806 98.6278 73.057 98.6847 73.405 98.7983C73.753 98.9119 74.0632 99.0788 74.3354 99.299C74.6077 99.5168 74.8314 99.7843 75.0066 100.102C75.1841 100.416 75.3001 100.776 75.3546 101.181ZM83.0597 102.364C83.0597 103.147 82.9129 103.818 82.6193 104.377C82.3281 104.933 81.9304 105.36 81.4261 105.656C80.9242 105.951 80.3549 106.099 79.718 106.099C79.0812 106.099 78.5107 105.951 78.0064 105.656C77.5045 105.357 77.1068 104.93 76.8132 104.374C76.522 103.815 76.3764 103.145 76.3764 102.364C76.3764 101.58 76.522 100.91 76.8132 100.354C77.1068 99.795 77.5045 99.3677 78.0064 99.0717C78.5107 98.7758 79.0812 98.6278 79.718 98.6278C80.3549 98.6278 80.9242 98.7758 81.4261 99.0717C81.9304 99.3677 82.3281 99.795 82.6193 100.354C82.9129 100.91 83.0597 101.58 83.0597 102.364ZM81.7351 102.364C81.7351 101.812 81.6487 101.347 81.4759 100.968C81.3054 100.587 81.0687 100.299 80.7656 100.105C80.4626 99.9086 80.1134 99.8104 79.718 99.8104C79.3227 99.8104 78.9735 99.9086 78.6705 100.105C78.3674 100.299 78.1295 100.587 77.9567 100.968C77.7862 101.347 77.701 101.812 77.701 102.364C77.701 102.915 77.7862 103.382 77.9567 103.763C78.1295 104.142 78.3674 104.429 78.6705 104.626C78.9735 104.82 79.3227 104.917 79.718 104.917C80.1134 104.917 80.4626 104.82 80.7656 104.626C81.0687 104.429 81.3054 104.142 81.4759 103.763C81.6487 103.382 81.7351 102.915 81.7351 102.364ZM84.3052 98.7273H85.9174L88.0765 103.997H88.1618L90.3208 98.7273H91.9331V106H90.6689V101.004H90.6014L88.5914 105.979H87.6468L85.6369 100.993H85.5694V106H84.3052V98.7273ZM93.3677 106V98.7273H98.0978V99.8317H94.6852V101.806H97.8528V102.911H94.6852V104.896H98.1262V106H93.3677ZM101.603 99.8317V98.7273H107.405V99.8317H105.157V106H103.851V99.8317H101.603ZM114.7 102.364C114.7 103.147 114.554 103.818 114.26 104.377C113.969 104.933 113.571 105.36 113.067 105.656C112.565 105.951 111.996 106.099 111.359 106.099C110.722 106.099 110.151 105.951 109.647 105.656C109.145 105.357 108.747 104.93 108.454 104.374C108.163 103.815 108.017 103.145 108.017 102.364C108.017 101.58 108.163 100.91 108.454 100.354C108.747 99.795 109.145 99.3677 109.647 99.0717C110.151 98.7758 110.722 98.6278 111.359 98.6278C111.996 98.6278 112.565 98.7758 113.067 99.0717C113.571 99.3677 113.969 99.795 114.26 100.354C114.554 100.91 114.7 101.58 114.7 102.364ZM113.376 102.364C113.376 101.812 113.289 101.347 113.116 100.968C112.946 100.587 112.709 100.299 112.406 100.105C112.103 99.9086 111.754 99.8104 111.359 99.8104C110.963 99.8104 110.614 99.9086 110.311 100.105C110.008 100.299 109.77 100.587 109.597 100.968C109.427 101.347 109.342 101.812 109.342 102.364C109.342 102.915 109.427 103.382 109.597 103.763C109.77 104.142 110.008 104.429 110.311 104.626C110.614 104.82 110.963 104.917 111.359 104.917C111.754 104.917 112.103 104.82 112.406 104.626C112.709 104.429 112.946 104.142 113.116 103.763C113.289 103.382 113.376 102.915 113.376 102.364Z" fill="white"/>
</svg>
