<svg width="370" height="261" viewBox="0 0 370 261" fill="none" xmlns="http://www.w3.org/2000/svg">
<path d="M385 130C385 161.879 413.459 222.749 344 244C282.296 262.878 79.0023 260 26 260C-86.6661 260 -11.5 89.199 -11.5 29C-11.5 -31.199 68.334 20.9998 181 20.9998C293.666 20.9998 385 69.8008 385 130Z" fill="#2A94F4"/>
<path d="M255.098 152.906V153.825H250.098V152.906H255.098ZM264.584 152.092H263.476C263.433 151.856 263.354 151.647 263.238 151.467C263.122 151.287 262.98 151.135 262.812 151.009C262.644 150.884 262.455 150.789 262.247 150.725C262.041 150.661 261.822 150.629 261.59 150.629C261.171 150.629 260.796 150.735 260.464 150.945C260.135 151.156 259.875 151.465 259.683 151.872C259.494 152.279 259.399 152.777 259.399 153.364C259.399 153.955 259.494 154.455 259.683 154.862C259.875 155.269 260.136 155.577 260.468 155.786C260.799 155.994 261.172 156.098 261.586 156.098C261.816 156.098 262.034 156.067 262.24 156.006C262.448 155.942 262.636 155.848 262.805 155.725C262.973 155.602 263.115 155.452 263.231 155.274C263.349 155.094 263.431 154.888 263.476 154.656L264.584 154.66C264.524 155.017 264.41 155.346 264.239 155.647C264.071 155.945 263.854 156.203 263.589 156.421C263.327 156.637 263.026 156.804 262.687 156.922C262.349 157.04 261.979 157.099 261.579 157.099C260.95 157.099 260.389 156.95 259.896 156.652C259.404 156.351 259.015 155.922 258.731 155.363C258.45 154.804 258.309 154.138 258.309 153.364C258.309 152.587 258.451 151.921 258.735 151.364C259.019 150.806 259.407 150.377 259.9 150.079C260.392 149.778 260.952 149.628 261.579 149.628C261.965 149.628 262.325 149.683 262.659 149.795C262.995 149.904 263.297 150.065 263.564 150.278C263.832 150.488 264.053 150.746 264.229 151.052C264.404 151.355 264.522 151.702 264.584 152.092ZM265.897 157V149.727H266.994V152.888H270.62V149.727H271.721V157H270.62V153.829H266.994V157H265.897ZM274.416 149.727V157H273.319V149.727H274.416ZM281.884 149.727V157H280.875L277.179 151.666H277.111V157H276.014V149.727H277.029L280.73 155.068H280.797V149.727H281.884ZM283.485 157V149.727H288.044V150.672H284.582V152.888H287.806V153.829H284.582V156.055H288.087V157H283.485ZM293.477 151.638C293.439 151.302 293.282 151.041 293.008 150.857C292.733 150.67 292.388 150.576 291.971 150.576C291.673 150.576 291.415 150.623 291.197 150.718C290.979 150.81 290.81 150.938 290.689 151.102C290.571 151.263 290.511 151.446 290.511 151.652C290.511 151.825 290.552 151.974 290.632 152.099C290.715 152.225 290.823 152.33 290.955 152.415C291.09 152.498 291.235 152.568 291.388 152.625C291.542 152.679 291.69 152.724 291.832 152.76L292.543 152.945C292.775 153.001 293.013 153.078 293.256 153.175C293.5 153.272 293.726 153.4 293.935 153.559C294.143 153.718 294.311 153.914 294.439 154.148C294.569 154.383 294.634 154.663 294.634 154.99C294.634 155.402 294.528 155.768 294.315 156.087C294.104 156.407 293.797 156.659 293.395 156.844C292.995 157.028 292.511 157.121 291.942 157.121C291.398 157.121 290.927 157.034 290.529 156.862C290.131 156.689 289.82 156.444 289.595 156.126C289.37 155.807 289.246 155.428 289.222 154.99H290.323C290.344 155.253 290.43 155.472 290.579 155.647C290.73 155.82 290.923 155.949 291.158 156.034C291.394 156.117 291.654 156.158 291.935 156.158C292.246 156.158 292.521 156.11 292.763 156.013C293.007 155.913 293.198 155.776 293.338 155.601C293.478 155.423 293.548 155.216 293.548 154.979C293.548 154.764 293.486 154.588 293.363 154.45C293.242 154.313 293.078 154.199 292.869 154.109C292.663 154.019 292.43 153.94 292.17 153.871L291.31 153.637C290.728 153.478 290.266 153.245 289.925 152.938C289.587 152.63 289.418 152.223 289.418 151.716C289.418 151.297 289.531 150.931 289.759 150.619C289.986 150.306 290.294 150.063 290.682 149.891C291.07 149.715 291.508 149.628 291.996 149.628C292.488 149.628 292.923 149.714 293.299 149.887C293.678 150.06 293.976 150.298 294.194 150.601C294.412 150.902 294.525 151.247 294.535 151.638H293.477ZM295.945 157V149.727H300.505V150.672H297.043V152.888H300.267V153.829H297.043V156.055H300.548V157H295.945ZM304.617 157V149.727H307.21C307.776 149.727 308.244 149.83 308.616 150.036C308.988 150.242 309.266 150.524 309.45 150.881C309.635 151.237 309.727 151.637 309.727 152.082C309.727 152.529 309.634 152.932 309.447 153.289C309.262 153.644 308.983 153.926 308.609 154.134C308.237 154.34 307.77 154.443 307.206 154.443H305.423V153.513H307.107C307.464 153.513 307.754 153.451 307.977 153.328C308.199 153.203 308.363 153.032 308.467 152.817C308.571 152.601 308.623 152.356 308.623 152.082C308.623 151.807 308.571 151.563 308.467 151.35C308.363 151.137 308.198 150.97 307.973 150.849C307.751 150.729 307.457 150.668 307.093 150.668H305.715V157H304.617ZM311.014 157V149.727H313.606C314.17 149.727 314.637 149.824 315.009 150.018C315.383 150.213 315.662 150.481 315.847 150.825C316.032 151.165 316.124 151.56 316.124 152.007C316.124 152.452 316.03 152.844 315.843 153.183C315.659 153.519 315.379 153.78 315.005 153.967C314.634 154.154 314.166 154.248 313.603 154.248H311.639V153.303H313.503C313.858 153.303 314.147 153.252 314.37 153.151C314.595 153.049 314.759 152.901 314.863 152.707C314.967 152.513 315.02 152.279 315.02 152.007C315.02 151.732 314.966 151.495 314.86 151.293C314.756 151.092 314.591 150.938 314.366 150.832C314.144 150.723 313.851 150.668 313.489 150.668H312.111V157H311.014ZM314.604 153.719L316.401 157H315.151L313.39 153.719H314.604ZM323.777 153.364C323.777 154.14 323.635 154.808 323.35 155.366C323.066 155.923 322.677 156.351 322.182 156.652C321.69 156.95 321.13 157.099 320.502 157.099C319.873 157.099 319.31 156.95 318.816 156.652C318.323 156.351 317.935 155.922 317.651 155.363C317.367 154.804 317.225 154.138 317.225 153.364C317.225 152.587 317.367 151.921 317.651 151.364C317.935 150.806 318.323 150.377 318.816 150.079C319.31 149.778 319.873 149.628 320.502 149.628C321.13 149.628 321.69 149.778 322.182 150.079C322.677 150.377 323.066 150.806 323.35 151.364C323.635 151.921 323.777 152.587 323.777 153.364ZM322.69 153.364C322.69 152.772 322.594 152.273 322.402 151.869C322.213 151.461 321.953 151.154 321.621 150.945C321.292 150.735 320.919 150.629 320.502 150.629C320.083 150.629 319.709 150.735 319.38 150.945C319.051 151.154 318.791 151.461 318.599 151.869C318.41 152.273 318.315 152.772 318.315 153.364C318.315 153.955 318.41 154.455 318.599 154.862C318.791 155.267 319.051 155.575 319.38 155.786C319.709 155.994 320.083 156.098 320.502 156.098C320.919 156.098 321.292 155.994 321.621 155.786C321.953 155.575 322.213 155.267 322.402 154.862C322.594 154.455 322.69 153.955 322.69 153.364ZM325.419 149.727L327.443 155.651H327.525L329.549 149.727H330.735L328.118 157H326.85L324.233 149.727H325.419ZM331.785 157V149.727H336.345V150.672H332.883V152.888H336.107V153.829H332.883V156.055H336.388V157H331.785ZM337.811 157V149.727H340.403C340.967 149.727 341.434 149.824 341.806 150.018C342.18 150.213 342.459 150.481 342.644 150.825C342.828 151.165 342.921 151.56 342.921 152.007C342.921 152.452 342.827 152.844 342.64 153.183C342.456 153.519 342.176 153.78 341.802 153.967C341.431 154.154 340.963 154.248 340.4 154.248H338.436V153.303H340.3C340.655 153.303 340.944 153.252 341.167 153.151C341.391 153.049 341.556 152.901 341.66 152.707C341.764 152.513 341.816 152.279 341.816 152.007C341.816 151.732 341.763 151.495 341.657 151.293C341.552 151.092 341.388 150.938 341.163 150.832C340.94 150.723 340.648 150.668 340.286 150.668H338.908V157H337.811ZM341.401 153.719L343.198 157H341.948L340.186 153.719H341.401ZM344.256 157V149.727H346.919C347.435 149.727 347.863 149.812 348.201 149.983C348.54 150.151 348.793 150.379 348.961 150.668C349.129 150.955 349.213 151.278 349.213 151.638C349.213 151.941 349.158 152.196 349.047 152.405C348.935 152.611 348.786 152.777 348.599 152.902C348.414 153.025 348.211 153.115 347.988 153.172V153.243C348.23 153.255 348.465 153.333 348.695 153.477C348.927 153.619 349.119 153.822 349.27 154.085C349.422 154.347 349.498 154.667 349.498 155.043C349.498 155.415 349.41 155.749 349.235 156.045C349.062 156.338 348.794 156.571 348.432 156.744C348.07 156.915 347.607 157 347.044 157H344.256ZM345.353 156.059H346.937C347.463 156.059 347.839 155.957 348.066 155.754C348.294 155.55 348.407 155.295 348.407 154.99C348.407 154.76 348.349 154.55 348.233 154.358C348.117 154.166 347.952 154.013 347.736 153.9C347.523 153.786 347.27 153.729 346.976 153.729H345.353V156.059ZM345.353 152.874H346.824C347.07 152.874 347.291 152.826 347.488 152.732C347.686 152.637 347.844 152.504 347.96 152.334C348.078 152.161 348.137 151.957 348.137 151.723C348.137 151.422 348.032 151.17 347.821 150.967C347.611 150.763 347.288 150.661 346.852 150.661H345.353V152.874Z" fill="white"/>
<path d="M239.122 91.008L239.002 87.6H240.598L240.466 91.008H239.122ZM241.594 91.008L241.474 87.6H243.07L242.938 91.008H241.594ZM244.648 96V87.6H246.592V96H244.648ZM250.386 91.38H254.418V92.94H250.386V91.38ZM250.53 96H248.586V87.6H254.934V89.16H250.53V96ZM261.736 96V92.568L262.18 93.744L258.484 87.6H260.548L263.38 92.316H262.192L265.036 87.6H266.944L263.248 93.744L263.68 92.568V96H261.736ZM271.474 96.144C270.81 96.144 270.194 96.036 269.626 95.82C269.066 95.604 268.578 95.3 268.162 94.908C267.754 94.516 267.434 94.056 267.202 93.528C266.978 93 266.866 92.424 266.866 91.8C266.866 91.176 266.978 90.6 267.202 90.072C267.434 89.544 267.758 89.084 268.174 88.692C268.59 88.3 269.078 87.996 269.638 87.78C270.198 87.564 270.806 87.456 271.462 87.456C272.126 87.456 272.734 87.564 273.286 87.78C273.846 87.996 274.33 88.3 274.738 88.692C275.154 89.084 275.478 89.544 275.71 90.072C275.942 90.592 276.058 91.168 276.058 91.8C276.058 92.424 275.942 93.004 275.71 93.54C275.478 94.068 275.154 94.528 274.738 94.92C274.33 95.304 273.846 95.604 273.286 95.82C272.734 96.036 272.13 96.144 271.474 96.144ZM271.462 94.488C271.838 94.488 272.182 94.424 272.494 94.296C272.814 94.168 273.094 93.984 273.334 93.744C273.574 93.504 273.758 93.22 273.886 92.892C274.022 92.564 274.09 92.2 274.09 91.8C274.09 91.4 274.022 91.036 273.886 90.708C273.758 90.38 273.574 90.096 273.334 89.856C273.102 89.616 272.826 89.432 272.506 89.304C272.186 89.176 271.838 89.112 271.462 89.112C271.086 89.112 270.738 89.176 270.418 89.304C270.106 89.432 269.83 89.616 269.59 89.856C269.35 90.096 269.162 90.38 269.026 90.708C268.898 91.036 268.834 91.4 268.834 91.8C268.834 92.192 268.898 92.556 269.026 92.892C269.162 93.22 269.346 93.504 269.578 93.744C269.818 93.984 270.098 94.168 270.418 94.296C270.738 94.424 271.086 94.488 271.462 94.488ZM281.251 96.144C280.059 96.144 279.127 95.812 278.455 95.148C277.783 94.484 277.447 93.536 277.447 92.304V87.6H279.391V92.232C279.391 93.032 279.555 93.608 279.883 93.96C280.211 94.312 280.671 94.488 281.263 94.488C281.855 94.488 282.315 94.312 282.643 93.96C282.971 93.608 283.135 93.032 283.135 92.232V87.6H285.055V92.304C285.055 93.536 284.719 94.484 284.047 95.148C283.375 95.812 282.443 96.144 281.251 96.144ZM292.391 96L289.643 87.6H291.659L294.047 95.04H293.039L295.535 87.6H297.335L299.735 95.04H298.763L301.211 87.6H303.071L300.323 96H298.235L296.111 89.472H296.663L294.479 96H292.391ZM302.771 96L306.515 87.6H308.435L312.191 96H310.151L307.079 88.584H307.847L304.763 96H302.771ZM304.643 94.2L305.159 92.724H309.479L310.007 94.2H304.643ZM313.062 96V87.6H314.67L319.626 93.648H318.846V87.6H320.766V96H319.17L314.202 89.952H314.982V96H313.062ZM324.494 96V89.184H321.806V87.6H329.126V89.184H326.438V96H324.494ZM335.31 96V89.184H332.622V87.6H339.942V89.184H337.254V96H335.31ZM344.951 96.144C344.287 96.144 343.671 96.036 343.103 95.82C342.543 95.604 342.055 95.3 341.639 94.908C341.231 94.516 340.911 94.056 340.679 93.528C340.455 93 340.343 92.424 340.343 91.8C340.343 91.176 340.455 90.6 340.679 90.072C340.911 89.544 341.235 89.084 341.651 88.692C342.067 88.3 342.555 87.996 343.115 87.78C343.675 87.564 344.283 87.456 344.939 87.456C345.603 87.456 346.211 87.564 346.763 87.78C347.323 87.996 347.807 88.3 348.215 88.692C348.631 89.084 348.955 89.544 349.187 90.072C349.419 90.592 349.535 91.168 349.535 91.8C349.535 92.424 349.419 93.004 349.187 93.54C348.955 94.068 348.631 94.528 348.215 94.92C347.807 95.304 347.323 95.604 346.763 95.82C346.211 96.036 345.607 96.144 344.951 96.144ZM344.939 94.488C345.315 94.488 345.659 94.424 345.971 94.296C346.291 94.168 346.571 93.984 346.811 93.744C347.051 93.504 347.235 93.22 347.363 92.892C347.499 92.564 347.567 92.2 347.567 91.8C347.567 91.4 347.499 91.036 347.363 90.708C347.235 90.38 347.051 90.096 346.811 89.856C346.579 89.616 346.303 89.432 345.983 89.304C345.663 89.176 345.315 89.112 344.939 89.112C344.563 89.112 344.215 89.176 343.895 89.304C343.583 89.432 343.307 89.616 343.067 89.856C342.827 90.096 342.639 90.38 342.503 90.708C342.375 91.036 342.311 91.4 342.311 91.8C342.311 92.192 342.375 92.556 342.503 92.892C342.639 93.22 342.823 93.504 343.055 93.744C343.295 93.984 343.575 94.168 343.895 94.296C344.215 94.424 344.563 94.488 344.939 94.488ZM214.865 109.08L214.757 106.836L218.777 102.6H220.937L217.313 106.5L216.233 107.652L214.865 109.08ZM213.125 111V102.6H215.057V111H213.125ZM218.873 111L215.885 107.34L217.157 105.96L221.141 111H218.873ZM222.008 111V102.6H223.616L228.572 108.648H227.792V102.6H229.712V111H228.116L223.148 104.952H223.928V111H222.008ZM235.779 111.144C235.115 111.144 234.499 111.036 233.931 110.82C233.371 110.604 232.883 110.3 232.467 109.908C232.059 109.516 231.739 109.056 231.507 108.528C231.283 108 231.171 107.424 231.171 106.8C231.171 106.176 231.283 105.6 231.507 105.072C231.739 104.544 232.063 104.084 232.479 103.692C232.895 103.3 233.383 102.996 233.943 102.78C234.503 102.564 235.111 102.456 235.767 102.456C236.431 102.456 237.039 102.564 237.591 102.78C238.151 102.996 238.635 103.3 239.043 103.692C239.459 104.084 239.783 104.544 240.015 105.072C240.247 105.592 240.363 106.168 240.363 106.8C240.363 107.424 240.247 108.004 240.015 108.54C239.783 109.068 239.459 109.528 239.043 109.92C238.635 110.304 238.151 110.604 237.591 110.82C237.039 111.036 236.435 111.144 235.779 111.144ZM235.767 109.488C236.143 109.488 236.487 109.424 236.799 109.296C237.119 109.168 237.399 108.984 237.639 108.744C237.879 108.504 238.063 108.22 238.191 107.892C238.327 107.564 238.395 107.2 238.395 106.8C238.395 106.4 238.327 106.036 238.191 105.708C238.063 105.38 237.879 105.096 237.639 104.856C237.407 104.616 237.131 104.432 236.811 104.304C236.491 104.176 236.143 104.112 235.767 104.112C235.391 104.112 235.043 104.176 234.723 104.304C234.411 104.432 234.135 104.616 233.895 104.856C233.655 105.096 233.467 105.38 233.331 105.708C233.203 106.036 233.139 106.4 233.139 106.8C233.139 107.192 233.203 107.556 233.331 107.892C233.467 108.22 233.651 108.504 233.883 108.744C234.123 108.984 234.403 109.168 234.723 109.296C235.043 109.424 235.391 109.488 235.767 109.488ZM243.571 111L240.823 102.6H242.839L245.227 110.04H244.219L246.715 102.6H248.515L250.915 110.04H249.943L252.391 102.6H254.251L251.503 111H249.415L247.291 104.472H247.843L245.659 111H243.571ZM260.65 111V104.184H257.962V102.6H265.282V104.184H262.594V111H260.65ZM272.088 102.6H274.032V111H272.088V102.6ZM268.272 111H266.328V102.6H268.272V111ZM272.232 107.556H268.128V105.912H272.232V107.556ZM277.807 105.984H281.851V107.496H277.807V105.984ZM277.951 109.44H282.523V111H276.019V102.6H282.367V104.16H277.951V109.44ZM289.989 111L286.365 102.6H288.465L291.633 110.04H290.397L293.613 102.6H295.545L291.909 111H289.989ZM294.861 111L298.605 102.6H300.525L304.281 111H302.241L299.169 103.584H299.937L296.853 111H294.861ZM296.733 109.2L297.249 107.724H301.569L302.097 109.2H296.733ZM305.152 111V102.6H307.096V109.416H311.308V111H305.152ZM316.033 111.144C314.841 111.144 313.909 110.812 313.237 110.148C312.565 109.484 312.229 108.536 312.229 107.304V102.6H314.173V107.232C314.173 108.032 314.337 108.608 314.665 108.96C314.993 109.312 315.453 109.488 316.045 109.488C316.637 109.488 317.097 109.312 317.425 108.96C317.753 108.608 317.917 108.032 317.917 107.232V102.6H319.837V107.304C319.837 108.536 319.501 109.484 318.829 110.148C318.157 110.812 317.225 111.144 316.033 111.144ZM323.546 105.984H327.59V107.496H323.546V105.984ZM323.69 109.44H328.262V111H321.758V102.6H328.106V104.16H323.69V109.44ZM337.287 111.144C336.623 111.144 336.007 111.036 335.439 110.82C334.879 110.604 334.391 110.3 333.975 109.908C333.567 109.516 333.247 109.056 333.015 108.528C332.791 108 332.679 107.424 332.679 106.8C332.679 106.176 332.791 105.6 333.015 105.072C333.247 104.544 333.571 104.084 333.987 103.692C334.403 103.3 334.891 102.996 335.451 102.78C336.011 102.564 336.619 102.456 337.275 102.456C337.939 102.456 338.547 102.564 339.099 102.78C339.659 102.996 340.143 103.3 340.551 103.692C340.967 104.084 341.291 104.544 341.523 105.072C341.755 105.592 341.871 106.168 341.871 106.8C341.871 107.424 341.755 108.004 341.523 108.54C341.291 109.068 340.967 109.528 340.551 109.92C340.143 110.304 339.659 110.604 339.099 110.82C338.547 111.036 337.943 111.144 337.287 111.144ZM337.275 109.488C337.651 109.488 337.995 109.424 338.307 109.296C338.627 109.168 338.907 108.984 339.147 108.744C339.387 108.504 339.571 108.22 339.699 107.892C339.835 107.564 339.903 107.2 339.903 106.8C339.903 106.4 339.835 106.036 339.699 105.708C339.571 105.38 339.387 105.096 339.147 104.856C338.915 104.616 338.639 104.432 338.319 104.304C337.999 104.176 337.651 104.112 337.275 104.112C336.899 104.112 336.551 104.176 336.231 104.304C335.919 104.432 335.643 104.616 335.403 104.856C335.163 105.096 334.975 105.38 334.839 105.708C334.711 106.036 334.647 106.4 334.647 106.8C334.647 107.192 334.711 107.556 334.839 107.892C334.975 108.22 335.159 108.504 335.391 108.744C335.631 108.984 335.911 109.168 336.231 109.296C336.551 109.424 336.899 109.488 337.275 109.488ZM345.132 106.38H349.164V107.94H345.132V106.38ZM345.276 111H343.332V102.6H349.68V104.16H345.276V111ZM252.5 126V117.6H254.108L257.684 123.528H256.832L260.348 117.6H261.944L261.968 126H260.144L260.132 120.396H260.468L257.66 125.112H256.784L253.916 120.396H254.324V126H252.5ZM268.041 126.144C267.377 126.144 266.761 126.036 266.193 125.82C265.633 125.604 265.145 125.3 264.729 124.908C264.321 124.516 264.001 124.056 263.769 123.528C263.545 123 263.433 122.424 263.433 121.8C263.433 121.176 263.545 120.6 263.769 120.072C264.001 119.544 264.325 119.084 264.741 118.692C265.157 118.3 265.645 117.996 266.205 117.78C266.765 117.564 267.373 117.456 268.029 117.456C268.693 117.456 269.301 117.564 269.853 117.78C270.413 117.996 270.897 118.3 271.305 118.692C271.721 119.084 272.045 119.544 272.277 120.072C272.509 120.592 272.625 121.168 272.625 121.8C272.625 122.424 272.509 123.004 272.277 123.54C272.045 124.068 271.721 124.528 271.305 124.92C270.897 125.304 270.413 125.604 269.853 125.82C269.301 126.036 268.697 126.144 268.041 126.144ZM268.029 124.488C268.405 124.488 268.749 124.424 269.061 124.296C269.381 124.168 269.661 123.984 269.901 123.744C270.141 123.504 270.325 123.22 270.453 122.892C270.589 122.564 270.657 122.2 270.657 121.8C270.657 121.4 270.589 121.036 270.453 120.708C270.325 120.38 270.141 120.096 269.901 119.856C269.669 119.616 269.393 119.432 269.073 119.304C268.753 119.176 268.405 119.112 268.029 119.112C267.653 119.112 267.305 119.176 266.985 119.304C266.673 119.432 266.397 119.616 266.157 119.856C265.917 120.096 265.729 120.38 265.593 120.708C265.465 121.036 265.401 121.4 265.401 121.8C265.401 122.192 265.465 122.556 265.593 122.892C265.729 123.22 265.913 123.504 266.145 123.744C266.385 123.984 266.665 124.168 266.985 124.296C267.305 124.424 267.653 124.488 268.029 124.488ZM274.086 126V117.6H275.694L280.65 123.648H279.87V117.6H281.79V126H280.194L275.226 119.952H276.006V126H274.086ZM285.565 120.984H289.609V122.496H285.565V120.984ZM285.709 124.44H290.281V126H283.777V117.6H290.125V119.16H285.709V124.44ZM293.834 126V122.568L294.278 123.744L290.582 117.6H292.646L295.478 122.316H294.29L297.134 117.6H299.042L295.346 123.744L295.778 122.568V126H293.834ZM298.942 127.848L299.734 124.968L299.998 126.048C299.654 126.048 299.37 125.948 299.146 125.748C298.93 125.548 298.822 125.272 298.822 124.92C298.822 124.568 298.934 124.288 299.158 124.08C299.382 123.872 299.658 123.768 299.986 123.768C300.322 123.768 300.598 123.876 300.814 124.092C301.03 124.3 301.138 124.576 301.138 124.92C301.138 125.024 301.13 125.128 301.114 125.232C301.098 125.328 301.066 125.448 301.018 125.592C300.978 125.728 300.91 125.904 300.814 126.12L300.13 127.848H298.942ZM307.677 126V119.184H304.989V117.6H312.309V119.184H309.621V126H307.677ZM313.355 126V117.6H316.991C317.743 117.6 318.391 117.724 318.935 117.972C319.479 118.212 319.899 118.56 320.195 119.016C320.491 119.472 320.639 120.016 320.639 120.648C320.639 121.272 320.491 121.812 320.195 122.268C319.899 122.716 319.479 123.06 318.935 123.3C318.391 123.54 317.743 123.66 316.991 123.66H314.435L315.299 122.808V126H313.355ZM318.695 126L316.595 122.952H318.671L320.795 126H318.695ZM315.299 123.024L314.435 122.112H316.883C317.483 122.112 317.931 121.984 318.227 121.728C318.523 121.464 318.671 121.104 318.671 120.648C318.671 120.184 318.523 119.824 318.227 119.568C317.931 119.312 317.483 119.184 316.883 119.184H314.435L315.299 118.26V123.024ZM324.15 126V122.568L324.594 123.744L320.898 117.6H322.962L325.794 122.316H324.606L327.45 117.6H329.358L325.662 123.744L326.094 122.568V126H324.15ZM335.31 126V119.184H332.622V117.6H339.942V119.184H337.254V126H335.31ZM344.951 126.144C344.287 126.144 343.671 126.036 343.103 125.82C342.543 125.604 342.055 125.3 341.639 124.908C341.231 124.516 340.911 124.056 340.679 123.528C340.455 123 340.343 122.424 340.343 121.8C340.343 121.176 340.455 120.6 340.679 120.072C340.911 119.544 341.235 119.084 341.651 118.692C342.067 118.3 342.555 117.996 343.115 117.78C343.675 117.564 344.283 117.456 344.939 117.456C345.603 117.456 346.211 117.564 346.763 117.78C347.323 117.996 347.807 118.3 348.215 118.692C348.631 119.084 348.955 119.544 349.187 120.072C349.419 120.592 349.535 121.168 349.535 121.8C349.535 122.424 349.419 123.004 349.187 123.54C348.955 124.068 348.631 124.528 348.215 124.92C347.807 125.304 347.323 125.604 346.763 125.82C346.211 126.036 345.607 126.144 344.951 126.144ZM344.939 124.488C345.315 124.488 345.659 124.424 345.971 124.296C346.291 124.168 346.571 123.984 346.811 123.744C347.051 123.504 347.235 123.22 347.363 122.892C347.499 122.564 347.567 122.2 347.567 121.8C347.567 121.4 347.499 121.036 347.363 120.708C347.235 120.38 347.051 120.096 346.811 119.856C346.579 119.616 346.303 119.432 345.983 119.304C345.663 119.176 345.315 119.112 344.939 119.112C344.563 119.112 344.215 119.176 343.895 119.304C343.583 119.432 343.307 119.616 343.067 119.856C342.827 120.096 342.639 120.38 342.503 120.708C342.375 121.036 342.311 121.4 342.311 121.8C342.311 122.192 342.375 122.556 342.503 122.892C342.639 123.22 342.823 123.504 343.055 123.744C343.295 123.984 343.575 124.168 343.895 124.296C344.215 124.424 344.563 124.488 344.939 124.488ZM241.707 141V132.6H245.811C246.867 132.6 247.659 132.8 248.187 133.2C248.723 133.6 248.991 134.128 248.991 134.784C248.991 135.224 248.883 135.608 248.667 135.936C248.451 136.256 248.155 136.504 247.779 136.68C247.403 136.856 246.971 136.944 246.483 136.944L246.711 136.452C247.239 136.452 247.707 136.54 248.115 136.716C248.523 136.884 248.839 137.136 249.063 137.472C249.295 137.808 249.411 138.22 249.411 138.708C249.411 139.428 249.127 139.992 248.559 140.4C247.991 140.8 247.155 141 246.051 141H241.707ZM243.639 139.536H245.907C246.411 139.536 246.791 139.456 247.047 139.296C247.311 139.128 247.443 138.864 247.443 138.504C247.443 138.152 247.311 137.892 247.047 137.724C246.791 137.548 246.411 137.46 245.907 137.46H243.495V136.044H245.571C246.043 136.044 246.403 135.964 246.651 135.804C246.907 135.636 247.035 135.384 247.035 135.048C247.035 134.72 246.907 134.476 246.651 134.316C246.403 134.148 246.043 134.064 245.571 134.064H243.639V139.536ZM254.963 141.144C254.299 141.144 253.683 141.036 253.115 140.82C252.555 140.604 252.067 140.3 251.651 139.908C251.243 139.516 250.923 139.056 250.691 138.528C250.467 138 250.355 137.424 250.355 136.8C250.355 136.176 250.467 135.6 250.691 135.072C250.923 134.544 251.247 134.084 251.663 133.692C252.079 133.3 252.567 132.996 253.127 132.78C253.687 132.564 254.295 132.456 254.951 132.456C255.615 132.456 256.223 132.564 256.775 132.78C257.335 132.996 257.819 133.3 258.227 133.692C258.643 134.084 258.967 134.544 259.199 135.072C259.431 135.592 259.547 136.168 259.547 136.8C259.547 137.424 259.431 138.004 259.199 138.54C258.967 139.068 258.643 139.528 258.227 139.92C257.819 140.304 257.335 140.604 256.775 140.82C256.223 141.036 255.619 141.144 254.963 141.144ZM254.951 139.488C255.327 139.488 255.671 139.424 255.983 139.296C256.303 139.168 256.583 138.984 256.823 138.744C257.063 138.504 257.247 138.22 257.375 137.892C257.511 137.564 257.579 137.2 257.579 136.8C257.579 136.4 257.511 136.036 257.375 135.708C257.247 135.38 257.063 135.096 256.823 134.856C256.591 134.616 256.315 134.432 255.995 134.304C255.675 134.176 255.327 134.112 254.951 134.112C254.575 134.112 254.227 134.176 253.907 134.304C253.595 134.432 253.319 134.616 253.079 134.856C252.839 135.096 252.651 135.38 252.515 135.708C252.387 136.036 252.323 136.4 252.323 136.8C252.323 137.192 252.387 137.556 252.515 137.892C252.651 138.22 252.835 138.504 253.067 138.744C253.307 138.984 253.587 139.168 253.907 139.296C254.227 139.424 254.575 139.488 254.951 139.488ZM261.008 141V132.6H264.644C265.396 132.6 266.044 132.724 266.588 132.972C267.132 133.212 267.552 133.56 267.848 134.016C268.144 134.472 268.292 135.016 268.292 135.648C268.292 136.272 268.144 136.812 267.848 137.268C267.552 137.716 267.132 138.06 266.588 138.3C266.044 138.54 265.396 138.66 264.644 138.66H262.088L262.952 137.808V141H261.008ZM266.348 141L264.248 137.952H266.324L268.448 141H266.348ZM262.952 138.024L262.088 137.112H264.536C265.136 137.112 265.584 136.984 265.88 136.728C266.176 136.464 266.324 136.104 266.324 135.648C266.324 135.184 266.176 134.824 265.88 134.568C265.584 134.312 265.136 134.184 264.536 134.184H262.088L262.952 133.26V138.024ZM269.832 141V132.6H273.468C274.22 132.6 274.868 132.724 275.412 132.972C275.956 133.212 276.376 133.56 276.672 134.016C276.968 134.472 277.116 135.016 277.116 135.648C277.116 136.272 276.968 136.812 276.672 137.268C276.376 137.716 275.956 138.06 275.412 138.3C274.868 138.54 274.22 138.66 273.468 138.66H270.912L271.776 137.808V141H269.832ZM275.172 141L273.072 137.952H275.148L277.272 141H275.172ZM271.776 138.024L270.912 137.112H273.36C273.96 137.112 274.408 136.984 274.704 136.728C275 136.464 275.148 136.104 275.148 135.648C275.148 135.184 275 134.824 274.704 134.568C274.408 134.312 273.96 134.184 273.36 134.184H270.912L271.776 133.26V138.024ZM282.736 141.144C282.072 141.144 281.456 141.036 280.888 140.82C280.328 140.604 279.84 140.3 279.424 139.908C279.016 139.516 278.696 139.056 278.464 138.528C278.24 138 278.128 137.424 278.128 136.8C278.128 136.176 278.24 135.6 278.464 135.072C278.696 134.544 279.02 134.084 279.436 133.692C279.852 133.3 280.34 132.996 280.9 132.78C281.46 132.564 282.068 132.456 282.724 132.456C283.388 132.456 283.996 132.564 284.548 132.78C285.108 132.996 285.592 133.3 286 133.692C286.416 134.084 286.74 134.544 286.972 135.072C287.204 135.592 287.32 136.168 287.32 136.8C287.32 137.424 287.204 138.004 286.972 138.54C286.74 139.068 286.416 139.528 286 139.92C285.592 140.304 285.108 140.604 284.548 140.82C283.996 141.036 283.392 141.144 282.736 141.144ZM282.724 139.488C283.1 139.488 283.444 139.424 283.756 139.296C284.076 139.168 284.356 138.984 284.596 138.744C284.836 138.504 285.02 138.22 285.148 137.892C285.284 137.564 285.352 137.2 285.352 136.8C285.352 136.4 285.284 136.036 285.148 135.708C285.02 135.38 284.836 135.096 284.596 134.856C284.364 134.616 284.088 134.432 283.768 134.304C283.448 134.176 283.1 134.112 282.724 134.112C282.348 134.112 282 134.176 281.68 134.304C281.368 134.432 281.092 134.616 280.852 134.856C280.612 135.096 280.424 135.38 280.288 135.708C280.16 136.036 280.096 136.4 280.096 136.8C280.096 137.192 280.16 137.556 280.288 137.892C280.424 138.22 280.608 138.504 280.84 138.744C281.08 138.984 281.36 139.168 281.68 139.296C282 139.424 282.348 139.488 282.724 139.488ZM290.528 141L287.78 132.6H289.796L292.184 140.04H291.176L293.672 132.6H295.472L297.872 140.04H296.9L299.348 132.6H301.208L298.46 141H296.372L294.248 134.472H294.8L292.616 141H290.528ZM308.627 141.144C307.955 141.144 307.311 141.056 306.695 140.88C306.079 140.696 305.583 140.46 305.207 140.172L305.867 138.708C306.227 138.964 306.651 139.176 307.139 139.344C307.635 139.504 308.135 139.584 308.639 139.584C309.023 139.584 309.331 139.548 309.563 139.476C309.803 139.396 309.979 139.288 310.091 139.152C310.203 139.016 310.259 138.86 310.259 138.684C310.259 138.46 310.171 138.284 309.995 138.156C309.819 138.02 309.587 137.912 309.299 137.832C309.011 137.744 308.691 137.664 308.339 137.592C307.995 137.512 307.647 137.416 307.295 137.304C306.951 137.192 306.635 137.048 306.347 136.872C306.059 136.696 305.823 136.464 305.639 136.176C305.463 135.888 305.375 135.52 305.375 135.072C305.375 134.592 305.503 134.156 305.759 133.764C306.023 133.364 306.415 133.048 306.935 132.816C307.463 132.576 308.123 132.456 308.915 132.456C309.443 132.456 309.963 132.52 310.475 132.648C310.987 132.768 311.439 132.952 311.831 133.2L311.231 134.676C310.839 134.452 310.447 134.288 310.055 134.184C309.663 134.072 309.279 134.016 308.903 134.016C308.527 134.016 308.219 134.06 307.979 134.148C307.739 134.236 307.567 134.352 307.463 134.496C307.359 134.632 307.307 134.792 307.307 134.976C307.307 135.192 307.395 135.368 307.571 135.504C307.747 135.632 307.979 135.736 308.267 135.816C308.555 135.896 308.871 135.976 309.215 136.056C309.567 136.136 309.915 136.228 310.259 136.332C310.611 136.436 310.931 136.576 311.219 136.752C311.507 136.928 311.739 137.16 311.915 137.448C312.099 137.736 312.191 138.1 312.191 138.54C312.191 139.012 312.059 139.444 311.795 139.836C311.531 140.228 311.135 140.544 310.607 140.784C310.087 141.024 309.427 141.144 308.627 141.144ZM317.599 141.144C316.935 141.144 316.319 141.036 315.751 140.82C315.191 140.604 314.703 140.3 314.287 139.908C313.879 139.516 313.559 139.056 313.327 138.528C313.103 138 312.991 137.424 312.991 136.8C312.991 136.176 313.103 135.6 313.327 135.072C313.559 134.544 313.883 134.084 314.299 133.692C314.715 133.3 315.203 132.996 315.763 132.78C316.323 132.564 316.931 132.456 317.587 132.456C318.251 132.456 318.859 132.564 319.411 132.78C319.971 132.996 320.455 133.3 320.863 133.692C321.279 134.084 321.603 134.544 321.835 135.072C322.067 135.592 322.183 136.168 322.183 136.8C322.183 137.424 322.067 138.004 321.835 138.54C321.603 139.068 321.279 139.528 320.863 139.92C320.455 140.304 319.971 140.604 319.411 140.82C318.859 141.036 318.255 141.144 317.599 141.144ZM317.587 139.488C317.963 139.488 318.307 139.424 318.619 139.296C318.939 139.168 319.219 138.984 319.459 138.744C319.699 138.504 319.883 138.22 320.011 137.892C320.147 137.564 320.215 137.2 320.215 136.8C320.215 136.4 320.147 136.036 320.011 135.708C319.883 135.38 319.699 135.096 319.459 134.856C319.227 134.616 318.951 134.432 318.631 134.304C318.311 134.176 317.963 134.112 317.587 134.112C317.211 134.112 316.863 134.176 316.543 134.304C316.231 134.432 315.955 134.616 315.715 134.856C315.475 135.096 315.287 135.38 315.151 135.708C315.023 136.036 314.959 136.4 314.959 136.8C314.959 137.192 315.023 137.556 315.151 137.892C315.287 138.22 315.471 138.504 315.703 138.744C315.943 138.984 316.223 139.168 316.543 139.296C316.863 139.424 317.211 139.488 317.587 139.488ZM323.644 141V132.6H325.252L328.828 138.528H327.976L331.492 132.6H333.088L333.112 141H331.288L331.276 135.396H331.612L328.804 140.112H327.928L325.06 135.396H325.468V141H323.644ZM336.893 135.984H340.937V137.496H336.893V135.984ZM337.037 139.44H341.609V141H335.105V132.6H341.453V134.16H337.037V139.44ZM343.849 141.096C343.529 141.096 343.253 140.988 343.021 140.772C342.797 140.548 342.685 140.264 342.685 139.92C342.685 139.576 342.797 139.3 343.021 139.092C343.253 138.876 343.529 138.768 343.849 138.768C344.177 138.768 344.453 138.876 344.677 139.092C344.901 139.3 345.013 139.576 345.013 139.92C345.013 140.264 344.901 140.548 344.677 140.772C344.453 140.988 344.177 141.096 343.849 141.096ZM345.47 136.008L345.35 132.6H346.946L346.814 136.008H345.47ZM347.942 136.008L347.822 132.6H349.418L349.286 136.008H347.942Z" fill="white"/>
<g clip-path="url(#clip0_444_341)">
<path d="M126.501 119.104L41.8345 168.009L92.6837 197.38L177.35 148.476L126.501 119.104Z" fill="#E1E3EE"/>
<path d="M145.863 144.696L93.012 175.223L139.773 202.233L192.625 171.706L145.863 144.696Z" fill="#E1E3EE"/>
<path d="M130.875 208.72C136.005 205.757 136.005 200.954 130.876 197.991C125.746 195.029 117.43 195.029 112.301 197.991C107.172 200.954 107.172 205.757 112.301 208.72C117.43 211.683 125.746 211.683 130.875 208.72Z" fill="#E1E3EE"/>
<path d="M110.426 201.421C115.555 198.458 115.555 193.655 110.426 190.692C105.297 187.729 96.9808 187.729 91.8516 190.692C86.7225 193.655 86.7224 198.458 91.8515 201.421C96.9807 204.383 105.297 204.383 110.426 201.421Z" fill="#E1E3EE"/>
<path d="M88.5576 115.695C93.9896 115.695 98.3932 113.816 98.3932 111.499C98.3932 109.181 93.9896 107.302 88.5576 107.302C83.1255 107.302 78.7219 109.181 78.7219 111.499C78.7219 113.816 83.1255 115.695 88.5576 115.695Z" fill="#E1E3EE"/>
<path d="M78.7213 124.979C86.0497 124.979 91.9905 122.641 91.9905 119.757C91.9905 116.874 86.0497 114.536 78.7213 114.536C71.393 114.536 65.4521 116.874 65.4521 119.757C65.4521 122.641 71.393 124.979 78.7213 124.979Z" fill="#E1E3EE"/>
<path fill-rule="evenodd" clip-rule="evenodd" d="M80.9611 108.855C77.5497 104.331 67.087 94.448 70.7997 87.0003C74.2337 80.1129 82.1033 87.0265 84.7745 93.4236C84.7745 93.4236 75.0698 65.6131 84.581 63.1388C94.0923 60.6646 94.5139 79.9148 94.3551 87.9782C94.3551 87.9782 99.64 70.9979 106.563 75.3168C113.486 79.6357 99.2425 107.382 99.2425 107.382C98.4256 109.91 95.4289 113.277 91.2672 114.14C87.8252 114.853 83.286 111.937 80.9611 108.855Z" fill="#40C3FD"/>
<path fill-rule="evenodd" clip-rule="evenodd" d="M86.4273 69.9309C86.3899 69.6566 86.5825 69.404 86.8565 69.3671C87.1303 69.3297 87.3827 69.5219 87.42 69.7958C87.42 69.7958 91.7286 101.604 91.1588 114.431C91.1467 114.707 90.9126 114.921 90.6365 114.909C90.3603 114.897 90.146 114.663 90.1581 114.387C90.7254 101.611 86.4273 69.9309 86.4273 69.9309Z" fill="#F2F3F7"/>
<path fill-rule="evenodd" clip-rule="evenodd" d="M78.1016 93.7353C77.991 93.4823 78.1066 93.1867 78.36 93.076C78.6133 92.9652 78.9088 93.0808 79.0195 93.3342C79.0195 93.3342 80.9105 97.6628 83.8829 101.47C85.8177 103.948 88.2047 106.222 90.844 106.845C91.1134 106.909 91.2801 107.179 91.2167 107.448C91.1533 107.717 90.8831 107.884 90.6143 107.82C87.776 107.151 85.1738 104.752 83.0933 102.087C80.0423 98.1789 78.1016 93.7353 78.1016 93.7353Z" fill="#F2F3F7"/>
<path fill-rule="evenodd" clip-rule="evenodd" d="M90.7518 100.976C90.5196 101.127 90.2094 101.06 90.0589 100.829C89.9083 100.597 89.9744 100.286 90.2064 100.136C90.2064 100.136 99.8551 93.8863 102.202 84.7549C102.271 84.4868 102.544 84.3255 102.812 84.3943C103.079 84.4632 103.241 84.7363 103.172 85.0039C100.737 94.4762 90.7518 100.976 90.7518 100.976Z" fill="#F2F3F7"/>
<path fill-rule="evenodd" clip-rule="evenodd" d="M80.0141 105.42C85.9439 105.354 84.3094 109.45 88.0406 111.863C91.4587 114.075 91.3823 118.908 85.9034 119.906C80.425 120.903 75.7771 120.745 71.9882 119.598C65.1528 117.529 66.5144 112.655 70.8856 111.231C74.5031 110.053 75.6136 105.469 80.0141 105.42Z" fill="#10243E"/>
<path d="M81.5671 111.055C82.3229 111.055 82.9357 110.464 82.9357 109.736C82.9357 109.007 82.3229 108.417 81.5671 108.417C80.8112 108.417 80.1985 109.007 80.1985 109.736C80.1985 110.464 80.8112 111.055 81.5671 111.055Z" fill="#E1E3EE"/>
<path d="M83.6258 112.622C84.0063 112.622 84.3148 112.339 84.3148 111.991C84.3148 111.642 84.0063 111.36 83.6258 111.36C83.2453 111.36 82.9368 111.642 82.9368 111.991C82.9368 112.339 83.2453 112.622 83.6258 112.622Z" fill="#E1E3EE"/>
<path fill-rule="evenodd" clip-rule="evenodd" d="M31.9201 162.381C31.3259 162.004 30.9631 161.35 30.9631 160.643V150.893C30.9631 149.158 31.8223 147.531 33.2577 146.553L83.0073 111.837L94.7808 98.3958C95.1612 98.0247 95.5864 97.7006 96.0469 97.4355L103.614 93.064C104.235 92.7046 105 92.7046 105.621 93.064C105.646 93.0787 105.67 93.0934 105.694 93.1082H105.696L156.974 122.725L83.1966 192.001L31.9189 162.381H31.9201Z" fill="#F3D97E"/>
<mask id="mask0_444_341" style="mask-type:luminance" maskUnits="userSpaceOnUse" x="30" y="92" width="127" height="101">
<path d="M31.9201 162.381C31.3259 162.004 30.9631 161.35 30.9631 160.643V150.893C30.9631 149.158 31.8223 147.531 33.2577 146.553L83.0073 111.837L94.7808 98.3958C95.1612 98.0247 95.5864 97.7006 96.0469 97.4355L103.614 93.064C104.235 92.7046 105 92.7046 105.621 93.064C105.646 93.0787 105.67 93.0934 105.694 93.1082H105.696L156.974 122.725L83.1966 192.001L31.9189 162.381H31.9201Z" fill="white"/>
</mask>
<g mask="url(#mask0_444_341)">
<path d="M83.4009 180.234L30.7351 149.813V161.696L83.4009 192.116V180.234Z" fill="#FFBE55"/>
<path fill-rule="evenodd" clip-rule="evenodd" d="M146.86 128.169L94.194 97.748L81.7393 112.453L134.405 142.873L146.86 128.169Z" fill="#FFBE55"/>
</g>
<path fill-rule="evenodd" clip-rule="evenodd" d="M100.716 103.494C99.0247 102.517 96.6435 102.914 95.4001 104.386L90.8982 109.717C89.6572 111.186 90.0232 113.174 91.7151 114.152L128.002 135.112C129.697 136.091 132.081 135.691 133.322 134.222L137.823 128.891C139.067 127.419 138.698 125.434 137.003 124.454L100.716 103.494Z" fill="#10243E"/>
<mask id="mask1_444_341" style="mask-type:luminance" maskUnits="userSpaceOnUse" x="90" y="102" width="49" height="34">
<path d="M100.716 103.494C99.0246 102.517 96.6435 102.914 95.4001 104.386L90.8982 109.717C89.6572 111.186 90.0232 113.174 91.7151 114.152L128.002 135.112C129.697 136.091 132.081 135.691 133.322 134.222L137.823 128.891C139.067 127.419 138.698 125.434 137.003 124.454L100.716 103.494Z" fill="white"/>
</mask>
<g mask="url(#mask1_444_341)">
<path fill-rule="evenodd" clip-rule="evenodd" d="M101.026 105.039C99.3344 104.062 96.9533 104.459 95.7099 105.932L91.208 111.262C89.967 112.731 90.333 114.72 92.0249 115.697L128.311 136.657C130.007 137.636 132.39 137.236 133.631 135.767L138.133 130.437C139.377 128.964 139.008 126.979 137.313 126L101.026 105.039Z" fill="#40C3FD"/>
</g>
<path fill-rule="evenodd" clip-rule="evenodd" d="M84.8616 191.774C84.2259 192.142 83.4429 192.142 82.8075 191.774C82.1721 191.409 81.7805 190.729 81.7805 189.995C81.7805 187.043 81.7805 182.907 81.7805 180.209C81.7805 178.492 82.6197 176.883 84.0277 175.902C94.0075 168.944 133.825 141.189 133.825 141.189C133.825 141.189 142.882 130.917 145.481 127.969C145.938 127.45 146.476 127.011 147.074 126.667C148.65 125.756 151.971 123.836 154.431 122.416C155.052 122.056 155.817 122.056 156.438 122.416C157.059 122.775 157.442 123.438 157.442 124.154C157.442 130.09 157.442 142.041 157.442 147.284C157.442 148.872 156.595 150.339 155.221 151.134C144.419 157.373 97.3977 184.534 84.8616 191.774Z" fill="#10243E"/>
<path fill-rule="evenodd" clip-rule="evenodd" d="M76.4826 125.366L76.2251 123.955L76.7822 124.017C77.0247 123.576 77.4117 123.166 77.947 122.807C80.1365 121.348 83.9785 121.351 86.5209 122.82L89.5073 124.546C90.0258 124.847 90.4504 125.182 90.7793 125.541L91.3375 125.602L91.4441 126.583C91.8939 127.738 91.4779 128.965 90.1467 129.853C87.9572 131.316 84.1155 131.309 81.5728 129.843L78.5864 128.117C77.2737 127.359 76.5622 126.357 76.4826 125.366Z" fill="#E1E3EE"/>
<path fill-rule="evenodd" clip-rule="evenodd" d="M86.2376 121.206C83.6943 119.737 79.8479 119.73 77.6578 121.192C75.4677 122.654 75.7595 125.033 78.3028 126.502L81.2895 128.227C83.8291 129.694 87.6675 129.701 89.8576 128.239C92.0476 126.777 91.7639 124.398 89.2242 122.931L86.2376 121.206Z" fill="#F2F3F7"/>
<path fill-rule="evenodd" clip-rule="evenodd" d="M66.9052 132.042L66.6477 130.631L67.2048 130.692C67.4473 130.251 67.8343 129.841 68.3696 129.482C70.5591 128.023 74.4012 128.027 76.9435 129.496L79.9299 131.222C80.4484 131.522 80.873 131.857 81.2019 132.216L81.7601 132.278L81.8667 133.258C82.3165 134.414 81.9005 135.64 80.5693 136.529C78.3798 137.991 74.5381 137.985 71.9954 136.519L69.009 134.793C67.6963 134.034 66.9848 133.033 66.9052 132.042Z" fill="#E1E3EE"/>
<path fill-rule="evenodd" clip-rule="evenodd" d="M76.6602 127.881C74.1169 126.412 70.2705 126.406 68.0804 127.868C65.8904 129.33 66.1821 131.708 68.7254 133.177L71.7121 134.902C74.2517 136.369 78.0901 136.376 80.2802 134.915C82.4702 133.453 82.1865 131.073 79.6468 129.606L76.6602 127.881Z" fill="#F2F3F7"/>
<path fill-rule="evenodd" clip-rule="evenodd" d="M57.3276 138.718L57.0701 137.306L57.6272 137.368C57.8697 136.927 58.2567 136.517 58.7919 136.158C60.9815 134.699 64.8235 134.702 67.3659 136.172L70.3523 137.897C70.8708 138.198 71.2954 138.533 71.6243 138.892L72.1825 138.953L72.289 139.934C72.7389 141.089 72.3228 142.316 70.9917 143.205C68.8022 144.667 64.9605 144.66 62.4178 143.194L59.4314 141.469C58.1187 140.71 57.4072 139.709 57.3276 138.718Z" fill="#E1E3EE"/>
<path fill-rule="evenodd" clip-rule="evenodd" d="M67.0828 134.557C64.5395 133.088 60.6931 133.082 58.503 134.544C56.313 136.005 56.6047 138.384 59.148 139.853L62.1347 141.578C64.6743 143.045 68.5127 143.052 70.7028 141.59C72.8929 140.128 72.6091 137.749 70.0694 136.282L67.0828 134.557Z" fill="#F2F3F7"/>
<path fill-rule="evenodd" clip-rule="evenodd" d="M47.7502 145.393L47.4927 143.982L48.0498 144.044C48.2923 143.603 48.6793 143.193 49.2146 142.834C51.4041 141.375 55.2461 141.378 57.7885 142.848L60.7749 144.573C61.2934 144.874 61.718 145.209 62.0469 145.568L62.6051 145.629L62.7116 146.61C63.1615 147.765 62.7454 148.992 61.4143 149.88C59.2248 151.343 55.3831 151.336 52.8404 149.87L49.854 148.144C48.5413 147.386 47.8298 146.384 47.7502 145.393Z" fill="#E1E3EE"/>
<path fill-rule="evenodd" clip-rule="evenodd" d="M57.5049 141.233C54.9616 139.764 51.1152 139.758 48.9252 141.219C46.7351 142.681 47.0269 145.06 49.5702 146.529L52.5568 148.254C55.0965 149.721 58.9348 149.728 61.1249 148.266C63.315 146.804 63.0312 144.425 60.4916 142.958L57.5049 141.233Z" fill="#F2F3F7"/>
<path fill-rule="evenodd" clip-rule="evenodd" d="M90.7375 133.6L90.48 132.189L91.0371 132.25C91.2796 131.809 91.6666 131.399 92.2019 131.04C94.3914 129.581 98.2334 129.585 100.776 131.054L103.762 132.78C104.281 133.081 104.705 133.415 105.034 133.774L105.592 133.836L105.699 134.817C106.149 135.972 105.733 137.198 104.402 138.087C102.212 139.55 98.3704 139.543 95.8277 138.077L92.8413 136.351C91.5286 135.592 90.8171 134.591 90.7375 133.6Z" fill="#E1E3EE"/>
<path fill-rule="evenodd" clip-rule="evenodd" d="M100.492 129.439C97.9489 127.97 94.1025 127.964 91.9125 129.426C89.7224 130.888 90.0142 133.266 92.5575 134.735L95.5441 136.461C98.0838 137.928 101.922 137.934 104.112 136.473C106.302 135.011 106.018 132.631 103.479 131.164L100.492 129.439Z" fill="#F2F3F7"/>
<path fill-rule="evenodd" clip-rule="evenodd" d="M81.1596 140.276L80.9021 138.864L81.4592 138.926C81.7017 138.485 82.0887 138.075 82.624 137.716C84.8135 136.257 88.6555 136.26 91.1979 137.73L94.1843 139.456C94.7028 139.756 95.1274 140.091 95.4563 140.45L96.0145 140.512L96.1211 141.492C96.5709 142.647 96.1549 143.874 94.8237 144.763C92.6342 146.225 88.7925 146.219 86.2498 144.752L83.2634 143.027C81.9507 142.268 81.2392 141.267 81.1596 140.276Z" fill="#E1E3EE"/>
<path fill-rule="evenodd" clip-rule="evenodd" d="M90.9146 136.115C88.3713 134.646 84.5249 134.64 82.3348 136.102C80.1447 137.563 80.4365 139.942 82.9798 141.411L85.9665 143.136C88.5061 144.603 92.3445 144.61 94.5346 143.148C96.7246 141.687 96.4409 139.307 93.9012 137.84L90.9146 136.115Z" fill="#F2F3F7"/>
<path fill-rule="evenodd" clip-rule="evenodd" d="M71.5822 146.951L71.3247 145.54L71.8818 145.601C72.1243 145.161 72.5113 144.751 73.0466 144.392C75.2361 142.933 79.0782 142.936 81.6205 144.405L84.6069 146.131C85.1254 146.432 85.55 146.767 85.8789 147.126L86.4371 147.187L86.5437 148.168C86.9935 149.323 86.5775 150.55 85.2464 151.438C83.0568 152.901 79.2151 152.894 76.6724 151.428L73.686 149.702C72.3733 148.944 71.6618 147.942 71.5822 146.951Z" fill="#E1E3EE"/>
<path fill-rule="evenodd" clip-rule="evenodd" d="M81.3372 142.791C78.7939 141.322 74.9475 141.315 72.7574 142.777C70.5674 144.239 70.8591 146.618 73.4024 148.087L76.3891 149.812C78.9287 151.279 82.7671 151.286 84.9572 149.824C87.1472 148.362 86.8635 145.983 84.3238 144.516L81.3372 142.791Z" fill="#F2F3F7"/>
<path fill-rule="evenodd" clip-rule="evenodd" d="M62.0049 153.627L61.7473 152.216L62.3044 152.277C62.5469 151.836 62.9339 151.426 63.4692 151.067C65.6587 149.608 69.5008 149.612 72.0431 151.081L75.0295 152.807C75.548 153.108 75.9726 153.443 76.3016 153.801L76.8597 153.863L76.9663 154.844C77.4161 155.999 77.0001 157.226 75.669 158.114C73.4794 159.577 69.6377 159.57 67.095 158.104L64.1086 156.378C62.7959 155.619 62.0844 154.618 62.0049 153.627Z" fill="#E1E3EE"/>
<path fill-rule="evenodd" clip-rule="evenodd" d="M71.7593 149.466C69.216 147.997 65.3696 147.991 63.1796 149.453C60.9895 150.915 61.2813 153.293 63.8245 154.763L66.8112 156.488C69.3508 157.955 73.1892 157.962 75.3793 156.5C77.5694 155.038 77.2856 152.658 74.746 151.192L71.7593 149.466Z" fill="#F2F3F7"/>
<path fill-rule="evenodd" clip-rule="evenodd" d="M104.992 141.834L104.735 140.422L105.292 140.484C105.534 140.043 105.921 139.633 106.456 139.274C108.646 137.815 112.488 137.818 115.03 139.288L118.017 141.013C118.535 141.314 118.96 141.649 119.289 142.008L119.847 142.069L119.954 143.05C120.403 144.205 119.987 145.432 118.656 146.321C116.467 147.783 112.625 147.776 110.082 146.31L107.096 144.585C105.783 143.826 105.072 142.825 104.992 141.834Z" fill="#E1E3EE"/>
<path fill-rule="evenodd" clip-rule="evenodd" d="M114.747 137.673C112.204 136.204 108.357 136.198 106.167 137.66C103.977 139.121 104.269 141.5 106.812 142.969L109.799 144.694C112.339 146.161 116.177 146.168 118.367 144.706C120.557 143.244 120.273 140.865 117.734 139.398L114.747 137.673Z" fill="#F2F3F7"/>
<path fill-rule="evenodd" clip-rule="evenodd" d="M95.4145 148.509L95.157 147.098L95.7141 147.16C95.9566 146.719 96.3436 146.309 96.8789 145.95C99.0684 144.491 102.91 144.494 105.453 145.964L108.439 147.689C108.958 147.99 109.382 148.325 109.711 148.684L110.269 148.745L110.376 149.726C110.826 150.881 110.41 152.108 109.079 152.996C106.889 154.459 103.047 154.452 100.505 152.986L97.5183 151.26C96.2056 150.502 95.4941 149.5 95.4145 148.509Z" fill="#E1E3EE"/>
<path fill-rule="evenodd" clip-rule="evenodd" d="M105.169 144.349C102.626 142.88 98.7795 142.873 96.5895 144.335C94.3994 145.797 94.6912 148.176 97.2345 149.645L100.221 151.37C102.761 152.837 106.599 152.844 108.789 151.382C110.979 149.92 110.695 147.541 108.156 146.074L105.169 144.349Z" fill="#F2F3F7"/>
<path fill-rule="evenodd" clip-rule="evenodd" d="M101.011 156.288C101.332 157.477 100.909 158.869 99.9091 159.448L90.0358 166.268C89.9986 166.295 89.9606 166.322 89.9227 166.349C87.7332 167.81 83.8914 167.802 81.3489 166.333L78.3624 164.611C77.0498 163.852 76.2635 162.893 76.1841 161.899L75.7417 160.311L76.5583 160.511C76.8006 160.07 77.1878 159.659 77.723 159.303C79.9128 157.838 83.7546 157.845 86.2971 159.314L89.0574 160.91L90.9892 159.694C90.9685 159.682 90.9474 159.671 90.9267 159.659L87.9402 157.933C86.6272 157.174 85.916 156.173 85.8363 155.183L85.5787 153.772L86.1357 153.833C86.3784 153.392 86.7656 152.982 87.3008 152.625C89.4902 151.164 93.332 151.168 95.8745 152.637L98.861 154.363C99.3793 154.662 99.8041 154.999 100.133 155.36L100.828 155.598L101.011 156.288Z" fill="#40C3FD"/>
<path fill-rule="evenodd" clip-rule="evenodd" d="M95.6701 151.065C93.034 149.542 89.0486 149.538 86.7821 151.051L77.2665 157.402C74.9904 158.922 75.294 161.383 77.9301 162.906L80.901 164.622C83.5371 166.145 87.5092 166.153 89.7853 164.634L99.3009 158.282C101.567 156.769 101.277 154.304 98.641 152.781L95.6701 151.065Z" fill="#DBA17B"/>
<path d="M156.736 150.87L111.014 177.279L135.825 191.61L181.546 165.201L156.736 150.87Z" fill="#10243E"/>
<path d="M135.823 191.611L111.012 177.28V186.024L135.823 200.355V191.611Z" fill="#DBA17B"/>
<path d="M161.613 177.146L156.239 180.25V188.567L161.613 185.462V177.146Z" fill="#E1E3EE"/>
<path d="M135.156 161.867L129.809 164.956L156.263 180.236L161.61 177.147L135.156 161.867Z" fill="#F2F3F7"/>
<path d="M154.355 142.158L108.634 168.567L133.444 182.898L179.166 156.488L154.355 142.158Z" fill="#40C3FD"/>
<path fill-rule="evenodd" clip-rule="evenodd" d="M154.353 142.161L111.013 167.195C117.788 173.166 127.358 177.166 136.102 181.687L179.536 156.708L154.353 142.161Z" fill="#10243E"/>
<path d="M133.443 182.899L108.632 168.568V177.312L133.443 191.643V182.899Z" fill="#DBA17B"/>
<path d="M159.233 168.434L153.858 171.538V179.854L159.233 176.75V168.434Z" fill="#E1E3EE"/>
<path fill-rule="evenodd" clip-rule="evenodd" d="M153.206 140.266C140.285 150.309 126.838 158.267 107.529 162.818C113.999 169.398 123.176 174.389 132.523 179.284C148.555 174.849 164.234 166.614 179.168 155.262L153.206 140.266Z" fill="#DBA17B"/>
<path d="M152.139 167.286C157.002 164.477 157.002 159.922 152.139 157.113C147.276 154.304 139.391 154.304 134.527 157.113C129.664 159.922 129.664 164.477 134.527 167.286C139.391 170.095 147.276 170.095 152.139 167.286Z" fill="#40C3FD"/>
<path fill-rule="evenodd" clip-rule="evenodd" d="M131.148 167.157C131.281 167.348 125.972 169.841 124.336 170.118L125.878 171.508C125.878 171.508 129.926 170.147 132.917 168.179L131.148 167.157Z" fill="#40C3FD"/>
<path fill-rule="evenodd" clip-rule="evenodd" d="M159.927 150.572C160.06 150.761 155.57 153.833 153.857 154.593L155.399 155.984C155.399 155.984 159.108 154.308 161.696 151.591L159.927 150.572Z" fill="#40C3FD"/>
<path d="M132.776 153.155L127.429 156.243L153.883 171.524L159.23 168.435L132.776 153.155Z" fill="#F2F3F7"/>
<path fill-rule="evenodd" clip-rule="evenodd" d="M89.1237 193.236L98.6898 197.539L86.7869 196.316V193.236H89.1237ZM110.593 193.285V196.49L102.468 199.456L108.106 193.285H110.593Z" fill="#FFBE55"/>
<path d="M105.499 197.164C109.26 194.991 109.26 191.47 105.499 189.297C101.738 187.125 95.6413 187.125 91.8808 189.297C88.1203 191.469 88.1204 194.991 91.8811 197.163C95.6418 199.336 101.739 199.336 105.499 197.164Z" fill="#FFBE55"/>
<mask id="mask2_444_341" style="mask-type:luminance" maskUnits="userSpaceOnUse" x="89" y="187" width="20" height="12">
<path d="M105.499 197.164C109.26 194.991 109.26 191.47 105.499 189.297C101.738 187.125 95.6413 187.125 91.8808 189.297C88.1203 191.469 88.1204 194.991 91.8811 197.163C95.6418 199.336 101.739 199.336 105.499 197.164Z" fill="white"/>
</mask>
<g mask="url(#mask2_444_341)">
<path d="M105.499 198.053C109.26 195.881 109.26 192.359 105.499 190.187C101.738 188.014 95.6413 188.014 91.8808 190.186C88.1203 192.359 88.1204 195.88 91.8811 198.053C95.6418 200.225 101.739 200.225 105.499 198.053Z" fill="#F3D97E"/>
</g>
<path fill-rule="evenodd" clip-rule="evenodd" d="M89.9511 189.66L99.5172 193.962L87.6143 192.74V189.66H89.9511ZM111.42 189.709V192.914L103.295 195.88L108.934 189.709H111.42Z" fill="#FFBE55"/>
<path d="M106.327 193.587C110.087 191.415 110.087 187.894 106.326 185.721C102.566 183.549 96.4687 183.549 92.7082 185.721C88.9477 187.893 88.9478 191.415 92.7085 193.587C96.4692 195.759 102.566 195.76 106.327 193.587Z" fill="#FFBE55"/>
<mask id="mask3_444_341" style="mask-type:luminance" maskUnits="userSpaceOnUse" x="89" y="184" width="21" height="12">
<path d="M106.327 193.587C110.087 191.415 110.087 187.894 106.326 185.721C102.566 183.549 96.4687 183.549 92.7082 185.721C88.9477 187.893 88.9478 191.415 92.7085 193.587C96.4692 195.759 102.566 195.76 106.327 193.587Z" fill="white"/>
</mask>
<g mask="url(#mask3_444_341)">
<path d="M106.327 194.477C110.088 192.304 110.087 188.783 106.327 186.61C102.566 184.438 96.4689 184.438 92.7084 186.61C88.9479 188.782 88.9481 192.304 92.7087 194.476C96.4694 196.649 102.567 196.649 106.327 194.477Z" fill="#F3D97E"/>
</g>
<path fill-rule="evenodd" clip-rule="evenodd" d="M89.1237 186.194L98.6898 190.497L86.7869 189.275V186.194H89.1237ZM110.593 186.243V189.448L102.468 192.414L108.106 186.243H110.593Z" fill="#FFBE55"/>
<path d="M105.499 190.122C109.26 187.949 109.26 184.428 105.499 182.255C101.738 180.083 95.6413 180.083 91.8808 182.255C88.1203 184.427 88.1204 187.949 91.8811 190.121C95.6418 192.294 101.739 192.294 105.499 190.122Z" fill="#FFBE55"/>
<mask id="mask4_444_341" style="mask-type:luminance" maskUnits="userSpaceOnUse" x="89" y="180" width="20" height="12">
<path d="M105.499 190.122C109.26 187.949 109.26 184.428 105.499 182.255C101.738 180.083 95.6413 180.083 91.8808 182.255C88.1203 184.427 88.1204 187.949 91.8811 190.121C95.6418 192.294 101.739 192.294 105.499 190.122Z" fill="white"/>
</mask>
<g mask="url(#mask4_444_341)">
<path d="M105.5 191.011C109.26 188.839 109.26 185.317 105.499 183.145C101.739 180.972 95.6415 180.972 91.881 183.144C88.1205 185.317 88.1207 188.838 91.8813 191.011C95.642 193.183 101.739 193.183 105.5 191.011Z" fill="#F3D97E"/>
</g>
<path fill-rule="evenodd" clip-rule="evenodd" d="M110.656 200.729L120.222 205.032L108.32 203.81V200.729H110.656ZM132.125 200.778V203.984L124 206.95L129.639 200.778H132.125Z" fill="#FFBE55"/>
<path d="M127.032 204.657C130.792 202.485 130.792 198.963 127.032 196.791C123.271 194.619 117.174 194.619 113.413 196.791C109.653 198.963 109.653 202.485 113.414 204.657C117.174 206.829 123.271 206.829 127.032 204.657Z" fill="#FFBE55"/>
<mask id="mask5_444_341" style="mask-type:luminance" maskUnits="userSpaceOnUse" x="110" y="195" width="20" height="12">
<path d="M127.032 204.657C130.792 202.485 130.792 198.963 127.032 196.791C123.271 194.619 117.174 194.619 113.413 196.791C109.653 198.963 109.653 202.485 113.414 204.657C117.174 206.829 123.271 206.829 127.032 204.657Z" fill="white"/>
</mask>
<g mask="url(#mask5_444_341)">
<path d="M127.032 205.546C130.793 203.374 130.792 199.852 127.032 197.68C123.271 195.508 117.174 195.508 113.413 197.68C109.653 199.852 109.653 203.374 113.414 205.546C117.174 207.718 123.272 207.718 127.032 205.546Z" fill="#F3D97E"/>
</g>
<path fill-rule="evenodd" clip-rule="evenodd" d="M111.69 196.863L121.256 201.165L109.353 199.943V196.863H111.69ZM133.159 196.912V200.117L125.034 203.083L130.673 196.912H133.159Z" fill="#FFBE55"/>
<path d="M128.065 200.791C131.826 198.618 131.826 195.097 128.065 192.924C124.304 190.752 118.207 190.752 114.447 192.924C110.686 195.096 110.686 198.618 114.447 200.79C118.208 202.963 124.305 202.963 128.065 200.791Z" fill="#FFBE55"/>
<mask id="mask6_444_341" style="mask-type:luminance" maskUnits="userSpaceOnUse" x="111" y="191" width="20" height="12">
<path d="M128.065 200.791C131.826 198.618 131.826 195.097 128.065 192.924C124.304 190.752 118.207 190.752 114.447 192.924C110.686 195.096 110.686 198.618 114.447 200.79C118.208 202.963 124.305 202.963 128.065 200.791Z" fill="white"/>
</mask>
<g mask="url(#mask6_444_341)">
<path d="M128.066 201.68C131.826 199.508 131.826 195.986 128.065 193.814C124.305 191.641 118.207 191.641 114.447 193.813C110.686 195.985 110.687 199.507 114.447 201.68C118.208 203.852 124.305 203.852 128.066 201.68Z" fill="#F3D97E"/>
</g>
<path fill-rule="evenodd" clip-rule="evenodd" d="M10.8542 188.334C20.283 182.293 28.1164 182.083 37.665 189.242C44.9777 194.725 58.5679 190.048 59.5903 195.655C62.7066 212.727 38.4981 203.544 28.3289 197.67C18.1597 191.796 2.27544 193.83 10.8542 188.334Z" fill="#E1E3EE"/>
<path fill-rule="evenodd" clip-rule="evenodd" d="M46.5514 189.407C46.5514 189.407 56.9376 188.93 61.2189 187.626C65.5003 186.322 66.92 190.867 61.6591 194.382C56.3983 197.897 49.7325 199.992 47.9501 198.173C46.1676 196.354 46.5514 189.407 46.5514 189.407Z" fill="#10243E"/>
<path fill-rule="evenodd" clip-rule="evenodd" d="M49.0939 133.209C49.0939 133.209 57.3581 173.853 57.9817 189.065C57.9817 189.065 51.1874 197.551 40.0082 192.443C40.0082 192.443 35.9269 148.19 31.3906 135.896C31.3906 135.896 37.2105 129.649 49.0939 133.209Z" fill="#B7760D"/>
<mask id="mask7_444_341" style="mask-type:luminance" maskUnits="userSpaceOnUse" x="31" y="132" width="27" height="63">
<path d="M49.0939 133.209C49.0939 133.209 57.3581 173.853 57.9817 189.065C57.9817 189.065 51.1874 197.551 40.0082 192.443C40.0082 192.443 35.9269 148.19 31.3906 135.896C31.3906 135.896 37.2105 129.649 49.0939 133.209Z" fill="white"/>
</mask>
<g mask="url(#mask7_444_341)">
<path fill-rule="evenodd" clip-rule="evenodd" d="M51.2955 138.708L51.936 142.63C51.936 142.63 43.2495 150.876 32.4844 146.555L31.3909 139.524L51.2955 138.708Z" fill="#10243E"/>
</g>
<path fill-rule="evenodd" clip-rule="evenodd" d="M10.4234 182.454C10.4234 182.454 20.2827 183.253 24.4842 182.512C28.6857 181.771 29.4619 186.335 24.0622 189.093C18.6626 191.85 12.1132 193.066 10.6568 191.092C9.20038 189.118 10.4234 182.454 10.4234 182.454Z" fill="#10243E"/>
<path fill-rule="evenodd" clip-rule="evenodd" d="M29.7643 127.937C29.7643 127.937 27.0854 167.283 23.9731 182.075C23.9731 182.075 16.9651 188.163 5.41647 183.456C5.41647 183.456 13.2541 139.122 11.9507 126.083C11.9507 126.083 19.1541 121.502 29.7643 127.937Z" fill="#B7760D"/>
<mask id="mask8_444_341" style="mask-type:luminance" maskUnits="userSpaceOnUse" x="5" y="124" width="25" height="62">
<path d="M29.7641 127.938C29.7641 127.938 27.0863 167.284 23.9743 182.076C23.9743 182.076 16.9662 188.163 5.41701 183.455C5.41701 183.455 13.2536 139.123 11.9498 126.083C11.9498 126.083 19.1533 121.502 29.7641 127.938Z" fill="white"/>
</mask>
<g mask="url(#mask8_444_341)">
<path fill-rule="evenodd" clip-rule="evenodd" d="M30.5148 133.814L31.3911 142.749C31.3911 142.749 22.1269 149.35 10.3358 136.673L11.0428 129.595L30.5148 133.814Z" fill="#10243E"/>
</g>
<path d="M48.8909 97.6276C57.0263 99.5622 65.1889 94.5325 67.1227 86.3934C69.0565 78.2542 64.0291 70.0878 55.8937 68.1532C47.7583 66.2185 39.5957 71.2482 37.6619 79.3873C35.7282 87.5265 40.7556 95.6929 48.8909 97.6276Z" fill="#DBA17B"/>
<path fill-rule="evenodd" clip-rule="evenodd" d="M65.5356 83.8365C65.5356 83.8365 68.6322 83.0049 69.6608 84.5099C70.6894 86.0149 65.2102 88.4955 65.2102 88.4955L65.5356 83.8365Z" fill="#DBA17B"/>
<path fill-rule="evenodd" clip-rule="evenodd" d="M53.4992 96.9633C57.4288 99.664 57.5445 105.17 57.5782 110.678C57.6046 115.003 53.9316 122.909 53.9316 122.909L57.4192 139.919C57.4192 139.919 26.6706 150.882 7.80884 127.093L15.9971 111.106L23.1414 88.3691C23.1414 88.3691 48.4 93.4596 53.4992 96.9633Z" fill="#FFBE55"/>
<path fill-rule="evenodd" clip-rule="evenodd" d="M80.1518 124.395C80.1518 124.395 77.5262 120.502 79.7077 116.97C79.7077 116.97 84.2991 114.757 88.0463 114.943C91.7933 115.13 92.6332 116.512 94.5257 118.844C96.4185 121.177 94.1846 122.376 92.8239 120.984C91.6789 119.813 90.5822 119.102 90.2821 119.435C90.2821 119.435 91.4353 120.977 91.0493 123.44C90.6635 125.903 87.3581 125.333 87.3581 125.333C87.3581 125.333 86.232 127.865 84.0369 125.979C84.0369 125.979 82.362 126.746 80.1518 124.395Z" fill="#DBA17B"/>
<path fill-rule="evenodd" clip-rule="evenodd" d="M55.1158 98.5683C55.1158 98.5683 62.5128 108.452 66.2157 112.107C68.0607 113.928 72.4111 113.999 78.3085 114.075C78.3085 114.075 83.7773 114.88 84.5402 121.129C85.0217 125.073 82.2041 129.498 77.7117 130.326C77.7117 130.326 69.5106 128.853 62.4283 126.045C54.9546 123.083 49.833 113.459 46.1855 105.447C46.1855 105.447 48.6556 98.2002 55.1158 98.5683Z" fill="#FFBE55"/>
<path fill-rule="evenodd" clip-rule="evenodd" d="M55.2045 120.052C55.5982 119.645 53.3554 117.545 52.0013 115.38C50.9144 113.641 49.0569 110.327 48.6003 108.649C48.6003 108.649 46.9605 114.164 49.4093 117.743C51.8217 121.269 54.591 120.686 55.2045 120.052Z" fill="#10243E"/>
<path fill-rule="evenodd" clip-rule="evenodd" d="M35.5453 65.4084C35.5453 65.4084 31.9933 66.1764 29.6772 70.3798C27.3612 74.5832 24.9499 78.3042 20.9933 77.8032C17.0363 77.3021 11.7988 82.1422 12.6197 86.7491C12.6197 86.7491 5.50205 85.537 3.98757 94.3924C2.47316 103.247 9.9 106.526 14.4392 105.825C14.4392 105.825 16.2172 115.038 25.4884 112.649C25.4884 112.649 35.2642 119.239 39.8243 111.836C39.8243 111.836 51.018 112.334 49.3787 102.652C49.3787 102.652 55.8348 100.632 54.1761 94.16C52.5177 87.6883 54.2236 85.2268 54.2236 85.2268C54.2236 85.2268 58.2567 83.7854 58.7412 79.0607C58.7412 79.0607 69.7675 77.0347 68.9414 69.139C68.1149 61.2432 59.67 57.0237 54.5161 63.2925C54.1078 59.1254 41.653 55.0172 35.5453 65.4084Z" fill="#10243E"/>
<path d="M130.35 89.0717C139.783 98.5083 155.075 98.5083 164.508 89.0717C173.94 79.635 173.94 64.3352 164.508 54.8986C155.075 45.4619 139.783 45.4619 130.35 54.8986C120.918 64.3352 120.918 79.635 130.35 89.0717Z" fill="#B7760D"/>
<path fill-rule="evenodd" clip-rule="evenodd" d="M127.778 94.7653C126.896 95.0316 125.938 94.7903 125.287 94.1391C124.636 93.4879 124.395 92.5296 124.661 91.6472C126.625 85.1307 130.047 73.7817 130.047 73.7817L145.637 89.3796C145.637 89.3796 134.291 92.8002 127.778 94.7653Z" fill="#B7760D"/>
<path fill-rule="evenodd" clip-rule="evenodd" d="M151.356 75.4387V78.4466H155.283L147.428 88.2475L139.572 78.4466H143.5V75.4387C144.697 75.9829 146.027 76.2846 147.428 76.2846C148.826 76.2846 150.157 75.9829 151.356 75.4387Z" fill="#F2F3F7"/>
<path fill-rule="evenodd" clip-rule="evenodd" d="M147.428 58.8892C151.763 58.8892 155.283 62.4116 155.283 66.7484C155.283 71.0872 151.763 74.6078 147.428 74.6078C143.091 74.6078 139.572 71.0872 139.572 66.7484C139.572 62.4116 143.091 58.8892 147.428 58.8892ZM146.826 67.3889V69.1603C146.64 69.1362 146.449 69.0992 146.257 69.0455C145.918 68.953 145.581 68.8086 145.243 68.6161L144.725 69.8896C145.063 70.1043 145.452 70.2653 145.894 70.3727C146.201 70.4467 146.512 70.4949 146.826 70.5171V71.6517H147.862V70.5004C148.277 70.456 148.638 70.3653 148.945 70.2265C149.396 70.0229 149.735 69.7508 149.959 69.4083C150.184 69.0659 150.295 68.6883 150.295 68.2737C150.295 67.8868 150.218 67.5703 150.062 67.3204C149.907 67.0724 149.705 66.8725 149.457 66.7207C149.207 66.5671 148.934 66.443 148.634 66.3468C148.377 66.2635 148.12 66.1932 147.862 66.1321V64.3977C148.166 64.4255 148.469 64.4903 148.767 64.5902C149.193 64.7327 149.561 64.9141 149.872 65.1344L150.442 63.8702C150.116 63.6221 149.689 63.4204 149.156 63.2649C148.739 63.1427 148.308 63.0687 147.862 63.0428V61.9118H146.826V63.0669C146.425 63.1131 146.073 63.2057 145.776 63.3426C145.324 63.55 144.984 63.822 144.756 64.1608C144.527 64.4995 144.414 64.8716 144.414 65.2806C144.414 65.6601 144.492 65.9747 144.647 66.2228C144.802 66.4708 145.004 66.6707 145.252 66.8243C145.502 66.9761 145.776 67.0965 146.075 67.1853C146.327 67.2612 146.577 67.3278 146.826 67.3889ZM146.826 64.4366V65.8711C146.615 65.8026 146.443 65.7174 146.308 65.6156C146.157 65.5027 146.081 65.3491 146.081 65.1547C146.081 65.003 146.129 64.8697 146.225 64.7512C146.323 64.6346 146.473 64.5421 146.677 64.4773C146.723 64.4625 146.773 64.4477 146.826 64.4366ZM147.862 69.127V67.6499C148.083 67.7165 148.262 67.8017 148.401 67.9053C148.553 68.0201 148.628 68.17 148.628 68.357C148.628 68.5162 148.584 68.655 148.493 68.7771C148.405 68.8975 148.255 68.9956 148.049 69.0714C147.99 69.0937 147.929 69.1103 147.862 69.127Z" fill="#F2F3F7"/>
</g>
<circle cx="194" cy="187.713" r="3.71287" fill="white"/>
<circle cx="206.129" cy="187.465" r="2.9703" fill="#CBCDFF"/>
<circle cx="216.772" cy="187.218" r="2.22772" fill="#98A9FF"/>
<circle cx="181.871" cy="187.465" r="2.9703" fill="#CBCDFF"/>
<circle cx="171.228" cy="187.218" r="2.22772" fill="#98A9FF"/>
<defs>
<clipPath id="clip0_444_341">
<rect width="277.521" height="200" fill="white" transform="translate(-46 26)"/>
</clipPath>
</defs>
</svg>
