<svg width="370" height="299" viewBox="0 0 370 299" fill="none" xmlns="http://www.w3.org/2000/svg">
<path d="M396.453 131.186C396.453 160.361 415.683 267.213 396.453 289C367.928 321.318 291.508 262.372 239.844 262.372C153.351 262.372 83.234 203.638 83.234 131.186C83.234 58.734 153.351 0 239.844 0C326.337 0 396.453 58.734 396.453 131.186Z" fill="#E05B49"/>
<ellipse cx="111.461" cy="223.647" rx="103.461" ry="73.3525" fill="#E05B49"/>
<path d="M125.24 155.436C125.24 166.445 116.315 175.37 105.306 175.37C94.296 175.37 85.3717 166.445 85.3717 155.436C85.3717 144.426 94.296 135.501 105.306 135.501C116.315 135.501 125.24 144.426 125.24 155.436Z" fill="#FFCE72"/>
<path d="M121.575 155.436C121.575 164.421 114.292 171.705 105.306 171.705C96.3206 171.705 89.036 164.421 89.036 155.436C89.036 146.449 96.3206 139.166 105.306 139.166C114.292 139.166 121.575 146.449 121.575 155.436Z" fill="#FAAA41"/>
<path d="M103.369 147.06C106.633 146.05 110.059 146.267 111.326 149.429L106.053 151.538C105.547 150.354 104.217 150.589 103.447 150.897C102.964 151.091 101.397 151.718 101.783 152.686C102.651 154.852 111.468 148.712 113.92 154.839C115.391 158.514 113.061 161.036 109.63 162.704L111.421 166.519L108.201 167.807L106.825 163.795C103.411 164.764 99.7453 164.447 98.4222 161.14L103.695 159.03L103.74 159.144C104.35 160.585 106.089 160.221 106.915 159.89C107.715 159.57 109.26 158.887 108.835 157.831C107.935 155.581 99.0383 161.522 96.6649 155.594C95.2978 152.175 97.423 149.802 100.587 148.207L98.8139 144.353L102.033 143.064L103.369 147.06V147.06Z" fill="#FFCE72"/>
<path d="M87.6688 145.438C87.9139 145.48 88.0209 144.914 88.1214 144.759C88.3236 144.447 90.1878 143.679 89.9139 143.444C89.5825 143.16 88.9617 143.18 88.5703 143.236C88.1724 143.292 87.6451 143.47 87.4469 143.808C87.1899 144.248 87.2002 144.897 87.5068 145.312L87.6688 145.438Z" fill="#E7A192"/>
<path d="M90.9367 142.927C91.1783 142.974 92.2033 143.336 92.292 142.901C92.3952 142.387 91.3305 142.137 91.0136 142.177C90.8324 142.199 90.6509 142.194 90.4619 142.188C90.1749 142.181 89.8683 142.174 89.52 142.263C89.0659 142.38 88.6369 142.493 88.1775 142.604C87.9269 142.665 87.7301 142.863 87.4901 142.961C87.2955 143.04 86.912 143.292 86.5871 143.291C86.5116 143.291 86.376 143.262 86.235 143.231L86.1973 143.398C85.9362 144.084 85.674 144.653 85.3716 145.256C85.6988 145.302 86.3172 145.293 86.5205 145.261C86.7882 145.215 86.9694 145.276 87.216 145.361C87.4297 145.436 87.645 145.519 87.8605 145.596C88.0339 145.657 88.2007 145.761 88.3874 145.798C88.5517 145.83 88.8504 145.822 88.8818 145.615C88.9103 145.436 88.7616 145.209 88.6326 145.098C88.4029 144.9 87.6267 144.949 87.7717 144.505C87.8367 144.306 88.0231 144.135 88.1604 143.984C88.3235 143.802 88.4969 143.755 88.7162 143.684C89.1415 143.545 89.5901 143.494 90.0349 143.568C90.3129 143.613 90.5659 143.656 90.8162 143.494C91.0097 143.369 91.0995 143.235 90.8466 143.065L90.5685 142.915C90.7161 142.907 90.8478 142.908 90.9365 142.927H90.9367Z" fill="#FBCDC2"/>
<path d="M54.794 126.235C56.5982 124.551 59.4135 124.572 61.3509 126.101C64.5301 128.609 70.4553 133.254 72.3679 134.537C75.0278 136.323 86.8536 142.72 86.8536 142.72L85.3507 146.04C85.3507 146.04 70.7774 140.681 68.6744 139.232C66.5703 137.784 54.4928 131.542 53.8403 128.752C53.6122 127.773 54.0608 126.92 54.7941 126.235H54.794Z" fill="#F1666E"/>
<path d="M85.3506 146.04C85.3506 146.04 70.7773 140.68 68.6743 139.232C67.6555 138.53 64.2937 136.704 61.0259 134.689C62.1374 132.363 63.293 129.894 64.0656 128.235C67.1796 130.673 70.921 133.567 72.3679 134.537C75.0278 136.323 86.8536 142.719 86.8536 142.719L86.5955 143.291L85.6939 145.281L85.3507 146.039L85.3506 146.04Z" fill="#E85058"/>
<path d="M45.4415 155.816H30.353L4.15894 182.22H21.1326L45.4415 155.816Z" fill="#2C2A43"/>
<path d="M138.558 155.816H153.647L179.841 182.22H162.867L138.558 155.816Z" fill="#2C2A43"/>
<path d="M37.2006 247.183H146.799V155.816H37.2006V247.183Z" fill="#FFCE72"/>
<path d="M50.9688 212.078H58.016V190.141H50.9688V212.078Z" fill="#FEFEFE"/>
<path d="M70.0976 195.4V206.818H72.4251C75.5181 206.818 76.8579 205.06 76.8579 202.065V200.152C76.8579 197.153 75.5181 195.4 72.4251 195.4H70.0976ZM72.553 190.14C80.0462 190.14 84.0644 193.615 84.0644 201.107C84.0644 208.602 80.0462 212.078 72.553 212.078H63.0519V190.14H72.553Z" fill="#FEFEFE"/>
<path d="M87.8525 212.078V190.14H106.825V195.4H94.8998V198.43H105.104V203.467H94.8998V206.818H107.048V212.078H87.8525Z" fill="#FEFEFE"/>
<path d="M120.754 196.262L118.426 204.074H123.177L120.882 196.262H120.754ZM133.031 212.078H125.569L124.644 208.986H116.96L116.035 212.078H108.829L116.832 190.14H125.028L133.031 212.078H133.031Z" fill="#FEFEFE"/>
<path d="M39.734 162.85L40.5391 160.439H76.5683L75.8013 162.85H39.734Z" fill="#2C2A43"/>
<path d="M35.4514 175.695L36.2638 173.258H72.4864L71.7103 175.695H35.4514Z" fill="#2C2A43"/>
<path d="M45.1545 150.005L45.9581 147.594H81.9888L81.2203 150.005H45.1545Z" fill="#2C2A43"/>
<path d="M31.1226 188.676L31.9447 186.215H68.3615L67.5759 188.676H31.1226Z" fill="#2C2A43"/>
<path d="M26.7487 201.799L27.5781 199.31H64.1908L63.3976 201.799H26.7487Z" fill="#2C2A43"/>
<path d="M22.3247 215.064L23.1648 212.547H59.9754L59.1734 215.064H22.3247Z" fill="#2C2A43"/>
<path d="M17.8539 228.472L18.7034 225.928H55.7137L54.9034 228.472H17.8539Z" fill="#2C2A43"/>
<path d="M13.72 247.773H13.5503C12.4128 247.773 11.6092 246.657 11.9694 245.579L45.8068 144.221C46.0338 143.54 46.6703 143.082 47.388 143.082H49.7192L15.3023 246.632C15.0753 247.312 14.4374 247.773 13.7199 247.773L13.72 247.773Z" fill="#2C2A43"/>
<path d="M50.37 247.773H50.1848C49.0565 247.773 48.2541 246.674 48.5972 245.599L80.9488 144.242C81.1695 143.551 81.8111 143.082 82.5366 143.082H82.5718C83.7 143.082 84.5025 144.178 84.1608 145.253L51.9579 246.61C51.7386 247.303 51.0956 247.773 50.37 247.773Z" fill="#2C2A43"/>
<path d="M65.0713 116.348L65.1704 116.656C65.5187 117.596 65.8945 118.562 66.4267 119.415C66.7517 119.934 67.3804 120.461 67.6307 120.966C67.7324 121.168 67.8459 121.361 67.9699 121.545C67.1497 122.739 65.0204 125.892 64.5052 127.266C64.5052 127.266 60.4859 125.085 59.7345 122.717C59.7345 122.717 63.5608 118.875 65.0714 116.348L65.0713 116.348Z" fill="#FBCDC2"/>
<path d="M64.1424 124.305C64.3902 122.99 64.2518 121.532 63.6743 120.314C63.4746 119.894 63.2579 119.5 63.0138 119.123C63.8059 118.178 64.5677 117.191 65.0713 116.348L65.1704 116.656C65.5188 117.596 65.8945 118.562 66.4267 119.415C66.7518 119.934 67.3805 120.461 67.6308 120.966C67.7324 121.168 67.846 121.361 67.9699 121.545C67.1497 122.739 65.0204 125.892 64.5053 127.266C64.5053 127.266 63.8164 126.89 62.958 126.286C63.5489 125.789 63.9898 125.108 64.1424 124.305V124.305Z" fill="#E7A192"/>
<path d="M52.9779 195.011C52.9779 195.011 53.1032 199.56 53.8143 200.182C54.5265 200.803 63.5747 201.075 64.3535 200.245C65.1327 199.415 64.6745 198.018 62.732 197.478C60.65 196.9 59.6297 197.466 58.3255 196.924C57.0208 196.381 57.3651 194.324 57.3651 194.324L52.9778 195.011H52.9779Z" fill="#2C2A43"/>
<path d="M30.5368 194.857C30.5368 194.857 29.839 199.288 30.5263 199.936C31.2127 200.586 40.4305 201.31 41.2408 200.51C42.051 199.71 41.6465 198.296 39.7276 197.683C37.669 197.026 36.6724 197.443 35.344 196.959C34.2992 196.578 35.0038 194.469 35.0038 194.469L30.5366 194.857H30.5368Z" fill="#2C2A43"/>
<path d="M37.2253 169.356C37.0245 156.771 38.4633 148.116 39.1146 144.064C40.62 144.121 42.1291 144.253 43.632 144.938C46.3951 146.195 49.1726 147.402 51.9471 148.611C49.6929 153.272 44.7616 168.488 44.167 171.674C43.4286 175.636 35.1484 195.841 35.1484 195.841L30.1388 195.211C30.2198 191.955 37.2422 170.448 37.2253 169.356V169.356Z" fill="#268CCB"/>
<path d="M44.8205 169.142C44.8164 169.134 44.8138 169.126 44.8113 169.119C45.2472 167.573 45.8553 165.579 46.5437 163.427C46.5464 163.431 46.5489 163.436 46.5515 163.44C45.7546 165.931 45.1193 168.038 44.8205 169.142Z" fill="#5F838E"/>
<path d="M44.8113 169.119C44.0913 166.983 40.714 161.872 39.4145 156.279C38.5455 152.538 38.3932 148.664 38.9866 144.871C39.0099 144.893 39.0337 144.913 39.0569 144.936C39.1157 146.052 39.3805 147.13 39.4822 147.641C39.9729 150.099 40.9199 153.473 43.709 158.722C44.4501 160.116 45.4403 161.678 46.5439 163.426C45.8553 165.579 45.2474 167.572 44.8114 169.118L44.8113 169.119Z" fill="#2674B9"/>
<path d="M43.76 146.047C45.7118 146.707 49.264 147.652 51.9472 148.611C53.8155 153.331 59.335 164.475 59.6219 169.514C59.9388 175.074 58.0133 196.137 58.0133 196.137H52.28C52.28 196.137 51.749 172.396 50.9469 170.871C48.2985 165.84 45.3722 161.852 43.7088 158.722C40.9198 153.473 39.9728 150.099 39.4821 147.642C39.2657 146.557 38.3172 142.919 40.1592 141.78C41.6817 142.213 42.1254 145.496 43.76 146.047Z" fill="#268CCB"/>
<path d="M53.3721 150.744C53.3721 150.744 48.1823 150.522 44.0547 148.145C40.9983 146.384 39.366 145.582 37.9545 143.723C37.9545 143.723 47.037 129.052 51.5756 125.188C56.1155 121.325 60.329 122.105 60.329 122.105C60.329 122.105 62.5248 125.195 64.981 126.265C64.981 126.265 60.569 135.811 58.6461 139.548C56.722 143.287 53.3721 150.744 53.3721 150.744V150.744Z" fill="#F1666E"/>
<path d="M53.3721 150.744C53.3721 150.744 53.4945 150.472 53.7045 150.005H53.7059C53.4943 150.472 53.3719 150.744 53.3719 150.744H53.3721Z" fill="#EAA3AB"/>
<path d="M53.7059 150.005H53.7045C53.9603 149.442 54.3475 148.591 54.8057 147.594C54.3474 148.591 53.9615 149.442 53.7059 150.005Z" fill="#282738"/>
<path d="M53.3721 150.744C53.351 150.743 51.731 150.658 49.6083 150.189C52.5279 146.27 54.524 140.303 55.4696 135.302C55.8126 133.495 56.0279 130.579 57.2231 128.653C57.4029 128.871 57.5896 129.087 57.7511 129.319C58.7178 130.697 59.6544 132.151 61.0452 133.142C61.2202 133.265 61.4169 133.359 61.6155 133.449L61.6037 133.474C61.3508 134.009 61.0948 134.545 60.843 135.071L60.7295 135.307C60.5039 135.779 60.281 136.241 60.0658 136.686L59.9834 136.855C59.7567 137.321 59.5415 137.761 59.3366 138.175L59.2152 138.418C59.0115 138.829 58.8159 139.218 58.6461 139.548C57.5348 141.708 55.9469 145.108 54.8057 147.594C54.3474 148.591 53.9603 149.442 53.7045 150.005C53.4945 150.472 53.3721 150.744 53.3721 150.744V150.744Z" fill="#E85058"/>
<path d="M66.6825 110.309C66.6825 110.309 70.8257 108.528 72.6692 110.357C74.5122 112.188 75.4881 113.602 75.0891 114.583C74.6912 115.563 73.3133 118.023 73.1424 119.227C72.9701 120.43 73.1687 122.38 72.8426 122.708C72.515 123.035 71.2913 122.18 71.106 122.268C70.9208 122.354 68.1081 124.355 67.4703 124.263C66.8313 124.169 64.3618 119.426 64.7571 117.804C65.1536 116.181 64.783 112.139 66.6826 110.309H66.6825Z" fill="#FBCDC2"/>
<path d="M70.4133 114.08C70.5934 114.262 70.7224 114.596 70.8515 114.755C71.0929 115.058 71.3655 115.34 71.6111 115.641C72.1041 116.246 72.6114 116.843 73.3488 117.155C74.4405 117.617 74.8972 116.543 75.8013 116.296C76.2395 116.175 76.6399 116.526 77.124 116.39C77.5859 116.259 78.0293 115.878 78.3333 115.52C79.0991 114.615 78.3018 113.773 77.766 113.004C77.1411 112.108 77.4827 111.624 77.6277 110.683C77.9874 108.359 74.8357 109.265 73.8953 108.22C73.4139 107.685 73.1568 106.841 72.3754 106.682C71.7009 106.545 71.0382 106.76 70.3845 106.897C69.7048 107.04 69.5417 106.597 68.9311 106.37C68.4837 106.205 67.8329 106.201 67.3529 106.266C66.2805 106.41 65.1142 107.035 64.5743 107.987C64.1135 108.795 64.3421 109.653 63.7367 110.401C63.2578 110.995 62.6029 111.677 62.4243 112.448C62.1658 113.566 62.9837 114.46 63.1365 115.509C63.2814 116.507 63.7873 117.582 64.7266 118.086C65.2798 117.614 66.0234 116.661 65.7846 115.976C65.6896 115.703 65.4729 115.481 65.3867 114.977C65.2302 114.057 66.5272 113.224 67.4257 114.262C67.9672 114.885 66.7749 116.811 67.6853 117.124C68.3769 117.361 68.5059 115.975 68.6183 115.563C68.767 115.018 69.5143 113.963 70.1589 113.959L70.4133 114.08V114.08Z" fill="#2C2A43"/>
<path d="M75.098 155.685C75.3628 155.663 75.6775 155.602 75.77 155.632C76.207 155.777 76.9373 155.567 77.2439 155.45C77.9407 155.188 79.0039 154.725 79.7191 154.852C80.1351 154.926 82.6293 155.507 82.0178 156.531C81.9353 156.668 81.6302 156.883 81.5415 156.849C81.2871 156.754 80.5682 156.491 80.5682 156.491L81.2324 156.775L81.5767 157.025C81.7138 157.238 81.5049 157.693 81.2885 157.768C81.0745 157.843 80.9087 157.627 80.7275 157.526L80.7405 157.535C80.9139 157.672 81.2885 157.768 81.0562 158.295C80.7967 158.881 80.6176 158.511 80.3673 158.448L80.0985 158.343L80.614 158.626C80.8473 158.835 80.3323 159.528 79.8689 159.469C79.5861 159.432 78.9127 159.024 78.7537 159.068C78.575 159.118 78.3609 159.116 78.1772 159.133C77.6096 159.187 77.0134 159.033 76.4927 158.797C76.2579 158.691 75.7949 158.509 75.5627 158.385C74.9847 158.074 74.3458 157.583 74.176 157.44C74.561 156.707 75.1767 156.521 75.0982 155.686L75.098 155.685Z" fill="#FBCDC2"/>
<path d="M75.196 158.693L77.604 155.076C77.604 155.076 71.1137 146.037 68.7681 141.412C66.4214 136.788 64.9615 128.445 62.4569 127.143C59.9508 125.841 56.8119 126.443 57.1603 130.625C57.5087 134.807 63.7053 142.199 64.7659 144.332C65.8265 146.465 73.9228 157.319 75.1961 158.693L75.196 158.693Z" fill="#F1666E"/>
<path d="M287.754 201.906V202.825H282.754V201.906H287.754ZM297.24 201.092H296.132C296.089 200.856 296.01 200.647 295.894 200.467C295.778 200.287 295.636 200.135 295.468 200.009C295.3 199.884 295.112 199.789 294.903 199.725C294.697 199.661 294.478 199.629 294.246 199.629C293.827 199.629 293.452 199.735 293.121 199.945C292.791 200.156 292.531 200.465 292.339 200.872C292.15 201.279 292.055 201.777 292.055 202.364C292.055 202.955 292.15 203.455 292.339 203.862C292.531 204.269 292.793 204.577 293.124 204.786C293.456 204.994 293.828 205.098 294.243 205.098C294.472 205.098 294.69 205.067 294.896 205.006C295.104 204.942 295.293 204.848 295.461 204.725C295.629 204.602 295.771 204.452 295.887 204.274C296.005 204.094 296.087 203.888 296.132 203.656L297.24 203.66C297.181 204.017 297.066 204.346 296.895 204.647C296.727 204.945 296.511 205.203 296.246 205.421C295.983 205.637 295.682 205.804 295.344 205.922C295.005 206.04 294.636 206.099 294.236 206.099C293.606 206.099 293.045 205.95 292.552 205.652C292.06 205.351 291.672 204.922 291.388 204.363C291.106 203.804 290.965 203.138 290.965 202.364C290.965 201.587 291.107 200.921 291.391 200.364C291.675 199.806 292.064 199.377 292.556 199.079C293.048 198.778 293.608 198.628 294.236 198.628C294.622 198.628 294.981 198.683 295.315 198.795C295.651 198.904 295.953 199.065 296.221 199.278C296.488 199.488 296.71 199.746 296.885 200.052C297.06 200.355 297.178 200.702 297.24 201.092ZM304.87 202.364C304.87 203.14 304.728 203.808 304.444 204.366C304.16 204.923 303.771 205.351 303.276 205.652C302.783 205.95 302.224 206.099 301.596 206.099C300.967 206.099 300.404 205.95 299.909 205.652C299.417 205.351 299.029 204.922 298.745 204.363C298.461 203.804 298.319 203.138 298.319 202.364C298.319 201.587 298.461 200.921 298.745 200.364C299.029 199.806 299.417 199.377 299.909 199.079C300.404 198.778 300.967 198.628 301.596 198.628C302.224 198.628 302.783 198.778 303.276 199.079C303.771 199.377 304.16 199.806 304.444 200.364C304.728 200.921 304.87 201.587 304.87 202.364ZM303.784 202.364C303.784 201.772 303.688 201.273 303.496 200.869C303.307 200.461 303.046 200.154 302.715 199.945C302.386 199.735 302.013 199.629 301.596 199.629C301.177 199.629 300.803 199.735 300.474 199.945C300.145 200.154 299.885 200.461 299.693 200.869C299.503 201.273 299.409 201.772 299.409 202.364C299.409 202.955 299.503 203.455 299.693 203.862C299.885 204.267 300.145 204.575 300.474 204.786C300.803 204.994 301.177 205.098 301.596 205.098C302.013 205.098 302.386 204.994 302.715 204.786C303.046 204.575 303.307 204.267 303.496 203.862C303.688 203.455 303.784 202.955 303.784 202.364ZM312.108 198.727V206H311.1L307.403 200.666H307.336V206H306.238V198.727H307.254L310.954 204.068H311.022V198.727H312.108ZM313.709 206V198.727H318.219V199.672H314.806V201.888H317.896V202.829H314.806V206H313.709ZM324.245 198.727H325.346V203.511C325.346 204.02 325.227 204.471 324.988 204.864C324.748 205.254 324.412 205.562 323.979 205.787C323.546 206.009 323.038 206.121 322.456 206.121C321.876 206.121 321.369 206.009 320.936 205.787C320.502 205.562 320.166 205.254 319.927 204.864C319.688 204.471 319.569 204.02 319.569 203.511V198.727H320.666V203.422C320.666 203.751 320.738 204.043 320.882 204.299C321.029 204.555 321.236 204.756 321.504 204.903C321.771 205.047 322.089 205.119 322.456 205.119C322.825 205.119 323.143 205.047 323.411 204.903C323.681 204.756 323.887 204.555 324.029 204.299C324.173 204.043 324.245 203.751 324.245 203.422V198.727ZM332.982 201.092H331.874C331.831 200.856 331.752 200.647 331.636 200.467C331.52 200.287 331.378 200.135 331.21 200.009C331.042 199.884 330.854 199.789 330.645 199.725C330.439 199.661 330.22 199.629 329.988 199.629C329.569 199.629 329.194 199.735 328.863 199.945C328.534 200.156 328.273 200.465 328.081 200.872C327.892 201.279 327.797 201.777 327.797 202.364C327.797 202.955 327.892 203.455 328.081 203.862C328.273 204.269 328.535 204.577 328.866 204.786C329.198 204.994 329.571 205.098 329.985 205.098C330.215 205.098 330.432 205.067 330.638 205.006C330.847 204.942 331.035 204.848 331.203 204.725C331.371 204.602 331.513 204.452 331.629 204.274C331.747 204.094 331.829 203.888 331.874 203.656L332.982 203.66C332.923 204.017 332.808 204.346 332.638 204.647C332.47 204.945 332.253 205.203 331.988 205.421C331.725 205.637 331.424 205.804 331.086 205.922C330.747 206.04 330.378 206.099 329.978 206.099C329.348 206.099 328.787 205.95 328.295 205.652C327.802 205.351 327.414 204.922 327.13 204.363C326.848 203.804 326.707 203.138 326.707 202.364C326.707 201.587 326.849 200.921 327.133 200.364C327.417 199.806 327.806 199.377 328.298 199.079C328.791 198.778 329.35 198.628 329.978 198.628C330.364 198.628 330.724 198.683 331.057 198.795C331.394 198.904 331.695 199.065 331.963 199.278C332.23 199.488 332.452 199.746 332.627 200.052C332.802 200.355 332.921 200.702 332.982 201.092ZM335.392 198.727V206H334.295V198.727H335.392ZM341.667 198.727H342.768V203.511C342.768 204.02 342.649 204.471 342.409 204.864C342.17 205.254 341.834 205.562 341.401 205.787C340.968 206.009 340.46 206.121 339.877 206.121C339.297 206.121 338.791 206.009 338.358 205.787C337.924 205.562 337.588 205.254 337.349 204.864C337.11 204.471 336.99 204.02 336.99 203.511V198.727H338.088V203.422C338.088 203.751 338.16 204.043 338.304 204.299C338.451 204.555 338.658 204.756 338.926 204.903C339.193 205.047 339.511 205.119 339.877 205.119C340.247 205.119 340.565 205.047 340.833 204.903C341.103 204.756 341.309 204.555 341.451 204.299C341.595 204.043 341.667 203.751 341.667 203.422V198.727ZM348.33 200.638C348.292 200.302 348.136 200.041 347.861 199.857C347.587 199.67 347.241 199.576 346.824 199.576C346.526 199.576 346.268 199.623 346.05 199.718C345.832 199.81 345.663 199.938 345.542 200.102C345.424 200.263 345.365 200.446 345.365 200.652C345.365 200.825 345.405 200.974 345.486 201.099C345.568 201.225 345.676 201.33 345.809 201.415C345.944 201.498 346.088 201.568 346.242 201.625C346.396 201.679 346.544 201.724 346.686 201.76L347.396 201.945C347.628 202.001 347.866 202.078 348.11 202.175C348.354 202.272 348.58 202.4 348.788 202.559C348.997 202.718 349.165 202.914 349.292 203.148C349.423 203.383 349.488 203.663 349.488 203.99C349.488 204.402 349.381 204.768 349.168 205.087C348.957 205.407 348.651 205.659 348.248 205.844C347.848 206.028 347.364 206.121 346.796 206.121C346.251 206.121 345.78 206.034 345.383 205.862C344.985 205.689 344.674 205.444 344.449 205.126C344.224 204.807 344.099 204.428 344.076 203.99H345.177C345.198 204.253 345.283 204.472 345.432 204.647C345.584 204.82 345.777 204.949 346.011 205.034C346.248 205.117 346.507 205.158 346.789 205.158C347.099 205.158 347.375 205.11 347.616 205.013C347.86 204.913 348.052 204.776 348.192 204.601C348.331 204.423 348.401 204.216 348.401 203.979C348.401 203.764 348.34 203.588 348.216 203.45C348.096 203.313 347.931 203.199 347.723 203.109C347.517 203.019 347.284 202.94 347.023 202.871L346.164 202.637C345.581 202.478 345.12 202.245 344.779 201.938C344.44 201.63 344.271 201.223 344.271 200.716C344.271 200.297 344.385 199.931 344.612 199.619C344.839 199.306 345.147 199.063 345.535 198.891C345.924 198.715 346.362 198.628 346.849 198.628C347.342 198.628 347.776 198.714 348.153 198.887C348.531 199.06 348.83 199.298 349.047 199.601C349.265 199.902 349.379 200.247 349.388 200.638H348.33Z" fill="white"/>
<path d="M200.314 145L204.058 136.6H205.978L209.734 145H207.694L204.622 137.584H205.39L202.306 145H200.314ZM202.186 143.2L202.702 141.724H207.022L207.55 143.2H202.186ZM214.004 145V136.6H215.612L219.188 142.528H218.336L221.852 136.6H223.448L223.472 145H221.648L221.636 139.396H221.972L219.164 144.112H218.288L215.42 139.396H215.828V145H214.004ZM224.361 145L228.105 136.6H230.025L233.781 145H231.741L228.669 137.584H229.437L226.353 145H224.361ZM226.233 143.2L226.749 141.724H231.069L231.597 143.2H226.233ZM234.652 145V136.6H236.26L241.216 142.648H240.436V136.6H242.356V145H240.76L235.792 138.952H236.572V145H234.652ZM249.758 145L247.01 136.6H249.026L251.414 144.04H250.406L252.902 136.6H254.702L257.102 144.04H256.13L258.578 136.6H260.438L257.69 145H255.602L253.478 138.472H254.03L251.846 145H249.758ZM267.283 136.6H269.227V145H267.283V136.6ZM263.467 145H261.523V136.6H263.467V145ZM267.427 141.556H263.323V139.912H267.427V141.556ZM275.295 145.144C274.631 145.144 274.015 145.036 273.447 144.82C272.887 144.604 272.399 144.3 271.983 143.908C271.575 143.516 271.255 143.056 271.023 142.528C270.799 142 270.687 141.424 270.687 140.8C270.687 140.176 270.799 139.6 271.023 139.072C271.255 138.544 271.579 138.084 271.995 137.692C272.411 137.3 272.899 136.996 273.459 136.78C274.019 136.564 274.627 136.456 275.283 136.456C275.947 136.456 276.555 136.564 277.107 136.78C277.667 136.996 278.151 137.3 278.559 137.692C278.975 138.084 279.299 138.544 279.531 139.072C279.763 139.592 279.879 140.168 279.879 140.8C279.879 141.424 279.763 142.004 279.531 142.54C279.299 143.068 278.975 143.528 278.559 143.92C278.151 144.304 277.667 144.604 277.107 144.82C276.555 145.036 275.951 145.144 275.295 145.144ZM275.283 143.488C275.659 143.488 276.003 143.424 276.315 143.296C276.635 143.168 276.915 142.984 277.155 142.744C277.395 142.504 277.579 142.22 277.707 141.892C277.843 141.564 277.911 141.2 277.911 140.8C277.911 140.4 277.843 140.036 277.707 139.708C277.579 139.38 277.395 139.096 277.155 138.856C276.923 138.616 276.647 138.432 276.327 138.304C276.007 138.176 275.659 138.112 275.283 138.112C274.907 138.112 274.559 138.176 274.239 138.304C273.927 138.432 273.651 138.616 273.411 138.856C273.171 139.096 272.983 139.38 272.847 139.708C272.719 140.036 272.655 140.4 272.655 140.8C272.655 141.192 272.719 141.556 272.847 141.892C272.983 142.22 273.167 142.504 273.399 142.744C273.639 142.984 273.919 143.168 274.239 143.296C274.559 143.424 274.907 143.488 275.283 143.488ZM284.738 145V136.6H288.554C289.466 136.6 290.27 136.776 290.966 137.128C291.662 137.472 292.206 137.956 292.598 138.58C292.99 139.204 293.186 139.944 293.186 140.8C293.186 141.648 292.99 142.388 292.598 143.02C292.206 143.644 291.662 144.132 290.966 144.484C290.27 144.828 289.466 145 288.554 145H284.738ZM286.682 143.404H288.458C289.018 143.404 289.502 143.3 289.91 143.092C290.326 142.876 290.646 142.572 290.87 142.18C291.102 141.788 291.218 141.328 291.218 140.8C291.218 140.264 291.102 139.804 290.87 139.42C290.646 139.028 290.326 138.728 289.91 138.52C289.502 138.304 289.018 138.196 288.458 138.196H286.682V143.404ZM298.732 145.144C298.068 145.144 297.452 145.036 296.884 144.82C296.324 144.604 295.836 144.3 295.42 143.908C295.012 143.516 294.692 143.056 294.46 142.528C294.236 142 294.124 141.424 294.124 140.8C294.124 140.176 294.236 139.6 294.46 139.072C294.692 138.544 295.016 138.084 295.432 137.692C295.848 137.3 296.336 136.996 296.896 136.78C297.456 136.564 298.064 136.456 298.72 136.456C299.384 136.456 299.992 136.564 300.544 136.78C301.104 136.996 301.588 137.3 301.996 137.692C302.412 138.084 302.736 138.544 302.968 139.072C303.2 139.592 303.316 140.168 303.316 140.8C303.316 141.424 303.2 142.004 302.968 142.54C302.736 143.068 302.412 143.528 301.996 143.92C301.588 144.304 301.104 144.604 300.544 144.82C299.992 145.036 299.388 145.144 298.732 145.144ZM298.72 143.488C299.096 143.488 299.44 143.424 299.752 143.296C300.072 143.168 300.352 142.984 300.592 142.744C300.832 142.504 301.016 142.22 301.144 141.892C301.28 141.564 301.348 141.2 301.348 140.8C301.348 140.4 301.28 140.036 301.144 139.708C301.016 139.38 300.832 139.096 300.592 138.856C300.36 138.616 300.084 138.432 299.764 138.304C299.444 138.176 299.096 138.112 298.72 138.112C298.344 138.112 297.996 138.176 297.676 138.304C297.364 138.432 297.088 138.616 296.848 138.856C296.608 139.096 296.42 139.38 296.284 139.708C296.156 140.036 296.092 140.4 296.092 140.8C296.092 141.192 296.156 141.556 296.284 141.892C296.42 142.22 296.604 142.504 296.836 142.744C297.076 142.984 297.356 143.168 297.676 143.296C297.996 143.424 298.344 143.488 298.72 143.488ZM306.565 139.984H310.609V141.496H306.565V139.984ZM306.709 143.44H311.281V145H304.777V136.6H311.125V138.16H306.709V143.44ZM315.588 145.144C314.916 145.144 314.272 145.056 313.656 144.88C313.04 144.696 312.544 144.46 312.168 144.172L312.828 142.708C313.188 142.964 313.612 143.176 314.1 143.344C314.596 143.504 315.096 143.584 315.6 143.584C315.984 143.584 316.292 143.548 316.524 143.476C316.764 143.396 316.94 143.288 317.052 143.152C317.164 143.016 317.22 142.86 317.22 142.684C317.22 142.46 317.132 142.284 316.956 142.156C316.78 142.02 316.548 141.912 316.26 141.832C315.972 141.744 315.652 141.664 315.3 141.592C314.956 141.512 314.608 141.416 314.256 141.304C313.912 141.192 313.596 141.048 313.308 140.872C313.02 140.696 312.784 140.464 312.6 140.176C312.424 139.888 312.336 139.52 312.336 139.072C312.336 138.592 312.464 138.156 312.72 137.764C312.984 137.364 313.376 137.048 313.896 136.816C314.424 136.576 315.084 136.456 315.876 136.456C316.404 136.456 316.924 136.52 317.436 136.648C317.948 136.768 318.4 136.952 318.792 137.2L318.192 138.676C317.8 138.452 317.408 138.288 317.016 138.184C316.624 138.072 316.24 138.016 315.864 138.016C315.488 138.016 315.18 138.06 314.94 138.148C314.7 138.236 314.528 138.352 314.424 138.496C314.32 138.632 314.268 138.792 314.268 138.976C314.268 139.192 314.356 139.368 314.532 139.504C314.708 139.632 314.94 139.736 315.228 139.816C315.516 139.896 315.832 139.976 316.176 140.056C316.528 140.136 316.876 140.228 317.22 140.332C317.572 140.436 317.892 140.576 318.18 140.752C318.468 140.928 318.7 141.16 318.876 141.448C319.06 141.736 319.152 142.1 319.152 142.54C319.152 143.012 319.02 143.444 318.756 143.836C318.492 144.228 318.096 144.544 317.568 144.784C317.048 145.024 316.388 145.144 315.588 145.144ZM323.879 145V136.6H325.487L330.443 142.648H329.663V136.6H331.583V145H329.987L325.019 138.952H325.799V145H323.879ZM337.65 145.144C336.986 145.144 336.37 145.036 335.802 144.82C335.242 144.604 334.754 144.3 334.338 143.908C333.93 143.516 333.61 143.056 333.378 142.528C333.154 142 333.042 141.424 333.042 140.8C333.042 140.176 333.154 139.6 333.378 139.072C333.61 138.544 333.934 138.084 334.35 137.692C334.766 137.3 335.254 136.996 335.814 136.78C336.374 136.564 336.982 136.456 337.638 136.456C338.302 136.456 338.91 136.564 339.462 136.78C340.022 136.996 340.506 137.3 340.914 137.692C341.33 138.084 341.654 138.544 341.886 139.072C342.118 139.592 342.234 140.168 342.234 140.8C342.234 141.424 342.118 142.004 341.886 142.54C341.654 143.068 341.33 143.528 340.914 143.92C340.506 144.304 340.022 144.604 339.462 144.82C338.91 145.036 338.306 145.144 337.65 145.144ZM337.638 143.488C338.014 143.488 338.358 143.424 338.67 143.296C338.99 143.168 339.27 142.984 339.51 142.744C339.75 142.504 339.934 142.22 340.062 141.892C340.198 141.564 340.266 141.2 340.266 140.8C340.266 140.4 340.198 140.036 340.062 139.708C339.934 139.38 339.75 139.096 339.51 138.856C339.278 138.616 339.002 138.432 338.682 138.304C338.362 138.176 338.014 138.112 337.638 138.112C337.262 138.112 336.914 138.176 336.594 138.304C336.282 138.432 336.006 138.616 335.766 138.856C335.526 139.096 335.338 139.38 335.202 139.708C335.074 140.036 335.01 140.4 335.01 140.8C335.01 141.192 335.074 141.556 335.202 141.892C335.338 142.22 335.522 142.504 335.754 142.744C335.994 142.984 336.274 143.168 336.594 143.296C336.914 143.424 337.262 143.488 337.638 143.488ZM345.318 145V138.184H342.63V136.6H349.95V138.184H347.262V145H345.318ZM191.551 160V151.6H195.187C195.939 151.6 196.587 151.724 197.131 151.972C197.675 152.212 198.095 152.56 198.391 153.016C198.687 153.472 198.835 154.016 198.835 154.648C198.835 155.272 198.687 155.812 198.391 156.268C198.095 156.724 197.675 157.076 197.131 157.324C196.587 157.564 195.939 157.684 195.187 157.684H192.631L193.495 156.808V160H191.551ZM193.495 157.024L192.631 156.1H195.079C195.679 156.1 196.127 155.972 196.423 155.716C196.719 155.46 196.867 155.104 196.867 154.648C196.867 154.184 196.719 153.824 196.423 153.568C196.127 153.312 195.679 153.184 195.079 153.184H192.631L193.495 152.26V157.024ZM200.223 160V151.6H202.167V158.416H206.379V160H200.223ZM206.408 160L210.152 151.6H212.072L215.828 160H213.788L210.716 152.584H211.484L208.4 160H206.408ZM208.28 158.2L208.796 156.724H213.116L213.644 158.2H208.28ZM216.699 160V151.6H218.307L223.263 157.648H222.483V151.6H224.403V160H222.807L217.839 153.952H218.619V160H216.699ZM229.789 160V151.6H231.733V158.416H235.945V160H229.789ZM240.971 160.144C240.307 160.144 239.691 160.036 239.123 159.82C238.563 159.604 238.075 159.3 237.659 158.908C237.251 158.516 236.931 158.056 236.699 157.528C236.475 157 236.363 156.424 236.363 155.8C236.363 155.176 236.475 154.6 236.699 154.072C236.931 153.544 237.255 153.084 237.671 152.692C238.087 152.3 238.575 151.996 239.135 151.78C239.695 151.564 240.303 151.456 240.959 151.456C241.623 151.456 242.231 151.564 242.783 151.78C243.343 151.996 243.827 152.3 244.235 152.692C244.651 153.084 244.975 153.544 245.207 154.072C245.439 154.592 245.555 155.168 245.555 155.8C245.555 156.424 245.439 157.004 245.207 157.54C244.975 158.068 244.651 158.528 244.235 158.92C243.827 159.304 243.343 159.604 242.783 159.82C242.231 160.036 241.627 160.144 240.971 160.144ZM240.959 158.488C241.335 158.488 241.679 158.424 241.991 158.296C242.311 158.168 242.591 157.984 242.831 157.744C243.071 157.504 243.255 157.22 243.383 156.892C243.519 156.564 243.587 156.2 243.587 155.8C243.587 155.4 243.519 155.036 243.383 154.708C243.255 154.38 243.071 154.096 242.831 153.856C242.599 153.616 242.323 153.432 242.003 153.304C241.683 153.176 241.335 153.112 240.959 153.112C240.583 153.112 240.235 153.176 239.915 153.304C239.603 153.432 239.327 153.616 239.087 153.856C238.847 154.096 238.659 154.38 238.523 154.708C238.395 155.036 238.331 155.4 238.331 155.8C238.331 156.192 238.395 156.556 238.523 156.892C238.659 157.22 238.843 157.504 239.075 157.744C239.315 157.984 239.595 158.168 239.915 158.296C240.235 158.424 240.583 158.488 240.959 158.488ZM247.016 160V151.6H248.624L253.58 157.648H252.8V151.6H254.72V160H253.124L248.156 153.952H248.936V160H247.016ZM260.763 160.144C260.099 160.144 259.487 160.04 258.927 159.832C258.375 159.616 257.891 159.312 257.475 158.92C257.067 158.528 256.747 158.068 256.515 157.54C256.291 157.012 256.179 156.432 256.179 155.8C256.179 155.168 256.291 154.588 256.515 154.06C256.747 153.532 257.071 153.072 257.487 152.68C257.903 152.288 258.391 151.988 258.951 151.78C259.511 151.564 260.127 151.456 260.799 151.456C261.543 151.456 262.211 151.58 262.803 151.828C263.403 152.076 263.907 152.436 264.315 152.908L263.067 154.06C262.763 153.74 262.431 153.504 262.071 153.352C261.711 153.192 261.319 153.112 260.895 153.112C260.487 153.112 260.115 153.176 259.779 153.304C259.443 153.432 259.151 153.616 258.903 153.856C258.663 154.096 258.475 154.38 258.339 154.708C258.211 155.036 258.147 155.4 258.147 155.8C258.147 156.192 258.211 156.552 258.339 156.88C258.475 157.208 258.663 157.496 258.903 157.744C259.151 157.984 259.439 158.168 259.767 158.296C260.103 158.424 260.471 158.488 260.871 158.488C261.255 158.488 261.627 158.428 261.987 158.308C262.355 158.18 262.711 157.968 263.055 157.672L264.159 159.076C263.703 159.42 263.171 159.684 262.563 159.868C261.963 160.052 261.363 160.144 260.763 160.144ZM262.383 158.824V155.668H264.159V159.076L262.383 158.824ZM268.259 160L272.003 151.6H273.923L277.679 160H275.639L272.567 152.584H273.335L270.251 160H268.259ZM270.131 158.2L270.647 156.724H274.967L275.495 158.2H270.131ZM284.311 151.6H286.255V160H284.311V151.6ZM280.495 160H278.551V151.6H280.495V160ZM284.455 156.556H280.351V154.912H284.455V156.556ZM290.03 154.984H294.074V156.496H290.03V154.984ZM290.174 158.44H294.746V160H288.242V151.6H294.59V153.16H290.174V158.44ZM295.189 160L298.933 151.6H300.853L304.609 160H302.569L299.497 152.584H300.265L297.181 160H295.189ZM297.061 158.2L297.577 156.724H301.897L302.425 158.2H297.061ZM305.48 160V151.6H309.296C310.208 151.6 311.012 151.776 311.708 152.128C312.404 152.472 312.948 152.956 313.34 153.58C313.732 154.204 313.928 154.944 313.928 155.8C313.928 156.648 313.732 157.388 313.34 158.02C312.948 158.644 312.404 159.132 311.708 159.484C311.012 159.828 310.208 160 309.296 160H305.48ZM307.424 158.404H309.2C309.76 158.404 310.244 158.3 310.652 158.092C311.068 157.876 311.388 157.572 311.612 157.18C311.844 156.788 311.96 156.328 311.96 155.8C311.96 155.264 311.844 154.804 311.612 154.42C311.388 154.028 311.068 153.728 310.652 153.52C310.244 153.304 309.76 153.196 309.2 153.196H307.424V158.404ZM320.809 160L318.061 151.6H320.077L322.465 159.04H321.457L323.953 151.6H325.753L328.153 159.04H327.181L329.629 151.6H331.489L328.741 160H326.653L324.529 153.472H325.081L322.897 160H320.809ZM332.574 160V151.6H334.518V160H332.574ZM336.512 160V151.6H338.456V158.416H342.668V160H336.512ZM343.754 160V151.6H345.698V158.416H349.91V160H343.754ZM195.788 170.38H199.82V171.94H195.788V170.38ZM195.932 175H193.988V166.6H200.336V168.16H195.932V175ZM201.652 175V166.6H203.596V175H201.652ZM205.59 175V166.6H207.198L212.154 172.648H211.374V166.6H213.294V175H211.698L206.73 168.952H207.51V175H205.59ZM215.281 175V166.6H219.097C220.009 166.6 220.813 166.776 221.509 167.128C222.205 167.472 222.749 167.956 223.141 168.58C223.533 169.204 223.729 169.944 223.729 170.8C223.729 171.648 223.533 172.388 223.141 173.02C222.749 173.644 222.205 174.132 221.509 174.484C220.813 174.828 220.009 175 219.097 175H215.281ZM217.225 173.404H219.001C219.561 173.404 220.045 173.3 220.453 173.092C220.869 172.876 221.189 172.572 221.413 172.18C221.645 171.788 221.761 171.328 221.761 170.8C221.761 170.264 221.645 169.804 221.413 169.42C221.189 169.028 220.869 168.728 220.453 168.52C220.045 168.304 219.561 168.196 219.001 168.196H217.225V173.404ZM230.334 175V168.184H227.646V166.6H234.966V168.184H232.278V175H230.334ZM236.012 175V166.6H239.648C240.4 166.6 241.048 166.724 241.592 166.972C242.136 167.212 242.556 167.56 242.852 168.016C243.148 168.472 243.296 169.016 243.296 169.648C243.296 170.272 243.148 170.812 242.852 171.268C242.556 171.716 242.136 172.06 241.592 172.3C241.048 172.54 240.4 172.66 239.648 172.66H237.092L237.956 171.808V175H236.012ZM241.352 175L239.252 171.952H241.328L243.452 175H241.352ZM237.956 172.024L237.092 171.112H239.54C240.14 171.112 240.588 170.984 240.884 170.728C241.18 170.464 241.328 170.104 241.328 169.648C241.328 169.184 241.18 168.824 240.884 168.568C240.588 168.312 240.14 168.184 239.54 168.184H237.092L237.956 167.26V172.024ZM248.916 175.144C248.252 175.144 247.636 175.036 247.068 174.82C246.508 174.604 246.02 174.3 245.604 173.908C245.196 173.516 244.876 173.056 244.644 172.528C244.42 172 244.308 171.424 244.308 170.8C244.308 170.176 244.42 169.6 244.644 169.072C244.876 168.544 245.2 168.084 245.616 167.692C246.032 167.3 246.52 166.996 247.08 166.78C247.64 166.564 248.248 166.456 248.904 166.456C249.568 166.456 250.176 166.564 250.728 166.78C251.288 166.996 251.772 167.3 252.18 167.692C252.596 168.084 252.92 168.544 253.152 169.072C253.384 169.592 253.5 170.168 253.5 170.8C253.5 171.424 253.384 172.004 253.152 172.54C252.92 173.068 252.596 173.528 252.18 173.92C251.772 174.304 251.288 174.604 250.728 174.82C250.176 175.036 249.572 175.144 248.916 175.144ZM248.904 173.488C249.28 173.488 249.624 173.424 249.936 173.296C250.256 173.168 250.536 172.984 250.776 172.744C251.016 172.504 251.2 172.22 251.328 171.892C251.464 171.564 251.532 171.2 251.532 170.8C251.532 170.4 251.464 170.036 251.328 169.708C251.2 169.38 251.016 169.096 250.776 168.856C250.544 168.616 250.268 168.432 249.948 168.304C249.628 168.176 249.28 168.112 248.904 168.112C248.528 168.112 248.18 168.176 247.86 168.304C247.548 168.432 247.272 168.616 247.032 168.856C246.792 169.096 246.604 169.38 246.468 169.708C246.34 170.036 246.276 170.4 246.276 170.8C246.276 171.192 246.34 171.556 246.468 171.892C246.604 172.22 246.788 172.504 247.02 172.744C247.26 172.984 247.54 173.168 247.86 173.296C248.18 173.424 248.528 173.488 248.904 173.488ZM258.693 175.144C257.501 175.144 256.569 174.812 255.897 174.148C255.225 173.484 254.889 172.536 254.889 171.304V166.6H256.833V171.232C256.833 172.032 256.997 172.608 257.325 172.96C257.653 173.312 258.113 173.488 258.705 173.488C259.297 173.488 259.757 173.312 260.085 172.96C260.413 172.608 260.577 172.032 260.577 171.232V166.6H262.497V171.304C262.497 172.536 262.161 173.484 261.489 174.148C260.817 174.812 259.885 175.144 258.693 175.144ZM264.418 175V166.6H268.522C269.578 166.6 270.37 166.8 270.898 167.2C271.434 167.6 271.702 168.128 271.702 168.784C271.702 169.224 271.594 169.608 271.378 169.936C271.162 170.256 270.866 170.504 270.49 170.68C270.114 170.856 269.682 170.944 269.194 170.944L269.422 170.452C269.95 170.452 270.418 170.54 270.826 170.716C271.234 170.884 271.55 171.136 271.774 171.472C272.006 171.808 272.122 172.22 272.122 172.708C272.122 173.428 271.838 173.992 271.27 174.4C270.702 174.8 269.866 175 268.762 175H264.418ZM266.35 173.536H268.618C269.122 173.536 269.502 173.456 269.758 173.296C270.022 173.128 270.154 172.864 270.154 172.504C270.154 172.152 270.022 171.892 269.758 171.724C269.502 171.548 269.122 171.46 268.618 171.46H266.206V170.044H268.282C268.754 170.044 269.114 169.964 269.362 169.804C269.618 169.636 269.746 169.384 269.746 169.048C269.746 168.72 269.618 168.476 269.362 168.316C269.114 168.148 268.754 168.064 268.282 168.064H266.35V173.536ZM273.594 175V166.6H275.538V173.416H279.75V175H273.594ZM282.624 169.984H286.668V171.496H282.624V169.984ZM282.768 173.44H287.34V175H280.836V166.6H287.184V168.16H282.768V173.44ZM292.285 175V166.6H295.921C296.673 166.6 297.321 166.724 297.865 166.972C298.409 167.212 298.829 167.56 299.125 168.016C299.421 168.472 299.569 169.016 299.569 169.648C299.569 170.272 299.421 170.812 299.125 171.268C298.829 171.716 298.409 172.06 297.865 172.3C297.321 172.54 296.673 172.66 295.921 172.66H293.365L294.229 171.808V175H292.285ZM297.625 175L295.525 171.952H297.601L299.725 175H297.625ZM294.229 172.024L293.365 171.112H295.813C296.413 171.112 296.861 170.984 297.157 170.728C297.453 170.464 297.601 170.104 297.601 169.648C297.601 169.184 297.453 168.824 297.157 168.568C296.861 168.312 296.413 168.184 295.813 168.184H293.365L294.229 167.26V172.024ZM301.109 175V166.6H303.053V175H301.109ZM309.103 175.144C308.439 175.144 307.827 175.04 307.267 174.832C306.715 174.616 306.231 174.312 305.815 173.92C305.407 173.528 305.087 173.068 304.855 172.54C304.631 172.012 304.519 171.432 304.519 170.8C304.519 170.168 304.631 169.588 304.855 169.06C305.087 168.532 305.411 168.072 305.827 167.68C306.243 167.288 306.731 166.988 307.291 166.78C307.851 166.564 308.467 166.456 309.139 166.456C309.883 166.456 310.551 166.58 311.143 166.828C311.743 167.076 312.247 167.436 312.655 167.908L311.407 169.06C311.103 168.74 310.771 168.504 310.411 168.352C310.051 168.192 309.659 168.112 309.235 168.112C308.827 168.112 308.455 168.176 308.119 168.304C307.783 168.432 307.491 168.616 307.243 168.856C307.003 169.096 306.815 169.38 306.679 169.708C306.551 170.036 306.487 170.4 306.487 170.8C306.487 171.192 306.551 171.552 306.679 171.88C306.815 172.208 307.003 172.496 307.243 172.744C307.491 172.984 307.779 173.168 308.107 173.296C308.443 173.424 308.811 173.488 309.211 173.488C309.595 173.488 309.967 173.428 310.327 173.308C310.695 173.18 311.051 172.968 311.395 172.672L312.499 174.076C312.043 174.42 311.511 174.684 310.903 174.868C310.303 175.052 309.703 175.144 309.103 175.144ZM310.723 173.824V170.668H312.499V174.076L310.723 173.824ZM320.065 166.6H322.009V175H320.065V166.6ZM316.249 175H314.305V166.6H316.249V175ZM320.209 171.556H316.105V169.912H320.209V171.556ZM325.736 175V168.184H323.048V166.6H330.368V168.184H327.68V175H325.736ZM333.708 175L337.452 166.6H339.372L343.128 175H341.088L338.016 167.584H338.784L335.7 175H333.708ZM335.58 173.2L336.096 171.724H340.416L340.944 173.2H335.58ZM345.318 175V168.184H342.63V166.6H349.95V168.184H347.262V175H345.318ZM289.947 181.6H291.891V190H289.947V181.6ZM286.131 190H284.187V181.6H286.131V190ZM290.091 186.556H285.987V184.912H290.091V186.556ZM293.879 190V181.6H295.823V190H293.879ZM300.576 190.144C299.904 190.144 299.26 190.056 298.644 189.88C298.028 189.696 297.532 189.46 297.156 189.172L297.816 187.708C298.176 187.964 298.6 188.176 299.088 188.344C299.584 188.504 300.084 188.584 300.588 188.584C300.972 188.584 301.28 188.548 301.512 188.476C301.752 188.396 301.928 188.288 302.04 188.152C302.152 188.016 302.208 187.86 302.208 187.684C302.208 187.46 302.12 187.284 301.944 187.156C301.768 187.02 301.536 186.912 301.248 186.832C300.96 186.744 300.64 186.664 300.288 186.592C299.944 186.512 299.596 186.416 299.244 186.304C298.9 186.192 298.584 186.048 298.296 185.872C298.008 185.696 297.772 185.464 297.588 185.176C297.412 184.888 297.324 184.52 297.324 184.072C297.324 183.592 297.452 183.156 297.708 182.764C297.972 182.364 298.364 182.048 298.884 181.816C299.412 181.576 300.072 181.456 300.864 181.456C301.392 181.456 301.912 181.52 302.424 181.648C302.936 181.768 303.388 181.952 303.78 182.2L303.18 183.676C302.788 183.452 302.396 183.288 302.004 183.184C301.612 183.072 301.228 183.016 300.852 183.016C300.476 183.016 300.168 183.06 299.928 183.148C299.688 183.236 299.516 183.352 299.412 183.496C299.308 183.632 299.256 183.792 299.256 183.976C299.256 184.192 299.344 184.368 299.52 184.504C299.696 184.632 299.928 184.736 300.216 184.816C300.504 184.896 300.82 184.976 301.164 185.056C301.516 185.136 301.864 185.228 302.208 185.332C302.56 185.436 302.88 185.576 303.168 185.752C303.456 185.928 303.688 186.16 303.864 186.448C304.048 186.736 304.14 187.1 304.14 187.54C304.14 188.012 304.008 188.444 303.744 188.836C303.48 189.228 303.084 189.544 302.556 189.784C302.036 190.024 301.376 190.144 300.576 190.144ZM308.867 190V181.6H312.683C313.595 181.6 314.399 181.776 315.095 182.128C315.791 182.472 316.335 182.956 316.727 183.58C317.119 184.204 317.315 184.944 317.315 185.8C317.315 186.648 317.119 187.388 316.727 188.02C316.335 188.644 315.791 189.132 315.095 189.484C314.399 189.828 313.595 190 312.683 190H308.867ZM310.811 188.404H312.587C313.147 188.404 313.631 188.3 314.039 188.092C314.455 187.876 314.775 187.572 314.999 187.18C315.231 186.788 315.347 186.328 315.347 185.8C315.347 185.264 315.231 184.804 314.999 184.42C314.775 184.028 314.455 183.728 314.039 183.52C313.631 183.304 313.147 183.196 312.587 183.196H310.811V188.404ZM322.861 190.144C322.197 190.144 321.581 190.036 321.013 189.82C320.453 189.604 319.965 189.3 319.549 188.908C319.141 188.516 318.821 188.056 318.589 187.528C318.365 187 318.253 186.424 318.253 185.8C318.253 185.176 318.365 184.6 318.589 184.072C318.821 183.544 319.145 183.084 319.561 182.692C319.977 182.3 320.465 181.996 321.025 181.78C321.585 181.564 322.193 181.456 322.849 181.456C323.513 181.456 324.121 181.564 324.673 181.78C325.233 181.996 325.717 182.3 326.125 182.692C326.541 183.084 326.865 183.544 327.097 184.072C327.329 184.592 327.445 185.168 327.445 185.8C327.445 186.424 327.329 187.004 327.097 187.54C326.865 188.068 326.541 188.528 326.125 188.92C325.717 189.304 325.233 189.604 324.673 189.82C324.121 190.036 323.517 190.144 322.861 190.144ZM322.849 188.488C323.225 188.488 323.569 188.424 323.881 188.296C324.201 188.168 324.481 187.984 324.721 187.744C324.961 187.504 325.145 187.22 325.273 186.892C325.409 186.564 325.477 186.2 325.477 185.8C325.477 185.4 325.409 185.036 325.273 184.708C325.145 184.38 324.961 184.096 324.721 183.856C324.489 183.616 324.213 183.432 323.893 183.304C323.573 183.176 323.225 183.112 322.849 183.112C322.473 183.112 322.125 183.176 321.805 183.304C321.493 183.432 321.217 183.616 320.977 183.856C320.737 184.096 320.549 184.38 320.413 184.708C320.285 185.036 320.221 185.4 320.221 185.8C320.221 186.192 320.285 186.556 320.413 186.892C320.549 187.22 320.733 187.504 320.965 187.744C321.205 187.984 321.485 188.168 321.805 188.296C322.125 188.424 322.473 188.488 322.849 188.488ZM332.986 190.144C332.322 190.144 331.706 190.036 331.138 189.82C330.578 189.604 330.09 189.3 329.674 188.908C329.266 188.516 328.946 188.056 328.714 187.528C328.49 187 328.378 186.424 328.378 185.8C328.378 185.176 328.49 184.6 328.714 184.072C328.946 183.544 329.27 183.084 329.686 182.692C330.102 182.3 330.59 181.996 331.15 181.78C331.71 181.564 332.318 181.456 332.974 181.456C333.638 181.456 334.246 181.564 334.798 181.78C335.358 181.996 335.842 182.3 336.25 182.692C336.666 183.084 336.99 183.544 337.222 184.072C337.454 184.592 337.57 185.168 337.57 185.8C337.57 186.424 337.454 187.004 337.222 187.54C336.99 188.068 336.666 188.528 336.25 188.92C335.842 189.304 335.358 189.604 334.798 189.82C334.246 190.036 333.642 190.144 332.986 190.144ZM332.974 188.488C333.35 188.488 333.694 188.424 334.006 188.296C334.326 188.168 334.606 187.984 334.846 187.744C335.086 187.504 335.27 187.22 335.398 186.892C335.534 186.564 335.602 186.2 335.602 185.8C335.602 185.4 335.534 185.036 335.398 184.708C335.27 184.38 335.086 184.096 334.846 183.856C334.614 183.616 334.338 183.432 334.018 183.304C333.698 183.176 333.35 183.112 332.974 183.112C332.598 183.112 332.25 183.176 331.93 183.304C331.618 183.432 331.342 183.616 331.102 183.856C330.862 184.096 330.674 184.38 330.538 184.708C330.41 185.036 330.346 185.4 330.346 185.8C330.346 186.192 330.41 186.556 330.538 186.892C330.674 187.22 330.858 187.504 331.09 187.744C331.33 187.984 331.61 188.168 331.93 188.296C332.25 188.424 332.598 188.488 332.974 188.488ZM339.031 190V181.6H342.667C343.419 181.6 344.067 181.724 344.611 181.972C345.155 182.212 345.575 182.56 345.871 183.016C346.167 183.472 346.315 184.016 346.315 184.648C346.315 185.272 346.167 185.812 345.871 186.268C345.575 186.716 345.155 187.06 344.611 187.3C344.067 187.54 343.419 187.66 342.667 187.66H340.111L340.975 186.808V190H339.031ZM344.371 190L342.271 186.952H344.347L346.471 190H344.371ZM340.975 187.024L340.111 186.112H342.559C343.159 186.112 343.607 185.984 343.903 185.728C344.199 185.464 344.347 185.104 344.347 184.648C344.347 184.184 344.199 183.824 343.903 183.568C343.607 183.312 343.159 183.184 342.559 183.184H340.111L340.975 182.26V187.024ZM348.431 190.096C348.111 190.096 347.835 189.988 347.603 189.772C347.379 189.548 347.267 189.264 347.267 188.92C347.267 188.576 347.379 188.3 347.603 188.092C347.835 187.876 348.111 187.768 348.431 187.768C348.759 187.768 349.035 187.876 349.259 188.092C349.483 188.3 349.595 188.576 349.595 188.92C349.595 189.264 349.483 189.548 349.259 189.772C349.035 189.988 348.759 190.096 348.431 190.096Z" fill="white"/>
<circle cx="194" cy="236.713" r="3.71287" fill="white"/>
<circle cx="206.129" cy="236.465" r="2.9703" fill="#FFB798"/>
<circle cx="216.772" cy="236.218" r="2.22772" fill="#FF9F6A"/>
<circle cx="181.871" cy="236.465" r="2.9703" fill="#FFB798"/>
<circle cx="171.228" cy="236.218" r="2.22772" fill="#FF9F6A"/>
</svg>
